G04 #@! TF.FileFunction,Copper,L2,Bot,Signal*
%FSLAX46Y46*%
G04 Gerber Fmt 4.6, Leading zero omitted, Abs format (unit mm)*
G04 Created by KiCad (PCBNEW 4.0.6) date 08/14/17 09:10:16*
%MOMM*%
%LPD*%
G01*
G04 APERTURE LIST*
%ADD10C,0.100000*%
%ADD11C,0.190500*%
%ADD12C,0.635000*%
%ADD13R,1.700000X1.700000*%
%ADD14O,1.700000X1.700000*%
%ADD15C,1.524000*%
%ADD16R,1.700000X1.200000*%
%ADD17O,1.700000X1.200000*%
%ADD18C,4.572000*%
%ADD19C,4.064000*%
%ADD20C,0.381000*%
%ADD21C,0.254000*%
G04 APERTURE END LIST*
D10*
D11*
X151238857Y-151343179D02*
X151238857Y-152867179D01*
X151238857Y-151415750D02*
X151093714Y-151343179D01*
X150803428Y-151343179D01*
X150658285Y-151415750D01*
X150585714Y-151488321D01*
X150513143Y-151633464D01*
X150513143Y-152068893D01*
X150585714Y-152214036D01*
X150658285Y-152286607D01*
X150803428Y-152359179D01*
X151093714Y-152359179D01*
X151238857Y-152286607D01*
X149932571Y-152286607D02*
X149787428Y-152359179D01*
X149497143Y-152359179D01*
X149352000Y-152286607D01*
X149279428Y-152141464D01*
X149279428Y-152068893D01*
X149352000Y-151923750D01*
X149497143Y-151851179D01*
X149714857Y-151851179D01*
X149860000Y-151778607D01*
X149932571Y-151633464D01*
X149932571Y-151560893D01*
X149860000Y-151415750D01*
X149714857Y-151343179D01*
X149497143Y-151343179D01*
X149352000Y-151415750D01*
X148626286Y-151343179D02*
X148626286Y-152867179D01*
X148626286Y-151415750D02*
X148481143Y-151343179D01*
X148190857Y-151343179D01*
X148045714Y-151415750D01*
X147973143Y-151488321D01*
X147900572Y-151633464D01*
X147900572Y-152068893D01*
X147973143Y-152214036D01*
X148045714Y-152286607D01*
X148190857Y-152359179D01*
X148481143Y-152359179D01*
X148626286Y-152286607D01*
X147247429Y-151343179D02*
X147247429Y-152867179D01*
X147247429Y-151415750D02*
X147102286Y-151343179D01*
X146812000Y-151343179D01*
X146666857Y-151415750D01*
X146594286Y-151488321D01*
X146521715Y-151633464D01*
X146521715Y-152068893D01*
X146594286Y-152214036D01*
X146666857Y-152286607D01*
X146812000Y-152359179D01*
X147102286Y-152359179D01*
X147247429Y-152286607D01*
X145650858Y-152359179D02*
X145796000Y-152286607D01*
X145868572Y-152141464D01*
X145868572Y-150835179D01*
X145215429Y-151343179D02*
X144852572Y-152359179D01*
X144489714Y-151343179D02*
X144852572Y-152359179D01*
X144997714Y-152722036D01*
X145070286Y-152794607D01*
X145215429Y-152867179D01*
X143909143Y-151343179D02*
X143909143Y-152649464D01*
X143981714Y-152794607D01*
X144126857Y-152867179D01*
X144199429Y-152867179D01*
X143909143Y-150835179D02*
X143981714Y-150907750D01*
X143909143Y-150980321D01*
X143836571Y-150907750D01*
X143909143Y-150835179D01*
X143909143Y-150980321D01*
X142530286Y-152359179D02*
X142530286Y-150835179D01*
X142530286Y-152286607D02*
X142675429Y-152359179D01*
X142965715Y-152359179D01*
X143110857Y-152286607D01*
X143183429Y-152214036D01*
X143256000Y-152068893D01*
X143256000Y-151633464D01*
X143183429Y-151488321D01*
X143110857Y-151415750D01*
X142965715Y-151343179D01*
X142675429Y-151343179D01*
X142530286Y-151415750D01*
X141804572Y-152214036D02*
X141732000Y-152286607D01*
X141804572Y-152359179D01*
X141877143Y-152286607D01*
X141804572Y-152214036D01*
X141804572Y-152359179D01*
X140788572Y-150835179D02*
X140643429Y-150835179D01*
X140498286Y-150907750D01*
X140425715Y-150980321D01*
X140353144Y-151125464D01*
X140280572Y-151415750D01*
X140280572Y-151778607D01*
X140353144Y-152068893D01*
X140425715Y-152214036D01*
X140498286Y-152286607D01*
X140643429Y-152359179D01*
X140788572Y-152359179D01*
X140933715Y-152286607D01*
X141006286Y-152214036D01*
X141078858Y-152068893D01*
X141151429Y-151778607D01*
X141151429Y-151415750D01*
X141078858Y-151125464D01*
X141006286Y-150980321D01*
X140933715Y-150907750D01*
X140788572Y-150835179D01*
X151892001Y-153674536D02*
X152037143Y-153601964D01*
X152327429Y-153601964D01*
X152472572Y-153674536D01*
X152617715Y-153819679D01*
X152690286Y-153964821D01*
X152690286Y-154255107D01*
X152617715Y-154400250D01*
X152472572Y-154545393D01*
X152327429Y-154617964D01*
X152037143Y-154617964D01*
X151892001Y-154545393D01*
X152182286Y-153093964D02*
X152545143Y-153166536D01*
X152908001Y-153384250D01*
X153125715Y-153747107D01*
X153198286Y-154109964D01*
X153125715Y-154472821D01*
X152908001Y-154835679D01*
X152545143Y-155053393D01*
X152182286Y-155125964D01*
X151819429Y-155053393D01*
X151456572Y-154835679D01*
X151238858Y-154472821D01*
X151166286Y-154109964D01*
X151238858Y-153747107D01*
X151456572Y-153384250D01*
X151819429Y-153166536D01*
X152182286Y-153093964D01*
X149424572Y-153456821D02*
X149352001Y-153384250D01*
X149206858Y-153311679D01*
X148844001Y-153311679D01*
X148698858Y-153384250D01*
X148626287Y-153456821D01*
X148553715Y-153601964D01*
X148553715Y-153747107D01*
X148626287Y-153964821D01*
X149497144Y-154835679D01*
X148553715Y-154835679D01*
X147610286Y-153311679D02*
X147465143Y-153311679D01*
X147320000Y-153384250D01*
X147247429Y-153456821D01*
X147174858Y-153601964D01*
X147102286Y-153892250D01*
X147102286Y-154255107D01*
X147174858Y-154545393D01*
X147247429Y-154690536D01*
X147320000Y-154763107D01*
X147465143Y-154835679D01*
X147610286Y-154835679D01*
X147755429Y-154763107D01*
X147828000Y-154690536D01*
X147900572Y-154545393D01*
X147973143Y-154255107D01*
X147973143Y-153892250D01*
X147900572Y-153601964D01*
X147828000Y-153456821D01*
X147755429Y-153384250D01*
X147610286Y-153311679D01*
X145650857Y-154835679D02*
X146521714Y-154835679D01*
X146086286Y-154835679D02*
X146086286Y-153311679D01*
X146231429Y-153529393D01*
X146376571Y-153674536D01*
X146521714Y-153747107D01*
X145142857Y-153311679D02*
X144126857Y-153311679D01*
X144780000Y-154835679D01*
X142094856Y-153311679D02*
X141804570Y-153311679D01*
X141659428Y-153384250D01*
X141514285Y-153529393D01*
X141441713Y-153819679D01*
X141441713Y-154327679D01*
X141514285Y-154617964D01*
X141659428Y-154763107D01*
X141804570Y-154835679D01*
X142094856Y-154835679D01*
X142239999Y-154763107D01*
X142385142Y-154617964D01*
X142457713Y-154327679D01*
X142457713Y-153819679D01*
X142385142Y-153529393D01*
X142239999Y-153384250D01*
X142094856Y-153311679D01*
X140861142Y-154763107D02*
X140643428Y-154835679D01*
X140280571Y-154835679D01*
X140135428Y-154763107D01*
X140062857Y-154690536D01*
X139990285Y-154545393D01*
X139990285Y-154400250D01*
X140062857Y-154255107D01*
X140135428Y-154182536D01*
X140280571Y-154109964D01*
X140570857Y-154037393D01*
X140715999Y-153964821D01*
X140788571Y-153892250D01*
X140861142Y-153747107D01*
X140861142Y-153601964D01*
X140788571Y-153456821D01*
X140715999Y-153384250D01*
X140570857Y-153311679D01*
X140207999Y-153311679D01*
X139990285Y-153384250D01*
X139337142Y-153311679D02*
X139337142Y-154545393D01*
X139264570Y-154690536D01*
X139191999Y-154763107D01*
X139046856Y-154835679D01*
X138756570Y-154835679D01*
X138611428Y-154763107D01*
X138538856Y-154690536D01*
X138466285Y-154545393D01*
X138466285Y-153311679D01*
D12*
X127000000Y-124460000D03*
X157480000Y-124460000D03*
X147320000Y-124460000D03*
X162560000Y-154940000D03*
X127000000Y-154940000D03*
X137160000Y-124460000D03*
X127000000Y-147320000D03*
X121920000Y-132080000D03*
X138430000Y-132080000D03*
X135890000Y-134620000D03*
X136525000Y-144780000D03*
X142875000Y-144780000D03*
X154940000Y-142240000D03*
X149860000Y-142240000D03*
X172720000Y-144780000D03*
X121920000Y-142240000D03*
X121920000Y-137160000D03*
X137160000Y-147320000D03*
X137160000Y-154940000D03*
X116840000Y-142240000D03*
X172720000Y-134620000D03*
X162560000Y-147320000D03*
X152400000Y-147320000D03*
X165100000Y-142240000D03*
X165100000Y-134620000D03*
X141605000Y-144780000D03*
X140335000Y-144780000D03*
X139065000Y-144780000D03*
X137795000Y-144780000D03*
X139065000Y-142875000D03*
X140335000Y-142875000D03*
X140335000Y-141605000D03*
X139065000Y-141605000D03*
X140335000Y-140335000D03*
D13*
X114300000Y-139700000D03*
D14*
X114300000Y-142240000D03*
D13*
X139700000Y-127000000D03*
D14*
X142240000Y-127000000D03*
D13*
X119380000Y-147320000D03*
D14*
X119380000Y-149860000D03*
X119380000Y-152400000D03*
D13*
X114300000Y-149860000D03*
D14*
X114300000Y-152400000D03*
D13*
X172720000Y-127000000D03*
D14*
X172720000Y-129540000D03*
D13*
X172720000Y-149860000D03*
D14*
X172720000Y-152400000D03*
D15*
X147320000Y-129540000D03*
X149820000Y-129540000D03*
X152320000Y-129540000D03*
X152320000Y-126340000D03*
X149820000Y-126340000D03*
X147320000Y-126340000D03*
D14*
X132080000Y-127000000D03*
X134620000Y-127000000D03*
X157480000Y-127000000D03*
X160020000Y-127000000D03*
X132080000Y-152400000D03*
X134620000Y-152400000D03*
X157480000Y-152400000D03*
X160020000Y-152400000D03*
X157480000Y-137160000D03*
D12*
X139065000Y-140335000D03*
X160020000Y-134620000D03*
D14*
X160020000Y-137160000D03*
X169545000Y-125095000D03*
D16*
X172720000Y-137668000D03*
D17*
X172720000Y-139668000D03*
X172720000Y-141668000D03*
D18*
X120650000Y-128270000D03*
D19*
X114650000Y-128270000D03*
X117650000Y-132970000D03*
D12*
X160020000Y-141605000D03*
X155575000Y-135255000D03*
X142875000Y-138430000D03*
X136525000Y-138430000D03*
X166370000Y-133350000D03*
X170180000Y-132080000D03*
X167640000Y-144145000D03*
X171450000Y-146050000D03*
X134112000Y-141986000D03*
X128905000Y-140970000D03*
X167640000Y-142240000D03*
D20*
X158750000Y-140335000D02*
X160020000Y-141605000D01*
X156210000Y-140335000D02*
X158750000Y-140335000D01*
X155575000Y-139700000D02*
X156210000Y-140335000D01*
X155575000Y-135255000D02*
X155575000Y-139700000D01*
X136525000Y-138430000D02*
X142875000Y-138430000D01*
X167640000Y-132080000D02*
X166370000Y-133350000D01*
X170180000Y-132080000D02*
X167640000Y-132080000D01*
X169545000Y-144145000D02*
X167640000Y-144145000D01*
X171450000Y-146050000D02*
X169545000Y-144145000D01*
X139700000Y-127000000D02*
X137414000Y-127000000D01*
X134747000Y-139319000D02*
X133096000Y-140970000D01*
X134747000Y-129667000D02*
X134747000Y-139319000D01*
X137414000Y-127000000D02*
X134747000Y-129667000D01*
X134112000Y-141986000D02*
X133096000Y-140970000D01*
X133096000Y-140970000D02*
X128905000Y-140970000D01*
X170220000Y-139660000D02*
X172720000Y-139660000D01*
X167640000Y-142240000D02*
X170220000Y-139660000D01*
D21*
G36*
X169417998Y-123774180D02*
X169188108Y-123653514D01*
X168663642Y-123899817D01*
X168273355Y-124328076D01*
X168103524Y-124738110D01*
X168224845Y-124968000D01*
X169418000Y-124968000D01*
X169418000Y-124948000D01*
X169672000Y-124948000D01*
X169672000Y-124968000D01*
X170865155Y-124968000D01*
X170986476Y-124738110D01*
X170816645Y-124328076D01*
X170426358Y-123899817D01*
X169901892Y-123653514D01*
X169672002Y-123774180D01*
X169672002Y-123621000D01*
X174829000Y-123621000D01*
X174829000Y-155779000D01*
X153869572Y-155779000D01*
X153869572Y-152400000D01*
X156224883Y-152400000D01*
X156318587Y-152871083D01*
X156585435Y-153270448D01*
X156984800Y-153537296D01*
X157455883Y-153631000D01*
X157504117Y-153631000D01*
X157975200Y-153537296D01*
X158374565Y-153270448D01*
X158641413Y-152871083D01*
X158735117Y-152400000D01*
X158764883Y-152400000D01*
X158858587Y-152871083D01*
X159125435Y-153270448D01*
X159524800Y-153537296D01*
X159995883Y-153631000D01*
X160044117Y-153631000D01*
X160515200Y-153537296D01*
X160914565Y-153270448D01*
X161181413Y-152871083D01*
X161197572Y-152789841D01*
X163131159Y-152789841D01*
X163430214Y-153513609D01*
X163983479Y-154067840D01*
X164706723Y-154368157D01*
X165489841Y-154368841D01*
X166213609Y-154069786D01*
X166767840Y-153516521D01*
X167068157Y-152793277D01*
X167068188Y-152756890D01*
X171278524Y-152756890D01*
X171448355Y-153166924D01*
X171838642Y-153595183D01*
X172363108Y-153841486D01*
X172593000Y-153720819D01*
X172593000Y-152527000D01*
X172847000Y-152527000D01*
X172847000Y-153720819D01*
X173076892Y-153841486D01*
X173601358Y-153595183D01*
X173991645Y-153166924D01*
X174161476Y-152756890D01*
X174040155Y-152527000D01*
X172847000Y-152527000D01*
X172593000Y-152527000D01*
X171399845Y-152527000D01*
X171278524Y-152756890D01*
X167068188Y-152756890D01*
X167068812Y-152043110D01*
X171278524Y-152043110D01*
X171399845Y-152273000D01*
X172593000Y-152273000D01*
X172593000Y-152253000D01*
X172847000Y-152253000D01*
X172847000Y-152273000D01*
X174040155Y-152273000D01*
X174161476Y-152043110D01*
X173991645Y-151633076D01*
X173601358Y-151204817D01*
X173374895Y-151098464D01*
X173570000Y-151098464D01*
X173711190Y-151071897D01*
X173840865Y-150988454D01*
X173927859Y-150861134D01*
X173958464Y-150710000D01*
X173958464Y-149010000D01*
X173931897Y-148868810D01*
X173848454Y-148739135D01*
X173721134Y-148652141D01*
X173570000Y-148621536D01*
X171870000Y-148621536D01*
X171728810Y-148648103D01*
X171599135Y-148731546D01*
X171512141Y-148858866D01*
X171481536Y-149010000D01*
X171481536Y-150710000D01*
X171508103Y-150851190D01*
X171591546Y-150980865D01*
X171718866Y-151067859D01*
X171870000Y-151098464D01*
X172065105Y-151098464D01*
X171838642Y-151204817D01*
X171448355Y-151633076D01*
X171278524Y-152043110D01*
X167068812Y-152043110D01*
X167068841Y-152010159D01*
X166769786Y-151286391D01*
X166216521Y-150732160D01*
X165493277Y-150431843D01*
X164710159Y-150431159D01*
X163986391Y-150730214D01*
X163432160Y-151283479D01*
X163131843Y-152006723D01*
X163131159Y-152789841D01*
X161197572Y-152789841D01*
X161275117Y-152400000D01*
X161181413Y-151928917D01*
X160914565Y-151529552D01*
X160515200Y-151262704D01*
X160044117Y-151169000D01*
X159995883Y-151169000D01*
X159524800Y-151262704D01*
X159125435Y-151529552D01*
X158858587Y-151928917D01*
X158764883Y-152400000D01*
X158735117Y-152400000D01*
X158641413Y-151928917D01*
X158374565Y-151529552D01*
X157975200Y-151262704D01*
X157504117Y-151169000D01*
X157455883Y-151169000D01*
X156984800Y-151262704D01*
X156585435Y-151529552D01*
X156318587Y-151928917D01*
X156224883Y-152400000D01*
X153869572Y-152400000D01*
X153869572Y-150126700D01*
X137722428Y-150126700D01*
X137722428Y-155779000D01*
X112191000Y-155779000D01*
X112191000Y-152756890D01*
X112858524Y-152756890D01*
X113028355Y-153166924D01*
X113418642Y-153595183D01*
X113943108Y-153841486D01*
X114173000Y-153720819D01*
X114173000Y-152527000D01*
X114427000Y-152527000D01*
X114427000Y-153720819D01*
X114656892Y-153841486D01*
X115181358Y-153595183D01*
X115571645Y-153166924D01*
X115741476Y-152756890D01*
X115620155Y-152527000D01*
X114427000Y-152527000D01*
X114173000Y-152527000D01*
X112979845Y-152527000D01*
X112858524Y-152756890D01*
X112191000Y-152756890D01*
X112191000Y-152400000D01*
X118124883Y-152400000D01*
X118218587Y-152871083D01*
X118485435Y-153270448D01*
X118884800Y-153537296D01*
X119355883Y-153631000D01*
X119404117Y-153631000D01*
X119875200Y-153537296D01*
X120274565Y-153270448D01*
X120541413Y-152871083D01*
X120557572Y-152789841D01*
X125031159Y-152789841D01*
X125330214Y-153513609D01*
X125883479Y-154067840D01*
X126606723Y-154368157D01*
X127389841Y-154368841D01*
X128113609Y-154069786D01*
X128667840Y-153516521D01*
X128968157Y-152793277D01*
X128968500Y-152400000D01*
X130824883Y-152400000D01*
X130918587Y-152871083D01*
X131185435Y-153270448D01*
X131584800Y-153537296D01*
X132055883Y-153631000D01*
X132104117Y-153631000D01*
X132575200Y-153537296D01*
X132974565Y-153270448D01*
X133241413Y-152871083D01*
X133335117Y-152400000D01*
X133364883Y-152400000D01*
X133458587Y-152871083D01*
X133725435Y-153270448D01*
X134124800Y-153537296D01*
X134595883Y-153631000D01*
X134644117Y-153631000D01*
X135115200Y-153537296D01*
X135514565Y-153270448D01*
X135781413Y-152871083D01*
X135875117Y-152400000D01*
X135781413Y-151928917D01*
X135514565Y-151529552D01*
X135115200Y-151262704D01*
X134644117Y-151169000D01*
X134595883Y-151169000D01*
X134124800Y-151262704D01*
X133725435Y-151529552D01*
X133458587Y-151928917D01*
X133364883Y-152400000D01*
X133335117Y-152400000D01*
X133241413Y-151928917D01*
X132974565Y-151529552D01*
X132575200Y-151262704D01*
X132104117Y-151169000D01*
X132055883Y-151169000D01*
X131584800Y-151262704D01*
X131185435Y-151529552D01*
X130918587Y-151928917D01*
X130824883Y-152400000D01*
X128968500Y-152400000D01*
X128968841Y-152010159D01*
X128669786Y-151286391D01*
X128116521Y-150732160D01*
X127393277Y-150431843D01*
X126610159Y-150431159D01*
X125886391Y-150730214D01*
X125332160Y-151283479D01*
X125031843Y-152006723D01*
X125031159Y-152789841D01*
X120557572Y-152789841D01*
X120635117Y-152400000D01*
X120541413Y-151928917D01*
X120274565Y-151529552D01*
X119875200Y-151262704D01*
X119404117Y-151169000D01*
X119355883Y-151169000D01*
X118884800Y-151262704D01*
X118485435Y-151529552D01*
X118218587Y-151928917D01*
X118124883Y-152400000D01*
X112191000Y-152400000D01*
X112191000Y-152043110D01*
X112858524Y-152043110D01*
X112979845Y-152273000D01*
X114173000Y-152273000D01*
X114173000Y-152253000D01*
X114427000Y-152253000D01*
X114427000Y-152273000D01*
X115620155Y-152273000D01*
X115741476Y-152043110D01*
X115571645Y-151633076D01*
X115181358Y-151204817D01*
X114954895Y-151098464D01*
X115150000Y-151098464D01*
X115291190Y-151071897D01*
X115420865Y-150988454D01*
X115507859Y-150861134D01*
X115538464Y-150710000D01*
X115538464Y-149860000D01*
X118124883Y-149860000D01*
X118218587Y-150331083D01*
X118485435Y-150730448D01*
X118884800Y-150997296D01*
X119355883Y-151091000D01*
X119404117Y-151091000D01*
X119875200Y-150997296D01*
X120274565Y-150730448D01*
X120541413Y-150331083D01*
X120635117Y-149860000D01*
X120541413Y-149388917D01*
X120274565Y-148989552D01*
X119875200Y-148722704D01*
X119404117Y-148629000D01*
X119355883Y-148629000D01*
X118884800Y-148722704D01*
X118485435Y-148989552D01*
X118218587Y-149388917D01*
X118124883Y-149860000D01*
X115538464Y-149860000D01*
X115538464Y-149010000D01*
X115511897Y-148868810D01*
X115428454Y-148739135D01*
X115301134Y-148652141D01*
X115150000Y-148621536D01*
X113450000Y-148621536D01*
X113308810Y-148648103D01*
X113179135Y-148731546D01*
X113092141Y-148858866D01*
X113061536Y-149010000D01*
X113061536Y-150710000D01*
X113088103Y-150851190D01*
X113171546Y-150980865D01*
X113298866Y-151067859D01*
X113450000Y-151098464D01*
X113645105Y-151098464D01*
X113418642Y-151204817D01*
X113028355Y-151633076D01*
X112858524Y-152043110D01*
X112191000Y-152043110D01*
X112191000Y-146470000D01*
X118141536Y-146470000D01*
X118141536Y-148170000D01*
X118168103Y-148311190D01*
X118251546Y-148440865D01*
X118378866Y-148527859D01*
X118530000Y-148558464D01*
X120230000Y-148558464D01*
X120371190Y-148531897D01*
X120500865Y-148448454D01*
X120587859Y-148321134D01*
X120618464Y-148170000D01*
X120618464Y-146470000D01*
X120591897Y-146328810D01*
X120508454Y-146199135D01*
X120381134Y-146112141D01*
X120230000Y-146081536D01*
X118530000Y-146081536D01*
X118388810Y-146108103D01*
X118259135Y-146191546D01*
X118172141Y-146318866D01*
X118141536Y-146470000D01*
X112191000Y-146470000D01*
X112191000Y-144283331D01*
X166941379Y-144283331D01*
X167047496Y-144540151D01*
X167243815Y-144736814D01*
X167500450Y-144843378D01*
X167778331Y-144843621D01*
X168035151Y-144737504D01*
X168056192Y-144716500D01*
X169308276Y-144716500D01*
X170751404Y-146159627D01*
X170751379Y-146188331D01*
X170857496Y-146445151D01*
X171053815Y-146641814D01*
X171310450Y-146748378D01*
X171588331Y-146748621D01*
X171845151Y-146642504D01*
X172041814Y-146446185D01*
X172148378Y-146189550D01*
X172148621Y-145911669D01*
X172042504Y-145654849D01*
X171846185Y-145458186D01*
X171589550Y-145351622D01*
X171559819Y-145351596D01*
X169949112Y-143740888D01*
X169860210Y-143681486D01*
X169763704Y-143617003D01*
X169727418Y-143609785D01*
X169545000Y-143573499D01*
X169544995Y-143573500D01*
X168056463Y-143573500D01*
X168036185Y-143553186D01*
X167779550Y-143446622D01*
X167501669Y-143446379D01*
X167244849Y-143552496D01*
X167048186Y-143748815D01*
X166941622Y-144005450D01*
X166941379Y-144283331D01*
X112191000Y-144283331D01*
X112191000Y-142596890D01*
X112858524Y-142596890D01*
X113028355Y-143006924D01*
X113418642Y-143435183D01*
X113943108Y-143681486D01*
X114173000Y-143560819D01*
X114173000Y-142367000D01*
X114427000Y-142367000D01*
X114427000Y-143560819D01*
X114656892Y-143681486D01*
X115181358Y-143435183D01*
X115571645Y-143006924D01*
X115741476Y-142596890D01*
X115620155Y-142367000D01*
X114427000Y-142367000D01*
X114173000Y-142367000D01*
X112979845Y-142367000D01*
X112858524Y-142596890D01*
X112191000Y-142596890D01*
X112191000Y-141883110D01*
X112858524Y-141883110D01*
X112979845Y-142113000D01*
X114173000Y-142113000D01*
X114173000Y-142093000D01*
X114427000Y-142093000D01*
X114427000Y-142113000D01*
X115620155Y-142113000D01*
X115741476Y-141883110D01*
X115571645Y-141473076D01*
X115239241Y-141108331D01*
X128206379Y-141108331D01*
X128312496Y-141365151D01*
X128508815Y-141561814D01*
X128765450Y-141668378D01*
X129043331Y-141668621D01*
X129300151Y-141562504D01*
X129321192Y-141541500D01*
X132859276Y-141541500D01*
X133413404Y-142095628D01*
X133413379Y-142124331D01*
X133519496Y-142381151D01*
X133715815Y-142577814D01*
X133972450Y-142684378D01*
X134250331Y-142684621D01*
X134507151Y-142578504D01*
X134703814Y-142382185D01*
X134705414Y-142378331D01*
X166941379Y-142378331D01*
X167047496Y-142635151D01*
X167243815Y-142831814D01*
X167500450Y-142938378D01*
X167778331Y-142938621D01*
X168035151Y-142832504D01*
X168231814Y-142636185D01*
X168338378Y-142379550D01*
X168338404Y-142349820D01*
X168702615Y-141985609D01*
X171276538Y-141985609D01*
X171291714Y-142077376D01*
X171538067Y-142497125D01*
X171926299Y-142790647D01*
X172397304Y-142913256D01*
X172593000Y-142750547D01*
X172593000Y-141795000D01*
X172847000Y-141795000D01*
X172847000Y-142750547D01*
X173042696Y-142913256D01*
X173513701Y-142790647D01*
X173901933Y-142497125D01*
X174148286Y-142077376D01*
X174163462Y-141985609D01*
X174038731Y-141795000D01*
X172847000Y-141795000D01*
X172593000Y-141795000D01*
X171401269Y-141795000D01*
X171276538Y-141985609D01*
X168702615Y-141985609D01*
X170456724Y-140231500D01*
X171665233Y-140231500D01*
X171752211Y-140361672D01*
X171998846Y-140526468D01*
X171926299Y-140545353D01*
X171538067Y-140838875D01*
X171291714Y-141258624D01*
X171276538Y-141350391D01*
X171401269Y-141541000D01*
X172593000Y-141541000D01*
X172593000Y-141521000D01*
X172847000Y-141521000D01*
X172847000Y-141541000D01*
X174038731Y-141541000D01*
X174163462Y-141350391D01*
X174148286Y-141258624D01*
X173901933Y-140838875D01*
X173513701Y-140545353D01*
X173441154Y-140526468D01*
X173687789Y-140361672D01*
X173900443Y-140043412D01*
X173975117Y-139668000D01*
X173900443Y-139292588D01*
X173687789Y-138974328D01*
X173369529Y-138761674D01*
X172994117Y-138687000D01*
X172445883Y-138687000D01*
X172070471Y-138761674D01*
X171752211Y-138974328D01*
X171675924Y-139088500D01*
X170220005Y-139088500D01*
X170220000Y-139088499D01*
X170037582Y-139124785D01*
X170001296Y-139132003D01*
X169815888Y-139255888D01*
X167530372Y-141541404D01*
X167501669Y-141541379D01*
X167244849Y-141647496D01*
X167048186Y-141843815D01*
X166941622Y-142100450D01*
X166941379Y-142378331D01*
X134705414Y-142378331D01*
X134810378Y-142125550D01*
X134810621Y-141847669D01*
X134704504Y-141590849D01*
X134508185Y-141394186D01*
X134251550Y-141287622D01*
X134221820Y-141287596D01*
X133904224Y-140970000D01*
X135151109Y-139723114D01*
X135151112Y-139723112D01*
X135274997Y-139537704D01*
X135274998Y-139537703D01*
X135318501Y-139319000D01*
X135318500Y-139318995D01*
X135318500Y-138568331D01*
X135826379Y-138568331D01*
X135932496Y-138825151D01*
X136128815Y-139021814D01*
X136385450Y-139128378D01*
X136663331Y-139128621D01*
X136920151Y-139022504D01*
X136941192Y-139001500D01*
X142458537Y-139001500D01*
X142478815Y-139021814D01*
X142735450Y-139128378D01*
X143013331Y-139128621D01*
X143270151Y-139022504D01*
X143466814Y-138826185D01*
X143573378Y-138569550D01*
X143573621Y-138291669D01*
X143467504Y-138034849D01*
X143271185Y-137838186D01*
X143014550Y-137731622D01*
X142736669Y-137731379D01*
X142479849Y-137837496D01*
X142458808Y-137858500D01*
X136941463Y-137858500D01*
X136921185Y-137838186D01*
X136664550Y-137731622D01*
X136386669Y-137731379D01*
X136129849Y-137837496D01*
X135933186Y-138033815D01*
X135826622Y-138290450D01*
X135826379Y-138568331D01*
X135318500Y-138568331D01*
X135318500Y-135393331D01*
X154876379Y-135393331D01*
X154982496Y-135650151D01*
X155003500Y-135671192D01*
X155003500Y-139699995D01*
X155003499Y-139700000D01*
X155039046Y-139878703D01*
X155047003Y-139918704D01*
X155055145Y-139930889D01*
X155170888Y-140104112D01*
X155805886Y-140739109D01*
X155805888Y-140739112D01*
X155894790Y-140798514D01*
X155991297Y-140862998D01*
X156210000Y-140906501D01*
X156210005Y-140906500D01*
X158513276Y-140906500D01*
X159321404Y-141714627D01*
X159321379Y-141743331D01*
X159427496Y-142000151D01*
X159623815Y-142196814D01*
X159880450Y-142303378D01*
X160158331Y-142303621D01*
X160415151Y-142197504D01*
X160611814Y-142001185D01*
X160718378Y-141744550D01*
X160718621Y-141466669D01*
X160612504Y-141209849D01*
X160416185Y-141013186D01*
X160159550Y-140906622D01*
X160129819Y-140906596D01*
X159154112Y-139930888D01*
X159135876Y-139918703D01*
X158968704Y-139807003D01*
X158932418Y-139799785D01*
X158750000Y-139763499D01*
X158749995Y-139763500D01*
X156446723Y-139763500D01*
X156146500Y-139463276D01*
X156146500Y-137160000D01*
X156224883Y-137160000D01*
X156318587Y-137631083D01*
X156585435Y-138030448D01*
X156984800Y-138297296D01*
X157455883Y-138391000D01*
X157504117Y-138391000D01*
X157975200Y-138297296D01*
X158374565Y-138030448D01*
X158641413Y-137631083D01*
X158735117Y-137160000D01*
X158764883Y-137160000D01*
X158858587Y-137631083D01*
X159125435Y-138030448D01*
X159524800Y-138297296D01*
X159995883Y-138391000D01*
X160044117Y-138391000D01*
X160515200Y-138297296D01*
X160914565Y-138030448D01*
X161181413Y-137631083D01*
X161275117Y-137160000D01*
X161256818Y-137068000D01*
X171481536Y-137068000D01*
X171481536Y-138268000D01*
X171508103Y-138409190D01*
X171591546Y-138538865D01*
X171718866Y-138625859D01*
X171870000Y-138656464D01*
X173570000Y-138656464D01*
X173711190Y-138629897D01*
X173840865Y-138546454D01*
X173927859Y-138419134D01*
X173958464Y-138268000D01*
X173958464Y-137068000D01*
X173931897Y-136926810D01*
X173848454Y-136797135D01*
X173721134Y-136710141D01*
X173570000Y-136679536D01*
X171870000Y-136679536D01*
X171728810Y-136706103D01*
X171599135Y-136789546D01*
X171512141Y-136916866D01*
X171481536Y-137068000D01*
X161256818Y-137068000D01*
X161181413Y-136688917D01*
X160914565Y-136289552D01*
X160515200Y-136022704D01*
X160044117Y-135929000D01*
X159995883Y-135929000D01*
X159524800Y-136022704D01*
X159125435Y-136289552D01*
X158858587Y-136688917D01*
X158764883Y-137160000D01*
X158735117Y-137160000D01*
X158641413Y-136688917D01*
X158374565Y-136289552D01*
X157975200Y-136022704D01*
X157504117Y-135929000D01*
X157455883Y-135929000D01*
X156984800Y-136022704D01*
X156585435Y-136289552D01*
X156318587Y-136688917D01*
X156224883Y-137160000D01*
X156146500Y-137160000D01*
X156146500Y-135671463D01*
X156166814Y-135651185D01*
X156273378Y-135394550D01*
X156273621Y-135116669D01*
X156167504Y-134859849D01*
X155971185Y-134663186D01*
X155714550Y-134556622D01*
X155436669Y-134556379D01*
X155179849Y-134662496D01*
X154983186Y-134858815D01*
X154876622Y-135115450D01*
X154876379Y-135393331D01*
X135318500Y-135393331D01*
X135318500Y-133488331D01*
X165671379Y-133488331D01*
X165777496Y-133745151D01*
X165973815Y-133941814D01*
X166230450Y-134048378D01*
X166508331Y-134048621D01*
X166765151Y-133942504D01*
X166961814Y-133746185D01*
X167068378Y-133489550D01*
X167068404Y-133459820D01*
X167876723Y-132651500D01*
X169763537Y-132651500D01*
X169783815Y-132671814D01*
X170040450Y-132778378D01*
X170318331Y-132778621D01*
X170575151Y-132672504D01*
X170771814Y-132476185D01*
X170878378Y-132219550D01*
X170878621Y-131941669D01*
X170772504Y-131684849D01*
X170576185Y-131488186D01*
X170319550Y-131381622D01*
X170041669Y-131381379D01*
X169784849Y-131487496D01*
X169763808Y-131508500D01*
X167640005Y-131508500D01*
X167640000Y-131508499D01*
X167457582Y-131544785D01*
X167421296Y-131552003D01*
X167235888Y-131675888D01*
X167235886Y-131675891D01*
X166260372Y-132651404D01*
X166231669Y-132651379D01*
X165974849Y-132757496D01*
X165778186Y-132953815D01*
X165671622Y-133210450D01*
X165671379Y-133488331D01*
X135318500Y-133488331D01*
X135318500Y-129903724D01*
X135455864Y-129766359D01*
X146176802Y-129766359D01*
X146350446Y-130186612D01*
X146671697Y-130508423D01*
X147091646Y-130682801D01*
X147546359Y-130683198D01*
X147940815Y-130520213D01*
X149019392Y-130520213D01*
X149088857Y-130762397D01*
X149612302Y-130949144D01*
X150167368Y-130921362D01*
X150551143Y-130762397D01*
X150620608Y-130520213D01*
X149820000Y-129719605D01*
X149019392Y-130520213D01*
X147940815Y-130520213D01*
X147966612Y-130509554D01*
X148288423Y-130188303D01*
X148435921Y-129833088D01*
X148438638Y-129887368D01*
X148597603Y-130271143D01*
X148839787Y-130340608D01*
X149640395Y-129540000D01*
X149999605Y-129540000D01*
X150800213Y-130340608D01*
X151042397Y-130271143D01*
X151201318Y-129825693D01*
X151350446Y-130186612D01*
X151671697Y-130508423D01*
X152091646Y-130682801D01*
X152546359Y-130683198D01*
X152966612Y-130509554D01*
X153288423Y-130188303D01*
X153409428Y-129896890D01*
X171278524Y-129896890D01*
X171448355Y-130306924D01*
X171838642Y-130735183D01*
X172363108Y-130981486D01*
X172593000Y-130860819D01*
X172593000Y-129667000D01*
X172847000Y-129667000D01*
X172847000Y-130860819D01*
X173076892Y-130981486D01*
X173601358Y-130735183D01*
X173991645Y-130306924D01*
X174161476Y-129896890D01*
X174040155Y-129667000D01*
X172847000Y-129667000D01*
X172593000Y-129667000D01*
X171399845Y-129667000D01*
X171278524Y-129896890D01*
X153409428Y-129896890D01*
X153462801Y-129768354D01*
X153463198Y-129313641D01*
X153409265Y-129183110D01*
X171278524Y-129183110D01*
X171399845Y-129413000D01*
X172593000Y-129413000D01*
X172593000Y-129393000D01*
X172847000Y-129393000D01*
X172847000Y-129413000D01*
X174040155Y-129413000D01*
X174161476Y-129183110D01*
X173991645Y-128773076D01*
X173601358Y-128344817D01*
X173374895Y-128238464D01*
X173570000Y-128238464D01*
X173711190Y-128211897D01*
X173840865Y-128128454D01*
X173927859Y-128001134D01*
X173958464Y-127850000D01*
X173958464Y-126150000D01*
X173931897Y-126008810D01*
X173848454Y-125879135D01*
X173721134Y-125792141D01*
X173570000Y-125761536D01*
X171870000Y-125761536D01*
X171728810Y-125788103D01*
X171599135Y-125871546D01*
X171512141Y-125998866D01*
X171481536Y-126150000D01*
X171481536Y-127850000D01*
X171508103Y-127991190D01*
X171591546Y-128120865D01*
X171718866Y-128207859D01*
X171870000Y-128238464D01*
X172065105Y-128238464D01*
X171838642Y-128344817D01*
X171448355Y-128773076D01*
X171278524Y-129183110D01*
X153409265Y-129183110D01*
X153289554Y-128893388D01*
X152968303Y-128571577D01*
X152548354Y-128397199D01*
X152093641Y-128396802D01*
X151673388Y-128570446D01*
X151351577Y-128891697D01*
X151204079Y-129246912D01*
X151201362Y-129192632D01*
X151042397Y-128808857D01*
X150800213Y-128739392D01*
X149999605Y-129540000D01*
X149640395Y-129540000D01*
X148839787Y-128739392D01*
X148597603Y-128808857D01*
X148438682Y-129254307D01*
X148289554Y-128893388D01*
X147968303Y-128571577D01*
X147939910Y-128559787D01*
X149019392Y-128559787D01*
X149820000Y-129360395D01*
X150620608Y-128559787D01*
X150551143Y-128317603D01*
X150027698Y-128130856D01*
X149472632Y-128158638D01*
X149088857Y-128317603D01*
X149019392Y-128559787D01*
X147939910Y-128559787D01*
X147548354Y-128397199D01*
X147093641Y-128396802D01*
X146673388Y-128570446D01*
X146351577Y-128891697D01*
X146177199Y-129311646D01*
X146176802Y-129766359D01*
X135455864Y-129766359D01*
X137650723Y-127571500D01*
X138461536Y-127571500D01*
X138461536Y-127850000D01*
X138488103Y-127991190D01*
X138571546Y-128120865D01*
X138698866Y-128207859D01*
X138850000Y-128238464D01*
X140550000Y-128238464D01*
X140691190Y-128211897D01*
X140820865Y-128128454D01*
X140907859Y-128001134D01*
X140938464Y-127850000D01*
X140938464Y-127654895D01*
X141044817Y-127881358D01*
X141473076Y-128271645D01*
X141883110Y-128441476D01*
X142113000Y-128320155D01*
X142113000Y-127127000D01*
X142367000Y-127127000D01*
X142367000Y-128320155D01*
X142596890Y-128441476D01*
X143006924Y-128271645D01*
X143435183Y-127881358D01*
X143681486Y-127356892D01*
X143560819Y-127127000D01*
X142367000Y-127127000D01*
X142113000Y-127127000D01*
X142093000Y-127127000D01*
X142093000Y-126873000D01*
X142113000Y-126873000D01*
X142113000Y-125679845D01*
X142367000Y-125679845D01*
X142367000Y-126873000D01*
X143560819Y-126873000D01*
X143681486Y-126643108D01*
X143645443Y-126566359D01*
X146176802Y-126566359D01*
X146350446Y-126986612D01*
X146671697Y-127308423D01*
X147091646Y-127482801D01*
X147546359Y-127483198D01*
X147966612Y-127309554D01*
X148288423Y-126988303D01*
X148462801Y-126568354D01*
X148462802Y-126566359D01*
X148676802Y-126566359D01*
X148850446Y-126986612D01*
X149171697Y-127308423D01*
X149591646Y-127482801D01*
X150046359Y-127483198D01*
X150466612Y-127309554D01*
X150788423Y-126988303D01*
X150962801Y-126568354D01*
X150962802Y-126566359D01*
X151176802Y-126566359D01*
X151350446Y-126986612D01*
X151671697Y-127308423D01*
X152091646Y-127482801D01*
X152546359Y-127483198D01*
X152966612Y-127309554D01*
X153276705Y-127000000D01*
X156224883Y-127000000D01*
X156318587Y-127471083D01*
X156585435Y-127870448D01*
X156984800Y-128137296D01*
X157455883Y-128231000D01*
X157504117Y-128231000D01*
X157975200Y-128137296D01*
X158374565Y-127870448D01*
X158641413Y-127471083D01*
X158735117Y-127000000D01*
X158764883Y-127000000D01*
X158858587Y-127471083D01*
X159125435Y-127870448D01*
X159524800Y-128137296D01*
X159995883Y-128231000D01*
X160044117Y-128231000D01*
X160515200Y-128137296D01*
X160914565Y-127870448D01*
X161181413Y-127471083D01*
X161197572Y-127389841D01*
X163131159Y-127389841D01*
X163430214Y-128113609D01*
X163983479Y-128667840D01*
X164706723Y-128968157D01*
X165489841Y-128968841D01*
X166213609Y-128669786D01*
X166767840Y-128116521D01*
X167068157Y-127393277D01*
X167068841Y-126610159D01*
X166769786Y-125886391D01*
X166336043Y-125451890D01*
X168103524Y-125451890D01*
X168273355Y-125861924D01*
X168663642Y-126290183D01*
X169188108Y-126536486D01*
X169418000Y-126415819D01*
X169418000Y-125222000D01*
X169672000Y-125222000D01*
X169672000Y-126415819D01*
X169901892Y-126536486D01*
X170426358Y-126290183D01*
X170816645Y-125861924D01*
X170986476Y-125451890D01*
X170865155Y-125222000D01*
X169672000Y-125222000D01*
X169418000Y-125222000D01*
X168224845Y-125222000D01*
X168103524Y-125451890D01*
X166336043Y-125451890D01*
X166216521Y-125332160D01*
X165493277Y-125031843D01*
X164710159Y-125031159D01*
X163986391Y-125330214D01*
X163432160Y-125883479D01*
X163131843Y-126606723D01*
X163131159Y-127389841D01*
X161197572Y-127389841D01*
X161275117Y-127000000D01*
X161181413Y-126528917D01*
X160914565Y-126129552D01*
X160515200Y-125862704D01*
X160044117Y-125769000D01*
X159995883Y-125769000D01*
X159524800Y-125862704D01*
X159125435Y-126129552D01*
X158858587Y-126528917D01*
X158764883Y-127000000D01*
X158735117Y-127000000D01*
X158641413Y-126528917D01*
X158374565Y-126129552D01*
X157975200Y-125862704D01*
X157504117Y-125769000D01*
X157455883Y-125769000D01*
X156984800Y-125862704D01*
X156585435Y-126129552D01*
X156318587Y-126528917D01*
X156224883Y-127000000D01*
X153276705Y-127000000D01*
X153288423Y-126988303D01*
X153462801Y-126568354D01*
X153463198Y-126113641D01*
X153289554Y-125693388D01*
X152968303Y-125371577D01*
X152548354Y-125197199D01*
X152093641Y-125196802D01*
X151673388Y-125370446D01*
X151351577Y-125691697D01*
X151177199Y-126111646D01*
X151176802Y-126566359D01*
X150962802Y-126566359D01*
X150963198Y-126113641D01*
X150789554Y-125693388D01*
X150468303Y-125371577D01*
X150048354Y-125197199D01*
X149593641Y-125196802D01*
X149173388Y-125370446D01*
X148851577Y-125691697D01*
X148677199Y-126111646D01*
X148676802Y-126566359D01*
X148462802Y-126566359D01*
X148463198Y-126113641D01*
X148289554Y-125693388D01*
X147968303Y-125371577D01*
X147548354Y-125197199D01*
X147093641Y-125196802D01*
X146673388Y-125370446D01*
X146351577Y-125691697D01*
X146177199Y-126111646D01*
X146176802Y-126566359D01*
X143645443Y-126566359D01*
X143435183Y-126118642D01*
X143006924Y-125728355D01*
X142596890Y-125558524D01*
X142367000Y-125679845D01*
X142113000Y-125679845D01*
X141883110Y-125558524D01*
X141473076Y-125728355D01*
X141044817Y-126118642D01*
X140938464Y-126345105D01*
X140938464Y-126150000D01*
X140911897Y-126008810D01*
X140828454Y-125879135D01*
X140701134Y-125792141D01*
X140550000Y-125761536D01*
X138850000Y-125761536D01*
X138708810Y-125788103D01*
X138579135Y-125871546D01*
X138492141Y-125998866D01*
X138461536Y-126150000D01*
X138461536Y-126428500D01*
X137414005Y-126428500D01*
X137414000Y-126428499D01*
X137195297Y-126472002D01*
X137195295Y-126472003D01*
X137195296Y-126472003D01*
X137009888Y-126595888D01*
X137009886Y-126595891D01*
X134342888Y-129262888D01*
X134219003Y-129448296D01*
X134219003Y-129448297D01*
X134175499Y-129667000D01*
X134175500Y-129667005D01*
X134175500Y-139082277D01*
X132859276Y-140398500D01*
X129321463Y-140398500D01*
X129301185Y-140378186D01*
X129044550Y-140271622D01*
X128766669Y-140271379D01*
X128509849Y-140377496D01*
X128313186Y-140573815D01*
X128206622Y-140830450D01*
X128206379Y-141108331D01*
X115239241Y-141108331D01*
X115181358Y-141044817D01*
X114954895Y-140938464D01*
X115150000Y-140938464D01*
X115291190Y-140911897D01*
X115420865Y-140828454D01*
X115507859Y-140701134D01*
X115538464Y-140550000D01*
X115538464Y-138850000D01*
X115511897Y-138708810D01*
X115428454Y-138579135D01*
X115301134Y-138492141D01*
X115150000Y-138461536D01*
X113450000Y-138461536D01*
X113308810Y-138488103D01*
X113179135Y-138571546D01*
X113092141Y-138698866D01*
X113061536Y-138850000D01*
X113061536Y-140550000D01*
X113088103Y-140691190D01*
X113171546Y-140820865D01*
X113298866Y-140907859D01*
X113450000Y-140938464D01*
X113645105Y-140938464D01*
X113418642Y-141044817D01*
X113028355Y-141473076D01*
X112858524Y-141883110D01*
X112191000Y-141883110D01*
X112191000Y-133447870D01*
X115236583Y-133447870D01*
X115603166Y-134335069D01*
X116281361Y-135014449D01*
X117167919Y-135382580D01*
X118127870Y-135383417D01*
X119015069Y-135016834D01*
X119694449Y-134338639D01*
X120062580Y-133452081D01*
X120063417Y-132492130D01*
X119696834Y-131604931D01*
X119018639Y-130925551D01*
X118132081Y-130557420D01*
X117172130Y-130556583D01*
X116284931Y-130923166D01*
X115605551Y-131601361D01*
X115237420Y-132487919D01*
X115236583Y-133447870D01*
X112191000Y-133447870D01*
X112191000Y-130168121D01*
X112931484Y-130168121D01*
X113156154Y-130542168D01*
X114139388Y-130940880D01*
X115200357Y-130932975D01*
X116143846Y-130542168D01*
X116368516Y-130168121D01*
X114650000Y-128449605D01*
X112931484Y-130168121D01*
X112191000Y-130168121D01*
X112191000Y-129312795D01*
X112377832Y-129763846D01*
X112751879Y-129988516D01*
X114470395Y-128270000D01*
X114829605Y-128270000D01*
X116548121Y-129988516D01*
X116922168Y-129763846D01*
X117313759Y-128798172D01*
X117982538Y-128798172D01*
X118387709Y-129778761D01*
X119137293Y-130529655D01*
X120117173Y-130936536D01*
X121178172Y-130937462D01*
X122158761Y-130532291D01*
X122909655Y-129782707D01*
X123316536Y-128802827D01*
X123317462Y-127741828D01*
X123172024Y-127389841D01*
X125031159Y-127389841D01*
X125330214Y-128113609D01*
X125883479Y-128667840D01*
X126606723Y-128968157D01*
X127389841Y-128968841D01*
X128113609Y-128669786D01*
X128667840Y-128116521D01*
X128968157Y-127393277D01*
X128968500Y-127000000D01*
X130824883Y-127000000D01*
X130918587Y-127471083D01*
X131185435Y-127870448D01*
X131584800Y-128137296D01*
X132055883Y-128231000D01*
X132104117Y-128231000D01*
X132575200Y-128137296D01*
X132974565Y-127870448D01*
X133241413Y-127471083D01*
X133335117Y-127000000D01*
X133364883Y-127000000D01*
X133458587Y-127471083D01*
X133725435Y-127870448D01*
X134124800Y-128137296D01*
X134595883Y-128231000D01*
X134644117Y-128231000D01*
X135115200Y-128137296D01*
X135514565Y-127870448D01*
X135781413Y-127471083D01*
X135875117Y-127000000D01*
X135781413Y-126528917D01*
X135514565Y-126129552D01*
X135115200Y-125862704D01*
X134644117Y-125769000D01*
X134595883Y-125769000D01*
X134124800Y-125862704D01*
X133725435Y-126129552D01*
X133458587Y-126528917D01*
X133364883Y-127000000D01*
X133335117Y-127000000D01*
X133241413Y-126528917D01*
X132974565Y-126129552D01*
X132575200Y-125862704D01*
X132104117Y-125769000D01*
X132055883Y-125769000D01*
X131584800Y-125862704D01*
X131185435Y-126129552D01*
X130918587Y-126528917D01*
X130824883Y-127000000D01*
X128968500Y-127000000D01*
X128968841Y-126610159D01*
X128669786Y-125886391D01*
X128116521Y-125332160D01*
X127393277Y-125031843D01*
X126610159Y-125031159D01*
X125886391Y-125330214D01*
X125332160Y-125883479D01*
X125031843Y-126606723D01*
X125031159Y-127389841D01*
X123172024Y-127389841D01*
X122912291Y-126761239D01*
X122162707Y-126010345D01*
X121182827Y-125603464D01*
X120121828Y-125602538D01*
X119141239Y-126007709D01*
X118390345Y-126757293D01*
X117983464Y-127737173D01*
X117982538Y-128798172D01*
X117313759Y-128798172D01*
X117320880Y-128780612D01*
X117312975Y-127719643D01*
X116922168Y-126776154D01*
X116548121Y-126551484D01*
X114829605Y-128270000D01*
X114470395Y-128270000D01*
X112751879Y-126551484D01*
X112377832Y-126776154D01*
X112191000Y-127236886D01*
X112191000Y-126371879D01*
X112931484Y-126371879D01*
X114650000Y-128090395D01*
X116368516Y-126371879D01*
X116143846Y-125997832D01*
X115160612Y-125599120D01*
X114099643Y-125607025D01*
X113156154Y-125997832D01*
X112931484Y-126371879D01*
X112191000Y-126371879D01*
X112191000Y-123621000D01*
X169417998Y-123621000D01*
X169417998Y-123774180D01*
X169417998Y-123774180D01*
G37*
X169417998Y-123774180D02*
X169188108Y-123653514D01*
X168663642Y-123899817D01*
X168273355Y-124328076D01*
X168103524Y-124738110D01*
X168224845Y-124968000D01*
X169418000Y-124968000D01*
X169418000Y-124948000D01*
X169672000Y-124948000D01*
X169672000Y-124968000D01*
X170865155Y-124968000D01*
X170986476Y-124738110D01*
X170816645Y-124328076D01*
X170426358Y-123899817D01*
X169901892Y-123653514D01*
X169672002Y-123774180D01*
X169672002Y-123621000D01*
X174829000Y-123621000D01*
X174829000Y-155779000D01*
X153869572Y-155779000D01*
X153869572Y-152400000D01*
X156224883Y-152400000D01*
X156318587Y-152871083D01*
X156585435Y-153270448D01*
X156984800Y-153537296D01*
X157455883Y-153631000D01*
X157504117Y-153631000D01*
X157975200Y-153537296D01*
X158374565Y-153270448D01*
X158641413Y-152871083D01*
X158735117Y-152400000D01*
X158764883Y-152400000D01*
X158858587Y-152871083D01*
X159125435Y-153270448D01*
X159524800Y-153537296D01*
X159995883Y-153631000D01*
X160044117Y-153631000D01*
X160515200Y-153537296D01*
X160914565Y-153270448D01*
X161181413Y-152871083D01*
X161197572Y-152789841D01*
X163131159Y-152789841D01*
X163430214Y-153513609D01*
X163983479Y-154067840D01*
X164706723Y-154368157D01*
X165489841Y-154368841D01*
X166213609Y-154069786D01*
X166767840Y-153516521D01*
X167068157Y-152793277D01*
X167068188Y-152756890D01*
X171278524Y-152756890D01*
X171448355Y-153166924D01*
X171838642Y-153595183D01*
X172363108Y-153841486D01*
X172593000Y-153720819D01*
X172593000Y-152527000D01*
X172847000Y-152527000D01*
X172847000Y-153720819D01*
X173076892Y-153841486D01*
X173601358Y-153595183D01*
X173991645Y-153166924D01*
X174161476Y-152756890D01*
X174040155Y-152527000D01*
X172847000Y-152527000D01*
X172593000Y-152527000D01*
X171399845Y-152527000D01*
X171278524Y-152756890D01*
X167068188Y-152756890D01*
X167068812Y-152043110D01*
X171278524Y-152043110D01*
X171399845Y-152273000D01*
X172593000Y-152273000D01*
X172593000Y-152253000D01*
X172847000Y-152253000D01*
X172847000Y-152273000D01*
X174040155Y-152273000D01*
X174161476Y-152043110D01*
X173991645Y-151633076D01*
X173601358Y-151204817D01*
X173374895Y-151098464D01*
X173570000Y-151098464D01*
X173711190Y-151071897D01*
X173840865Y-150988454D01*
X173927859Y-150861134D01*
X173958464Y-150710000D01*
X173958464Y-149010000D01*
X173931897Y-148868810D01*
X173848454Y-148739135D01*
X173721134Y-148652141D01*
X173570000Y-148621536D01*
X171870000Y-148621536D01*
X171728810Y-148648103D01*
X171599135Y-148731546D01*
X171512141Y-148858866D01*
X171481536Y-149010000D01*
X171481536Y-150710000D01*
X171508103Y-150851190D01*
X171591546Y-150980865D01*
X171718866Y-151067859D01*
X171870000Y-151098464D01*
X172065105Y-151098464D01*
X171838642Y-151204817D01*
X171448355Y-151633076D01*
X171278524Y-152043110D01*
X167068812Y-152043110D01*
X167068841Y-152010159D01*
X166769786Y-151286391D01*
X166216521Y-150732160D01*
X165493277Y-150431843D01*
X164710159Y-150431159D01*
X163986391Y-150730214D01*
X163432160Y-151283479D01*
X163131843Y-152006723D01*
X163131159Y-152789841D01*
X161197572Y-152789841D01*
X161275117Y-152400000D01*
X161181413Y-151928917D01*
X160914565Y-151529552D01*
X160515200Y-151262704D01*
X160044117Y-151169000D01*
X159995883Y-151169000D01*
X159524800Y-151262704D01*
X159125435Y-151529552D01*
X158858587Y-151928917D01*
X158764883Y-152400000D01*
X158735117Y-152400000D01*
X158641413Y-151928917D01*
X158374565Y-151529552D01*
X157975200Y-151262704D01*
X157504117Y-151169000D01*
X157455883Y-151169000D01*
X156984800Y-151262704D01*
X156585435Y-151529552D01*
X156318587Y-151928917D01*
X156224883Y-152400000D01*
X153869572Y-152400000D01*
X153869572Y-150126700D01*
X137722428Y-150126700D01*
X137722428Y-155779000D01*
X112191000Y-155779000D01*
X112191000Y-152756890D01*
X112858524Y-152756890D01*
X113028355Y-153166924D01*
X113418642Y-153595183D01*
X113943108Y-153841486D01*
X114173000Y-153720819D01*
X114173000Y-152527000D01*
X114427000Y-152527000D01*
X114427000Y-153720819D01*
X114656892Y-153841486D01*
X115181358Y-153595183D01*
X115571645Y-153166924D01*
X115741476Y-152756890D01*
X115620155Y-152527000D01*
X114427000Y-152527000D01*
X114173000Y-152527000D01*
X112979845Y-152527000D01*
X112858524Y-152756890D01*
X112191000Y-152756890D01*
X112191000Y-152400000D01*
X118124883Y-152400000D01*
X118218587Y-152871083D01*
X118485435Y-153270448D01*
X118884800Y-153537296D01*
X119355883Y-153631000D01*
X119404117Y-153631000D01*
X119875200Y-153537296D01*
X120274565Y-153270448D01*
X120541413Y-152871083D01*
X120557572Y-152789841D01*
X125031159Y-152789841D01*
X125330214Y-153513609D01*
X125883479Y-154067840D01*
X126606723Y-154368157D01*
X127389841Y-154368841D01*
X128113609Y-154069786D01*
X128667840Y-153516521D01*
X128968157Y-152793277D01*
X128968500Y-152400000D01*
X130824883Y-152400000D01*
X130918587Y-152871083D01*
X131185435Y-153270448D01*
X131584800Y-153537296D01*
X132055883Y-153631000D01*
X132104117Y-153631000D01*
X132575200Y-153537296D01*
X132974565Y-153270448D01*
X133241413Y-152871083D01*
X133335117Y-152400000D01*
X133364883Y-152400000D01*
X133458587Y-152871083D01*
X133725435Y-153270448D01*
X134124800Y-153537296D01*
X134595883Y-153631000D01*
X134644117Y-153631000D01*
X135115200Y-153537296D01*
X135514565Y-153270448D01*
X135781413Y-152871083D01*
X135875117Y-152400000D01*
X135781413Y-151928917D01*
X135514565Y-151529552D01*
X135115200Y-151262704D01*
X134644117Y-151169000D01*
X134595883Y-151169000D01*
X134124800Y-151262704D01*
X133725435Y-151529552D01*
X133458587Y-151928917D01*
X133364883Y-152400000D01*
X133335117Y-152400000D01*
X133241413Y-151928917D01*
X132974565Y-151529552D01*
X132575200Y-151262704D01*
X132104117Y-151169000D01*
X132055883Y-151169000D01*
X131584800Y-151262704D01*
X131185435Y-151529552D01*
X130918587Y-151928917D01*
X130824883Y-152400000D01*
X128968500Y-152400000D01*
X128968841Y-152010159D01*
X128669786Y-151286391D01*
X128116521Y-150732160D01*
X127393277Y-150431843D01*
X126610159Y-150431159D01*
X125886391Y-150730214D01*
X125332160Y-151283479D01*
X125031843Y-152006723D01*
X125031159Y-152789841D01*
X120557572Y-152789841D01*
X120635117Y-152400000D01*
X120541413Y-151928917D01*
X120274565Y-151529552D01*
X119875200Y-151262704D01*
X119404117Y-151169000D01*
X119355883Y-151169000D01*
X118884800Y-151262704D01*
X118485435Y-151529552D01*
X118218587Y-151928917D01*
X118124883Y-152400000D01*
X112191000Y-152400000D01*
X112191000Y-152043110D01*
X112858524Y-152043110D01*
X112979845Y-152273000D01*
X114173000Y-152273000D01*
X114173000Y-152253000D01*
X114427000Y-152253000D01*
X114427000Y-152273000D01*
X115620155Y-152273000D01*
X115741476Y-152043110D01*
X115571645Y-151633076D01*
X115181358Y-151204817D01*
X114954895Y-151098464D01*
X115150000Y-151098464D01*
X115291190Y-151071897D01*
X115420865Y-150988454D01*
X115507859Y-150861134D01*
X115538464Y-150710000D01*
X115538464Y-149860000D01*
X118124883Y-149860000D01*
X118218587Y-150331083D01*
X118485435Y-150730448D01*
X118884800Y-150997296D01*
X119355883Y-151091000D01*
X119404117Y-151091000D01*
X119875200Y-150997296D01*
X120274565Y-150730448D01*
X120541413Y-150331083D01*
X120635117Y-149860000D01*
X120541413Y-149388917D01*
X120274565Y-148989552D01*
X119875200Y-148722704D01*
X119404117Y-148629000D01*
X119355883Y-148629000D01*
X118884800Y-148722704D01*
X118485435Y-148989552D01*
X118218587Y-149388917D01*
X118124883Y-149860000D01*
X115538464Y-149860000D01*
X115538464Y-149010000D01*
X115511897Y-148868810D01*
X115428454Y-148739135D01*
X115301134Y-148652141D01*
X115150000Y-148621536D01*
X113450000Y-148621536D01*
X113308810Y-148648103D01*
X113179135Y-148731546D01*
X113092141Y-148858866D01*
X113061536Y-149010000D01*
X113061536Y-150710000D01*
X113088103Y-150851190D01*
X113171546Y-150980865D01*
X113298866Y-151067859D01*
X113450000Y-151098464D01*
X113645105Y-151098464D01*
X113418642Y-151204817D01*
X113028355Y-151633076D01*
X112858524Y-152043110D01*
X112191000Y-152043110D01*
X112191000Y-146470000D01*
X118141536Y-146470000D01*
X118141536Y-148170000D01*
X118168103Y-148311190D01*
X118251546Y-148440865D01*
X118378866Y-148527859D01*
X118530000Y-148558464D01*
X120230000Y-148558464D01*
X120371190Y-148531897D01*
X120500865Y-148448454D01*
X120587859Y-148321134D01*
X120618464Y-148170000D01*
X120618464Y-146470000D01*
X120591897Y-146328810D01*
X120508454Y-146199135D01*
X120381134Y-146112141D01*
X120230000Y-146081536D01*
X118530000Y-146081536D01*
X118388810Y-146108103D01*
X118259135Y-146191546D01*
X118172141Y-146318866D01*
X118141536Y-146470000D01*
X112191000Y-146470000D01*
X112191000Y-144283331D01*
X166941379Y-144283331D01*
X167047496Y-144540151D01*
X167243815Y-144736814D01*
X167500450Y-144843378D01*
X167778331Y-144843621D01*
X168035151Y-144737504D01*
X168056192Y-144716500D01*
X169308276Y-144716500D01*
X170751404Y-146159627D01*
X170751379Y-146188331D01*
X170857496Y-146445151D01*
X171053815Y-146641814D01*
X171310450Y-146748378D01*
X171588331Y-146748621D01*
X171845151Y-146642504D01*
X172041814Y-146446185D01*
X172148378Y-146189550D01*
X172148621Y-145911669D01*
X172042504Y-145654849D01*
X171846185Y-145458186D01*
X171589550Y-145351622D01*
X171559819Y-145351596D01*
X169949112Y-143740888D01*
X169860210Y-143681486D01*
X169763704Y-143617003D01*
X169727418Y-143609785D01*
X169545000Y-143573499D01*
X169544995Y-143573500D01*
X168056463Y-143573500D01*
X168036185Y-143553186D01*
X167779550Y-143446622D01*
X167501669Y-143446379D01*
X167244849Y-143552496D01*
X167048186Y-143748815D01*
X166941622Y-144005450D01*
X166941379Y-144283331D01*
X112191000Y-144283331D01*
X112191000Y-142596890D01*
X112858524Y-142596890D01*
X113028355Y-143006924D01*
X113418642Y-143435183D01*
X113943108Y-143681486D01*
X114173000Y-143560819D01*
X114173000Y-142367000D01*
X114427000Y-142367000D01*
X114427000Y-143560819D01*
X114656892Y-143681486D01*
X115181358Y-143435183D01*
X115571645Y-143006924D01*
X115741476Y-142596890D01*
X115620155Y-142367000D01*
X114427000Y-142367000D01*
X114173000Y-142367000D01*
X112979845Y-142367000D01*
X112858524Y-142596890D01*
X112191000Y-142596890D01*
X112191000Y-141883110D01*
X112858524Y-141883110D01*
X112979845Y-142113000D01*
X114173000Y-142113000D01*
X114173000Y-142093000D01*
X114427000Y-142093000D01*
X114427000Y-142113000D01*
X115620155Y-142113000D01*
X115741476Y-141883110D01*
X115571645Y-141473076D01*
X115239241Y-141108331D01*
X128206379Y-141108331D01*
X128312496Y-141365151D01*
X128508815Y-141561814D01*
X128765450Y-141668378D01*
X129043331Y-141668621D01*
X129300151Y-141562504D01*
X129321192Y-141541500D01*
X132859276Y-141541500D01*
X133413404Y-142095628D01*
X133413379Y-142124331D01*
X133519496Y-142381151D01*
X133715815Y-142577814D01*
X133972450Y-142684378D01*
X134250331Y-142684621D01*
X134507151Y-142578504D01*
X134703814Y-142382185D01*
X134705414Y-142378331D01*
X166941379Y-142378331D01*
X167047496Y-142635151D01*
X167243815Y-142831814D01*
X167500450Y-142938378D01*
X167778331Y-142938621D01*
X168035151Y-142832504D01*
X168231814Y-142636185D01*
X168338378Y-142379550D01*
X168338404Y-142349820D01*
X168702615Y-141985609D01*
X171276538Y-141985609D01*
X171291714Y-142077376D01*
X171538067Y-142497125D01*
X171926299Y-142790647D01*
X172397304Y-142913256D01*
X172593000Y-142750547D01*
X172593000Y-141795000D01*
X172847000Y-141795000D01*
X172847000Y-142750547D01*
X173042696Y-142913256D01*
X173513701Y-142790647D01*
X173901933Y-142497125D01*
X174148286Y-142077376D01*
X174163462Y-141985609D01*
X174038731Y-141795000D01*
X172847000Y-141795000D01*
X172593000Y-141795000D01*
X171401269Y-141795000D01*
X171276538Y-141985609D01*
X168702615Y-141985609D01*
X170456724Y-140231500D01*
X171665233Y-140231500D01*
X171752211Y-140361672D01*
X171998846Y-140526468D01*
X171926299Y-140545353D01*
X171538067Y-140838875D01*
X171291714Y-141258624D01*
X171276538Y-141350391D01*
X171401269Y-141541000D01*
X172593000Y-141541000D01*
X172593000Y-141521000D01*
X172847000Y-141521000D01*
X172847000Y-141541000D01*
X174038731Y-141541000D01*
X174163462Y-141350391D01*
X174148286Y-141258624D01*
X173901933Y-140838875D01*
X173513701Y-140545353D01*
X173441154Y-140526468D01*
X173687789Y-140361672D01*
X173900443Y-140043412D01*
X173975117Y-139668000D01*
X173900443Y-139292588D01*
X173687789Y-138974328D01*
X173369529Y-138761674D01*
X172994117Y-138687000D01*
X172445883Y-138687000D01*
X172070471Y-138761674D01*
X171752211Y-138974328D01*
X171675924Y-139088500D01*
X170220005Y-139088500D01*
X170220000Y-139088499D01*
X170037582Y-139124785D01*
X170001296Y-139132003D01*
X169815888Y-139255888D01*
X167530372Y-141541404D01*
X167501669Y-141541379D01*
X167244849Y-141647496D01*
X167048186Y-141843815D01*
X166941622Y-142100450D01*
X166941379Y-142378331D01*
X134705414Y-142378331D01*
X134810378Y-142125550D01*
X134810621Y-141847669D01*
X134704504Y-141590849D01*
X134508185Y-141394186D01*
X134251550Y-141287622D01*
X134221820Y-141287596D01*
X133904224Y-140970000D01*
X135151109Y-139723114D01*
X135151112Y-139723112D01*
X135274997Y-139537704D01*
X135274998Y-139537703D01*
X135318501Y-139319000D01*
X135318500Y-139318995D01*
X135318500Y-138568331D01*
X135826379Y-138568331D01*
X135932496Y-138825151D01*
X136128815Y-139021814D01*
X136385450Y-139128378D01*
X136663331Y-139128621D01*
X136920151Y-139022504D01*
X136941192Y-139001500D01*
X142458537Y-139001500D01*
X142478815Y-139021814D01*
X142735450Y-139128378D01*
X143013331Y-139128621D01*
X143270151Y-139022504D01*
X143466814Y-138826185D01*
X143573378Y-138569550D01*
X143573621Y-138291669D01*
X143467504Y-138034849D01*
X143271185Y-137838186D01*
X143014550Y-137731622D01*
X142736669Y-137731379D01*
X142479849Y-137837496D01*
X142458808Y-137858500D01*
X136941463Y-137858500D01*
X136921185Y-137838186D01*
X136664550Y-137731622D01*
X136386669Y-137731379D01*
X136129849Y-137837496D01*
X135933186Y-138033815D01*
X135826622Y-138290450D01*
X135826379Y-138568331D01*
X135318500Y-138568331D01*
X135318500Y-135393331D01*
X154876379Y-135393331D01*
X154982496Y-135650151D01*
X155003500Y-135671192D01*
X155003500Y-139699995D01*
X155003499Y-139700000D01*
X155039046Y-139878703D01*
X155047003Y-139918704D01*
X155055145Y-139930889D01*
X155170888Y-140104112D01*
X155805886Y-140739109D01*
X155805888Y-140739112D01*
X155894790Y-140798514D01*
X155991297Y-140862998D01*
X156210000Y-140906501D01*
X156210005Y-140906500D01*
X158513276Y-140906500D01*
X159321404Y-141714627D01*
X159321379Y-141743331D01*
X159427496Y-142000151D01*
X159623815Y-142196814D01*
X159880450Y-142303378D01*
X160158331Y-142303621D01*
X160415151Y-142197504D01*
X160611814Y-142001185D01*
X160718378Y-141744550D01*
X160718621Y-141466669D01*
X160612504Y-141209849D01*
X160416185Y-141013186D01*
X160159550Y-140906622D01*
X160129819Y-140906596D01*
X159154112Y-139930888D01*
X159135876Y-139918703D01*
X158968704Y-139807003D01*
X158932418Y-139799785D01*
X158750000Y-139763499D01*
X158749995Y-139763500D01*
X156446723Y-139763500D01*
X156146500Y-139463276D01*
X156146500Y-137160000D01*
X156224883Y-137160000D01*
X156318587Y-137631083D01*
X156585435Y-138030448D01*
X156984800Y-138297296D01*
X157455883Y-138391000D01*
X157504117Y-138391000D01*
X157975200Y-138297296D01*
X158374565Y-138030448D01*
X158641413Y-137631083D01*
X158735117Y-137160000D01*
X158764883Y-137160000D01*
X158858587Y-137631083D01*
X159125435Y-138030448D01*
X159524800Y-138297296D01*
X159995883Y-138391000D01*
X160044117Y-138391000D01*
X160515200Y-138297296D01*
X160914565Y-138030448D01*
X161181413Y-137631083D01*
X161275117Y-137160000D01*
X161256818Y-137068000D01*
X171481536Y-137068000D01*
X171481536Y-138268000D01*
X171508103Y-138409190D01*
X171591546Y-138538865D01*
X171718866Y-138625859D01*
X171870000Y-138656464D01*
X173570000Y-138656464D01*
X173711190Y-138629897D01*
X173840865Y-138546454D01*
X173927859Y-138419134D01*
X173958464Y-138268000D01*
X173958464Y-137068000D01*
X173931897Y-136926810D01*
X173848454Y-136797135D01*
X173721134Y-136710141D01*
X173570000Y-136679536D01*
X171870000Y-136679536D01*
X171728810Y-136706103D01*
X171599135Y-136789546D01*
X171512141Y-136916866D01*
X171481536Y-137068000D01*
X161256818Y-137068000D01*
X161181413Y-136688917D01*
X160914565Y-136289552D01*
X160515200Y-136022704D01*
X160044117Y-135929000D01*
X159995883Y-135929000D01*
X159524800Y-136022704D01*
X159125435Y-136289552D01*
X158858587Y-136688917D01*
X158764883Y-137160000D01*
X158735117Y-137160000D01*
X158641413Y-136688917D01*
X158374565Y-136289552D01*
X157975200Y-136022704D01*
X157504117Y-135929000D01*
X157455883Y-135929000D01*
X156984800Y-136022704D01*
X156585435Y-136289552D01*
X156318587Y-136688917D01*
X156224883Y-137160000D01*
X156146500Y-137160000D01*
X156146500Y-135671463D01*
X156166814Y-135651185D01*
X156273378Y-135394550D01*
X156273621Y-135116669D01*
X156167504Y-134859849D01*
X155971185Y-134663186D01*
X155714550Y-134556622D01*
X155436669Y-134556379D01*
X155179849Y-134662496D01*
X154983186Y-134858815D01*
X154876622Y-135115450D01*
X154876379Y-135393331D01*
X135318500Y-135393331D01*
X135318500Y-133488331D01*
X165671379Y-133488331D01*
X165777496Y-133745151D01*
X165973815Y-133941814D01*
X166230450Y-134048378D01*
X166508331Y-134048621D01*
X166765151Y-133942504D01*
X166961814Y-133746185D01*
X167068378Y-133489550D01*
X167068404Y-133459820D01*
X167876723Y-132651500D01*
X169763537Y-132651500D01*
X169783815Y-132671814D01*
X170040450Y-132778378D01*
X170318331Y-132778621D01*
X170575151Y-132672504D01*
X170771814Y-132476185D01*
X170878378Y-132219550D01*
X170878621Y-131941669D01*
X170772504Y-131684849D01*
X170576185Y-131488186D01*
X170319550Y-131381622D01*
X170041669Y-131381379D01*
X169784849Y-131487496D01*
X169763808Y-131508500D01*
X167640005Y-131508500D01*
X167640000Y-131508499D01*
X167457582Y-131544785D01*
X167421296Y-131552003D01*
X167235888Y-131675888D01*
X167235886Y-131675891D01*
X166260372Y-132651404D01*
X166231669Y-132651379D01*
X165974849Y-132757496D01*
X165778186Y-132953815D01*
X165671622Y-133210450D01*
X165671379Y-133488331D01*
X135318500Y-133488331D01*
X135318500Y-129903724D01*
X135455864Y-129766359D01*
X146176802Y-129766359D01*
X146350446Y-130186612D01*
X146671697Y-130508423D01*
X147091646Y-130682801D01*
X147546359Y-130683198D01*
X147940815Y-130520213D01*
X149019392Y-130520213D01*
X149088857Y-130762397D01*
X149612302Y-130949144D01*
X150167368Y-130921362D01*
X150551143Y-130762397D01*
X150620608Y-130520213D01*
X149820000Y-129719605D01*
X149019392Y-130520213D01*
X147940815Y-130520213D01*
X147966612Y-130509554D01*
X148288423Y-130188303D01*
X148435921Y-129833088D01*
X148438638Y-129887368D01*
X148597603Y-130271143D01*
X148839787Y-130340608D01*
X149640395Y-129540000D01*
X149999605Y-129540000D01*
X150800213Y-130340608D01*
X151042397Y-130271143D01*
X151201318Y-129825693D01*
X151350446Y-130186612D01*
X151671697Y-130508423D01*
X152091646Y-130682801D01*
X152546359Y-130683198D01*
X152966612Y-130509554D01*
X153288423Y-130188303D01*
X153409428Y-129896890D01*
X171278524Y-129896890D01*
X171448355Y-130306924D01*
X171838642Y-130735183D01*
X172363108Y-130981486D01*
X172593000Y-130860819D01*
X172593000Y-129667000D01*
X172847000Y-129667000D01*
X172847000Y-130860819D01*
X173076892Y-130981486D01*
X173601358Y-130735183D01*
X173991645Y-130306924D01*
X174161476Y-129896890D01*
X174040155Y-129667000D01*
X172847000Y-129667000D01*
X172593000Y-129667000D01*
X171399845Y-129667000D01*
X171278524Y-129896890D01*
X153409428Y-129896890D01*
X153462801Y-129768354D01*
X153463198Y-129313641D01*
X153409265Y-129183110D01*
X171278524Y-129183110D01*
X171399845Y-129413000D01*
X172593000Y-129413000D01*
X172593000Y-129393000D01*
X172847000Y-129393000D01*
X172847000Y-129413000D01*
X174040155Y-129413000D01*
X174161476Y-129183110D01*
X173991645Y-128773076D01*
X173601358Y-128344817D01*
X173374895Y-128238464D01*
X173570000Y-128238464D01*
X173711190Y-128211897D01*
X173840865Y-128128454D01*
X173927859Y-128001134D01*
X173958464Y-127850000D01*
X173958464Y-126150000D01*
X173931897Y-126008810D01*
X173848454Y-125879135D01*
X173721134Y-125792141D01*
X173570000Y-125761536D01*
X171870000Y-125761536D01*
X171728810Y-125788103D01*
X171599135Y-125871546D01*
X171512141Y-125998866D01*
X171481536Y-126150000D01*
X171481536Y-127850000D01*
X171508103Y-127991190D01*
X171591546Y-128120865D01*
X171718866Y-128207859D01*
X171870000Y-128238464D01*
X172065105Y-128238464D01*
X171838642Y-128344817D01*
X171448355Y-128773076D01*
X171278524Y-129183110D01*
X153409265Y-129183110D01*
X153289554Y-128893388D01*
X152968303Y-128571577D01*
X152548354Y-128397199D01*
X152093641Y-128396802D01*
X151673388Y-128570446D01*
X151351577Y-128891697D01*
X151204079Y-129246912D01*
X151201362Y-129192632D01*
X151042397Y-128808857D01*
X150800213Y-128739392D01*
X149999605Y-129540000D01*
X149640395Y-129540000D01*
X148839787Y-128739392D01*
X148597603Y-128808857D01*
X148438682Y-129254307D01*
X148289554Y-128893388D01*
X147968303Y-128571577D01*
X147939910Y-128559787D01*
X149019392Y-128559787D01*
X149820000Y-129360395D01*
X150620608Y-128559787D01*
X150551143Y-128317603D01*
X150027698Y-128130856D01*
X149472632Y-128158638D01*
X149088857Y-128317603D01*
X149019392Y-128559787D01*
X147939910Y-128559787D01*
X147548354Y-128397199D01*
X147093641Y-128396802D01*
X146673388Y-128570446D01*
X146351577Y-128891697D01*
X146177199Y-129311646D01*
X146176802Y-129766359D01*
X135455864Y-129766359D01*
X137650723Y-127571500D01*
X138461536Y-127571500D01*
X138461536Y-127850000D01*
X138488103Y-127991190D01*
X138571546Y-128120865D01*
X138698866Y-128207859D01*
X138850000Y-128238464D01*
X140550000Y-128238464D01*
X140691190Y-128211897D01*
X140820865Y-128128454D01*
X140907859Y-128001134D01*
X140938464Y-127850000D01*
X140938464Y-127654895D01*
X141044817Y-127881358D01*
X141473076Y-128271645D01*
X141883110Y-128441476D01*
X142113000Y-128320155D01*
X142113000Y-127127000D01*
X142367000Y-127127000D01*
X142367000Y-128320155D01*
X142596890Y-128441476D01*
X143006924Y-128271645D01*
X143435183Y-127881358D01*
X143681486Y-127356892D01*
X143560819Y-127127000D01*
X142367000Y-127127000D01*
X142113000Y-127127000D01*
X142093000Y-127127000D01*
X142093000Y-126873000D01*
X142113000Y-126873000D01*
X142113000Y-125679845D01*
X142367000Y-125679845D01*
X142367000Y-126873000D01*
X143560819Y-126873000D01*
X143681486Y-126643108D01*
X143645443Y-126566359D01*
X146176802Y-126566359D01*
X146350446Y-126986612D01*
X146671697Y-127308423D01*
X147091646Y-127482801D01*
X147546359Y-127483198D01*
X147966612Y-127309554D01*
X148288423Y-126988303D01*
X148462801Y-126568354D01*
X148462802Y-126566359D01*
X148676802Y-126566359D01*
X148850446Y-126986612D01*
X149171697Y-127308423D01*
X149591646Y-127482801D01*
X150046359Y-127483198D01*
X150466612Y-127309554D01*
X150788423Y-126988303D01*
X150962801Y-126568354D01*
X150962802Y-126566359D01*
X151176802Y-126566359D01*
X151350446Y-126986612D01*
X151671697Y-127308423D01*
X152091646Y-127482801D01*
X152546359Y-127483198D01*
X152966612Y-127309554D01*
X153276705Y-127000000D01*
X156224883Y-127000000D01*
X156318587Y-127471083D01*
X156585435Y-127870448D01*
X156984800Y-128137296D01*
X157455883Y-128231000D01*
X157504117Y-128231000D01*
X157975200Y-128137296D01*
X158374565Y-127870448D01*
X158641413Y-127471083D01*
X158735117Y-127000000D01*
X158764883Y-127000000D01*
X158858587Y-127471083D01*
X159125435Y-127870448D01*
X159524800Y-128137296D01*
X159995883Y-128231000D01*
X160044117Y-128231000D01*
X160515200Y-128137296D01*
X160914565Y-127870448D01*
X161181413Y-127471083D01*
X161197572Y-127389841D01*
X163131159Y-127389841D01*
X163430214Y-128113609D01*
X163983479Y-128667840D01*
X164706723Y-128968157D01*
X165489841Y-128968841D01*
X166213609Y-128669786D01*
X166767840Y-128116521D01*
X167068157Y-127393277D01*
X167068841Y-126610159D01*
X166769786Y-125886391D01*
X166336043Y-125451890D01*
X168103524Y-125451890D01*
X168273355Y-125861924D01*
X168663642Y-126290183D01*
X169188108Y-126536486D01*
X169418000Y-126415819D01*
X169418000Y-125222000D01*
X169672000Y-125222000D01*
X169672000Y-126415819D01*
X169901892Y-126536486D01*
X170426358Y-126290183D01*
X170816645Y-125861924D01*
X170986476Y-125451890D01*
X170865155Y-125222000D01*
X169672000Y-125222000D01*
X169418000Y-125222000D01*
X168224845Y-125222000D01*
X168103524Y-125451890D01*
X166336043Y-125451890D01*
X166216521Y-125332160D01*
X165493277Y-125031843D01*
X164710159Y-125031159D01*
X163986391Y-125330214D01*
X163432160Y-125883479D01*
X163131843Y-126606723D01*
X163131159Y-127389841D01*
X161197572Y-127389841D01*
X161275117Y-127000000D01*
X161181413Y-126528917D01*
X160914565Y-126129552D01*
X160515200Y-125862704D01*
X160044117Y-125769000D01*
X159995883Y-125769000D01*
X159524800Y-125862704D01*
X159125435Y-126129552D01*
X158858587Y-126528917D01*
X158764883Y-127000000D01*
X158735117Y-127000000D01*
X158641413Y-126528917D01*
X158374565Y-126129552D01*
X157975200Y-125862704D01*
X157504117Y-125769000D01*
X157455883Y-125769000D01*
X156984800Y-125862704D01*
X156585435Y-126129552D01*
X156318587Y-126528917D01*
X156224883Y-127000000D01*
X153276705Y-127000000D01*
X153288423Y-126988303D01*
X153462801Y-126568354D01*
X153463198Y-126113641D01*
X153289554Y-125693388D01*
X152968303Y-125371577D01*
X152548354Y-125197199D01*
X152093641Y-125196802D01*
X151673388Y-125370446D01*
X151351577Y-125691697D01*
X151177199Y-126111646D01*
X151176802Y-126566359D01*
X150962802Y-126566359D01*
X150963198Y-126113641D01*
X150789554Y-125693388D01*
X150468303Y-125371577D01*
X150048354Y-125197199D01*
X149593641Y-125196802D01*
X149173388Y-125370446D01*
X148851577Y-125691697D01*
X148677199Y-126111646D01*
X148676802Y-126566359D01*
X148462802Y-126566359D01*
X148463198Y-126113641D01*
X148289554Y-125693388D01*
X147968303Y-125371577D01*
X147548354Y-125197199D01*
X147093641Y-125196802D01*
X146673388Y-125370446D01*
X146351577Y-125691697D01*
X146177199Y-126111646D01*
X146176802Y-126566359D01*
X143645443Y-126566359D01*
X143435183Y-126118642D01*
X143006924Y-125728355D01*
X142596890Y-125558524D01*
X142367000Y-125679845D01*
X142113000Y-125679845D01*
X141883110Y-125558524D01*
X141473076Y-125728355D01*
X141044817Y-126118642D01*
X140938464Y-126345105D01*
X140938464Y-126150000D01*
X140911897Y-126008810D01*
X140828454Y-125879135D01*
X140701134Y-125792141D01*
X140550000Y-125761536D01*
X138850000Y-125761536D01*
X138708810Y-125788103D01*
X138579135Y-125871546D01*
X138492141Y-125998866D01*
X138461536Y-126150000D01*
X138461536Y-126428500D01*
X137414005Y-126428500D01*
X137414000Y-126428499D01*
X137195297Y-126472002D01*
X137195295Y-126472003D01*
X137195296Y-126472003D01*
X137009888Y-126595888D01*
X137009886Y-126595891D01*
X134342888Y-129262888D01*
X134219003Y-129448296D01*
X134219003Y-129448297D01*
X134175499Y-129667000D01*
X134175500Y-129667005D01*
X134175500Y-139082277D01*
X132859276Y-140398500D01*
X129321463Y-140398500D01*
X129301185Y-140378186D01*
X129044550Y-140271622D01*
X128766669Y-140271379D01*
X128509849Y-140377496D01*
X128313186Y-140573815D01*
X128206622Y-140830450D01*
X128206379Y-141108331D01*
X115239241Y-141108331D01*
X115181358Y-141044817D01*
X114954895Y-140938464D01*
X115150000Y-140938464D01*
X115291190Y-140911897D01*
X115420865Y-140828454D01*
X115507859Y-140701134D01*
X115538464Y-140550000D01*
X115538464Y-138850000D01*
X115511897Y-138708810D01*
X115428454Y-138579135D01*
X115301134Y-138492141D01*
X115150000Y-138461536D01*
X113450000Y-138461536D01*
X113308810Y-138488103D01*
X113179135Y-138571546D01*
X113092141Y-138698866D01*
X113061536Y-138850000D01*
X113061536Y-140550000D01*
X113088103Y-140691190D01*
X113171546Y-140820865D01*
X113298866Y-140907859D01*
X113450000Y-140938464D01*
X113645105Y-140938464D01*
X113418642Y-141044817D01*
X113028355Y-141473076D01*
X112858524Y-141883110D01*
X112191000Y-141883110D01*
X112191000Y-133447870D01*
X115236583Y-133447870D01*
X115603166Y-134335069D01*
X116281361Y-135014449D01*
X117167919Y-135382580D01*
X118127870Y-135383417D01*
X119015069Y-135016834D01*
X119694449Y-134338639D01*
X120062580Y-133452081D01*
X120063417Y-132492130D01*
X119696834Y-131604931D01*
X119018639Y-130925551D01*
X118132081Y-130557420D01*
X117172130Y-130556583D01*
X116284931Y-130923166D01*
X115605551Y-131601361D01*
X115237420Y-132487919D01*
X115236583Y-133447870D01*
X112191000Y-133447870D01*
X112191000Y-130168121D01*
X112931484Y-130168121D01*
X113156154Y-130542168D01*
X114139388Y-130940880D01*
X115200357Y-130932975D01*
X116143846Y-130542168D01*
X116368516Y-130168121D01*
X114650000Y-128449605D01*
X112931484Y-130168121D01*
X112191000Y-130168121D01*
X112191000Y-129312795D01*
X112377832Y-129763846D01*
X112751879Y-129988516D01*
X114470395Y-128270000D01*
X114829605Y-128270000D01*
X116548121Y-129988516D01*
X116922168Y-129763846D01*
X117313759Y-128798172D01*
X117982538Y-128798172D01*
X118387709Y-129778761D01*
X119137293Y-130529655D01*
X120117173Y-130936536D01*
X121178172Y-130937462D01*
X122158761Y-130532291D01*
X122909655Y-129782707D01*
X123316536Y-128802827D01*
X123317462Y-127741828D01*
X123172024Y-127389841D01*
X125031159Y-127389841D01*
X125330214Y-128113609D01*
X125883479Y-128667840D01*
X126606723Y-128968157D01*
X127389841Y-128968841D01*
X128113609Y-128669786D01*
X128667840Y-128116521D01*
X128968157Y-127393277D01*
X128968500Y-127000000D01*
X130824883Y-127000000D01*
X130918587Y-127471083D01*
X131185435Y-127870448D01*
X131584800Y-128137296D01*
X132055883Y-128231000D01*
X132104117Y-128231000D01*
X132575200Y-128137296D01*
X132974565Y-127870448D01*
X133241413Y-127471083D01*
X133335117Y-127000000D01*
X133364883Y-127000000D01*
X133458587Y-127471083D01*
X133725435Y-127870448D01*
X134124800Y-128137296D01*
X134595883Y-128231000D01*
X134644117Y-128231000D01*
X135115200Y-128137296D01*
X135514565Y-127870448D01*
X135781413Y-127471083D01*
X135875117Y-127000000D01*
X135781413Y-126528917D01*
X135514565Y-126129552D01*
X135115200Y-125862704D01*
X134644117Y-125769000D01*
X134595883Y-125769000D01*
X134124800Y-125862704D01*
X133725435Y-126129552D01*
X133458587Y-126528917D01*
X133364883Y-127000000D01*
X133335117Y-127000000D01*
X133241413Y-126528917D01*
X132974565Y-126129552D01*
X132575200Y-125862704D01*
X132104117Y-125769000D01*
X132055883Y-125769000D01*
X131584800Y-125862704D01*
X131185435Y-126129552D01*
X130918587Y-126528917D01*
X130824883Y-127000000D01*
X128968500Y-127000000D01*
X128968841Y-126610159D01*
X128669786Y-125886391D01*
X128116521Y-125332160D01*
X127393277Y-125031843D01*
X126610159Y-125031159D01*
X125886391Y-125330214D01*
X125332160Y-125883479D01*
X125031843Y-126606723D01*
X125031159Y-127389841D01*
X123172024Y-127389841D01*
X122912291Y-126761239D01*
X122162707Y-126010345D01*
X121182827Y-125603464D01*
X120121828Y-125602538D01*
X119141239Y-126007709D01*
X118390345Y-126757293D01*
X117983464Y-127737173D01*
X117982538Y-128798172D01*
X117313759Y-128798172D01*
X117320880Y-128780612D01*
X117312975Y-127719643D01*
X116922168Y-126776154D01*
X116548121Y-126551484D01*
X114829605Y-128270000D01*
X114470395Y-128270000D01*
X112751879Y-126551484D01*
X112377832Y-126776154D01*
X112191000Y-127236886D01*
X112191000Y-126371879D01*
X112931484Y-126371879D01*
X114650000Y-128090395D01*
X116368516Y-126371879D01*
X116143846Y-125997832D01*
X115160612Y-125599120D01*
X114099643Y-125607025D01*
X113156154Y-125997832D01*
X112931484Y-126371879D01*
X112191000Y-126371879D01*
X112191000Y-123621000D01*
X169417998Y-123621000D01*
X169417998Y-123774180D01*
M02*
