G04 #@! TF.FileFunction,Legend,Bot*
%FSLAX46Y46*%
G04 Gerber Fmt 4.6, Leading zero omitted, Abs format (unit mm)*
G04 Created by KiCad (PCBNEW 4.0.6) date 08/14/17 09:10:16*
%MOMM*%
%LPD*%
G01*
G04 APERTURE LIST*
%ADD10C,0.100000*%
%ADD11C,0.200000*%
%ADD12C,0.190500*%
G04 APERTURE END LIST*
D10*
D11*
X157480000Y-141605000D02*
X170815000Y-141605000D01*
D12*
X168293143Y-140607143D02*
X168329429Y-140643429D01*
X168438286Y-140679714D01*
X168510857Y-140679714D01*
X168619714Y-140643429D01*
X168692286Y-140570857D01*
X168728571Y-140498286D01*
X168764857Y-140353143D01*
X168764857Y-140244286D01*
X168728571Y-140099143D01*
X168692286Y-140026571D01*
X168619714Y-139954000D01*
X168510857Y-139917714D01*
X168438286Y-139917714D01*
X168329429Y-139954000D01*
X168293143Y-139990286D01*
X167640000Y-140171714D02*
X167640000Y-140679714D01*
X167966571Y-140171714D02*
X167966571Y-140570857D01*
X167930286Y-140643429D01*
X167857714Y-140679714D01*
X167748857Y-140679714D01*
X167676286Y-140643429D01*
X167640000Y-140607143D01*
X167277142Y-140679714D02*
X167277142Y-140171714D01*
X167277142Y-140316857D02*
X167240857Y-140244286D01*
X167204571Y-140208000D01*
X167132000Y-140171714D01*
X167059428Y-140171714D01*
X166805428Y-140679714D02*
X166805428Y-140171714D01*
X166805428Y-140316857D02*
X166769143Y-140244286D01*
X166732857Y-140208000D01*
X166660286Y-140171714D01*
X166587714Y-140171714D01*
X166043429Y-140643429D02*
X166116000Y-140679714D01*
X166261143Y-140679714D01*
X166333714Y-140643429D01*
X166370000Y-140570857D01*
X166370000Y-140280571D01*
X166333714Y-140208000D01*
X166261143Y-140171714D01*
X166116000Y-140171714D01*
X166043429Y-140208000D01*
X166007143Y-140280571D01*
X166007143Y-140353143D01*
X166370000Y-140425714D01*
X165680571Y-140171714D02*
X165680571Y-140679714D01*
X165680571Y-140244286D02*
X165644286Y-140208000D01*
X165571714Y-140171714D01*
X165462857Y-140171714D01*
X165390286Y-140208000D01*
X165354000Y-140280571D01*
X165354000Y-140679714D01*
X165100000Y-140171714D02*
X164809714Y-140171714D01*
X164991142Y-139917714D02*
X164991142Y-140570857D01*
X164954857Y-140643429D01*
X164882285Y-140679714D01*
X164809714Y-140679714D01*
X164011428Y-140643429D02*
X163902571Y-140679714D01*
X163721142Y-140679714D01*
X163648571Y-140643429D01*
X163612285Y-140607143D01*
X163576000Y-140534571D01*
X163576000Y-140462000D01*
X163612285Y-140389429D01*
X163648571Y-140353143D01*
X163721142Y-140316857D01*
X163866285Y-140280571D01*
X163938857Y-140244286D01*
X163975142Y-140208000D01*
X164011428Y-140135429D01*
X164011428Y-140062857D01*
X163975142Y-139990286D01*
X163938857Y-139954000D01*
X163866285Y-139917714D01*
X163684857Y-139917714D01*
X163576000Y-139954000D01*
X162959143Y-140643429D02*
X163031714Y-140679714D01*
X163176857Y-140679714D01*
X163249428Y-140643429D01*
X163285714Y-140570857D01*
X163285714Y-140280571D01*
X163249428Y-140208000D01*
X163176857Y-140171714D01*
X163031714Y-140171714D01*
X162959143Y-140208000D01*
X162922857Y-140280571D01*
X162922857Y-140353143D01*
X163285714Y-140425714D01*
X162596285Y-140171714D02*
X162596285Y-140679714D01*
X162596285Y-140244286D02*
X162560000Y-140208000D01*
X162487428Y-140171714D01*
X162378571Y-140171714D01*
X162306000Y-140208000D01*
X162269714Y-140280571D01*
X162269714Y-140679714D01*
X161943142Y-140643429D02*
X161870571Y-140679714D01*
X161725428Y-140679714D01*
X161652856Y-140643429D01*
X161616571Y-140570857D01*
X161616571Y-140534571D01*
X161652856Y-140462000D01*
X161725428Y-140425714D01*
X161834285Y-140425714D01*
X161906856Y-140389429D01*
X161943142Y-140316857D01*
X161943142Y-140280571D01*
X161906856Y-140208000D01*
X161834285Y-140171714D01*
X161725428Y-140171714D01*
X161652856Y-140208000D01*
X161289999Y-140679714D02*
X161289999Y-140171714D01*
X161289999Y-139917714D02*
X161326285Y-139954000D01*
X161289999Y-139990286D01*
X161253714Y-139954000D01*
X161289999Y-139917714D01*
X161289999Y-139990286D01*
X160927142Y-140171714D02*
X160927142Y-140679714D01*
X160927142Y-140244286D02*
X160890857Y-140208000D01*
X160818285Y-140171714D01*
X160709428Y-140171714D01*
X160636857Y-140208000D01*
X160600571Y-140280571D01*
X160600571Y-140679714D01*
X159911142Y-140171714D02*
X159911142Y-140788571D01*
X159947428Y-140861143D01*
X159983713Y-140897429D01*
X160056285Y-140933714D01*
X160165142Y-140933714D01*
X160237713Y-140897429D01*
X159911142Y-140643429D02*
X159983713Y-140679714D01*
X160128856Y-140679714D01*
X160201428Y-140643429D01*
X160237713Y-140607143D01*
X160273999Y-140534571D01*
X160273999Y-140316857D01*
X160237713Y-140244286D01*
X160201428Y-140208000D01*
X160128856Y-140171714D01*
X159983713Y-140171714D01*
X159911142Y-140208000D01*
D11*
X157480000Y-149860000D02*
X157480000Y-139065000D01*
X170815000Y-149860000D02*
X157480000Y-149860000D01*
X170815000Y-139065000D02*
X170815000Y-149860000D01*
X157480000Y-139065000D02*
X170815000Y-139065000D01*
X156845000Y-149860000D02*
X156845000Y-144145000D01*
X140335000Y-149860000D02*
X156845000Y-149860000D01*
X140335000Y-149860000D02*
X139065000Y-149860000D01*
X140335000Y-144145000D02*
X140335000Y-149860000D01*
X122555000Y-149860000D02*
X122555000Y-144145000D01*
X139065000Y-149860000D02*
X122555000Y-149860000D01*
X139065000Y-144145000D02*
X139065000Y-149860000D01*
D12*
X155702000Y-148934714D02*
X155702000Y-148535571D01*
X155738286Y-148463000D01*
X155810857Y-148426714D01*
X155956000Y-148426714D01*
X156028571Y-148463000D01*
X155702000Y-148898429D02*
X155774571Y-148934714D01*
X155956000Y-148934714D01*
X156028571Y-148898429D01*
X156064857Y-148825857D01*
X156064857Y-148753286D01*
X156028571Y-148680714D01*
X155956000Y-148644429D01*
X155774571Y-148644429D01*
X155702000Y-148608143D01*
X155375428Y-148898429D02*
X155302857Y-148934714D01*
X155157714Y-148934714D01*
X155085142Y-148898429D01*
X155048857Y-148825857D01*
X155048857Y-148789571D01*
X155085142Y-148717000D01*
X155157714Y-148680714D01*
X155266571Y-148680714D01*
X155339142Y-148644429D01*
X155375428Y-148571857D01*
X155375428Y-148535571D01*
X155339142Y-148463000D01*
X155266571Y-148426714D01*
X155157714Y-148426714D01*
X155085142Y-148463000D01*
X154250572Y-148426714D02*
X153960286Y-148426714D01*
X154141714Y-148172714D02*
X154141714Y-148825857D01*
X154105429Y-148898429D01*
X154032857Y-148934714D01*
X153960286Y-148934714D01*
X153706285Y-148934714D02*
X153706285Y-148172714D01*
X153379714Y-148934714D02*
X153379714Y-148535571D01*
X153416000Y-148463000D01*
X153488571Y-148426714D01*
X153597428Y-148426714D01*
X153670000Y-148463000D01*
X153706285Y-148499286D01*
X152726571Y-148898429D02*
X152799142Y-148934714D01*
X152944285Y-148934714D01*
X153016856Y-148898429D01*
X153053142Y-148825857D01*
X153053142Y-148535571D01*
X153016856Y-148463000D01*
X152944285Y-148426714D01*
X152799142Y-148426714D01*
X152726571Y-148463000D01*
X152690285Y-148535571D01*
X152690285Y-148608143D01*
X153053142Y-148680714D01*
X151783142Y-148934714D02*
X151783142Y-148426714D01*
X151783142Y-148172714D02*
X151819428Y-148209000D01*
X151783142Y-148245286D01*
X151746857Y-148209000D01*
X151783142Y-148172714D01*
X151783142Y-148245286D01*
X151420285Y-148426714D02*
X151420285Y-148934714D01*
X151420285Y-148499286D02*
X151384000Y-148463000D01*
X151311428Y-148426714D01*
X151202571Y-148426714D01*
X151130000Y-148463000D01*
X151093714Y-148535571D01*
X151093714Y-148934714D01*
X150730856Y-148426714D02*
X150730856Y-149188714D01*
X150730856Y-148463000D02*
X150658285Y-148426714D01*
X150513142Y-148426714D01*
X150440571Y-148463000D01*
X150404285Y-148499286D01*
X150367999Y-148571857D01*
X150367999Y-148789571D01*
X150404285Y-148862143D01*
X150440571Y-148898429D01*
X150513142Y-148934714D01*
X150658285Y-148934714D01*
X150730856Y-148898429D01*
X149714856Y-148426714D02*
X149714856Y-148934714D01*
X150041427Y-148426714D02*
X150041427Y-148825857D01*
X150005142Y-148898429D01*
X149932570Y-148934714D01*
X149823713Y-148934714D01*
X149751142Y-148898429D01*
X149714856Y-148862143D01*
X149460856Y-148426714D02*
X149170570Y-148426714D01*
X149351998Y-148172714D02*
X149351998Y-148825857D01*
X149315713Y-148898429D01*
X149243141Y-148934714D01*
X149170570Y-148934714D01*
X148916569Y-148862143D02*
X148880284Y-148898429D01*
X148916569Y-148934714D01*
X148952855Y-148898429D01*
X148916569Y-148862143D01*
X148916569Y-148934714D01*
X155919714Y-147664714D02*
X155992286Y-147628429D01*
X156028571Y-147592143D01*
X156064857Y-147519571D01*
X156064857Y-147301857D01*
X156028571Y-147229286D01*
X155992286Y-147193000D01*
X155919714Y-147156714D01*
X155810857Y-147156714D01*
X155738286Y-147193000D01*
X155702000Y-147229286D01*
X155665714Y-147301857D01*
X155665714Y-147519571D01*
X155702000Y-147592143D01*
X155738286Y-147628429D01*
X155810857Y-147664714D01*
X155919714Y-147664714D01*
X155339142Y-147664714D02*
X155339142Y-147156714D01*
X155339142Y-147301857D02*
X155302857Y-147229286D01*
X155266571Y-147193000D01*
X155194000Y-147156714D01*
X155121428Y-147156714D01*
X154395715Y-147156714D02*
X154105429Y-147156714D01*
X154286857Y-146902714D02*
X154286857Y-147555857D01*
X154250572Y-147628429D01*
X154178000Y-147664714D01*
X154105429Y-147664714D01*
X153851428Y-147664714D02*
X153851428Y-146902714D01*
X153524857Y-147664714D02*
X153524857Y-147265571D01*
X153561143Y-147193000D01*
X153633714Y-147156714D01*
X153742571Y-147156714D01*
X153815143Y-147193000D01*
X153851428Y-147229286D01*
X152871714Y-147628429D02*
X152944285Y-147664714D01*
X153089428Y-147664714D01*
X153161999Y-147628429D01*
X153198285Y-147555857D01*
X153198285Y-147265571D01*
X153161999Y-147193000D01*
X153089428Y-147156714D01*
X152944285Y-147156714D01*
X152871714Y-147193000D01*
X152835428Y-147265571D01*
X152835428Y-147338143D01*
X153198285Y-147410714D01*
X151928285Y-147664714D02*
X151928285Y-146902714D01*
X151565428Y-147664714D02*
X151565428Y-146902714D01*
X151130000Y-147664714D01*
X151130000Y-146902714D01*
X150803428Y-146975286D02*
X150767142Y-146939000D01*
X150694571Y-146902714D01*
X150513142Y-146902714D01*
X150440571Y-146939000D01*
X150404285Y-146975286D01*
X150368000Y-147047857D01*
X150368000Y-147120429D01*
X150404285Y-147229286D01*
X150839714Y-147664714D01*
X150368000Y-147664714D01*
X149170572Y-147628429D02*
X149243143Y-147664714D01*
X149388286Y-147664714D01*
X149460857Y-147628429D01*
X149497143Y-147555857D01*
X149497143Y-147265571D01*
X149460857Y-147193000D01*
X149388286Y-147156714D01*
X149243143Y-147156714D01*
X149170572Y-147193000D01*
X149134286Y-147265571D01*
X149134286Y-147338143D01*
X149497143Y-147410714D01*
X148880286Y-147664714D02*
X148481143Y-147156714D01*
X148880286Y-147156714D02*
X148481143Y-147664714D01*
X148299715Y-147156714D02*
X148009429Y-147156714D01*
X148190857Y-146902714D02*
X148190857Y-147555857D01*
X148154572Y-147628429D01*
X148082000Y-147664714D01*
X148009429Y-147664714D01*
X147465143Y-147628429D02*
X147537714Y-147664714D01*
X147682857Y-147664714D01*
X147755428Y-147628429D01*
X147791714Y-147555857D01*
X147791714Y-147265571D01*
X147755428Y-147193000D01*
X147682857Y-147156714D01*
X147537714Y-147156714D01*
X147465143Y-147193000D01*
X147428857Y-147265571D01*
X147428857Y-147338143D01*
X147791714Y-147410714D01*
X147102285Y-147664714D02*
X147102285Y-147156714D01*
X147102285Y-147301857D02*
X147066000Y-147229286D01*
X147029714Y-147193000D01*
X146957143Y-147156714D01*
X146884571Y-147156714D01*
X146630571Y-147156714D02*
X146630571Y-147664714D01*
X146630571Y-147229286D02*
X146594286Y-147193000D01*
X146521714Y-147156714D01*
X146412857Y-147156714D01*
X146340286Y-147193000D01*
X146304000Y-147265571D01*
X146304000Y-147664714D01*
X145614571Y-147664714D02*
X145614571Y-147265571D01*
X145650857Y-147193000D01*
X145723428Y-147156714D01*
X145868571Y-147156714D01*
X145941142Y-147193000D01*
X145614571Y-147628429D02*
X145687142Y-147664714D01*
X145868571Y-147664714D01*
X145941142Y-147628429D01*
X145977428Y-147555857D01*
X145977428Y-147483286D01*
X145941142Y-147410714D01*
X145868571Y-147374429D01*
X145687142Y-147374429D01*
X145614571Y-147338143D01*
X145142856Y-147664714D02*
X145215428Y-147628429D01*
X145251713Y-147555857D01*
X145251713Y-146902714D01*
X144308285Y-147628429D02*
X144235714Y-147664714D01*
X144090571Y-147664714D01*
X144017999Y-147628429D01*
X143981714Y-147555857D01*
X143981714Y-147519571D01*
X144017999Y-147447000D01*
X144090571Y-147410714D01*
X144199428Y-147410714D01*
X144271999Y-147374429D01*
X144308285Y-147301857D01*
X144308285Y-147265571D01*
X144271999Y-147193000D01*
X144199428Y-147156714D01*
X144090571Y-147156714D01*
X144017999Y-147193000D01*
X143546285Y-147664714D02*
X143618857Y-147628429D01*
X143655142Y-147592143D01*
X143691428Y-147519571D01*
X143691428Y-147301857D01*
X143655142Y-147229286D01*
X143618857Y-147193000D01*
X143546285Y-147156714D01*
X143437428Y-147156714D01*
X143364857Y-147193000D01*
X143328571Y-147229286D01*
X143292285Y-147301857D01*
X143292285Y-147519571D01*
X143328571Y-147592143D01*
X143364857Y-147628429D01*
X143437428Y-147664714D01*
X143546285Y-147664714D01*
X142639142Y-147156714D02*
X142639142Y-147664714D01*
X142965713Y-147156714D02*
X142965713Y-147555857D01*
X142929428Y-147628429D01*
X142856856Y-147664714D01*
X142747999Y-147664714D01*
X142675428Y-147628429D01*
X142639142Y-147592143D01*
X142276284Y-147664714D02*
X142276284Y-147156714D01*
X142276284Y-147301857D02*
X142239999Y-147229286D01*
X142203713Y-147193000D01*
X142131142Y-147156714D01*
X142058570Y-147156714D01*
X141477999Y-147628429D02*
X141550570Y-147664714D01*
X141695713Y-147664714D01*
X141768285Y-147628429D01*
X141804570Y-147592143D01*
X141840856Y-147519571D01*
X141840856Y-147301857D01*
X141804570Y-147229286D01*
X141768285Y-147193000D01*
X141695713Y-147156714D01*
X141550570Y-147156714D01*
X141477999Y-147193000D01*
X140861142Y-147628429D02*
X140933713Y-147664714D01*
X141078856Y-147664714D01*
X141151427Y-147628429D01*
X141187713Y-147555857D01*
X141187713Y-147265571D01*
X141151427Y-147193000D01*
X141078856Y-147156714D01*
X140933713Y-147156714D01*
X140861142Y-147193000D01*
X140824856Y-147265571D01*
X140824856Y-147338143D01*
X141187713Y-147410714D01*
X156064857Y-146358429D02*
X155992286Y-146394714D01*
X155847143Y-146394714D01*
X155774571Y-146358429D01*
X155738286Y-146285857D01*
X155738286Y-146249571D01*
X155774571Y-146177000D01*
X155847143Y-146140714D01*
X155956000Y-146140714D01*
X156028571Y-146104429D01*
X156064857Y-146031857D01*
X156064857Y-145995571D01*
X156028571Y-145923000D01*
X155956000Y-145886714D01*
X155847143Y-145886714D01*
X155774571Y-145923000D01*
X155121429Y-146358429D02*
X155194000Y-146394714D01*
X155339143Y-146394714D01*
X155411714Y-146358429D01*
X155448000Y-146285857D01*
X155448000Y-145995571D01*
X155411714Y-145923000D01*
X155339143Y-145886714D01*
X155194000Y-145886714D01*
X155121429Y-145923000D01*
X155085143Y-145995571D01*
X155085143Y-146068143D01*
X155448000Y-146140714D01*
X154649714Y-146394714D02*
X154722286Y-146358429D01*
X154758571Y-146285857D01*
X154758571Y-145632714D01*
X154069143Y-146358429D02*
X154141714Y-146394714D01*
X154286857Y-146394714D01*
X154359428Y-146358429D01*
X154395714Y-146285857D01*
X154395714Y-145995571D01*
X154359428Y-145923000D01*
X154286857Y-145886714D01*
X154141714Y-145886714D01*
X154069143Y-145923000D01*
X154032857Y-145995571D01*
X154032857Y-146068143D01*
X154395714Y-146140714D01*
X153379714Y-146358429D02*
X153452285Y-146394714D01*
X153597428Y-146394714D01*
X153670000Y-146358429D01*
X153706285Y-146322143D01*
X153742571Y-146249571D01*
X153742571Y-146031857D01*
X153706285Y-145959286D01*
X153670000Y-145923000D01*
X153597428Y-145886714D01*
X153452285Y-145886714D01*
X153379714Y-145923000D01*
X153162000Y-145886714D02*
X152871714Y-145886714D01*
X153053142Y-145632714D02*
X153053142Y-146285857D01*
X153016857Y-146358429D01*
X152944285Y-146394714D01*
X152871714Y-146394714D01*
X151746857Y-146358429D02*
X151819428Y-146394714D01*
X151964571Y-146394714D01*
X152037142Y-146358429D01*
X152073428Y-146285857D01*
X152073428Y-145995571D01*
X152037142Y-145923000D01*
X151964571Y-145886714D01*
X151819428Y-145886714D01*
X151746857Y-145923000D01*
X151710571Y-145995571D01*
X151710571Y-146068143D01*
X152073428Y-146140714D01*
X151383999Y-146394714D02*
X151383999Y-145886714D01*
X151383999Y-145632714D02*
X151420285Y-145669000D01*
X151383999Y-145705286D01*
X151347714Y-145669000D01*
X151383999Y-145632714D01*
X151383999Y-145705286D01*
X151130000Y-145886714D02*
X150839714Y-145886714D01*
X151021142Y-145632714D02*
X151021142Y-146285857D01*
X150984857Y-146358429D01*
X150912285Y-146394714D01*
X150839714Y-146394714D01*
X150585713Y-146394714D02*
X150585713Y-145632714D01*
X150259142Y-146394714D02*
X150259142Y-145995571D01*
X150295428Y-145923000D01*
X150367999Y-145886714D01*
X150476856Y-145886714D01*
X150549428Y-145923000D01*
X150585713Y-145959286D01*
X149605999Y-146358429D02*
X149678570Y-146394714D01*
X149823713Y-146394714D01*
X149896284Y-146358429D01*
X149932570Y-146285857D01*
X149932570Y-145995571D01*
X149896284Y-145923000D01*
X149823713Y-145886714D01*
X149678570Y-145886714D01*
X149605999Y-145923000D01*
X149569713Y-145995571D01*
X149569713Y-146068143D01*
X149932570Y-146140714D01*
X149243141Y-146394714D02*
X149243141Y-145886714D01*
X149243141Y-146031857D02*
X149206856Y-145959286D01*
X149170570Y-145923000D01*
X149097999Y-145886714D01*
X149025427Y-145886714D01*
X148299714Y-145886714D02*
X148009428Y-145886714D01*
X148190856Y-145632714D02*
X148190856Y-146285857D01*
X148154571Y-146358429D01*
X148081999Y-146394714D01*
X148009428Y-146394714D01*
X147755427Y-146394714D02*
X147755427Y-145632714D01*
X147428856Y-146394714D02*
X147428856Y-145995571D01*
X147465142Y-145923000D01*
X147537713Y-145886714D01*
X147646570Y-145886714D01*
X147719142Y-145923000D01*
X147755427Y-145959286D01*
X146775713Y-146358429D02*
X146848284Y-146394714D01*
X146993427Y-146394714D01*
X147065998Y-146358429D01*
X147102284Y-146285857D01*
X147102284Y-145995571D01*
X147065998Y-145923000D01*
X146993427Y-145886714D01*
X146848284Y-145886714D01*
X146775713Y-145923000D01*
X146739427Y-145995571D01*
X146739427Y-146068143D01*
X147102284Y-146140714D01*
X145469427Y-145632714D02*
X145832284Y-145632714D01*
X145868570Y-145995571D01*
X145832284Y-145959286D01*
X145759713Y-145923000D01*
X145578284Y-145923000D01*
X145505713Y-145959286D01*
X145469427Y-145995571D01*
X145433142Y-146068143D01*
X145433142Y-146249571D01*
X145469427Y-146322143D01*
X145505713Y-146358429D01*
X145578284Y-146394714D01*
X145759713Y-146394714D01*
X145832284Y-146358429D01*
X145868570Y-146322143D01*
X145215428Y-145632714D02*
X144961428Y-146394714D01*
X144707428Y-145632714D01*
X143872856Y-146394714D02*
X143872856Y-145886714D01*
X143872856Y-146031857D02*
X143836571Y-145959286D01*
X143800285Y-145923000D01*
X143727714Y-145886714D01*
X143655142Y-145886714D01*
X143074571Y-146394714D02*
X143074571Y-145995571D01*
X143110857Y-145923000D01*
X143183428Y-145886714D01*
X143328571Y-145886714D01*
X143401142Y-145923000D01*
X143074571Y-146358429D02*
X143147142Y-146394714D01*
X143328571Y-146394714D01*
X143401142Y-146358429D01*
X143437428Y-146285857D01*
X143437428Y-146213286D01*
X143401142Y-146140714D01*
X143328571Y-146104429D01*
X143147142Y-146104429D01*
X143074571Y-146068143D01*
X142711713Y-146394714D02*
X142711713Y-145886714D01*
X142711713Y-145632714D02*
X142747999Y-145669000D01*
X142711713Y-145705286D01*
X142675428Y-145669000D01*
X142711713Y-145632714D01*
X142711713Y-145705286D01*
X142239999Y-146394714D02*
X142312571Y-146358429D01*
X142348856Y-146285857D01*
X142348856Y-145632714D01*
X156028571Y-144362714D02*
X156028571Y-144979571D01*
X155992286Y-145052143D01*
X155956000Y-145088429D01*
X155883429Y-145124714D01*
X155738286Y-145124714D01*
X155665714Y-145088429D01*
X155629429Y-145052143D01*
X155593143Y-144979571D01*
X155593143Y-144362714D01*
X155266571Y-145088429D02*
X155194000Y-145124714D01*
X155048857Y-145124714D01*
X154976285Y-145088429D01*
X154940000Y-145015857D01*
X154940000Y-144979571D01*
X154976285Y-144907000D01*
X155048857Y-144870714D01*
X155157714Y-144870714D01*
X155230285Y-144834429D01*
X155266571Y-144761857D01*
X155266571Y-144725571D01*
X155230285Y-144653000D01*
X155157714Y-144616714D01*
X155048857Y-144616714D01*
X154976285Y-144653000D01*
X154323143Y-145088429D02*
X154395714Y-145124714D01*
X154540857Y-145124714D01*
X154613428Y-145088429D01*
X154649714Y-145015857D01*
X154649714Y-144725571D01*
X154613428Y-144653000D01*
X154540857Y-144616714D01*
X154395714Y-144616714D01*
X154323143Y-144653000D01*
X154286857Y-144725571D01*
X154286857Y-144798143D01*
X154649714Y-144870714D01*
X153379714Y-144616714D02*
X153379714Y-145269857D01*
X153416000Y-145342429D01*
X153488572Y-145378714D01*
X153524857Y-145378714D01*
X153379714Y-144362714D02*
X153416000Y-144399000D01*
X153379714Y-144435286D01*
X153343429Y-144399000D01*
X153379714Y-144362714D01*
X153379714Y-144435286D01*
X152690286Y-144616714D02*
X152690286Y-145124714D01*
X153016857Y-144616714D02*
X153016857Y-145015857D01*
X152980572Y-145088429D01*
X152908000Y-145124714D01*
X152799143Y-145124714D01*
X152726572Y-145088429D01*
X152690286Y-145052143D01*
X152327428Y-145124714D02*
X152327428Y-144616714D01*
X152327428Y-144689286D02*
X152291143Y-144653000D01*
X152218571Y-144616714D01*
X152109714Y-144616714D01*
X152037143Y-144653000D01*
X152000857Y-144725571D01*
X152000857Y-145124714D01*
X152000857Y-144725571D02*
X151964571Y-144653000D01*
X151892000Y-144616714D01*
X151783143Y-144616714D01*
X151710571Y-144653000D01*
X151674286Y-144725571D01*
X151674286Y-145124714D01*
X151311428Y-144616714D02*
X151311428Y-145378714D01*
X151311428Y-144653000D02*
X151238857Y-144616714D01*
X151093714Y-144616714D01*
X151021143Y-144653000D01*
X150984857Y-144689286D01*
X150948571Y-144761857D01*
X150948571Y-144979571D01*
X150984857Y-145052143D01*
X151021143Y-145088429D01*
X151093714Y-145124714D01*
X151238857Y-145124714D01*
X151311428Y-145088429D01*
X150331714Y-145088429D02*
X150404285Y-145124714D01*
X150549428Y-145124714D01*
X150621999Y-145088429D01*
X150658285Y-145015857D01*
X150658285Y-144725571D01*
X150621999Y-144653000D01*
X150549428Y-144616714D01*
X150404285Y-144616714D01*
X150331714Y-144653000D01*
X150295428Y-144725571D01*
X150295428Y-144798143D01*
X150658285Y-144870714D01*
X149968856Y-145124714D02*
X149968856Y-144616714D01*
X149968856Y-144761857D02*
X149932571Y-144689286D01*
X149896285Y-144653000D01*
X149823714Y-144616714D01*
X149751142Y-144616714D01*
X148807714Y-145124714D02*
X148880286Y-145088429D01*
X148916571Y-145052143D01*
X148952857Y-144979571D01*
X148952857Y-144761857D01*
X148916571Y-144689286D01*
X148880286Y-144653000D01*
X148807714Y-144616714D01*
X148698857Y-144616714D01*
X148626286Y-144653000D01*
X148590000Y-144689286D01*
X148553714Y-144761857D01*
X148553714Y-144979571D01*
X148590000Y-145052143D01*
X148626286Y-145088429D01*
X148698857Y-145124714D01*
X148807714Y-145124714D01*
X148227142Y-144616714D02*
X148227142Y-145124714D01*
X148227142Y-144689286D02*
X148190857Y-144653000D01*
X148118285Y-144616714D01*
X148009428Y-144616714D01*
X147936857Y-144653000D01*
X147900571Y-144725571D01*
X147900571Y-145124714D01*
X146739428Y-144362714D02*
X146739428Y-144907000D01*
X146775714Y-145015857D01*
X146848285Y-145088429D01*
X146957142Y-145124714D01*
X147029714Y-145124714D01*
X146050000Y-144616714D02*
X146050000Y-145124714D01*
X146231429Y-144326429D02*
X146412857Y-144870714D01*
X145941143Y-144870714D01*
X145179144Y-144616714D02*
X144888858Y-144616714D01*
X145070286Y-144362714D02*
X145070286Y-145015857D01*
X145034001Y-145088429D01*
X144961429Y-145124714D01*
X144888858Y-145124714D01*
X144526000Y-145124714D02*
X144598572Y-145088429D01*
X144634857Y-145052143D01*
X144671143Y-144979571D01*
X144671143Y-144761857D01*
X144634857Y-144689286D01*
X144598572Y-144653000D01*
X144526000Y-144616714D01*
X144417143Y-144616714D01*
X144344572Y-144653000D01*
X144308286Y-144689286D01*
X144272000Y-144761857D01*
X144272000Y-144979571D01*
X144308286Y-145052143D01*
X144344572Y-145088429D01*
X144417143Y-145124714D01*
X144526000Y-145124714D01*
X138357429Y-148426714D02*
X138067143Y-148426714D01*
X138248571Y-148172714D02*
X138248571Y-148825857D01*
X138212286Y-148898429D01*
X138139714Y-148934714D01*
X138067143Y-148934714D01*
X137704285Y-148934714D02*
X137776857Y-148898429D01*
X137813142Y-148862143D01*
X137849428Y-148789571D01*
X137849428Y-148571857D01*
X137813142Y-148499286D01*
X137776857Y-148463000D01*
X137704285Y-148426714D01*
X137595428Y-148426714D01*
X137522857Y-148463000D01*
X137486571Y-148499286D01*
X137450285Y-148571857D01*
X137450285Y-148789571D01*
X137486571Y-148862143D01*
X137522857Y-148898429D01*
X137595428Y-148934714D01*
X137704285Y-148934714D01*
X136543142Y-148934714D02*
X136543142Y-148172714D01*
X136543142Y-148463000D02*
X136470571Y-148426714D01*
X136325428Y-148426714D01*
X136252857Y-148463000D01*
X136216571Y-148499286D01*
X136180285Y-148571857D01*
X136180285Y-148789571D01*
X136216571Y-148862143D01*
X136252857Y-148898429D01*
X136325428Y-148934714D01*
X136470571Y-148934714D01*
X136543142Y-148898429D01*
X135744856Y-148934714D02*
X135817428Y-148898429D01*
X135853713Y-148862143D01*
X135889999Y-148789571D01*
X135889999Y-148571857D01*
X135853713Y-148499286D01*
X135817428Y-148463000D01*
X135744856Y-148426714D01*
X135635999Y-148426714D01*
X135563428Y-148463000D01*
X135527142Y-148499286D01*
X135490856Y-148571857D01*
X135490856Y-148789571D01*
X135527142Y-148862143D01*
X135563428Y-148898429D01*
X135635999Y-148934714D01*
X135744856Y-148934714D01*
X135055427Y-148934714D02*
X135127999Y-148898429D01*
X135164284Y-148862143D01*
X135200570Y-148789571D01*
X135200570Y-148571857D01*
X135164284Y-148499286D01*
X135127999Y-148463000D01*
X135055427Y-148426714D01*
X134946570Y-148426714D01*
X134873999Y-148463000D01*
X134837713Y-148499286D01*
X134801427Y-148571857D01*
X134801427Y-148789571D01*
X134837713Y-148862143D01*
X134873999Y-148898429D01*
X134946570Y-148934714D01*
X135055427Y-148934714D01*
X134583713Y-148426714D02*
X134293427Y-148426714D01*
X134474855Y-148172714D02*
X134474855Y-148825857D01*
X134438570Y-148898429D01*
X134365998Y-148934714D01*
X134293427Y-148934714D01*
X133567713Y-148426714D02*
X133277427Y-148426714D01*
X133458855Y-148172714D02*
X133458855Y-148825857D01*
X133422570Y-148898429D01*
X133349998Y-148934714D01*
X133277427Y-148934714D01*
X133023426Y-148934714D02*
X133023426Y-148172714D01*
X132696855Y-148934714D02*
X132696855Y-148535571D01*
X132733141Y-148463000D01*
X132805712Y-148426714D01*
X132914569Y-148426714D01*
X132987141Y-148463000D01*
X133023426Y-148499286D01*
X132043712Y-148898429D02*
X132116283Y-148934714D01*
X132261426Y-148934714D01*
X132333997Y-148898429D01*
X132370283Y-148825857D01*
X132370283Y-148535571D01*
X132333997Y-148463000D01*
X132261426Y-148426714D01*
X132116283Y-148426714D01*
X132043712Y-148463000D01*
X132007426Y-148535571D01*
X132007426Y-148608143D01*
X132370283Y-148680714D01*
X131100283Y-148934714D02*
X131100283Y-148172714D01*
X130809998Y-148172714D01*
X130737426Y-148209000D01*
X130701141Y-148245286D01*
X130664855Y-148317857D01*
X130664855Y-148426714D01*
X130701141Y-148499286D01*
X130737426Y-148535571D01*
X130809998Y-148571857D01*
X131100283Y-148571857D01*
X130338283Y-148934714D02*
X130338283Y-148172714D01*
X130084283Y-148717000D01*
X129830283Y-148172714D01*
X129830283Y-148934714D01*
X129467426Y-148934714D02*
X129467426Y-148172714D01*
X128669141Y-148862143D02*
X128705427Y-148898429D01*
X128814284Y-148934714D01*
X128886855Y-148934714D01*
X128995712Y-148898429D01*
X129068284Y-148825857D01*
X129104569Y-148753286D01*
X129140855Y-148608143D01*
X129140855Y-148499286D01*
X129104569Y-148354143D01*
X129068284Y-148281571D01*
X128995712Y-148209000D01*
X128886855Y-148172714D01*
X128814284Y-148172714D01*
X128705427Y-148209000D01*
X128669141Y-148245286D01*
X128342569Y-148862143D02*
X128306284Y-148898429D01*
X128342569Y-148934714D01*
X128378855Y-148898429D01*
X128342569Y-148862143D01*
X128342569Y-148934714D01*
X138248571Y-147664714D02*
X138248571Y-147156714D01*
X138248571Y-147229286D02*
X138212286Y-147193000D01*
X138139714Y-147156714D01*
X138030857Y-147156714D01*
X137958286Y-147193000D01*
X137922000Y-147265571D01*
X137922000Y-147664714D01*
X137922000Y-147265571D02*
X137885714Y-147193000D01*
X137813143Y-147156714D01*
X137704286Y-147156714D01*
X137631714Y-147193000D01*
X137595429Y-147265571D01*
X137595429Y-147664714D01*
X136906000Y-147156714D02*
X136906000Y-147664714D01*
X137232571Y-147156714D02*
X137232571Y-147555857D01*
X137196286Y-147628429D01*
X137123714Y-147664714D01*
X137014857Y-147664714D01*
X136942286Y-147628429D01*
X136906000Y-147592143D01*
X136579428Y-147628429D02*
X136506857Y-147664714D01*
X136361714Y-147664714D01*
X136289142Y-147628429D01*
X136252857Y-147555857D01*
X136252857Y-147519571D01*
X136289142Y-147447000D01*
X136361714Y-147410714D01*
X136470571Y-147410714D01*
X136543142Y-147374429D01*
X136579428Y-147301857D01*
X136579428Y-147265571D01*
X136543142Y-147193000D01*
X136470571Y-147156714D01*
X136361714Y-147156714D01*
X136289142Y-147193000D01*
X136035143Y-147156714D02*
X135744857Y-147156714D01*
X135926285Y-146902714D02*
X135926285Y-147555857D01*
X135890000Y-147628429D01*
X135817428Y-147664714D01*
X135744857Y-147664714D01*
X134910285Y-147664714D02*
X134910285Y-146902714D01*
X134910285Y-147193000D02*
X134837714Y-147156714D01*
X134692571Y-147156714D01*
X134620000Y-147193000D01*
X134583714Y-147229286D01*
X134547428Y-147301857D01*
X134547428Y-147519571D01*
X134583714Y-147592143D01*
X134620000Y-147628429D01*
X134692571Y-147664714D01*
X134837714Y-147664714D01*
X134910285Y-147628429D01*
X133930571Y-147628429D02*
X134003142Y-147664714D01*
X134148285Y-147664714D01*
X134220856Y-147628429D01*
X134257142Y-147555857D01*
X134257142Y-147265571D01*
X134220856Y-147193000D01*
X134148285Y-147156714D01*
X134003142Y-147156714D01*
X133930571Y-147193000D01*
X133894285Y-147265571D01*
X133894285Y-147338143D01*
X134257142Y-147410714D01*
X132878285Y-147664714D02*
X132950857Y-147628429D01*
X132987142Y-147555857D01*
X132987142Y-146902714D01*
X132297714Y-147628429D02*
X132370285Y-147664714D01*
X132515428Y-147664714D01*
X132587999Y-147628429D01*
X132624285Y-147555857D01*
X132624285Y-147265571D01*
X132587999Y-147193000D01*
X132515428Y-147156714D01*
X132370285Y-147156714D01*
X132297714Y-147193000D01*
X132261428Y-147265571D01*
X132261428Y-147338143D01*
X132624285Y-147410714D01*
X131971142Y-147628429D02*
X131898571Y-147664714D01*
X131753428Y-147664714D01*
X131680856Y-147628429D01*
X131644571Y-147555857D01*
X131644571Y-147519571D01*
X131680856Y-147447000D01*
X131753428Y-147410714D01*
X131862285Y-147410714D01*
X131934856Y-147374429D01*
X131971142Y-147301857D01*
X131971142Y-147265571D01*
X131934856Y-147193000D01*
X131862285Y-147156714D01*
X131753428Y-147156714D01*
X131680856Y-147193000D01*
X131354285Y-147628429D02*
X131281714Y-147664714D01*
X131136571Y-147664714D01*
X131063999Y-147628429D01*
X131027714Y-147555857D01*
X131027714Y-147519571D01*
X131063999Y-147447000D01*
X131136571Y-147410714D01*
X131245428Y-147410714D01*
X131317999Y-147374429D01*
X131354285Y-147301857D01*
X131354285Y-147265571D01*
X131317999Y-147193000D01*
X131245428Y-147156714D01*
X131136571Y-147156714D01*
X131063999Y-147193000D01*
X130229429Y-147156714D02*
X129939143Y-147156714D01*
X130120571Y-146902714D02*
X130120571Y-147555857D01*
X130084286Y-147628429D01*
X130011714Y-147664714D01*
X129939143Y-147664714D01*
X129685142Y-147664714D02*
X129685142Y-146902714D01*
X129358571Y-147664714D02*
X129358571Y-147265571D01*
X129394857Y-147193000D01*
X129467428Y-147156714D01*
X129576285Y-147156714D01*
X129648857Y-147193000D01*
X129685142Y-147229286D01*
X128669142Y-147664714D02*
X128669142Y-147265571D01*
X128705428Y-147193000D01*
X128777999Y-147156714D01*
X128923142Y-147156714D01*
X128995713Y-147193000D01*
X128669142Y-147628429D02*
X128741713Y-147664714D01*
X128923142Y-147664714D01*
X128995713Y-147628429D01*
X129031999Y-147555857D01*
X129031999Y-147483286D01*
X128995713Y-147410714D01*
X128923142Y-147374429D01*
X128741713Y-147374429D01*
X128669142Y-147338143D01*
X128306284Y-147156714D02*
X128306284Y-147664714D01*
X128306284Y-147229286D02*
X128269999Y-147193000D01*
X128197427Y-147156714D01*
X128088570Y-147156714D01*
X128015999Y-147193000D01*
X127979713Y-147265571D01*
X127979713Y-147664714D01*
X126927427Y-147229286D02*
X126999999Y-147193000D01*
X127036284Y-147156714D01*
X127072570Y-147084143D01*
X127072570Y-147047857D01*
X127036284Y-146975286D01*
X126999999Y-146939000D01*
X126927427Y-146902714D01*
X126782284Y-146902714D01*
X126709713Y-146939000D01*
X126673427Y-146975286D01*
X126637142Y-147047857D01*
X126637142Y-147084143D01*
X126673427Y-147156714D01*
X126709713Y-147193000D01*
X126782284Y-147229286D01*
X126927427Y-147229286D01*
X126999999Y-147265571D01*
X127036284Y-147301857D01*
X127072570Y-147374429D01*
X127072570Y-147519571D01*
X127036284Y-147592143D01*
X126999999Y-147628429D01*
X126927427Y-147664714D01*
X126782284Y-147664714D01*
X126709713Y-147628429D01*
X126673427Y-147592143D01*
X126637142Y-147519571D01*
X126637142Y-147374429D01*
X126673427Y-147301857D01*
X126709713Y-147265571D01*
X126782284Y-147229286D01*
X126165428Y-146902714D02*
X126092856Y-146902714D01*
X126020285Y-146939000D01*
X125983999Y-146975286D01*
X125947713Y-147047857D01*
X125911428Y-147193000D01*
X125911428Y-147374429D01*
X125947713Y-147519571D01*
X125983999Y-147592143D01*
X126020285Y-147628429D01*
X126092856Y-147664714D01*
X126165428Y-147664714D01*
X126237999Y-147628429D01*
X126274285Y-147592143D01*
X126310570Y-147519571D01*
X126346856Y-147374429D01*
X126346856Y-147193000D01*
X126310570Y-147047857D01*
X126274285Y-146975286D01*
X126237999Y-146939000D01*
X126165428Y-146902714D01*
X125439714Y-146902714D02*
X125367142Y-146902714D01*
X125294571Y-146939000D01*
X125258285Y-146975286D01*
X125221999Y-147047857D01*
X125185714Y-147193000D01*
X125185714Y-147374429D01*
X125221999Y-147519571D01*
X125258285Y-147592143D01*
X125294571Y-147628429D01*
X125367142Y-147664714D01*
X125439714Y-147664714D01*
X125512285Y-147628429D01*
X125548571Y-147592143D01*
X125584856Y-147519571D01*
X125621142Y-147374429D01*
X125621142Y-147193000D01*
X125584856Y-147047857D01*
X125548571Y-146975286D01*
X125512285Y-146939000D01*
X125439714Y-146902714D01*
X124859142Y-147664714D02*
X124859142Y-147156714D01*
X124859142Y-147229286D02*
X124822857Y-147193000D01*
X124750285Y-147156714D01*
X124641428Y-147156714D01*
X124568857Y-147193000D01*
X124532571Y-147265571D01*
X124532571Y-147664714D01*
X124532571Y-147265571D02*
X124496285Y-147193000D01*
X124423714Y-147156714D01*
X124314857Y-147156714D01*
X124242285Y-147193000D01*
X124206000Y-147265571D01*
X124206000Y-147664714D01*
X123879428Y-147447000D02*
X123516571Y-147447000D01*
X123952000Y-147664714D02*
X123698000Y-146902714D01*
X123444000Y-147664714D01*
X138284857Y-146358429D02*
X138176000Y-146394714D01*
X137994571Y-146394714D01*
X137922000Y-146358429D01*
X137885714Y-146322143D01*
X137849429Y-146249571D01*
X137849429Y-146177000D01*
X137885714Y-146104429D01*
X137922000Y-146068143D01*
X137994571Y-146031857D01*
X138139714Y-145995571D01*
X138212286Y-145959286D01*
X138248571Y-145923000D01*
X138284857Y-145850429D01*
X138284857Y-145777857D01*
X138248571Y-145705286D01*
X138212286Y-145669000D01*
X138139714Y-145632714D01*
X137958286Y-145632714D01*
X137849429Y-145669000D01*
X137631715Y-145886714D02*
X137341429Y-145886714D01*
X137522857Y-145632714D02*
X137522857Y-146285857D01*
X137486572Y-146358429D01*
X137414000Y-146394714D01*
X137341429Y-146394714D01*
X136760857Y-146394714D02*
X136760857Y-145995571D01*
X136797143Y-145923000D01*
X136869714Y-145886714D01*
X137014857Y-145886714D01*
X137087428Y-145923000D01*
X136760857Y-146358429D02*
X136833428Y-146394714D01*
X137014857Y-146394714D01*
X137087428Y-146358429D01*
X137123714Y-146285857D01*
X137123714Y-146213286D01*
X137087428Y-146140714D01*
X137014857Y-146104429D01*
X136833428Y-146104429D01*
X136760857Y-146068143D01*
X136397999Y-146394714D02*
X136397999Y-145886714D01*
X136397999Y-146031857D02*
X136361714Y-145959286D01*
X136325428Y-145923000D01*
X136252857Y-145886714D01*
X136180285Y-145886714D01*
X136035143Y-145886714D02*
X135744857Y-145886714D01*
X135926285Y-145632714D02*
X135926285Y-146285857D01*
X135890000Y-146358429D01*
X135817428Y-146394714D01*
X135744857Y-146394714D01*
X135490856Y-146104429D02*
X134910285Y-146104429D01*
X134220856Y-145886714D02*
X134220856Y-146394714D01*
X134547427Y-145886714D02*
X134547427Y-146285857D01*
X134511142Y-146358429D01*
X134438570Y-146394714D01*
X134329713Y-146394714D01*
X134257142Y-146358429D01*
X134220856Y-146322143D01*
X133857998Y-145886714D02*
X133857998Y-146648714D01*
X133857998Y-145923000D02*
X133785427Y-145886714D01*
X133640284Y-145886714D01*
X133567713Y-145923000D01*
X133531427Y-145959286D01*
X133495141Y-146031857D01*
X133495141Y-146249571D01*
X133531427Y-146322143D01*
X133567713Y-146358429D01*
X133640284Y-146394714D01*
X133785427Y-146394714D01*
X133857998Y-146358429D01*
X132479141Y-146394714D02*
X132551713Y-146358429D01*
X132587998Y-146285857D01*
X132587998Y-145632714D01*
X132079998Y-146394714D02*
X132152570Y-146358429D01*
X132188855Y-146322143D01*
X132225141Y-146249571D01*
X132225141Y-146031857D01*
X132188855Y-145959286D01*
X132152570Y-145923000D01*
X132079998Y-145886714D01*
X131971141Y-145886714D01*
X131898570Y-145923000D01*
X131862284Y-145959286D01*
X131825998Y-146031857D01*
X131825998Y-146249571D01*
X131862284Y-146322143D01*
X131898570Y-146358429D01*
X131971141Y-146394714D01*
X132079998Y-146394714D01*
X131172855Y-146394714D02*
X131172855Y-145995571D01*
X131209141Y-145923000D01*
X131281712Y-145886714D01*
X131426855Y-145886714D01*
X131499426Y-145923000D01*
X131172855Y-146358429D02*
X131245426Y-146394714D01*
X131426855Y-146394714D01*
X131499426Y-146358429D01*
X131535712Y-146285857D01*
X131535712Y-146213286D01*
X131499426Y-146140714D01*
X131426855Y-146104429D01*
X131245426Y-146104429D01*
X131172855Y-146068143D01*
X130483426Y-146394714D02*
X130483426Y-145632714D01*
X130483426Y-146358429D02*
X130555997Y-146394714D01*
X130701140Y-146394714D01*
X130773712Y-146358429D01*
X130809997Y-146322143D01*
X130846283Y-146249571D01*
X130846283Y-146031857D01*
X130809997Y-145959286D01*
X130773712Y-145923000D01*
X130701140Y-145886714D01*
X130555997Y-145886714D01*
X130483426Y-145923000D01*
X129213426Y-146358429D02*
X129285997Y-146394714D01*
X129431140Y-146394714D01*
X129503712Y-146358429D01*
X129539997Y-146322143D01*
X129576283Y-146249571D01*
X129576283Y-146031857D01*
X129539997Y-145959286D01*
X129503712Y-145923000D01*
X129431140Y-145886714D01*
X129285997Y-145886714D01*
X129213426Y-145923000D01*
X128560283Y-145886714D02*
X128560283Y-146394714D01*
X128886854Y-145886714D02*
X128886854Y-146285857D01*
X128850569Y-146358429D01*
X128777997Y-146394714D01*
X128669140Y-146394714D01*
X128596569Y-146358429D01*
X128560283Y-146322143D01*
X128197425Y-146394714D02*
X128197425Y-145886714D01*
X128197425Y-146031857D02*
X128161140Y-145959286D01*
X128124854Y-145923000D01*
X128052283Y-145886714D01*
X127979711Y-145886714D01*
X127725711Y-146394714D02*
X127725711Y-145886714D01*
X127725711Y-146031857D02*
X127689426Y-145959286D01*
X127653140Y-145923000D01*
X127580569Y-145886714D01*
X127507997Y-145886714D01*
X126963712Y-146358429D02*
X127036283Y-146394714D01*
X127181426Y-146394714D01*
X127253997Y-146358429D01*
X127290283Y-146285857D01*
X127290283Y-145995571D01*
X127253997Y-145923000D01*
X127181426Y-145886714D01*
X127036283Y-145886714D01*
X126963712Y-145923000D01*
X126927426Y-145995571D01*
X126927426Y-146068143D01*
X127290283Y-146140714D01*
X126600854Y-145886714D02*
X126600854Y-146394714D01*
X126600854Y-145959286D02*
X126564569Y-145923000D01*
X126491997Y-145886714D01*
X126383140Y-145886714D01*
X126310569Y-145923000D01*
X126274283Y-145995571D01*
X126274283Y-146394714D01*
X126020283Y-145886714D02*
X125729997Y-145886714D01*
X125911425Y-145632714D02*
X125911425Y-146285857D01*
X125875140Y-146358429D01*
X125802568Y-146394714D01*
X125729997Y-146394714D01*
D11*
X140335000Y-130810000D02*
X140335000Y-144145000D01*
X139065000Y-130810000D02*
X139065000Y-144145000D01*
X156845000Y-130810000D02*
X156845000Y-144145000D01*
X122555000Y-130810000D02*
X122555000Y-144145000D01*
D12*
X170107429Y-146267714D02*
X169672000Y-146267714D01*
X169889714Y-147029714D02*
X169889714Y-146267714D01*
X169055143Y-146267714D02*
X169418000Y-146267714D01*
X169454286Y-146630571D01*
X169418000Y-146594286D01*
X169345429Y-146558000D01*
X169164000Y-146558000D01*
X169091429Y-146594286D01*
X169055143Y-146630571D01*
X169018858Y-146703143D01*
X169018858Y-146884571D01*
X169055143Y-146957143D01*
X169091429Y-146993429D01*
X169164000Y-147029714D01*
X169345429Y-147029714D01*
X169418000Y-146993429D01*
X169454286Y-146957143D01*
X168692286Y-146739429D02*
X168111715Y-146739429D01*
X167857715Y-146267714D02*
X167422286Y-146267714D01*
X167640000Y-147029714D02*
X167640000Y-146267714D01*
X166841715Y-146267714D02*
X166986858Y-146267714D01*
X167059429Y-146304000D01*
X167095715Y-146340286D01*
X167168286Y-146449143D01*
X167204572Y-146594286D01*
X167204572Y-146884571D01*
X167168286Y-146957143D01*
X167132001Y-146993429D01*
X167059429Y-147029714D01*
X166914286Y-147029714D01*
X166841715Y-146993429D01*
X166805429Y-146957143D01*
X166769144Y-146884571D01*
X166769144Y-146703143D01*
X166805429Y-146630571D01*
X166841715Y-146594286D01*
X166914286Y-146558000D01*
X167059429Y-146558000D01*
X167132001Y-146594286D01*
X167168286Y-146630571D01*
X167204572Y-146703143D01*
X170107429Y-148172714D02*
X169672000Y-148172714D01*
X169889714Y-148934714D02*
X169889714Y-148172714D01*
X169490572Y-148172714D02*
X168982572Y-148172714D01*
X169309143Y-148934714D01*
X168692286Y-148644429D02*
X168111715Y-148644429D01*
X167857715Y-148172714D02*
X167422286Y-148172714D01*
X167640000Y-148934714D02*
X167640000Y-148172714D01*
X167059429Y-148499286D02*
X167132001Y-148463000D01*
X167168286Y-148426714D01*
X167204572Y-148354143D01*
X167204572Y-148317857D01*
X167168286Y-148245286D01*
X167132001Y-148209000D01*
X167059429Y-148172714D01*
X166914286Y-148172714D01*
X166841715Y-148209000D01*
X166805429Y-148245286D01*
X166769144Y-148317857D01*
X166769144Y-148354143D01*
X166805429Y-148426714D01*
X166841715Y-148463000D01*
X166914286Y-148499286D01*
X167059429Y-148499286D01*
X167132001Y-148535571D01*
X167168286Y-148571857D01*
X167204572Y-148644429D01*
X167204572Y-148789571D01*
X167168286Y-148862143D01*
X167132001Y-148898429D01*
X167059429Y-148934714D01*
X166914286Y-148934714D01*
X166841715Y-148898429D01*
X166805429Y-148862143D01*
X166769144Y-148789571D01*
X166769144Y-148644429D01*
X166805429Y-148571857D01*
X166841715Y-148535571D01*
X166914286Y-148499286D01*
X164029571Y-148172714D02*
X163956999Y-148172714D01*
X163884428Y-148209000D01*
X163848142Y-148245286D01*
X163811856Y-148317857D01*
X163775571Y-148463000D01*
X163775571Y-148644429D01*
X163811856Y-148789571D01*
X163848142Y-148862143D01*
X163884428Y-148898429D01*
X163956999Y-148934714D01*
X164029571Y-148934714D01*
X164102142Y-148898429D01*
X164138428Y-148862143D01*
X164174713Y-148789571D01*
X164210999Y-148644429D01*
X164210999Y-148463000D01*
X164174713Y-148317857D01*
X164138428Y-148245286D01*
X164102142Y-148209000D01*
X164029571Y-148172714D01*
X163448999Y-148862143D02*
X163412714Y-148898429D01*
X163448999Y-148934714D01*
X163485285Y-148898429D01*
X163448999Y-148862143D01*
X163448999Y-148934714D01*
X162941000Y-148172714D02*
X162868428Y-148172714D01*
X162795857Y-148209000D01*
X162759571Y-148245286D01*
X162723285Y-148317857D01*
X162687000Y-148463000D01*
X162687000Y-148644429D01*
X162723285Y-148789571D01*
X162759571Y-148862143D01*
X162795857Y-148898429D01*
X162868428Y-148934714D01*
X162941000Y-148934714D01*
X163013571Y-148898429D01*
X163049857Y-148862143D01*
X163086142Y-148789571D01*
X163122428Y-148644429D01*
X163122428Y-148463000D01*
X163086142Y-148317857D01*
X163049857Y-148245286D01*
X163013571Y-148209000D01*
X162941000Y-148172714D01*
X161961286Y-148934714D02*
X162396714Y-148934714D01*
X162179000Y-148934714D02*
X162179000Y-148172714D01*
X162251571Y-148281571D01*
X162324143Y-148354143D01*
X162396714Y-148390429D01*
X160909001Y-148172714D02*
X160763858Y-148172714D01*
X160691286Y-148209000D01*
X160618715Y-148281571D01*
X160582429Y-148426714D01*
X160582429Y-148680714D01*
X160618715Y-148825857D01*
X160691286Y-148898429D01*
X160763858Y-148934714D01*
X160909001Y-148934714D01*
X160981572Y-148898429D01*
X161054143Y-148825857D01*
X161090429Y-148680714D01*
X161090429Y-148426714D01*
X161054143Y-148281571D01*
X160981572Y-148209000D01*
X160909001Y-148172714D01*
X160255857Y-148934714D02*
X160255857Y-148172714D01*
X159929286Y-148934714D02*
X159929286Y-148535571D01*
X159965572Y-148463000D01*
X160038143Y-148426714D01*
X160147000Y-148426714D01*
X160219572Y-148463000D01*
X160255857Y-148499286D01*
X159566428Y-148934714D02*
X159566428Y-148426714D01*
X159566428Y-148499286D02*
X159530143Y-148463000D01*
X159457571Y-148426714D01*
X159348714Y-148426714D01*
X159276143Y-148463000D01*
X159239857Y-148535571D01*
X159239857Y-148934714D01*
X159239857Y-148535571D02*
X159203571Y-148463000D01*
X159131000Y-148426714D01*
X159022143Y-148426714D01*
X158949571Y-148463000D01*
X158913286Y-148535571D01*
X158913286Y-148934714D01*
X158586714Y-148898429D02*
X158514143Y-148934714D01*
X158369000Y-148934714D01*
X158296428Y-148898429D01*
X158260143Y-148825857D01*
X158260143Y-148789571D01*
X158296428Y-148717000D01*
X158369000Y-148680714D01*
X158477857Y-148680714D01*
X158550428Y-148644429D01*
X158586714Y-148571857D01*
X158586714Y-148535571D01*
X158550428Y-148463000D01*
X158477857Y-148426714D01*
X158369000Y-148426714D01*
X158296428Y-148463000D01*
X164029571Y-146267714D02*
X163956999Y-146267714D01*
X163884428Y-146304000D01*
X163848142Y-146340286D01*
X163811856Y-146412857D01*
X163775571Y-146558000D01*
X163775571Y-146739429D01*
X163811856Y-146884571D01*
X163848142Y-146957143D01*
X163884428Y-146993429D01*
X163956999Y-147029714D01*
X164029571Y-147029714D01*
X164102142Y-146993429D01*
X164138428Y-146957143D01*
X164174713Y-146884571D01*
X164210999Y-146739429D01*
X164210999Y-146558000D01*
X164174713Y-146412857D01*
X164138428Y-146340286D01*
X164102142Y-146304000D01*
X164029571Y-146267714D01*
X163448999Y-146957143D02*
X163412714Y-146993429D01*
X163448999Y-147029714D01*
X163485285Y-146993429D01*
X163448999Y-146957143D01*
X163448999Y-147029714D01*
X162941000Y-146267714D02*
X162868428Y-146267714D01*
X162795857Y-146304000D01*
X162759571Y-146340286D01*
X162723285Y-146412857D01*
X162687000Y-146558000D01*
X162687000Y-146739429D01*
X162723285Y-146884571D01*
X162759571Y-146957143D01*
X162795857Y-146993429D01*
X162868428Y-147029714D01*
X162941000Y-147029714D01*
X163013571Y-146993429D01*
X163049857Y-146957143D01*
X163086142Y-146884571D01*
X163122428Y-146739429D01*
X163122428Y-146558000D01*
X163086142Y-146412857D01*
X163049857Y-146340286D01*
X163013571Y-146304000D01*
X162941000Y-146267714D01*
X161961286Y-147029714D02*
X162396714Y-147029714D01*
X162179000Y-147029714D02*
X162179000Y-146267714D01*
X162251571Y-146376571D01*
X162324143Y-146449143D01*
X162396714Y-146485429D01*
X160909001Y-146267714D02*
X160763858Y-146267714D01*
X160691286Y-146304000D01*
X160618715Y-146376571D01*
X160582429Y-146521714D01*
X160582429Y-146775714D01*
X160618715Y-146920857D01*
X160691286Y-146993429D01*
X160763858Y-147029714D01*
X160909001Y-147029714D01*
X160981572Y-146993429D01*
X161054143Y-146920857D01*
X161090429Y-146775714D01*
X161090429Y-146521714D01*
X161054143Y-146376571D01*
X160981572Y-146304000D01*
X160909001Y-146267714D01*
X160255857Y-147029714D02*
X160255857Y-146267714D01*
X159929286Y-147029714D02*
X159929286Y-146630571D01*
X159965572Y-146558000D01*
X160038143Y-146521714D01*
X160147000Y-146521714D01*
X160219572Y-146558000D01*
X160255857Y-146594286D01*
X159566428Y-147029714D02*
X159566428Y-146521714D01*
X159566428Y-146594286D02*
X159530143Y-146558000D01*
X159457571Y-146521714D01*
X159348714Y-146521714D01*
X159276143Y-146558000D01*
X159239857Y-146630571D01*
X159239857Y-147029714D01*
X159239857Y-146630571D02*
X159203571Y-146558000D01*
X159131000Y-146521714D01*
X159022143Y-146521714D01*
X158949571Y-146558000D01*
X158913286Y-146630571D01*
X158913286Y-147029714D01*
X158586714Y-146993429D02*
X158514143Y-147029714D01*
X158369000Y-147029714D01*
X158296428Y-146993429D01*
X158260143Y-146920857D01*
X158260143Y-146884571D01*
X158296428Y-146812000D01*
X158369000Y-146775714D01*
X158477857Y-146775714D01*
X158550428Y-146739429D01*
X158586714Y-146666857D01*
X158586714Y-146630571D01*
X158550428Y-146558000D01*
X158477857Y-146521714D01*
X158369000Y-146521714D01*
X158296428Y-146558000D01*
X170107429Y-144362714D02*
X169672000Y-144362714D01*
X169889714Y-145124714D02*
X169889714Y-144362714D01*
X169490572Y-144362714D02*
X169018858Y-144362714D01*
X169272858Y-144653000D01*
X169164000Y-144653000D01*
X169091429Y-144689286D01*
X169055143Y-144725571D01*
X169018858Y-144798143D01*
X169018858Y-144979571D01*
X169055143Y-145052143D01*
X169091429Y-145088429D01*
X169164000Y-145124714D01*
X169381715Y-145124714D01*
X169454286Y-145088429D01*
X169490572Y-145052143D01*
X168692286Y-144834429D02*
X168111715Y-144834429D01*
X167857715Y-144362714D02*
X167422286Y-144362714D01*
X167640000Y-145124714D02*
X167640000Y-144362714D01*
X166841715Y-144616714D02*
X166841715Y-145124714D01*
X167023144Y-144326429D02*
X167204572Y-144870714D01*
X166732858Y-144870714D01*
X170107429Y-142457714D02*
X169672000Y-142457714D01*
X169889714Y-143219714D02*
X169889714Y-142457714D01*
X169018858Y-143219714D02*
X169454286Y-143219714D01*
X169236572Y-143219714D02*
X169236572Y-142457714D01*
X169309143Y-142566571D01*
X169381715Y-142639143D01*
X169454286Y-142675429D01*
X168692286Y-142929429D02*
X168111715Y-142929429D01*
X167857715Y-142457714D02*
X167422286Y-142457714D01*
X167640000Y-143219714D02*
X167640000Y-142457714D01*
X167204572Y-142530286D02*
X167168286Y-142494000D01*
X167095715Y-142457714D01*
X166914286Y-142457714D01*
X166841715Y-142494000D01*
X166805429Y-142530286D01*
X166769144Y-142602857D01*
X166769144Y-142675429D01*
X166805429Y-142784286D01*
X167240858Y-143219714D01*
X166769144Y-143219714D01*
X164029571Y-142457714D02*
X163956999Y-142457714D01*
X163884428Y-142494000D01*
X163848142Y-142530286D01*
X163811856Y-142602857D01*
X163775571Y-142748000D01*
X163775571Y-142929429D01*
X163811856Y-143074571D01*
X163848142Y-143147143D01*
X163884428Y-143183429D01*
X163956999Y-143219714D01*
X164029571Y-143219714D01*
X164102142Y-143183429D01*
X164138428Y-143147143D01*
X164174713Y-143074571D01*
X164210999Y-142929429D01*
X164210999Y-142748000D01*
X164174713Y-142602857D01*
X164138428Y-142530286D01*
X164102142Y-142494000D01*
X164029571Y-142457714D01*
X163448999Y-143147143D02*
X163412714Y-143183429D01*
X163448999Y-143219714D01*
X163485285Y-143183429D01*
X163448999Y-143147143D01*
X163448999Y-143219714D01*
X162941000Y-142457714D02*
X162868428Y-142457714D01*
X162795857Y-142494000D01*
X162759571Y-142530286D01*
X162723285Y-142602857D01*
X162687000Y-142748000D01*
X162687000Y-142929429D01*
X162723285Y-143074571D01*
X162759571Y-143147143D01*
X162795857Y-143183429D01*
X162868428Y-143219714D01*
X162941000Y-143219714D01*
X163013571Y-143183429D01*
X163049857Y-143147143D01*
X163086142Y-143074571D01*
X163122428Y-142929429D01*
X163122428Y-142748000D01*
X163086142Y-142602857D01*
X163049857Y-142530286D01*
X163013571Y-142494000D01*
X162941000Y-142457714D01*
X161997571Y-142457714D02*
X162360428Y-142457714D01*
X162396714Y-142820571D01*
X162360428Y-142784286D01*
X162287857Y-142748000D01*
X162106428Y-142748000D01*
X162033857Y-142784286D01*
X161997571Y-142820571D01*
X161961286Y-142893143D01*
X161961286Y-143074571D01*
X161997571Y-143147143D01*
X162033857Y-143183429D01*
X162106428Y-143219714D01*
X162287857Y-143219714D01*
X162360428Y-143183429D01*
X162396714Y-143147143D01*
X160909001Y-142457714D02*
X160763858Y-142457714D01*
X160691286Y-142494000D01*
X160618715Y-142566571D01*
X160582429Y-142711714D01*
X160582429Y-142965714D01*
X160618715Y-143110857D01*
X160691286Y-143183429D01*
X160763858Y-143219714D01*
X160909001Y-143219714D01*
X160981572Y-143183429D01*
X161054143Y-143110857D01*
X161090429Y-142965714D01*
X161090429Y-142711714D01*
X161054143Y-142566571D01*
X160981572Y-142494000D01*
X160909001Y-142457714D01*
X160255857Y-143219714D02*
X160255857Y-142457714D01*
X159929286Y-143219714D02*
X159929286Y-142820571D01*
X159965572Y-142748000D01*
X160038143Y-142711714D01*
X160147000Y-142711714D01*
X160219572Y-142748000D01*
X160255857Y-142784286D01*
X159566428Y-143219714D02*
X159566428Y-142711714D01*
X159566428Y-142784286D02*
X159530143Y-142748000D01*
X159457571Y-142711714D01*
X159348714Y-142711714D01*
X159276143Y-142748000D01*
X159239857Y-142820571D01*
X159239857Y-143219714D01*
X159239857Y-142820571D02*
X159203571Y-142748000D01*
X159131000Y-142711714D01*
X159022143Y-142711714D01*
X158949571Y-142748000D01*
X158913286Y-142820571D01*
X158913286Y-143219714D01*
X158586714Y-143183429D02*
X158514143Y-143219714D01*
X158369000Y-143219714D01*
X158296428Y-143183429D01*
X158260143Y-143110857D01*
X158260143Y-143074571D01*
X158296428Y-143002000D01*
X158369000Y-142965714D01*
X158477857Y-142965714D01*
X158550428Y-142929429D01*
X158586714Y-142856857D01*
X158586714Y-142820571D01*
X158550428Y-142748000D01*
X158477857Y-142711714D01*
X158369000Y-142711714D01*
X158296428Y-142748000D01*
X164029571Y-144362714D02*
X163956999Y-144362714D01*
X163884428Y-144399000D01*
X163848142Y-144435286D01*
X163811856Y-144507857D01*
X163775571Y-144653000D01*
X163775571Y-144834429D01*
X163811856Y-144979571D01*
X163848142Y-145052143D01*
X163884428Y-145088429D01*
X163956999Y-145124714D01*
X164029571Y-145124714D01*
X164102142Y-145088429D01*
X164138428Y-145052143D01*
X164174713Y-144979571D01*
X164210999Y-144834429D01*
X164210999Y-144653000D01*
X164174713Y-144507857D01*
X164138428Y-144435286D01*
X164102142Y-144399000D01*
X164029571Y-144362714D01*
X163448999Y-145052143D02*
X163412714Y-145088429D01*
X163448999Y-145124714D01*
X163485285Y-145088429D01*
X163448999Y-145052143D01*
X163448999Y-145124714D01*
X162941000Y-144362714D02*
X162868428Y-144362714D01*
X162795857Y-144399000D01*
X162759571Y-144435286D01*
X162723285Y-144507857D01*
X162687000Y-144653000D01*
X162687000Y-144834429D01*
X162723285Y-144979571D01*
X162759571Y-145052143D01*
X162795857Y-145088429D01*
X162868428Y-145124714D01*
X162941000Y-145124714D01*
X163013571Y-145088429D01*
X163049857Y-145052143D01*
X163086142Y-144979571D01*
X163122428Y-144834429D01*
X163122428Y-144653000D01*
X163086142Y-144507857D01*
X163049857Y-144435286D01*
X163013571Y-144399000D01*
X162941000Y-144362714D01*
X161997571Y-144362714D02*
X162360428Y-144362714D01*
X162396714Y-144725571D01*
X162360428Y-144689286D01*
X162287857Y-144653000D01*
X162106428Y-144653000D01*
X162033857Y-144689286D01*
X161997571Y-144725571D01*
X161961286Y-144798143D01*
X161961286Y-144979571D01*
X161997571Y-145052143D01*
X162033857Y-145088429D01*
X162106428Y-145124714D01*
X162287857Y-145124714D01*
X162360428Y-145088429D01*
X162396714Y-145052143D01*
X160909001Y-144362714D02*
X160763858Y-144362714D01*
X160691286Y-144399000D01*
X160618715Y-144471571D01*
X160582429Y-144616714D01*
X160582429Y-144870714D01*
X160618715Y-145015857D01*
X160691286Y-145088429D01*
X160763858Y-145124714D01*
X160909001Y-145124714D01*
X160981572Y-145088429D01*
X161054143Y-145015857D01*
X161090429Y-144870714D01*
X161090429Y-144616714D01*
X161054143Y-144471571D01*
X160981572Y-144399000D01*
X160909001Y-144362714D01*
X160255857Y-145124714D02*
X160255857Y-144362714D01*
X159929286Y-145124714D02*
X159929286Y-144725571D01*
X159965572Y-144653000D01*
X160038143Y-144616714D01*
X160147000Y-144616714D01*
X160219572Y-144653000D01*
X160255857Y-144689286D01*
X159566428Y-145124714D02*
X159566428Y-144616714D01*
X159566428Y-144689286D02*
X159530143Y-144653000D01*
X159457571Y-144616714D01*
X159348714Y-144616714D01*
X159276143Y-144653000D01*
X159239857Y-144725571D01*
X159239857Y-145124714D01*
X159239857Y-144725571D02*
X159203571Y-144653000D01*
X159131000Y-144616714D01*
X159022143Y-144616714D01*
X158949571Y-144653000D01*
X158913286Y-144725571D01*
X158913286Y-145124714D01*
X158586714Y-145088429D02*
X158514143Y-145124714D01*
X158369000Y-145124714D01*
X158296428Y-145088429D01*
X158260143Y-145015857D01*
X158260143Y-144979571D01*
X158296428Y-144907000D01*
X158369000Y-144870714D01*
X158477857Y-144870714D01*
X158550428Y-144834429D01*
X158586714Y-144761857D01*
X158586714Y-144725571D01*
X158550428Y-144653000D01*
X158477857Y-144616714D01*
X158369000Y-144616714D01*
X158296428Y-144653000D01*
D11*
X149225000Y-132715000D02*
X149225000Y-143510000D01*
X131445000Y-132715000D02*
X131445000Y-143510000D01*
X122555000Y-143510000D02*
X156845000Y-143510000D01*
D12*
X125076857Y-141949714D02*
X125512285Y-141949714D01*
X125294571Y-141949714D02*
X125294571Y-141187714D01*
X125367142Y-141296571D01*
X125439714Y-141369143D01*
X125512285Y-141405429D01*
X124750285Y-141877143D02*
X124714000Y-141913429D01*
X124750285Y-141949714D01*
X124786571Y-141913429D01*
X124750285Y-141877143D01*
X124750285Y-141949714D01*
X124351143Y-141949714D02*
X124206000Y-141949714D01*
X124133428Y-141913429D01*
X124097143Y-141877143D01*
X124024571Y-141768286D01*
X123988286Y-141623143D01*
X123988286Y-141332857D01*
X124024571Y-141260286D01*
X124060857Y-141224000D01*
X124133428Y-141187714D01*
X124278571Y-141187714D01*
X124351143Y-141224000D01*
X124387428Y-141260286D01*
X124423714Y-141332857D01*
X124423714Y-141514286D01*
X124387428Y-141586857D01*
X124351143Y-141623143D01*
X124278571Y-141659429D01*
X124133428Y-141659429D01*
X124060857Y-141623143D01*
X124024571Y-141586857D01*
X123988286Y-141514286D01*
X123698000Y-141732000D02*
X123335143Y-141732000D01*
X123770572Y-141949714D02*
X123516572Y-141187714D01*
X123262572Y-141949714D01*
X125076857Y-140044714D02*
X125512285Y-140044714D01*
X125294571Y-140044714D02*
X125294571Y-139282714D01*
X125367142Y-139391571D01*
X125439714Y-139464143D01*
X125512285Y-139500429D01*
X124750285Y-139972143D02*
X124714000Y-140008429D01*
X124750285Y-140044714D01*
X124786571Y-140008429D01*
X124750285Y-139972143D01*
X124750285Y-140044714D01*
X124024571Y-139282714D02*
X124387428Y-139282714D01*
X124423714Y-139645571D01*
X124387428Y-139609286D01*
X124314857Y-139573000D01*
X124133428Y-139573000D01*
X124060857Y-139609286D01*
X124024571Y-139645571D01*
X123988286Y-139718143D01*
X123988286Y-139899571D01*
X124024571Y-139972143D01*
X124060857Y-140008429D01*
X124133428Y-140044714D01*
X124314857Y-140044714D01*
X124387428Y-140008429D01*
X124423714Y-139972143D01*
X123698000Y-139827000D02*
X123335143Y-139827000D01*
X123770572Y-140044714D02*
X123516572Y-139282714D01*
X123262572Y-140044714D01*
X128270000Y-137450286D02*
X128233714Y-137414000D01*
X128161143Y-137377714D01*
X127979714Y-137377714D01*
X127907143Y-137414000D01*
X127870857Y-137450286D01*
X127834572Y-137522857D01*
X127834572Y-137595429D01*
X127870857Y-137704286D01*
X128306286Y-138139714D01*
X127834572Y-138139714D01*
X127181429Y-137377714D02*
X127326572Y-137377714D01*
X127399143Y-137414000D01*
X127435429Y-137450286D01*
X127508000Y-137559143D01*
X127544286Y-137704286D01*
X127544286Y-137994571D01*
X127508000Y-138067143D01*
X127471715Y-138103429D01*
X127399143Y-138139714D01*
X127254000Y-138139714D01*
X127181429Y-138103429D01*
X127145143Y-138067143D01*
X127108858Y-137994571D01*
X127108858Y-137813143D01*
X127145143Y-137740571D01*
X127181429Y-137704286D01*
X127254000Y-137668000D01*
X127399143Y-137668000D01*
X127471715Y-137704286D01*
X127508000Y-137740571D01*
X127544286Y-137813143D01*
X126637144Y-137377714D02*
X126564572Y-137377714D01*
X126492001Y-137414000D01*
X126455715Y-137450286D01*
X126419429Y-137522857D01*
X126383144Y-137668000D01*
X126383144Y-137849429D01*
X126419429Y-137994571D01*
X126455715Y-138067143D01*
X126492001Y-138103429D01*
X126564572Y-138139714D01*
X126637144Y-138139714D01*
X126709715Y-138103429D01*
X126746001Y-138067143D01*
X126782286Y-137994571D01*
X126818572Y-137849429D01*
X126818572Y-137668000D01*
X126782286Y-137522857D01*
X126746001Y-137450286D01*
X126709715Y-137414000D01*
X126637144Y-137377714D01*
X126056572Y-138139714D02*
X126056572Y-137631714D01*
X126056572Y-137704286D02*
X126020287Y-137668000D01*
X125947715Y-137631714D01*
X125838858Y-137631714D01*
X125766287Y-137668000D01*
X125730001Y-137740571D01*
X125730001Y-138139714D01*
X125730001Y-137740571D02*
X125693715Y-137668000D01*
X125621144Y-137631714D01*
X125512287Y-137631714D01*
X125439715Y-137668000D01*
X125403430Y-137740571D01*
X125403430Y-138139714D01*
X125149430Y-137377714D02*
X124895430Y-138139714D01*
X124641430Y-137377714D01*
X124387429Y-137631714D02*
X124387429Y-138393714D01*
X124387429Y-137668000D02*
X124314858Y-137631714D01*
X124169715Y-137631714D01*
X124097144Y-137668000D01*
X124060858Y-137704286D01*
X124024572Y-137776857D01*
X124024572Y-137994571D01*
X124060858Y-138067143D01*
X124097144Y-138103429D01*
X124169715Y-138139714D01*
X124314858Y-138139714D01*
X124387429Y-138103429D01*
X123698000Y-137631714D02*
X123698000Y-138393714D01*
X123698000Y-137668000D02*
X123625429Y-137631714D01*
X123480286Y-137631714D01*
X123407715Y-137668000D01*
X123371429Y-137704286D01*
X123335143Y-137776857D01*
X123335143Y-137994571D01*
X123371429Y-138067143D01*
X123407715Y-138103429D01*
X123480286Y-138139714D01*
X123625429Y-138139714D01*
X123698000Y-138103429D01*
X124024571Y-135472714D02*
X124387428Y-135472714D01*
X124423714Y-135835571D01*
X124387428Y-135799286D01*
X124314857Y-135763000D01*
X124133428Y-135763000D01*
X124060857Y-135799286D01*
X124024571Y-135835571D01*
X123988286Y-135908143D01*
X123988286Y-136089571D01*
X124024571Y-136162143D01*
X124060857Y-136198429D01*
X124133428Y-136234714D01*
X124314857Y-136234714D01*
X124387428Y-136198429D01*
X124423714Y-136162143D01*
X123770572Y-135472714D02*
X123516572Y-136234714D01*
X123262572Y-135472714D01*
D11*
X122555000Y-134620000D02*
X156845000Y-134620000D01*
X122555000Y-132715000D02*
X156845000Y-132715000D01*
X122555000Y-130810000D02*
X156845000Y-130810000D01*
D12*
X130628571Y-140044714D02*
X130628571Y-139282714D01*
X130265714Y-139536714D02*
X130265714Y-140044714D01*
X130265714Y-139609286D02*
X130229429Y-139573000D01*
X130156857Y-139536714D01*
X130048000Y-139536714D01*
X129975429Y-139573000D01*
X129939143Y-139645571D01*
X129939143Y-140044714D01*
X129467428Y-140044714D02*
X129540000Y-140008429D01*
X129576285Y-139972143D01*
X129612571Y-139899571D01*
X129612571Y-139681857D01*
X129576285Y-139609286D01*
X129540000Y-139573000D01*
X129467428Y-139536714D01*
X129358571Y-139536714D01*
X129286000Y-139573000D01*
X129249714Y-139609286D01*
X129213428Y-139681857D01*
X129213428Y-139899571D01*
X129249714Y-139972143D01*
X129286000Y-140008429D01*
X129358571Y-140044714D01*
X129467428Y-140044714D01*
X128886856Y-140044714D02*
X128886856Y-139536714D01*
X128886856Y-139609286D02*
X128850571Y-139573000D01*
X128777999Y-139536714D01*
X128669142Y-139536714D01*
X128596571Y-139573000D01*
X128560285Y-139645571D01*
X128560285Y-140044714D01*
X128560285Y-139645571D02*
X128523999Y-139573000D01*
X128451428Y-139536714D01*
X128342571Y-139536714D01*
X128269999Y-139573000D01*
X128233714Y-139645571D01*
X128233714Y-140044714D01*
X130628571Y-141949714D02*
X130628571Y-141187714D01*
X130265714Y-141441714D02*
X130265714Y-142203714D01*
X130265714Y-141478000D02*
X130193143Y-141441714D01*
X130048000Y-141441714D01*
X129975429Y-141478000D01*
X129939143Y-141514286D01*
X129902857Y-141586857D01*
X129902857Y-141804571D01*
X129939143Y-141877143D01*
X129975429Y-141913429D01*
X130048000Y-141949714D01*
X130193143Y-141949714D01*
X130265714Y-141913429D01*
X129576285Y-141949714D02*
X129576285Y-141187714D01*
X129503714Y-141659429D02*
X129286000Y-141949714D01*
X129286000Y-141441714D02*
X129576285Y-141732000D01*
X130737429Y-137377714D02*
X130483429Y-138139714D01*
X130229429Y-137377714D01*
X129975428Y-138139714D02*
X129975428Y-137631714D01*
X129975428Y-137776857D02*
X129939143Y-137704286D01*
X129902857Y-137668000D01*
X129830286Y-137631714D01*
X129757714Y-137631714D01*
X129503714Y-138139714D02*
X129503714Y-137631714D01*
X129503714Y-137377714D02*
X129540000Y-137414000D01*
X129503714Y-137450286D01*
X129467429Y-137414000D01*
X129503714Y-137377714D01*
X129503714Y-137450286D01*
X129140857Y-137631714D02*
X129140857Y-138393714D01*
X129140857Y-137668000D02*
X129068286Y-137631714D01*
X128923143Y-137631714D01*
X128850572Y-137668000D01*
X128814286Y-137704286D01*
X128778000Y-137776857D01*
X128778000Y-137994571D01*
X128814286Y-138067143D01*
X128850572Y-138103429D01*
X128923143Y-138139714D01*
X129068286Y-138139714D01*
X129140857Y-138103429D01*
X130737429Y-135472714D02*
X130483429Y-136234714D01*
X130229429Y-135472714D01*
X129975428Y-135726714D02*
X129975428Y-136234714D01*
X129975428Y-135799286D02*
X129939143Y-135763000D01*
X129866571Y-135726714D01*
X129757714Y-135726714D01*
X129685143Y-135763000D01*
X129648857Y-135835571D01*
X129648857Y-136234714D01*
X129177142Y-136234714D02*
X129249714Y-136198429D01*
X129285999Y-136162143D01*
X129322285Y-136089571D01*
X129322285Y-135871857D01*
X129285999Y-135799286D01*
X129249714Y-135763000D01*
X129177142Y-135726714D01*
X129068285Y-135726714D01*
X128995714Y-135763000D01*
X128959428Y-135799286D01*
X128923142Y-135871857D01*
X128923142Y-136089571D01*
X128959428Y-136162143D01*
X128995714Y-136198429D01*
X129068285Y-136234714D01*
X129177142Y-136234714D01*
X128596570Y-136234714D02*
X128596570Y-135726714D01*
X128596570Y-135799286D02*
X128560285Y-135763000D01*
X128487713Y-135726714D01*
X128378856Y-135726714D01*
X128306285Y-135763000D01*
X128269999Y-135835571D01*
X128269999Y-136234714D01*
X128269999Y-135835571D02*
X128233713Y-135763000D01*
X128161142Y-135726714D01*
X128052285Y-135726714D01*
X127979713Y-135763000D01*
X127943428Y-135835571D01*
X127943428Y-136234714D01*
X133966857Y-140044714D02*
X134402285Y-140044714D01*
X134184571Y-140044714D02*
X134184571Y-139282714D01*
X134257142Y-139391571D01*
X134329714Y-139464143D01*
X134402285Y-139500429D01*
X133640285Y-139972143D02*
X133604000Y-140008429D01*
X133640285Y-140044714D01*
X133676571Y-140008429D01*
X133640285Y-139972143D01*
X133640285Y-140044714D01*
X132914571Y-139282714D02*
X133277428Y-139282714D01*
X133313714Y-139645571D01*
X133277428Y-139609286D01*
X133204857Y-139573000D01*
X133023428Y-139573000D01*
X132950857Y-139609286D01*
X132914571Y-139645571D01*
X132878286Y-139718143D01*
X132878286Y-139899571D01*
X132914571Y-139972143D01*
X132950857Y-140008429D01*
X133023428Y-140044714D01*
X133204857Y-140044714D01*
X133277428Y-140008429D01*
X133313714Y-139972143D01*
X132588000Y-139827000D02*
X132225143Y-139827000D01*
X132660572Y-140044714D02*
X132406572Y-139282714D01*
X132152572Y-140044714D01*
X133604000Y-138139714D02*
X134039428Y-138139714D01*
X133821714Y-138139714D02*
X133821714Y-137377714D01*
X133894285Y-137486571D01*
X133966857Y-137559143D01*
X134039428Y-137595429D01*
X132914571Y-137377714D02*
X133277428Y-137377714D01*
X133313714Y-137740571D01*
X133277428Y-137704286D01*
X133204857Y-137668000D01*
X133023428Y-137668000D01*
X132950857Y-137704286D01*
X132914571Y-137740571D01*
X132878286Y-137813143D01*
X132878286Y-137994571D01*
X132914571Y-138067143D01*
X132950857Y-138103429D01*
X133023428Y-138139714D01*
X133204857Y-138139714D01*
X133277428Y-138103429D01*
X133313714Y-138067143D01*
X132660572Y-137377714D02*
X132406572Y-138139714D01*
X132152572Y-137377714D01*
X133168571Y-135799286D02*
X133241143Y-135763000D01*
X133277428Y-135726714D01*
X133313714Y-135654143D01*
X133313714Y-135617857D01*
X133277428Y-135545286D01*
X133241143Y-135509000D01*
X133168571Y-135472714D01*
X133023428Y-135472714D01*
X132950857Y-135509000D01*
X132914571Y-135545286D01*
X132878286Y-135617857D01*
X132878286Y-135654143D01*
X132914571Y-135726714D01*
X132950857Y-135763000D01*
X133023428Y-135799286D01*
X133168571Y-135799286D01*
X133241143Y-135835571D01*
X133277428Y-135871857D01*
X133313714Y-135944429D01*
X133313714Y-136089571D01*
X133277428Y-136162143D01*
X133241143Y-136198429D01*
X133168571Y-136234714D01*
X133023428Y-136234714D01*
X132950857Y-136198429D01*
X132914571Y-136162143D01*
X132878286Y-136089571D01*
X132878286Y-135944429D01*
X132914571Y-135871857D01*
X132950857Y-135835571D01*
X133023428Y-135799286D01*
X132660572Y-135472714D02*
X132406572Y-136234714D01*
X132152572Y-135472714D01*
X156028571Y-140044714D02*
X156028571Y-139282714D01*
X155665714Y-139536714D02*
X155665714Y-140298714D01*
X155665714Y-139573000D02*
X155593143Y-139536714D01*
X155448000Y-139536714D01*
X155375429Y-139573000D01*
X155339143Y-139609286D01*
X155302857Y-139681857D01*
X155302857Y-139899571D01*
X155339143Y-139972143D01*
X155375429Y-140008429D01*
X155448000Y-140044714D01*
X155593143Y-140044714D01*
X155665714Y-140008429D01*
X154976285Y-140044714D02*
X154976285Y-139282714D01*
X154903714Y-139754429D02*
X154686000Y-140044714D01*
X154686000Y-139536714D02*
X154976285Y-139827000D01*
X156137429Y-137377714D02*
X155883429Y-138139714D01*
X155629429Y-137377714D01*
X155375428Y-138139714D02*
X155375428Y-137631714D01*
X155375428Y-137704286D02*
X155339143Y-137668000D01*
X155266571Y-137631714D01*
X155157714Y-137631714D01*
X155085143Y-137668000D01*
X155048857Y-137740571D01*
X155048857Y-138139714D01*
X155048857Y-137740571D02*
X155012571Y-137668000D01*
X154940000Y-137631714D01*
X154831143Y-137631714D01*
X154758571Y-137668000D01*
X154722286Y-137740571D01*
X154722286Y-138139714D01*
X154032857Y-138139714D02*
X154032857Y-137740571D01*
X154069143Y-137668000D01*
X154141714Y-137631714D01*
X154286857Y-137631714D01*
X154359428Y-137668000D01*
X154032857Y-138103429D02*
X154105428Y-138139714D01*
X154286857Y-138139714D01*
X154359428Y-138103429D01*
X154395714Y-138030857D01*
X154395714Y-137958286D01*
X154359428Y-137885714D01*
X154286857Y-137849429D01*
X154105428Y-137849429D01*
X154032857Y-137813143D01*
X153742571Y-138139714D02*
X153343428Y-137631714D01*
X153742571Y-137631714D02*
X153343428Y-138139714D01*
X156137429Y-135472714D02*
X155883429Y-136234714D01*
X155629429Y-135472714D01*
X155375428Y-136234714D02*
X155375428Y-135726714D01*
X155375428Y-135799286D02*
X155339143Y-135763000D01*
X155266571Y-135726714D01*
X155157714Y-135726714D01*
X155085143Y-135763000D01*
X155048857Y-135835571D01*
X155048857Y-136234714D01*
X155048857Y-135835571D02*
X155012571Y-135763000D01*
X154940000Y-135726714D01*
X154831143Y-135726714D01*
X154758571Y-135763000D01*
X154722286Y-135835571D01*
X154722286Y-136234714D01*
X154359428Y-136234714D02*
X154359428Y-135726714D01*
X154359428Y-135472714D02*
X154395714Y-135509000D01*
X154359428Y-135545286D01*
X154323143Y-135509000D01*
X154359428Y-135472714D01*
X154359428Y-135545286D01*
X153996571Y-135726714D02*
X153996571Y-136234714D01*
X153996571Y-135799286D02*
X153960286Y-135763000D01*
X153887714Y-135726714D01*
X153778857Y-135726714D01*
X153706286Y-135763000D01*
X153670000Y-135835571D01*
X153670000Y-136234714D01*
X144271999Y-141187714D02*
X144634856Y-141187714D01*
X144671142Y-141550571D01*
X144634856Y-141514286D01*
X144562285Y-141478000D01*
X144380856Y-141478000D01*
X144308285Y-141514286D01*
X144271999Y-141550571D01*
X144235714Y-141623143D01*
X144235714Y-141804571D01*
X144271999Y-141877143D01*
X144308285Y-141913429D01*
X144380856Y-141949714D01*
X144562285Y-141949714D01*
X144634856Y-141913429D01*
X144671142Y-141877143D01*
X143764000Y-141187714D02*
X143691428Y-141187714D01*
X143618857Y-141224000D01*
X143582571Y-141260286D01*
X143546285Y-141332857D01*
X143510000Y-141478000D01*
X143510000Y-141659429D01*
X143546285Y-141804571D01*
X143582571Y-141877143D01*
X143618857Y-141913429D01*
X143691428Y-141949714D01*
X143764000Y-141949714D01*
X143836571Y-141913429D01*
X143872857Y-141877143D01*
X143909142Y-141804571D01*
X143945428Y-141659429D01*
X143945428Y-141478000D01*
X143909142Y-141332857D01*
X143872857Y-141260286D01*
X143836571Y-141224000D01*
X143764000Y-141187714D01*
X143038286Y-141187714D02*
X142965714Y-141187714D01*
X142893143Y-141224000D01*
X142856857Y-141260286D01*
X142820571Y-141332857D01*
X142784286Y-141478000D01*
X142784286Y-141659429D01*
X142820571Y-141804571D01*
X142856857Y-141877143D01*
X142893143Y-141913429D01*
X142965714Y-141949714D01*
X143038286Y-141949714D01*
X143110857Y-141913429D01*
X143147143Y-141877143D01*
X143183428Y-141804571D01*
X143219714Y-141659429D01*
X143219714Y-141478000D01*
X143183428Y-141332857D01*
X143147143Y-141260286D01*
X143110857Y-141224000D01*
X143038286Y-141187714D01*
X142457714Y-141949714D02*
X142457714Y-141441714D01*
X142457714Y-141514286D02*
X142421429Y-141478000D01*
X142348857Y-141441714D01*
X142240000Y-141441714D01*
X142167429Y-141478000D01*
X142131143Y-141550571D01*
X142131143Y-141949714D01*
X142131143Y-141550571D02*
X142094857Y-141478000D01*
X142022286Y-141441714D01*
X141913429Y-141441714D01*
X141840857Y-141478000D01*
X141804572Y-141550571D01*
X141804572Y-141949714D01*
X141478000Y-141732000D02*
X141115143Y-141732000D01*
X141550572Y-141949714D02*
X141296572Y-141187714D01*
X141042572Y-141949714D01*
X148408571Y-141949714D02*
X148408571Y-141187714D01*
X148045714Y-141441714D02*
X148045714Y-142203714D01*
X148045714Y-141478000D02*
X147973143Y-141441714D01*
X147828000Y-141441714D01*
X147755429Y-141478000D01*
X147719143Y-141514286D01*
X147682857Y-141586857D01*
X147682857Y-141804571D01*
X147719143Y-141877143D01*
X147755429Y-141913429D01*
X147828000Y-141949714D01*
X147973143Y-141949714D01*
X148045714Y-141913429D01*
X147356285Y-141949714D02*
X147356285Y-141187714D01*
X147283714Y-141659429D02*
X147066000Y-141949714D01*
X147066000Y-141441714D02*
X147356285Y-141732000D01*
X143981714Y-139282714D02*
X143473714Y-139282714D01*
X143800285Y-140044714D01*
X142820571Y-139282714D02*
X143183428Y-139282714D01*
X143219714Y-139645571D01*
X143183428Y-139609286D01*
X143110857Y-139573000D01*
X142929428Y-139573000D01*
X142856857Y-139609286D01*
X142820571Y-139645571D01*
X142784286Y-139718143D01*
X142784286Y-139899571D01*
X142820571Y-139972143D01*
X142856857Y-140008429D01*
X142929428Y-140044714D01*
X143110857Y-140044714D01*
X143183428Y-140008429D01*
X143219714Y-139972143D01*
X142457714Y-140044714D02*
X142457714Y-139536714D01*
X142457714Y-139609286D02*
X142421429Y-139573000D01*
X142348857Y-139536714D01*
X142240000Y-139536714D01*
X142167429Y-139573000D01*
X142131143Y-139645571D01*
X142131143Y-140044714D01*
X142131143Y-139645571D02*
X142094857Y-139573000D01*
X142022286Y-139536714D01*
X141913429Y-139536714D01*
X141840857Y-139573000D01*
X141804572Y-139645571D01*
X141804572Y-140044714D01*
X141478000Y-139827000D02*
X141115143Y-139827000D01*
X141550572Y-140044714D02*
X141296572Y-139282714D01*
X141042572Y-140044714D01*
X148408571Y-140044714D02*
X148408571Y-139282714D01*
X148045714Y-139536714D02*
X148045714Y-140044714D01*
X148045714Y-139609286D02*
X148009429Y-139573000D01*
X147936857Y-139536714D01*
X147828000Y-139536714D01*
X147755429Y-139573000D01*
X147719143Y-139645571D01*
X147719143Y-140044714D01*
X147247428Y-140044714D02*
X147320000Y-140008429D01*
X147356285Y-139972143D01*
X147392571Y-139899571D01*
X147392571Y-139681857D01*
X147356285Y-139609286D01*
X147320000Y-139573000D01*
X147247428Y-139536714D01*
X147138571Y-139536714D01*
X147066000Y-139573000D01*
X147029714Y-139609286D01*
X146993428Y-139681857D01*
X146993428Y-139899571D01*
X147029714Y-139972143D01*
X147066000Y-140008429D01*
X147138571Y-140044714D01*
X147247428Y-140044714D01*
X146666856Y-140044714D02*
X146666856Y-139536714D01*
X146666856Y-139609286D02*
X146630571Y-139573000D01*
X146557999Y-139536714D01*
X146449142Y-139536714D01*
X146376571Y-139573000D01*
X146340285Y-139645571D01*
X146340285Y-140044714D01*
X146340285Y-139645571D02*
X146303999Y-139573000D01*
X146231428Y-139536714D01*
X146122571Y-139536714D01*
X146049999Y-139573000D01*
X146013714Y-139645571D01*
X146013714Y-140044714D01*
X153161999Y-139282714D02*
X153524856Y-139282714D01*
X153561142Y-139645571D01*
X153524856Y-139609286D01*
X153452285Y-139573000D01*
X153270856Y-139573000D01*
X153198285Y-139609286D01*
X153161999Y-139645571D01*
X153125714Y-139718143D01*
X153125714Y-139899571D01*
X153161999Y-139972143D01*
X153198285Y-140008429D01*
X153270856Y-140044714D01*
X153452285Y-140044714D01*
X153524856Y-140008429D01*
X153561142Y-139972143D01*
X152400000Y-140044714D02*
X152835428Y-140044714D01*
X152617714Y-140044714D02*
X152617714Y-139282714D01*
X152690285Y-139391571D01*
X152762857Y-139464143D01*
X152835428Y-139500429D01*
X151928286Y-139282714D02*
X151855714Y-139282714D01*
X151783143Y-139319000D01*
X151746857Y-139355286D01*
X151710571Y-139427857D01*
X151674286Y-139573000D01*
X151674286Y-139754429D01*
X151710571Y-139899571D01*
X151746857Y-139972143D01*
X151783143Y-140008429D01*
X151855714Y-140044714D01*
X151928286Y-140044714D01*
X152000857Y-140008429D01*
X152037143Y-139972143D01*
X152073428Y-139899571D01*
X152109714Y-139754429D01*
X152109714Y-139573000D01*
X152073428Y-139427857D01*
X152037143Y-139355286D01*
X152000857Y-139319000D01*
X151928286Y-139282714D01*
X151347714Y-140044714D02*
X151347714Y-139536714D01*
X151347714Y-139609286D02*
X151311429Y-139573000D01*
X151238857Y-139536714D01*
X151130000Y-139536714D01*
X151057429Y-139573000D01*
X151021143Y-139645571D01*
X151021143Y-140044714D01*
X151021143Y-139645571D02*
X150984857Y-139573000D01*
X150912286Y-139536714D01*
X150803429Y-139536714D01*
X150730857Y-139573000D01*
X150694572Y-139645571D01*
X150694572Y-140044714D01*
X150368000Y-139827000D02*
X150005143Y-139827000D01*
X150440572Y-140044714D02*
X150186572Y-139282714D01*
X149932572Y-140044714D01*
X138248571Y-140044714D02*
X138248571Y-139282714D01*
X137885714Y-139536714D02*
X137885714Y-140298714D01*
X137885714Y-139573000D02*
X137813143Y-139536714D01*
X137668000Y-139536714D01*
X137595429Y-139573000D01*
X137559143Y-139609286D01*
X137522857Y-139681857D01*
X137522857Y-139899571D01*
X137559143Y-139972143D01*
X137595429Y-140008429D01*
X137668000Y-140044714D01*
X137813143Y-140044714D01*
X137885714Y-140008429D01*
X137196285Y-140044714D02*
X137196285Y-139282714D01*
X137123714Y-139754429D02*
X136906000Y-140044714D01*
X136906000Y-139536714D02*
X137196285Y-139827000D01*
X151384000Y-138139714D02*
X151819428Y-138139714D01*
X151601714Y-138139714D02*
X151601714Y-137377714D01*
X151674285Y-137486571D01*
X151746857Y-137559143D01*
X151819428Y-137595429D01*
X150912286Y-137377714D02*
X150839714Y-137377714D01*
X150767143Y-137414000D01*
X150730857Y-137450286D01*
X150694571Y-137522857D01*
X150658286Y-137668000D01*
X150658286Y-137849429D01*
X150694571Y-137994571D01*
X150730857Y-138067143D01*
X150767143Y-138103429D01*
X150839714Y-138139714D01*
X150912286Y-138139714D01*
X150984857Y-138103429D01*
X151021143Y-138067143D01*
X151057428Y-137994571D01*
X151093714Y-137849429D01*
X151093714Y-137668000D01*
X151057428Y-137522857D01*
X151021143Y-137450286D01*
X150984857Y-137414000D01*
X150912286Y-137377714D01*
X150440572Y-137377714D02*
X150186572Y-138139714D01*
X149932572Y-137377714D01*
X151819428Y-135726714D02*
X151819428Y-136234714D01*
X152000857Y-135436429D02*
X152182285Y-135980714D01*
X151710571Y-135980714D01*
X151420285Y-136162143D02*
X151384000Y-136198429D01*
X151420285Y-136234714D01*
X151456571Y-136198429D01*
X151420285Y-136162143D01*
X151420285Y-136234714D01*
X151021143Y-136234714D02*
X150876000Y-136234714D01*
X150803428Y-136198429D01*
X150767143Y-136162143D01*
X150694571Y-136053286D01*
X150658286Y-135908143D01*
X150658286Y-135617857D01*
X150694571Y-135545286D01*
X150730857Y-135509000D01*
X150803428Y-135472714D01*
X150948571Y-135472714D01*
X151021143Y-135509000D01*
X151057428Y-135545286D01*
X151093714Y-135617857D01*
X151093714Y-135799286D01*
X151057428Y-135871857D01*
X151021143Y-135908143D01*
X150948571Y-135944429D01*
X150803428Y-135944429D01*
X150730857Y-135908143D01*
X150694571Y-135871857D01*
X150658286Y-135799286D01*
X150440572Y-135472714D02*
X150186572Y-136234714D01*
X149932572Y-135472714D01*
X138357429Y-137377714D02*
X138103429Y-138139714D01*
X137849429Y-137377714D01*
X137595428Y-138139714D02*
X137595428Y-137631714D01*
X137595428Y-137704286D02*
X137559143Y-137668000D01*
X137486571Y-137631714D01*
X137377714Y-137631714D01*
X137305143Y-137668000D01*
X137268857Y-137740571D01*
X137268857Y-138139714D01*
X137268857Y-137740571D02*
X137232571Y-137668000D01*
X137160000Y-137631714D01*
X137051143Y-137631714D01*
X136978571Y-137668000D01*
X136942286Y-137740571D01*
X136942286Y-138139714D01*
X136252857Y-138139714D02*
X136252857Y-137740571D01*
X136289143Y-137668000D01*
X136361714Y-137631714D01*
X136506857Y-137631714D01*
X136579428Y-137668000D01*
X136252857Y-138103429D02*
X136325428Y-138139714D01*
X136506857Y-138139714D01*
X136579428Y-138103429D01*
X136615714Y-138030857D01*
X136615714Y-137958286D01*
X136579428Y-137885714D01*
X136506857Y-137849429D01*
X136325428Y-137849429D01*
X136252857Y-137813143D01*
X135962571Y-138139714D02*
X135563428Y-137631714D01*
X135962571Y-137631714D02*
X135563428Y-138139714D01*
X138357429Y-135472714D02*
X138103429Y-136234714D01*
X137849429Y-135472714D01*
X137595428Y-136234714D02*
X137595428Y-135726714D01*
X137595428Y-135799286D02*
X137559143Y-135763000D01*
X137486571Y-135726714D01*
X137377714Y-135726714D01*
X137305143Y-135763000D01*
X137268857Y-135835571D01*
X137268857Y-136234714D01*
X137268857Y-135835571D02*
X137232571Y-135763000D01*
X137160000Y-135726714D01*
X137051143Y-135726714D01*
X136978571Y-135763000D01*
X136942286Y-135835571D01*
X136942286Y-136234714D01*
X136579428Y-136234714D02*
X136579428Y-135726714D01*
X136579428Y-135472714D02*
X136615714Y-135509000D01*
X136579428Y-135545286D01*
X136543143Y-135509000D01*
X136579428Y-135472714D01*
X136579428Y-135545286D01*
X136216571Y-135726714D02*
X136216571Y-136234714D01*
X136216571Y-135799286D02*
X136180286Y-135763000D01*
X136107714Y-135726714D01*
X135998857Y-135726714D01*
X135926286Y-135763000D01*
X135890000Y-135835571D01*
X135890000Y-136234714D01*
X145360572Y-137377714D02*
X144888858Y-137377714D01*
X145142858Y-137668000D01*
X145034000Y-137668000D01*
X144961429Y-137704286D01*
X144925143Y-137740571D01*
X144888858Y-137813143D01*
X144888858Y-137994571D01*
X144925143Y-138067143D01*
X144961429Y-138103429D01*
X145034000Y-138139714D01*
X145251715Y-138139714D01*
X145324286Y-138103429D01*
X145360572Y-138067143D01*
X144417144Y-137377714D02*
X144344572Y-137377714D01*
X144272001Y-137414000D01*
X144235715Y-137450286D01*
X144199429Y-137522857D01*
X144163144Y-137668000D01*
X144163144Y-137849429D01*
X144199429Y-137994571D01*
X144235715Y-138067143D01*
X144272001Y-138103429D01*
X144344572Y-138139714D01*
X144417144Y-138139714D01*
X144489715Y-138103429D01*
X144526001Y-138067143D01*
X144562286Y-137994571D01*
X144598572Y-137849429D01*
X144598572Y-137668000D01*
X144562286Y-137522857D01*
X144526001Y-137450286D01*
X144489715Y-137414000D01*
X144417144Y-137377714D01*
X143836572Y-138139714D02*
X143836572Y-137631714D01*
X143836572Y-137704286D02*
X143800287Y-137668000D01*
X143727715Y-137631714D01*
X143618858Y-137631714D01*
X143546287Y-137668000D01*
X143510001Y-137740571D01*
X143510001Y-138139714D01*
X143510001Y-137740571D02*
X143473715Y-137668000D01*
X143401144Y-137631714D01*
X143292287Y-137631714D01*
X143219715Y-137668000D01*
X143183430Y-137740571D01*
X143183430Y-138139714D01*
X142929430Y-137377714D02*
X142675430Y-138139714D01*
X142421430Y-137377714D01*
X142167429Y-137631714D02*
X142167429Y-138393714D01*
X142167429Y-137668000D02*
X142094858Y-137631714D01*
X141949715Y-137631714D01*
X141877144Y-137668000D01*
X141840858Y-137704286D01*
X141804572Y-137776857D01*
X141804572Y-137994571D01*
X141840858Y-138067143D01*
X141877144Y-138103429D01*
X141949715Y-138139714D01*
X142094858Y-138139714D01*
X142167429Y-138103429D01*
X141478000Y-137631714D02*
X141478000Y-138393714D01*
X141478000Y-137668000D02*
X141405429Y-137631714D01*
X141260286Y-137631714D01*
X141187715Y-137668000D01*
X141151429Y-137704286D01*
X141115143Y-137776857D01*
X141115143Y-137994571D01*
X141151429Y-138067143D01*
X141187715Y-138103429D01*
X141260286Y-138139714D01*
X141405429Y-138139714D01*
X141478000Y-138103429D01*
X143328571Y-135472714D02*
X142856857Y-135472714D01*
X143110857Y-135763000D01*
X143001999Y-135763000D01*
X142929428Y-135799286D01*
X142893142Y-135835571D01*
X142856857Y-135908143D01*
X142856857Y-136089571D01*
X142893142Y-136162143D01*
X142929428Y-136198429D01*
X143001999Y-136234714D01*
X143219714Y-136234714D01*
X143292285Y-136198429D01*
X143328571Y-136162143D01*
X142530285Y-136162143D02*
X142494000Y-136198429D01*
X142530285Y-136234714D01*
X142566571Y-136198429D01*
X142530285Y-136162143D01*
X142530285Y-136234714D01*
X142240000Y-135472714D02*
X141768286Y-135472714D01*
X142022286Y-135763000D01*
X141913428Y-135763000D01*
X141840857Y-135799286D01*
X141804571Y-135835571D01*
X141768286Y-135908143D01*
X141768286Y-136089571D01*
X141804571Y-136162143D01*
X141840857Y-136198429D01*
X141913428Y-136234714D01*
X142131143Y-136234714D01*
X142203714Y-136198429D01*
X142240000Y-136162143D01*
X141550572Y-135472714D02*
X141296572Y-136234714D01*
X141042572Y-135472714D01*
X148517429Y-135472714D02*
X148263429Y-136234714D01*
X148009429Y-135472714D01*
X147755428Y-135726714D02*
X147755428Y-136234714D01*
X147755428Y-135799286D02*
X147719143Y-135763000D01*
X147646571Y-135726714D01*
X147537714Y-135726714D01*
X147465143Y-135763000D01*
X147428857Y-135835571D01*
X147428857Y-136234714D01*
X146957142Y-136234714D02*
X147029714Y-136198429D01*
X147065999Y-136162143D01*
X147102285Y-136089571D01*
X147102285Y-135871857D01*
X147065999Y-135799286D01*
X147029714Y-135763000D01*
X146957142Y-135726714D01*
X146848285Y-135726714D01*
X146775714Y-135763000D01*
X146739428Y-135799286D01*
X146703142Y-135871857D01*
X146703142Y-136089571D01*
X146739428Y-136162143D01*
X146775714Y-136198429D01*
X146848285Y-136234714D01*
X146957142Y-136234714D01*
X146376570Y-136234714D02*
X146376570Y-135726714D01*
X146376570Y-135799286D02*
X146340285Y-135763000D01*
X146267713Y-135726714D01*
X146158856Y-135726714D01*
X146086285Y-135763000D01*
X146049999Y-135835571D01*
X146049999Y-136234714D01*
X146049999Y-135835571D02*
X146013713Y-135763000D01*
X145941142Y-135726714D01*
X145832285Y-135726714D01*
X145759713Y-135763000D01*
X145723428Y-135835571D01*
X145723428Y-136234714D01*
X148517429Y-137377714D02*
X148263429Y-138139714D01*
X148009429Y-137377714D01*
X147755428Y-138139714D02*
X147755428Y-137631714D01*
X147755428Y-137776857D02*
X147719143Y-137704286D01*
X147682857Y-137668000D01*
X147610286Y-137631714D01*
X147537714Y-137631714D01*
X147283714Y-138139714D02*
X147283714Y-137631714D01*
X147283714Y-137377714D02*
X147320000Y-137414000D01*
X147283714Y-137450286D01*
X147247429Y-137414000D01*
X147283714Y-137377714D01*
X147283714Y-137450286D01*
X146920857Y-137631714D02*
X146920857Y-138393714D01*
X146920857Y-137668000D02*
X146848286Y-137631714D01*
X146703143Y-137631714D01*
X146630572Y-137668000D01*
X146594286Y-137704286D01*
X146558000Y-137776857D01*
X146558000Y-137994571D01*
X146594286Y-138067143D01*
X146630572Y-138103429D01*
X146703143Y-138139714D01*
X146848286Y-138139714D01*
X146920857Y-138103429D01*
X146322144Y-133186714D02*
X146177001Y-133186714D01*
X146104429Y-133223000D01*
X146031858Y-133295571D01*
X145995572Y-133440714D01*
X145995572Y-133694714D01*
X146031858Y-133839857D01*
X146104429Y-133912429D01*
X146177001Y-133948714D01*
X146322144Y-133948714D01*
X146394715Y-133912429D01*
X146467286Y-133839857D01*
X146503572Y-133694714D01*
X146503572Y-133440714D01*
X146467286Y-133295571D01*
X146394715Y-133223000D01*
X146322144Y-133186714D01*
X145342429Y-133440714D02*
X145342429Y-133948714D01*
X145669000Y-133440714D02*
X145669000Y-133839857D01*
X145632715Y-133912429D01*
X145560143Y-133948714D01*
X145451286Y-133948714D01*
X145378715Y-133912429D01*
X145342429Y-133876143D01*
X145088429Y-133440714D02*
X144798143Y-133440714D01*
X144979571Y-133186714D02*
X144979571Y-133839857D01*
X144943286Y-133912429D01*
X144870714Y-133948714D01*
X144798143Y-133948714D01*
X144544142Y-133440714D02*
X144544142Y-134202714D01*
X144544142Y-133477000D02*
X144471571Y-133440714D01*
X144326428Y-133440714D01*
X144253857Y-133477000D01*
X144217571Y-133513286D01*
X144181285Y-133585857D01*
X144181285Y-133803571D01*
X144217571Y-133876143D01*
X144253857Y-133912429D01*
X144326428Y-133948714D01*
X144471571Y-133948714D01*
X144544142Y-133912429D01*
X143528142Y-133440714D02*
X143528142Y-133948714D01*
X143854713Y-133440714D02*
X143854713Y-133839857D01*
X143818428Y-133912429D01*
X143745856Y-133948714D01*
X143636999Y-133948714D01*
X143564428Y-133912429D01*
X143528142Y-133876143D01*
X143274142Y-133440714D02*
X142983856Y-133440714D01*
X143165284Y-133186714D02*
X143165284Y-133839857D01*
X143128999Y-133912429D01*
X143056427Y-133948714D01*
X142983856Y-133948714D01*
X154286857Y-133948714D02*
X154286857Y-133186714D01*
X153924000Y-133440714D02*
X153924000Y-133948714D01*
X153924000Y-133513286D02*
X153887715Y-133477000D01*
X153815143Y-133440714D01*
X153706286Y-133440714D01*
X153633715Y-133477000D01*
X153597429Y-133549571D01*
X153597429Y-133948714D01*
X153234571Y-133440714D02*
X153234571Y-134202714D01*
X153234571Y-133477000D02*
X153162000Y-133440714D01*
X153016857Y-133440714D01*
X152944286Y-133477000D01*
X152908000Y-133513286D01*
X152871714Y-133585857D01*
X152871714Y-133803571D01*
X152908000Y-133876143D01*
X152944286Y-133912429D01*
X153016857Y-133948714D01*
X153162000Y-133948714D01*
X153234571Y-133912429D01*
X152218571Y-133440714D02*
X152218571Y-133948714D01*
X152545142Y-133440714D02*
X152545142Y-133839857D01*
X152508857Y-133912429D01*
X152436285Y-133948714D01*
X152327428Y-133948714D01*
X152254857Y-133912429D01*
X152218571Y-133876143D01*
X151964571Y-133440714D02*
X151674285Y-133440714D01*
X151855713Y-133186714D02*
X151855713Y-133839857D01*
X151819428Y-133912429D01*
X151746856Y-133948714D01*
X151674285Y-133948714D01*
X151892000Y-131281714D02*
X151420286Y-131281714D01*
X151674286Y-131572000D01*
X151565428Y-131572000D01*
X151492857Y-131608286D01*
X151456571Y-131644571D01*
X151420286Y-131717143D01*
X151420286Y-131898571D01*
X151456571Y-131971143D01*
X151492857Y-132007429D01*
X151565428Y-132043714D01*
X151783143Y-132043714D01*
X151855714Y-132007429D01*
X151892000Y-131971143D01*
X151093714Y-131971143D02*
X151057429Y-132007429D01*
X151093714Y-132043714D01*
X151130000Y-132007429D01*
X151093714Y-131971143D01*
X151093714Y-132043714D01*
X150803429Y-131281714D02*
X150331715Y-131281714D01*
X150585715Y-131572000D01*
X150476857Y-131572000D01*
X150404286Y-131608286D01*
X150368000Y-131644571D01*
X150331715Y-131717143D01*
X150331715Y-131898571D01*
X150368000Y-131971143D01*
X150404286Y-132007429D01*
X150476857Y-132043714D01*
X150694572Y-132043714D01*
X150767143Y-132007429D01*
X150803429Y-131971143D01*
X150114001Y-131281714D02*
X149860001Y-132043714D01*
X149606001Y-131281714D01*
X148807715Y-132007429D02*
X148698858Y-132043714D01*
X148517429Y-132043714D01*
X148444858Y-132007429D01*
X148408572Y-131971143D01*
X148372287Y-131898571D01*
X148372287Y-131826000D01*
X148408572Y-131753429D01*
X148444858Y-131717143D01*
X148517429Y-131680857D01*
X148662572Y-131644571D01*
X148735144Y-131608286D01*
X148771429Y-131572000D01*
X148807715Y-131499429D01*
X148807715Y-131426857D01*
X148771429Y-131354286D01*
X148735144Y-131318000D01*
X148662572Y-131281714D01*
X148481144Y-131281714D01*
X148372287Y-131318000D01*
X147719144Y-131535714D02*
X147719144Y-132043714D01*
X148045715Y-131535714D02*
X148045715Y-131934857D01*
X148009430Y-132007429D01*
X147936858Y-132043714D01*
X147828001Y-132043714D01*
X147755430Y-132007429D01*
X147719144Y-131971143D01*
X147356286Y-131535714D02*
X147356286Y-132297714D01*
X147356286Y-131572000D02*
X147283715Y-131535714D01*
X147138572Y-131535714D01*
X147066001Y-131572000D01*
X147029715Y-131608286D01*
X146993429Y-131680857D01*
X146993429Y-131898571D01*
X147029715Y-131971143D01*
X147066001Y-132007429D01*
X147138572Y-132043714D01*
X147283715Y-132043714D01*
X147356286Y-132007429D01*
X146666857Y-131535714D02*
X146666857Y-132297714D01*
X146666857Y-131572000D02*
X146594286Y-131535714D01*
X146449143Y-131535714D01*
X146376572Y-131572000D01*
X146340286Y-131608286D01*
X146304000Y-131680857D01*
X146304000Y-131898571D01*
X146340286Y-131971143D01*
X146376572Y-132007429D01*
X146449143Y-132043714D01*
X146594286Y-132043714D01*
X146666857Y-132007429D01*
X145868571Y-132043714D02*
X145941143Y-132007429D01*
X145977428Y-131934857D01*
X145977428Y-131281714D01*
X145650857Y-131535714D02*
X145469428Y-132043714D01*
X145288000Y-131535714D02*
X145469428Y-132043714D01*
X145542000Y-132225143D01*
X145578285Y-132261429D01*
X145650857Y-132297714D01*
X136506857Y-133948714D02*
X136506857Y-133186714D01*
X136144000Y-133440714D02*
X136144000Y-133948714D01*
X136144000Y-133513286D02*
X136107715Y-133477000D01*
X136035143Y-133440714D01*
X135926286Y-133440714D01*
X135853715Y-133477000D01*
X135817429Y-133549571D01*
X135817429Y-133948714D01*
X135454571Y-133440714D02*
X135454571Y-134202714D01*
X135454571Y-133477000D02*
X135382000Y-133440714D01*
X135236857Y-133440714D01*
X135164286Y-133477000D01*
X135128000Y-133513286D01*
X135091714Y-133585857D01*
X135091714Y-133803571D01*
X135128000Y-133876143D01*
X135164286Y-133912429D01*
X135236857Y-133948714D01*
X135382000Y-133948714D01*
X135454571Y-133912429D01*
X134438571Y-133440714D02*
X134438571Y-133948714D01*
X134765142Y-133440714D02*
X134765142Y-133839857D01*
X134728857Y-133912429D01*
X134656285Y-133948714D01*
X134547428Y-133948714D01*
X134474857Y-133912429D01*
X134438571Y-133876143D01*
X134184571Y-133440714D02*
X133894285Y-133440714D01*
X134075713Y-133186714D02*
X134075713Y-133839857D01*
X134039428Y-133912429D01*
X133966856Y-133948714D01*
X133894285Y-133948714D01*
X128542144Y-133186714D02*
X128397001Y-133186714D01*
X128324429Y-133223000D01*
X128251858Y-133295571D01*
X128215572Y-133440714D01*
X128215572Y-133694714D01*
X128251858Y-133839857D01*
X128324429Y-133912429D01*
X128397001Y-133948714D01*
X128542144Y-133948714D01*
X128614715Y-133912429D01*
X128687286Y-133839857D01*
X128723572Y-133694714D01*
X128723572Y-133440714D01*
X128687286Y-133295571D01*
X128614715Y-133223000D01*
X128542144Y-133186714D01*
X127562429Y-133440714D02*
X127562429Y-133948714D01*
X127889000Y-133440714D02*
X127889000Y-133839857D01*
X127852715Y-133912429D01*
X127780143Y-133948714D01*
X127671286Y-133948714D01*
X127598715Y-133912429D01*
X127562429Y-133876143D01*
X127308429Y-133440714D02*
X127018143Y-133440714D01*
X127199571Y-133186714D02*
X127199571Y-133839857D01*
X127163286Y-133912429D01*
X127090714Y-133948714D01*
X127018143Y-133948714D01*
X126764142Y-133440714D02*
X126764142Y-134202714D01*
X126764142Y-133477000D02*
X126691571Y-133440714D01*
X126546428Y-133440714D01*
X126473857Y-133477000D01*
X126437571Y-133513286D01*
X126401285Y-133585857D01*
X126401285Y-133803571D01*
X126437571Y-133876143D01*
X126473857Y-133912429D01*
X126546428Y-133948714D01*
X126691571Y-133948714D01*
X126764142Y-133912429D01*
X125748142Y-133440714D02*
X125748142Y-133948714D01*
X126074713Y-133440714D02*
X126074713Y-133839857D01*
X126038428Y-133912429D01*
X125965856Y-133948714D01*
X125856999Y-133948714D01*
X125784428Y-133912429D01*
X125748142Y-133876143D01*
X125494142Y-133440714D02*
X125203856Y-133440714D01*
X125385284Y-133186714D02*
X125385284Y-133839857D01*
X125348999Y-133912429D01*
X125276427Y-133948714D01*
X125203856Y-133948714D01*
X133132285Y-131281714D02*
X133495142Y-131281714D01*
X133531428Y-131644571D01*
X133495142Y-131608286D01*
X133422571Y-131572000D01*
X133241142Y-131572000D01*
X133168571Y-131608286D01*
X133132285Y-131644571D01*
X133096000Y-131717143D01*
X133096000Y-131898571D01*
X133132285Y-131971143D01*
X133168571Y-132007429D01*
X133241142Y-132043714D01*
X133422571Y-132043714D01*
X133495142Y-132007429D01*
X133531428Y-131971143D01*
X132878286Y-131281714D02*
X132624286Y-132043714D01*
X132370286Y-131281714D01*
X131572000Y-132007429D02*
X131463143Y-132043714D01*
X131281714Y-132043714D01*
X131209143Y-132007429D01*
X131172857Y-131971143D01*
X131136572Y-131898571D01*
X131136572Y-131826000D01*
X131172857Y-131753429D01*
X131209143Y-131717143D01*
X131281714Y-131680857D01*
X131426857Y-131644571D01*
X131499429Y-131608286D01*
X131535714Y-131572000D01*
X131572000Y-131499429D01*
X131572000Y-131426857D01*
X131535714Y-131354286D01*
X131499429Y-131318000D01*
X131426857Y-131281714D01*
X131245429Y-131281714D01*
X131136572Y-131318000D01*
X130483429Y-131535714D02*
X130483429Y-132043714D01*
X130810000Y-131535714D02*
X130810000Y-131934857D01*
X130773715Y-132007429D01*
X130701143Y-132043714D01*
X130592286Y-132043714D01*
X130519715Y-132007429D01*
X130483429Y-131971143D01*
X130120571Y-131535714D02*
X130120571Y-132297714D01*
X130120571Y-131572000D02*
X130048000Y-131535714D01*
X129902857Y-131535714D01*
X129830286Y-131572000D01*
X129794000Y-131608286D01*
X129757714Y-131680857D01*
X129757714Y-131898571D01*
X129794000Y-131971143D01*
X129830286Y-132007429D01*
X129902857Y-132043714D01*
X130048000Y-132043714D01*
X130120571Y-132007429D01*
X129431142Y-131535714D02*
X129431142Y-132297714D01*
X129431142Y-131572000D02*
X129358571Y-131535714D01*
X129213428Y-131535714D01*
X129140857Y-131572000D01*
X129104571Y-131608286D01*
X129068285Y-131680857D01*
X129068285Y-131898571D01*
X129104571Y-131971143D01*
X129140857Y-132007429D01*
X129213428Y-132043714D01*
X129358571Y-132043714D01*
X129431142Y-132007429D01*
X128632856Y-132043714D02*
X128705428Y-132007429D01*
X128741713Y-131934857D01*
X128741713Y-131281714D01*
X128415142Y-131535714D02*
X128233713Y-132043714D01*
X128052285Y-131535714D02*
X128233713Y-132043714D01*
X128306285Y-132225143D01*
X128342570Y-132261429D01*
X128415142Y-132297714D01*
M02*
