G04 #@! TF.FileFunction,Copper,L1,Top,Signal*
%FSLAX46Y46*%
G04 Gerber Fmt 4.6, Leading zero omitted, Abs format (unit mm)*
G04 Created by KiCad (PCBNEW 4.0.6) date 08/14/17 09:10:16*
%MOMM*%
%LPD*%
G01*
G04 APERTURE LIST*
%ADD10C,0.100000*%
%ADD11C,0.635000*%
%ADD12R,1.200000X0.900000*%
%ADD13R,1.143000X0.508000*%
%ADD14R,0.750000X1.200000*%
%ADD15R,1.200000X0.750000*%
%ADD16R,2.600000X1.600000*%
%ADD17R,1.700000X1.700000*%
%ADD18O,1.700000X1.700000*%
%ADD19C,1.524000*%
%ADD20R,3.800000X2.000000*%
%ADD21R,1.500000X2.000000*%
%ADD22R,2.500000X1.800000*%
%ADD23R,0.900000X1.200000*%
%ADD24R,2.000000X1.600000*%
%ADD25R,1.700000X1.200000*%
%ADD26O,1.700000X1.200000*%
%ADD27C,4.572000*%
%ADD28C,4.064000*%
%ADD29C,0.381000*%
%ADD30C,0.635000*%
%ADD31C,0.254000*%
G04 APERTURE END LIST*
D10*
D11*
X127000000Y-124460000D03*
X157480000Y-124460000D03*
X147320000Y-124460000D03*
X162560000Y-154940000D03*
X127000000Y-154940000D03*
X137160000Y-124460000D03*
X127000000Y-147320000D03*
X121920000Y-132080000D03*
X138430000Y-132080000D03*
D12*
X173820000Y-147320000D03*
X171620000Y-147320000D03*
D11*
X135890000Y-134620000D03*
X136525000Y-144780000D03*
X142875000Y-144780000D03*
X154940000Y-142240000D03*
X149860000Y-142240000D03*
X172720000Y-144780000D03*
D10*
G36*
X148509924Y-138654289D02*
X146954289Y-140209924D01*
X145540076Y-138795711D01*
X147095711Y-137240076D01*
X148509924Y-138654289D01*
X148509924Y-138654289D01*
G37*
G36*
X152909924Y-134254289D02*
X151354289Y-135809924D01*
X149940076Y-134395711D01*
X151495711Y-132840076D01*
X152909924Y-134254289D01*
X152909924Y-134254289D01*
G37*
D11*
X121920000Y-142240000D03*
X121920000Y-137160000D03*
X137160000Y-147320000D03*
X137160000Y-154940000D03*
X116840000Y-142240000D03*
X172720000Y-134620000D03*
X162560000Y-147320000D03*
X152400000Y-147320000D03*
X165100000Y-142240000D03*
X165100000Y-134620000D03*
X141605000Y-144780000D03*
X140335000Y-144780000D03*
X139065000Y-144780000D03*
X137795000Y-144780000D03*
X139065000Y-142875000D03*
X140335000Y-142875000D03*
X140335000Y-141605000D03*
X139065000Y-141605000D03*
X140335000Y-140335000D03*
D13*
X142875000Y-139700000D03*
X142875000Y-140970000D03*
X142875000Y-142240000D03*
X142875000Y-143510000D03*
X136525000Y-143510000D03*
X136525000Y-142240000D03*
X136525000Y-140970000D03*
X136525000Y-139700000D03*
D14*
X132080000Y-141925000D03*
X132080000Y-143825000D03*
X134493000Y-137861000D03*
X134493000Y-139761000D03*
D15*
X149545000Y-144145000D03*
X151445000Y-144145000D03*
D14*
X147320000Y-143825000D03*
X147320000Y-141925000D03*
D15*
X150180000Y-153035000D03*
X152080000Y-153035000D03*
D16*
X154200000Y-149225000D03*
X150600000Y-149225000D03*
D17*
X114300000Y-139700000D03*
D18*
X114300000Y-142240000D03*
D17*
X139700000Y-127000000D03*
D18*
X142240000Y-127000000D03*
D17*
X119380000Y-147320000D03*
D18*
X119380000Y-149860000D03*
X119380000Y-152400000D03*
D17*
X114300000Y-149860000D03*
D18*
X114300000Y-152400000D03*
D17*
X172720000Y-127000000D03*
D18*
X172720000Y-129540000D03*
D17*
X172720000Y-149860000D03*
D18*
X172720000Y-152400000D03*
D19*
X147320000Y-129540000D03*
X149820000Y-129540000D03*
X152320000Y-129540000D03*
X152320000Y-126340000D03*
X149820000Y-126340000D03*
X147320000Y-126340000D03*
D18*
X132080000Y-127000000D03*
X134620000Y-127000000D03*
X157480000Y-127000000D03*
X160020000Y-127000000D03*
X132080000Y-152400000D03*
X134620000Y-152400000D03*
X157480000Y-152400000D03*
X160020000Y-152400000D03*
X157480000Y-137160000D03*
D20*
X144145000Y-154280000D03*
D21*
X144145000Y-147980000D03*
X141845000Y-147980000D03*
X146445000Y-147980000D03*
D11*
X139065000Y-140335000D03*
X160020000Y-134620000D03*
D18*
X160020000Y-137160000D03*
X169545000Y-125095000D03*
D22*
X144240000Y-136525000D03*
X140240000Y-136525000D03*
X129000000Y-137795000D03*
X125000000Y-137795000D03*
D12*
X137795000Y-152145000D03*
X137795000Y-148845000D03*
X157650000Y-149860000D03*
X159850000Y-149860000D03*
X132250000Y-149860000D03*
X134450000Y-149860000D03*
X155110000Y-131445000D03*
X157310000Y-131445000D03*
X124630000Y-134620000D03*
X126830000Y-134620000D03*
D23*
X166370000Y-144610000D03*
X166370000Y-142410000D03*
X166370000Y-134790000D03*
X166370000Y-136990000D03*
X158115000Y-141775000D03*
X158115000Y-143975000D03*
X161290000Y-143975000D03*
X161290000Y-141775000D03*
X153670000Y-141775000D03*
X153670000Y-143975000D03*
X130175000Y-143975000D03*
X130175000Y-141775000D03*
X127635000Y-143975000D03*
X127635000Y-141775000D03*
X125730000Y-141775000D03*
X125730000Y-143975000D03*
D24*
X132467600Y-132029200D03*
X136467600Y-132029200D03*
X144240000Y-132029200D03*
X140240000Y-132029200D03*
D12*
X173820000Y-132080000D03*
X171620000Y-132080000D03*
D25*
X172720000Y-137668000D03*
D26*
X172720000Y-139668000D03*
X172720000Y-141668000D03*
D27*
X120650000Y-128270000D03*
D28*
X114650000Y-128270000D03*
X117650000Y-132970000D03*
D11*
X160020000Y-141605000D03*
X155575000Y-135255000D03*
X142875000Y-138430000D03*
X136525000Y-138430000D03*
X166370000Y-133350000D03*
X170180000Y-132080000D03*
X167640000Y-144145000D03*
X171450000Y-146050000D03*
X134112000Y-141986000D03*
X128905000Y-140970000D03*
X167640000Y-142240000D03*
D29*
X129000000Y-137795000D02*
X129000000Y-138335000D01*
X129000000Y-138335000D02*
X127000000Y-140335000D01*
X124460000Y-142705000D02*
X125730000Y-143975000D01*
X124460000Y-140970000D02*
X124460000Y-142705000D01*
X125095000Y-140335000D02*
X124460000Y-140970000D01*
X127000000Y-140335000D02*
X125095000Y-140335000D01*
D30*
X129000000Y-137795000D02*
X130175000Y-137795000D01*
X130175000Y-137795000D02*
X133350000Y-140970000D01*
X133350000Y-140970000D02*
X136525000Y-140970000D01*
X129000000Y-137795000D02*
X129000000Y-135496800D01*
X129000000Y-135496800D02*
X132467600Y-132029200D01*
D29*
X125730000Y-143975000D02*
X125730000Y-143510000D01*
X131930000Y-143975000D02*
X132080000Y-143825000D01*
X155110000Y-131445000D02*
X155110000Y-134790000D01*
X160190000Y-141775000D02*
X161290000Y-141775000D01*
X160020000Y-141605000D02*
X160190000Y-141775000D01*
X155110000Y-134790000D02*
X155575000Y-135255000D01*
D30*
X155110000Y-131445000D02*
X155110000Y-129370000D01*
X155110000Y-129370000D02*
X157480000Y-127000000D01*
D29*
X152400000Y-133890000D02*
X151670000Y-133890000D01*
X136525000Y-143510000D02*
X133665000Y-143510000D01*
X133665000Y-143510000D02*
X132080000Y-141925000D01*
X132080000Y-141925000D02*
X130325000Y-141925000D01*
X130325000Y-141925000D02*
X130175000Y-141775000D01*
X157480000Y-137160000D02*
X148590000Y-137160000D01*
X148590000Y-137160000D02*
X147025000Y-138725000D01*
X147000000Y-139700000D02*
X147320000Y-139380000D01*
X134493000Y-137861000D02*
X135956000Y-137861000D01*
X135956000Y-137861000D02*
X136525000Y-138430000D01*
X134493000Y-139761000D02*
X136464000Y-139761000D01*
X136464000Y-139761000D02*
X136525000Y-139700000D01*
X142875000Y-142240000D02*
X144272000Y-142240000D01*
X145542000Y-143510000D02*
X147005000Y-143510000D01*
X144272000Y-142240000D02*
X145542000Y-143510000D01*
X147005000Y-143510000D02*
X147320000Y-143825000D01*
X147320000Y-143825000D02*
X149225000Y-143825000D01*
X149225000Y-143825000D02*
X149545000Y-144145000D01*
X153670000Y-143975000D02*
X151615000Y-143975000D01*
X151615000Y-143975000D02*
X151445000Y-144145000D01*
X150180000Y-153035000D02*
X147955000Y-153035000D01*
X147065000Y-152145000D02*
X137795000Y-152145000D01*
X147955000Y-153035000D02*
X147065000Y-152145000D01*
D30*
X137795000Y-152145000D02*
X137795000Y-151765000D01*
X137795000Y-151765000D02*
X141580000Y-147980000D01*
X141580000Y-147980000D02*
X141845000Y-147980000D01*
X157650000Y-149860000D02*
X154835000Y-149860000D01*
X154835000Y-149860000D02*
X153565000Y-151130000D01*
X144145000Y-149225000D02*
X144145000Y-147980000D01*
X146050000Y-151130000D02*
X144145000Y-149225000D01*
X153565000Y-151130000D02*
X146050000Y-151130000D01*
X157650000Y-149860000D02*
X157650000Y-152230000D01*
X157650000Y-152230000D02*
X157480000Y-152400000D01*
X126830000Y-134620000D02*
X127000000Y-134620000D01*
X127000000Y-134620000D02*
X134620000Y-127000000D01*
X126830000Y-134620000D02*
X126830000Y-135965000D01*
X126830000Y-135965000D02*
X125000000Y-137795000D01*
X127000000Y-134450000D02*
X126830000Y-134620000D01*
X134450000Y-149860000D02*
X136780000Y-149860000D01*
X136780000Y-149860000D02*
X137795000Y-148845000D01*
X134450000Y-149860000D02*
X134450000Y-152230000D01*
X134450000Y-152230000D02*
X134620000Y-152400000D01*
D29*
X171920000Y-132080000D02*
X170180000Y-132080000D01*
X166370000Y-133350000D02*
X166370000Y-134790000D01*
X166370000Y-134790000D02*
X166370000Y-134620000D01*
X171920000Y-147320000D02*
X171920000Y-146520000D01*
X167175000Y-144610000D02*
X166370000Y-144610000D01*
X167640000Y-144145000D02*
X167175000Y-144610000D01*
X171920000Y-146520000D02*
X171450000Y-146050000D01*
D30*
X124630000Y-134620000D02*
X124630000Y-134450000D01*
X124630000Y-134450000D02*
X132080000Y-127000000D01*
X124630000Y-134620000D02*
X120650000Y-134620000D01*
X124460000Y-134450000D02*
X124630000Y-134620000D01*
X120650000Y-128270000D02*
X120650000Y-134620000D01*
X120650000Y-134620000D02*
X119380000Y-135890000D01*
X118110000Y-135890000D02*
X119380000Y-135890000D01*
X114300000Y-139700000D02*
X118110000Y-135890000D01*
D29*
X134165998Y-141986000D02*
X134112000Y-141986000D01*
X136525000Y-142240000D02*
X134419998Y-142240000D01*
X134419998Y-142240000D02*
X134165998Y-141986000D01*
X128100000Y-141775000D02*
X127635000Y-141775000D01*
X128905000Y-140970000D02*
X128100000Y-141775000D01*
X139700000Y-127000000D02*
X142240000Y-129540000D01*
X142240000Y-129540000D02*
X147320000Y-129540000D01*
D30*
X125730000Y-141775000D02*
X127635000Y-141775000D01*
X157310000Y-131445000D02*
X157310000Y-129710000D01*
X157310000Y-129710000D02*
X160020000Y-127000000D01*
X157310000Y-131445000D02*
X167005000Y-131445000D01*
X167005000Y-131445000D02*
X168910000Y-129540000D01*
X172720000Y-137668000D02*
X169672000Y-137668000D01*
X169672000Y-137668000D02*
X168910000Y-138430000D01*
D29*
X166370000Y-136990000D02*
X166370000Y-139700000D01*
X166370000Y-139700000D02*
X168910000Y-142240000D01*
D30*
X168910000Y-133350000D02*
X168910000Y-138430000D01*
X168910000Y-138430000D02*
X168910000Y-142240000D01*
X168910000Y-142240000D02*
X168910000Y-144780000D01*
X120650000Y-146050000D02*
X119380000Y-147320000D01*
X167640000Y-146050000D02*
X120650000Y-146050000D01*
X168910000Y-144780000D02*
X167640000Y-146050000D01*
X168910000Y-133350000D02*
X168910000Y-129540000D01*
X171450000Y-127000000D02*
X172720000Y-127000000D01*
X168910000Y-129540000D02*
X171450000Y-127000000D01*
X132250000Y-149860000D02*
X130810000Y-149860000D01*
X123190000Y-149860000D02*
X119380000Y-149860000D01*
X124460000Y-149860000D02*
X123190000Y-149860000D01*
X129540000Y-149860000D02*
X124460000Y-149860000D01*
X130810000Y-149860000D02*
X129540000Y-149860000D01*
X132250000Y-149860000D02*
X132250000Y-152230000D01*
X132250000Y-152230000D02*
X132080000Y-152400000D01*
X114300000Y-149860000D02*
X116840000Y-149860000D01*
X116840000Y-149860000D02*
X119380000Y-152400000D01*
X172720000Y-149860000D02*
X172085000Y-149860000D01*
X172085000Y-149860000D02*
X170180000Y-147955000D01*
X171490000Y-139660000D02*
X172720000Y-139660000D01*
X170180000Y-140970000D02*
X171490000Y-139660000D01*
X170180000Y-147955000D02*
X170180000Y-140970000D01*
X172720000Y-139660000D02*
X172325002Y-139660000D01*
D29*
X166370000Y-142410000D02*
X167470000Y-142410000D01*
X167470000Y-142410000D02*
X167640000Y-142240000D01*
D30*
X159850000Y-149860000D02*
X161290000Y-149860000D01*
X168910000Y-149860000D02*
X172720000Y-149860000D01*
X165100000Y-149860000D02*
X168910000Y-149860000D01*
X162560000Y-149860000D02*
X165100000Y-149860000D01*
X161290000Y-149860000D02*
X162560000Y-149860000D01*
X159850000Y-149860000D02*
X159850000Y-152230000D01*
X159850000Y-152230000D02*
X160020000Y-152400000D01*
D29*
X160020000Y-137160000D02*
X160020000Y-138430000D01*
X162560000Y-142705000D02*
X161290000Y-143975000D01*
X162560000Y-140970000D02*
X162560000Y-142705000D01*
X160020000Y-138430000D02*
X162560000Y-140970000D01*
X158115000Y-143975000D02*
X161290000Y-143975000D01*
X142875000Y-143510000D02*
X144526000Y-143510000D01*
X156802000Y-145288000D02*
X158115000Y-143975000D01*
X146304000Y-145288000D02*
X156802000Y-145288000D01*
X144526000Y-143510000D02*
X146304000Y-145288000D01*
D31*
G36*
X141478000Y-140589000D02*
X141488006Y-140638410D01*
X141516447Y-140680035D01*
X141558841Y-140707315D01*
X141605000Y-140716000D01*
X159258000Y-140716000D01*
X159258000Y-142748000D01*
X145588223Y-142748000D01*
X145542000Y-142701777D01*
X145542000Y-141605000D01*
X145531994Y-141555590D01*
X145503553Y-141513965D01*
X145461159Y-141486685D01*
X145415000Y-141478000D01*
X141605000Y-141478000D01*
X141555590Y-141488006D01*
X141513965Y-141516447D01*
X141486685Y-141558841D01*
X141478000Y-141605000D01*
X141478000Y-144145000D01*
X141488006Y-144194410D01*
X141516447Y-144236035D01*
X141558841Y-144263315D01*
X141605000Y-144272000D01*
X144145000Y-144272000D01*
X144145000Y-145288000D01*
X127127000Y-145288000D01*
X127127000Y-143002000D01*
X132348776Y-143002000D01*
X133223000Y-143876223D01*
X133223000Y-144145000D01*
X133233006Y-144194410D01*
X133261447Y-144236035D01*
X133303841Y-144263315D01*
X133350000Y-144272000D01*
X137795000Y-144272000D01*
X137844410Y-144261994D01*
X137886035Y-144233553D01*
X137913315Y-144191159D01*
X137922000Y-144145000D01*
X137922000Y-136525000D01*
X137911994Y-136475590D01*
X137883553Y-136433965D01*
X137841159Y-136406685D01*
X137795000Y-136398000D01*
X134112000Y-136398000D01*
X134112000Y-130175000D01*
X141478000Y-130175000D01*
X141478000Y-140589000D01*
X141478000Y-140589000D01*
G37*
X141478000Y-140589000D02*
X141488006Y-140638410D01*
X141516447Y-140680035D01*
X141558841Y-140707315D01*
X141605000Y-140716000D01*
X159258000Y-140716000D01*
X159258000Y-142748000D01*
X145588223Y-142748000D01*
X145542000Y-142701777D01*
X145542000Y-141605000D01*
X145531994Y-141555590D01*
X145503553Y-141513965D01*
X145461159Y-141486685D01*
X145415000Y-141478000D01*
X141605000Y-141478000D01*
X141555590Y-141488006D01*
X141513965Y-141516447D01*
X141486685Y-141558841D01*
X141478000Y-141605000D01*
X141478000Y-144145000D01*
X141488006Y-144194410D01*
X141516447Y-144236035D01*
X141558841Y-144263315D01*
X141605000Y-144272000D01*
X144145000Y-144272000D01*
X144145000Y-145288000D01*
X127127000Y-145288000D01*
X127127000Y-143002000D01*
X132348776Y-143002000D01*
X133223000Y-143876223D01*
X133223000Y-144145000D01*
X133233006Y-144194410D01*
X133261447Y-144236035D01*
X133303841Y-144263315D01*
X133350000Y-144272000D01*
X137795000Y-144272000D01*
X137844410Y-144261994D01*
X137886035Y-144233553D01*
X137913315Y-144191159D01*
X137922000Y-144145000D01*
X137922000Y-136525000D01*
X137911994Y-136475590D01*
X137883553Y-136433965D01*
X137841159Y-136406685D01*
X137795000Y-136398000D01*
X134112000Y-136398000D01*
X134112000Y-130175000D01*
X141478000Y-130175000D01*
X141478000Y-140589000D01*
G36*
X146350446Y-130186612D02*
X146671697Y-130508423D01*
X147091646Y-130682801D01*
X147546359Y-130683198D01*
X147966612Y-130509554D01*
X148288423Y-130188303D01*
X148293947Y-130175000D01*
X148845648Y-130175000D01*
X148850446Y-130186612D01*
X149171697Y-130508423D01*
X149591646Y-130682801D01*
X150046359Y-130683198D01*
X150466612Y-130509554D01*
X150788423Y-130188303D01*
X150793947Y-130175000D01*
X151345648Y-130175000D01*
X151350446Y-130186612D01*
X151671697Y-130508423D01*
X152091646Y-130682801D01*
X152546359Y-130683198D01*
X152966612Y-130509554D01*
X153288423Y-130188303D01*
X153293947Y-130175000D01*
X155956000Y-130175000D01*
X155956000Y-135763000D01*
X149225000Y-135763000D01*
X149225000Y-133985000D01*
X149214994Y-133935590D01*
X149186553Y-133893965D01*
X149144159Y-133866685D01*
X149098000Y-133858000D01*
X142240000Y-133858000D01*
X142240000Y-130175000D01*
X146345648Y-130175000D01*
X146350446Y-130186612D01*
X146350446Y-130186612D01*
G37*
X146350446Y-130186612D02*
X146671697Y-130508423D01*
X147091646Y-130682801D01*
X147546359Y-130683198D01*
X147966612Y-130509554D01*
X148288423Y-130188303D01*
X148293947Y-130175000D01*
X148845648Y-130175000D01*
X148850446Y-130186612D01*
X149171697Y-130508423D01*
X149591646Y-130682801D01*
X150046359Y-130683198D01*
X150466612Y-130509554D01*
X150788423Y-130188303D01*
X150793947Y-130175000D01*
X151345648Y-130175000D01*
X151350446Y-130186612D01*
X151671697Y-130508423D01*
X152091646Y-130682801D01*
X152546359Y-130683198D01*
X152966612Y-130509554D01*
X153288423Y-130188303D01*
X153293947Y-130175000D01*
X155956000Y-130175000D01*
X155956000Y-135763000D01*
X149225000Y-135763000D01*
X149225000Y-133985000D01*
X149214994Y-133935590D01*
X149186553Y-133893965D01*
X149144159Y-133866685D01*
X149098000Y-133858000D01*
X142240000Y-133858000D01*
X142240000Y-130175000D01*
X146345648Y-130175000D01*
X146350446Y-130186612D01*
G36*
X148590000Y-136271000D02*
X148600006Y-136320410D01*
X148628447Y-136362035D01*
X148670841Y-136389315D01*
X148717000Y-136398000D01*
X155956000Y-136398000D01*
X155956000Y-140081000D01*
X142240000Y-140081000D01*
X142240000Y-134493000D01*
X148590000Y-134493000D01*
X148590000Y-136271000D01*
X148590000Y-136271000D01*
G37*
X148590000Y-136271000D02*
X148600006Y-136320410D01*
X148628447Y-136362035D01*
X148670841Y-136389315D01*
X148717000Y-136398000D01*
X155956000Y-136398000D01*
X155956000Y-140081000D01*
X142240000Y-140081000D01*
X142240000Y-134493000D01*
X148590000Y-134493000D01*
X148590000Y-136271000D01*
G36*
X138303000Y-129540000D02*
X133477000Y-129540000D01*
X133427590Y-129550006D01*
X133385965Y-129578447D01*
X133358685Y-129620841D01*
X133350000Y-129667000D01*
X133350000Y-130840736D01*
X131767092Y-130840736D01*
X134413171Y-128194657D01*
X134595883Y-128231000D01*
X134644117Y-128231000D01*
X135115200Y-128137296D01*
X135514565Y-127870448D01*
X135781413Y-127471083D01*
X135875117Y-127000000D01*
X135781413Y-126528917D01*
X135514565Y-126129552D01*
X135115200Y-125862704D01*
X134644117Y-125769000D01*
X134595883Y-125769000D01*
X134124800Y-125862704D01*
X133725435Y-126129552D01*
X133458587Y-126528917D01*
X133364883Y-127000000D01*
X133409229Y-127222943D01*
X133261358Y-127370814D01*
X133335117Y-127000000D01*
X133241413Y-126528917D01*
X132974565Y-126129552D01*
X132575200Y-125862704D01*
X132104117Y-125769000D01*
X132055883Y-125769000D01*
X131584800Y-125862704D01*
X131185435Y-126129552D01*
X130918587Y-126528917D01*
X130824883Y-127000000D01*
X130869229Y-127222943D01*
X124311043Y-133781129D01*
X124308998Y-133781536D01*
X124030000Y-133781536D01*
X123888810Y-133808103D01*
X123759135Y-133891546D01*
X123738668Y-133921500D01*
X121348500Y-133921500D01*
X121348500Y-130867084D01*
X122158761Y-130532291D01*
X122909655Y-129782707D01*
X123316536Y-128802827D01*
X123317462Y-127741828D01*
X123172024Y-127389841D01*
X125031159Y-127389841D01*
X125330214Y-128113609D01*
X125883479Y-128667840D01*
X126606723Y-128968157D01*
X127389841Y-128968841D01*
X128113609Y-128669786D01*
X128667840Y-128116521D01*
X128968157Y-127393277D01*
X128968841Y-126610159D01*
X128669786Y-125886391D01*
X128116521Y-125332160D01*
X127393277Y-125031843D01*
X126610159Y-125031159D01*
X125886391Y-125330214D01*
X125332160Y-125883479D01*
X125031843Y-126606723D01*
X125031159Y-127389841D01*
X123172024Y-127389841D01*
X122912291Y-126761239D01*
X122162707Y-126010345D01*
X121182827Y-125603464D01*
X120121828Y-125602538D01*
X119141239Y-126007709D01*
X118390345Y-126757293D01*
X117983464Y-127737173D01*
X117982538Y-128798172D01*
X118387709Y-129778761D01*
X119137293Y-130529655D01*
X119951500Y-130867743D01*
X119951500Y-132221270D01*
X119696834Y-131604931D01*
X119018639Y-130925551D01*
X118132081Y-130557420D01*
X117172130Y-130556583D01*
X116284931Y-130923166D01*
X115605551Y-131601361D01*
X115237420Y-132487919D01*
X115236583Y-133447870D01*
X115603166Y-134335069D01*
X116281361Y-135014449D01*
X117167919Y-135382580D01*
X117635689Y-135382988D01*
X117616086Y-135396086D01*
X114550636Y-138461536D01*
X113450000Y-138461536D01*
X113308810Y-138488103D01*
X113179135Y-138571546D01*
X113092141Y-138698866D01*
X113061536Y-138850000D01*
X113061536Y-140550000D01*
X113088103Y-140691190D01*
X113171546Y-140820865D01*
X113298866Y-140907859D01*
X113450000Y-140938464D01*
X113645105Y-140938464D01*
X113418642Y-141044817D01*
X113028355Y-141473076D01*
X112858524Y-141883110D01*
X112979845Y-142113000D01*
X114173000Y-142113000D01*
X114173000Y-142093000D01*
X114427000Y-142093000D01*
X114427000Y-142113000D01*
X115620155Y-142113000D01*
X115741476Y-141883110D01*
X115571645Y-141473076D01*
X115181358Y-141044817D01*
X114954895Y-140938464D01*
X115150000Y-140938464D01*
X115291190Y-140911897D01*
X115420865Y-140828454D01*
X115507859Y-140701134D01*
X115538464Y-140550000D01*
X115538464Y-139449364D01*
X118399328Y-136588500D01*
X119380000Y-136588500D01*
X119647305Y-136535330D01*
X119873914Y-136383914D01*
X120939328Y-135318500D01*
X123737155Y-135318500D01*
X123751546Y-135340865D01*
X123878866Y-135427859D01*
X124030000Y-135458464D01*
X125230000Y-135458464D01*
X125371190Y-135431897D01*
X125500865Y-135348454D01*
X125587859Y-135221134D01*
X125618464Y-135070000D01*
X125618464Y-134449364D01*
X125841536Y-134226292D01*
X125841536Y-135070000D01*
X125868103Y-135211190D01*
X125951546Y-135340865D01*
X126078866Y-135427859D01*
X126131500Y-135438518D01*
X126131500Y-135675672D01*
X125300636Y-136506536D01*
X123750000Y-136506536D01*
X123608810Y-136533103D01*
X123479135Y-136616546D01*
X123392141Y-136743866D01*
X123361536Y-136895000D01*
X123361536Y-138695000D01*
X123388103Y-138836190D01*
X123471546Y-138965865D01*
X123598866Y-139052859D01*
X123750000Y-139083464D01*
X126250000Y-139083464D01*
X126391190Y-139056897D01*
X126520865Y-138973454D01*
X126607859Y-138846134D01*
X126638464Y-138695000D01*
X126638464Y-137144364D01*
X127323914Y-136458914D01*
X127475330Y-136232305D01*
X127528500Y-135965000D01*
X127528500Y-135439930D01*
X127571190Y-135431897D01*
X127700865Y-135348454D01*
X127787859Y-135221134D01*
X127818464Y-135070000D01*
X127818464Y-134789364D01*
X131079136Y-131528692D01*
X131079136Y-132429836D01*
X128506086Y-135002886D01*
X128354670Y-135229495D01*
X128354670Y-135229496D01*
X128301500Y-135496800D01*
X128301500Y-136506536D01*
X127750000Y-136506536D01*
X127608810Y-136533103D01*
X127479135Y-136616546D01*
X127392141Y-136743866D01*
X127361536Y-136895000D01*
X127361536Y-138695000D01*
X127388103Y-138836190D01*
X127471546Y-138965865D01*
X127524636Y-139002140D01*
X126763276Y-139763500D01*
X125095005Y-139763500D01*
X125095000Y-139763499D01*
X124876297Y-139807002D01*
X124876295Y-139807003D01*
X124876296Y-139807003D01*
X124690888Y-139930888D01*
X124690886Y-139930891D01*
X124055888Y-140565888D01*
X123932003Y-140751296D01*
X123932003Y-140751297D01*
X123888499Y-140970000D01*
X123888500Y-140970005D01*
X123888500Y-142704995D01*
X123888499Y-142705000D01*
X123909684Y-142811500D01*
X123932003Y-142923704D01*
X124053051Y-143104866D01*
X124055888Y-143109112D01*
X124891536Y-143944759D01*
X124891536Y-144575000D01*
X124918103Y-144716190D01*
X124968000Y-144793733D01*
X124968000Y-145351500D01*
X120650000Y-145351500D01*
X120382695Y-145404670D01*
X120156086Y-145556086D01*
X119630636Y-146081536D01*
X118530000Y-146081536D01*
X118388810Y-146108103D01*
X118259135Y-146191546D01*
X118172141Y-146318866D01*
X118141536Y-146470000D01*
X118141536Y-148170000D01*
X118168103Y-148311190D01*
X118251546Y-148440865D01*
X118378866Y-148527859D01*
X118530000Y-148558464D01*
X120230000Y-148558464D01*
X120371190Y-148531897D01*
X120500865Y-148448454D01*
X120587859Y-148321134D01*
X120618464Y-148170000D01*
X120618464Y-147069364D01*
X120939328Y-146748500D01*
X124987633Y-146748500D01*
X125006447Y-146776035D01*
X125048841Y-146803315D01*
X125095000Y-146812000D01*
X140208000Y-146812000D01*
X140208000Y-148364172D01*
X137301086Y-151271086D01*
X137277399Y-151306536D01*
X137195000Y-151306536D01*
X137053810Y-151333103D01*
X136924135Y-151416546D01*
X136837141Y-151543866D01*
X136806536Y-151695000D01*
X136806536Y-152595000D01*
X136833103Y-152736190D01*
X136916546Y-152865865D01*
X137043866Y-152952859D01*
X137195000Y-152983464D01*
X138395000Y-152983464D01*
X138536190Y-152956897D01*
X138665865Y-152873454D01*
X138752859Y-152746134D01*
X138758860Y-152716500D01*
X140208000Y-152716500D01*
X140208000Y-155779000D01*
X112191000Y-155779000D01*
X112191000Y-152756890D01*
X112858524Y-152756890D01*
X113028355Y-153166924D01*
X113418642Y-153595183D01*
X113943108Y-153841486D01*
X114173000Y-153720819D01*
X114173000Y-152527000D01*
X114427000Y-152527000D01*
X114427000Y-153720819D01*
X114656892Y-153841486D01*
X115181358Y-153595183D01*
X115571645Y-153166924D01*
X115741476Y-152756890D01*
X115620155Y-152527000D01*
X114427000Y-152527000D01*
X114173000Y-152527000D01*
X112979845Y-152527000D01*
X112858524Y-152756890D01*
X112191000Y-152756890D01*
X112191000Y-152043110D01*
X112858524Y-152043110D01*
X112979845Y-152273000D01*
X114173000Y-152273000D01*
X114173000Y-152253000D01*
X114427000Y-152253000D01*
X114427000Y-152273000D01*
X115620155Y-152273000D01*
X115741476Y-152043110D01*
X115571645Y-151633076D01*
X115181358Y-151204817D01*
X114954895Y-151098464D01*
X115150000Y-151098464D01*
X115291190Y-151071897D01*
X115420865Y-150988454D01*
X115507859Y-150861134D01*
X115538464Y-150710000D01*
X115538464Y-150558500D01*
X116550672Y-150558500D01*
X118169229Y-152177057D01*
X118124883Y-152400000D01*
X118218587Y-152871083D01*
X118485435Y-153270448D01*
X118884800Y-153537296D01*
X119355883Y-153631000D01*
X119404117Y-153631000D01*
X119875200Y-153537296D01*
X120274565Y-153270448D01*
X120541413Y-152871083D01*
X120635117Y-152400000D01*
X120541413Y-151928917D01*
X120274565Y-151529552D01*
X119875200Y-151262704D01*
X119404117Y-151169000D01*
X119355883Y-151169000D01*
X119173171Y-151205343D01*
X118985069Y-151017241D01*
X119355883Y-151091000D01*
X119404117Y-151091000D01*
X119875200Y-150997296D01*
X120274565Y-150730448D01*
X120389457Y-150558500D01*
X126301970Y-150558500D01*
X125886391Y-150730214D01*
X125332160Y-151283479D01*
X125031843Y-152006723D01*
X125031159Y-152789841D01*
X125330214Y-153513609D01*
X125883479Y-154067840D01*
X126606723Y-154368157D01*
X127389841Y-154368841D01*
X128113609Y-154069786D01*
X128667840Y-153516521D01*
X128968157Y-152793277D01*
X128968841Y-152010159D01*
X128669786Y-151286391D01*
X128116521Y-150732160D01*
X127698301Y-150558500D01*
X131357155Y-150558500D01*
X131371546Y-150580865D01*
X131498866Y-150667859D01*
X131551500Y-150678518D01*
X131551500Y-151284954D01*
X131185435Y-151529552D01*
X130918587Y-151928917D01*
X130824883Y-152400000D01*
X130918587Y-152871083D01*
X131185435Y-153270448D01*
X131584800Y-153537296D01*
X132055883Y-153631000D01*
X132104117Y-153631000D01*
X132575200Y-153537296D01*
X132974565Y-153270448D01*
X133241413Y-152871083D01*
X133335117Y-152400000D01*
X133364883Y-152400000D01*
X133458587Y-152871083D01*
X133725435Y-153270448D01*
X134124800Y-153537296D01*
X134595883Y-153631000D01*
X134644117Y-153631000D01*
X135115200Y-153537296D01*
X135514565Y-153270448D01*
X135781413Y-152871083D01*
X135875117Y-152400000D01*
X135781413Y-151928917D01*
X135514565Y-151529552D01*
X135148500Y-151284954D01*
X135148500Y-150679930D01*
X135191190Y-150671897D01*
X135320865Y-150588454D01*
X135341332Y-150558500D01*
X136780000Y-150558500D01*
X137047305Y-150505330D01*
X137273914Y-150353914D01*
X137944364Y-149683464D01*
X138395000Y-149683464D01*
X138536190Y-149656897D01*
X138665865Y-149573454D01*
X138752859Y-149446134D01*
X138783464Y-149295000D01*
X138783464Y-148395000D01*
X138756897Y-148253810D01*
X138673454Y-148124135D01*
X138546134Y-148037141D01*
X138395000Y-148006536D01*
X137195000Y-148006536D01*
X137053810Y-148033103D01*
X136924135Y-148116546D01*
X136837141Y-148243866D01*
X136806536Y-148395000D01*
X136806536Y-148845636D01*
X136490672Y-149161500D01*
X135342845Y-149161500D01*
X135328454Y-149139135D01*
X135201134Y-149052141D01*
X135050000Y-149021536D01*
X133850000Y-149021536D01*
X133708810Y-149048103D01*
X133579135Y-149131546D01*
X133492141Y-149258866D01*
X133461536Y-149410000D01*
X133461536Y-150310000D01*
X133488103Y-150451190D01*
X133571546Y-150580865D01*
X133698866Y-150667859D01*
X133751500Y-150678518D01*
X133751500Y-151512136D01*
X133725435Y-151529552D01*
X133458587Y-151928917D01*
X133364883Y-152400000D01*
X133335117Y-152400000D01*
X133241413Y-151928917D01*
X132974565Y-151529552D01*
X132948500Y-151512136D01*
X132948500Y-150679930D01*
X132991190Y-150671897D01*
X133120865Y-150588454D01*
X133207859Y-150461134D01*
X133238464Y-150310000D01*
X133238464Y-149410000D01*
X133211897Y-149268810D01*
X133128454Y-149139135D01*
X133001134Y-149052141D01*
X132850000Y-149021536D01*
X131650000Y-149021536D01*
X131508810Y-149048103D01*
X131379135Y-149131546D01*
X131358668Y-149161500D01*
X120389457Y-149161500D01*
X120274565Y-148989552D01*
X119875200Y-148722704D01*
X119404117Y-148629000D01*
X119355883Y-148629000D01*
X118884800Y-148722704D01*
X118485435Y-148989552D01*
X118218587Y-149388917D01*
X118124883Y-149860000D01*
X118198642Y-150230814D01*
X117333914Y-149366086D01*
X117107305Y-149214670D01*
X116840000Y-149161500D01*
X115538464Y-149161500D01*
X115538464Y-149010000D01*
X115511897Y-148868810D01*
X115428454Y-148739135D01*
X115301134Y-148652141D01*
X115150000Y-148621536D01*
X113450000Y-148621536D01*
X113308810Y-148648103D01*
X113179135Y-148731546D01*
X113092141Y-148858866D01*
X113061536Y-149010000D01*
X113061536Y-150710000D01*
X113088103Y-150851190D01*
X113171546Y-150980865D01*
X113298866Y-151067859D01*
X113450000Y-151098464D01*
X113645105Y-151098464D01*
X113418642Y-151204817D01*
X113028355Y-151633076D01*
X112858524Y-152043110D01*
X112191000Y-152043110D01*
X112191000Y-142596890D01*
X112858524Y-142596890D01*
X113028355Y-143006924D01*
X113418642Y-143435183D01*
X113943108Y-143681486D01*
X114173000Y-143560819D01*
X114173000Y-142367000D01*
X114427000Y-142367000D01*
X114427000Y-143560819D01*
X114656892Y-143681486D01*
X115181358Y-143435183D01*
X115571645Y-143006924D01*
X115741476Y-142596890D01*
X115620155Y-142367000D01*
X114427000Y-142367000D01*
X114173000Y-142367000D01*
X112979845Y-142367000D01*
X112858524Y-142596890D01*
X112191000Y-142596890D01*
X112191000Y-130168121D01*
X112931484Y-130168121D01*
X113156154Y-130542168D01*
X114139388Y-130940880D01*
X115200357Y-130932975D01*
X116143846Y-130542168D01*
X116368516Y-130168121D01*
X114650000Y-128449605D01*
X112931484Y-130168121D01*
X112191000Y-130168121D01*
X112191000Y-129312795D01*
X112377832Y-129763846D01*
X112751879Y-129988516D01*
X114470395Y-128270000D01*
X114829605Y-128270000D01*
X116548121Y-129988516D01*
X116922168Y-129763846D01*
X117320880Y-128780612D01*
X117312975Y-127719643D01*
X116922168Y-126776154D01*
X116548121Y-126551484D01*
X114829605Y-128270000D01*
X114470395Y-128270000D01*
X112751879Y-126551484D01*
X112377832Y-126776154D01*
X112191000Y-127236886D01*
X112191000Y-126371879D01*
X112931484Y-126371879D01*
X114650000Y-128090395D01*
X116368516Y-126371879D01*
X116143846Y-125997832D01*
X115160612Y-125599120D01*
X114099643Y-125607025D01*
X113156154Y-125997832D01*
X112931484Y-126371879D01*
X112191000Y-126371879D01*
X112191000Y-123621000D01*
X138303000Y-123621000D01*
X138303000Y-129540000D01*
X138303000Y-129540000D01*
G37*
X138303000Y-129540000D02*
X133477000Y-129540000D01*
X133427590Y-129550006D01*
X133385965Y-129578447D01*
X133358685Y-129620841D01*
X133350000Y-129667000D01*
X133350000Y-130840736D01*
X131767092Y-130840736D01*
X134413171Y-128194657D01*
X134595883Y-128231000D01*
X134644117Y-128231000D01*
X135115200Y-128137296D01*
X135514565Y-127870448D01*
X135781413Y-127471083D01*
X135875117Y-127000000D01*
X135781413Y-126528917D01*
X135514565Y-126129552D01*
X135115200Y-125862704D01*
X134644117Y-125769000D01*
X134595883Y-125769000D01*
X134124800Y-125862704D01*
X133725435Y-126129552D01*
X133458587Y-126528917D01*
X133364883Y-127000000D01*
X133409229Y-127222943D01*
X133261358Y-127370814D01*
X133335117Y-127000000D01*
X133241413Y-126528917D01*
X132974565Y-126129552D01*
X132575200Y-125862704D01*
X132104117Y-125769000D01*
X132055883Y-125769000D01*
X131584800Y-125862704D01*
X131185435Y-126129552D01*
X130918587Y-126528917D01*
X130824883Y-127000000D01*
X130869229Y-127222943D01*
X124311043Y-133781129D01*
X124308998Y-133781536D01*
X124030000Y-133781536D01*
X123888810Y-133808103D01*
X123759135Y-133891546D01*
X123738668Y-133921500D01*
X121348500Y-133921500D01*
X121348500Y-130867084D01*
X122158761Y-130532291D01*
X122909655Y-129782707D01*
X123316536Y-128802827D01*
X123317462Y-127741828D01*
X123172024Y-127389841D01*
X125031159Y-127389841D01*
X125330214Y-128113609D01*
X125883479Y-128667840D01*
X126606723Y-128968157D01*
X127389841Y-128968841D01*
X128113609Y-128669786D01*
X128667840Y-128116521D01*
X128968157Y-127393277D01*
X128968841Y-126610159D01*
X128669786Y-125886391D01*
X128116521Y-125332160D01*
X127393277Y-125031843D01*
X126610159Y-125031159D01*
X125886391Y-125330214D01*
X125332160Y-125883479D01*
X125031843Y-126606723D01*
X125031159Y-127389841D01*
X123172024Y-127389841D01*
X122912291Y-126761239D01*
X122162707Y-126010345D01*
X121182827Y-125603464D01*
X120121828Y-125602538D01*
X119141239Y-126007709D01*
X118390345Y-126757293D01*
X117983464Y-127737173D01*
X117982538Y-128798172D01*
X118387709Y-129778761D01*
X119137293Y-130529655D01*
X119951500Y-130867743D01*
X119951500Y-132221270D01*
X119696834Y-131604931D01*
X119018639Y-130925551D01*
X118132081Y-130557420D01*
X117172130Y-130556583D01*
X116284931Y-130923166D01*
X115605551Y-131601361D01*
X115237420Y-132487919D01*
X115236583Y-133447870D01*
X115603166Y-134335069D01*
X116281361Y-135014449D01*
X117167919Y-135382580D01*
X117635689Y-135382988D01*
X117616086Y-135396086D01*
X114550636Y-138461536D01*
X113450000Y-138461536D01*
X113308810Y-138488103D01*
X113179135Y-138571546D01*
X113092141Y-138698866D01*
X113061536Y-138850000D01*
X113061536Y-140550000D01*
X113088103Y-140691190D01*
X113171546Y-140820865D01*
X113298866Y-140907859D01*
X113450000Y-140938464D01*
X113645105Y-140938464D01*
X113418642Y-141044817D01*
X113028355Y-141473076D01*
X112858524Y-141883110D01*
X112979845Y-142113000D01*
X114173000Y-142113000D01*
X114173000Y-142093000D01*
X114427000Y-142093000D01*
X114427000Y-142113000D01*
X115620155Y-142113000D01*
X115741476Y-141883110D01*
X115571645Y-141473076D01*
X115181358Y-141044817D01*
X114954895Y-140938464D01*
X115150000Y-140938464D01*
X115291190Y-140911897D01*
X115420865Y-140828454D01*
X115507859Y-140701134D01*
X115538464Y-140550000D01*
X115538464Y-139449364D01*
X118399328Y-136588500D01*
X119380000Y-136588500D01*
X119647305Y-136535330D01*
X119873914Y-136383914D01*
X120939328Y-135318500D01*
X123737155Y-135318500D01*
X123751546Y-135340865D01*
X123878866Y-135427859D01*
X124030000Y-135458464D01*
X125230000Y-135458464D01*
X125371190Y-135431897D01*
X125500865Y-135348454D01*
X125587859Y-135221134D01*
X125618464Y-135070000D01*
X125618464Y-134449364D01*
X125841536Y-134226292D01*
X125841536Y-135070000D01*
X125868103Y-135211190D01*
X125951546Y-135340865D01*
X126078866Y-135427859D01*
X126131500Y-135438518D01*
X126131500Y-135675672D01*
X125300636Y-136506536D01*
X123750000Y-136506536D01*
X123608810Y-136533103D01*
X123479135Y-136616546D01*
X123392141Y-136743866D01*
X123361536Y-136895000D01*
X123361536Y-138695000D01*
X123388103Y-138836190D01*
X123471546Y-138965865D01*
X123598866Y-139052859D01*
X123750000Y-139083464D01*
X126250000Y-139083464D01*
X126391190Y-139056897D01*
X126520865Y-138973454D01*
X126607859Y-138846134D01*
X126638464Y-138695000D01*
X126638464Y-137144364D01*
X127323914Y-136458914D01*
X127475330Y-136232305D01*
X127528500Y-135965000D01*
X127528500Y-135439930D01*
X127571190Y-135431897D01*
X127700865Y-135348454D01*
X127787859Y-135221134D01*
X127818464Y-135070000D01*
X127818464Y-134789364D01*
X131079136Y-131528692D01*
X131079136Y-132429836D01*
X128506086Y-135002886D01*
X128354670Y-135229495D01*
X128354670Y-135229496D01*
X128301500Y-135496800D01*
X128301500Y-136506536D01*
X127750000Y-136506536D01*
X127608810Y-136533103D01*
X127479135Y-136616546D01*
X127392141Y-136743866D01*
X127361536Y-136895000D01*
X127361536Y-138695000D01*
X127388103Y-138836190D01*
X127471546Y-138965865D01*
X127524636Y-139002140D01*
X126763276Y-139763500D01*
X125095005Y-139763500D01*
X125095000Y-139763499D01*
X124876297Y-139807002D01*
X124876295Y-139807003D01*
X124876296Y-139807003D01*
X124690888Y-139930888D01*
X124690886Y-139930891D01*
X124055888Y-140565888D01*
X123932003Y-140751296D01*
X123932003Y-140751297D01*
X123888499Y-140970000D01*
X123888500Y-140970005D01*
X123888500Y-142704995D01*
X123888499Y-142705000D01*
X123909684Y-142811500D01*
X123932003Y-142923704D01*
X124053051Y-143104866D01*
X124055888Y-143109112D01*
X124891536Y-143944759D01*
X124891536Y-144575000D01*
X124918103Y-144716190D01*
X124968000Y-144793733D01*
X124968000Y-145351500D01*
X120650000Y-145351500D01*
X120382695Y-145404670D01*
X120156086Y-145556086D01*
X119630636Y-146081536D01*
X118530000Y-146081536D01*
X118388810Y-146108103D01*
X118259135Y-146191546D01*
X118172141Y-146318866D01*
X118141536Y-146470000D01*
X118141536Y-148170000D01*
X118168103Y-148311190D01*
X118251546Y-148440865D01*
X118378866Y-148527859D01*
X118530000Y-148558464D01*
X120230000Y-148558464D01*
X120371190Y-148531897D01*
X120500865Y-148448454D01*
X120587859Y-148321134D01*
X120618464Y-148170000D01*
X120618464Y-147069364D01*
X120939328Y-146748500D01*
X124987633Y-146748500D01*
X125006447Y-146776035D01*
X125048841Y-146803315D01*
X125095000Y-146812000D01*
X140208000Y-146812000D01*
X140208000Y-148364172D01*
X137301086Y-151271086D01*
X137277399Y-151306536D01*
X137195000Y-151306536D01*
X137053810Y-151333103D01*
X136924135Y-151416546D01*
X136837141Y-151543866D01*
X136806536Y-151695000D01*
X136806536Y-152595000D01*
X136833103Y-152736190D01*
X136916546Y-152865865D01*
X137043866Y-152952859D01*
X137195000Y-152983464D01*
X138395000Y-152983464D01*
X138536190Y-152956897D01*
X138665865Y-152873454D01*
X138752859Y-152746134D01*
X138758860Y-152716500D01*
X140208000Y-152716500D01*
X140208000Y-155779000D01*
X112191000Y-155779000D01*
X112191000Y-152756890D01*
X112858524Y-152756890D01*
X113028355Y-153166924D01*
X113418642Y-153595183D01*
X113943108Y-153841486D01*
X114173000Y-153720819D01*
X114173000Y-152527000D01*
X114427000Y-152527000D01*
X114427000Y-153720819D01*
X114656892Y-153841486D01*
X115181358Y-153595183D01*
X115571645Y-153166924D01*
X115741476Y-152756890D01*
X115620155Y-152527000D01*
X114427000Y-152527000D01*
X114173000Y-152527000D01*
X112979845Y-152527000D01*
X112858524Y-152756890D01*
X112191000Y-152756890D01*
X112191000Y-152043110D01*
X112858524Y-152043110D01*
X112979845Y-152273000D01*
X114173000Y-152273000D01*
X114173000Y-152253000D01*
X114427000Y-152253000D01*
X114427000Y-152273000D01*
X115620155Y-152273000D01*
X115741476Y-152043110D01*
X115571645Y-151633076D01*
X115181358Y-151204817D01*
X114954895Y-151098464D01*
X115150000Y-151098464D01*
X115291190Y-151071897D01*
X115420865Y-150988454D01*
X115507859Y-150861134D01*
X115538464Y-150710000D01*
X115538464Y-150558500D01*
X116550672Y-150558500D01*
X118169229Y-152177057D01*
X118124883Y-152400000D01*
X118218587Y-152871083D01*
X118485435Y-153270448D01*
X118884800Y-153537296D01*
X119355883Y-153631000D01*
X119404117Y-153631000D01*
X119875200Y-153537296D01*
X120274565Y-153270448D01*
X120541413Y-152871083D01*
X120635117Y-152400000D01*
X120541413Y-151928917D01*
X120274565Y-151529552D01*
X119875200Y-151262704D01*
X119404117Y-151169000D01*
X119355883Y-151169000D01*
X119173171Y-151205343D01*
X118985069Y-151017241D01*
X119355883Y-151091000D01*
X119404117Y-151091000D01*
X119875200Y-150997296D01*
X120274565Y-150730448D01*
X120389457Y-150558500D01*
X126301970Y-150558500D01*
X125886391Y-150730214D01*
X125332160Y-151283479D01*
X125031843Y-152006723D01*
X125031159Y-152789841D01*
X125330214Y-153513609D01*
X125883479Y-154067840D01*
X126606723Y-154368157D01*
X127389841Y-154368841D01*
X128113609Y-154069786D01*
X128667840Y-153516521D01*
X128968157Y-152793277D01*
X128968841Y-152010159D01*
X128669786Y-151286391D01*
X128116521Y-150732160D01*
X127698301Y-150558500D01*
X131357155Y-150558500D01*
X131371546Y-150580865D01*
X131498866Y-150667859D01*
X131551500Y-150678518D01*
X131551500Y-151284954D01*
X131185435Y-151529552D01*
X130918587Y-151928917D01*
X130824883Y-152400000D01*
X130918587Y-152871083D01*
X131185435Y-153270448D01*
X131584800Y-153537296D01*
X132055883Y-153631000D01*
X132104117Y-153631000D01*
X132575200Y-153537296D01*
X132974565Y-153270448D01*
X133241413Y-152871083D01*
X133335117Y-152400000D01*
X133364883Y-152400000D01*
X133458587Y-152871083D01*
X133725435Y-153270448D01*
X134124800Y-153537296D01*
X134595883Y-153631000D01*
X134644117Y-153631000D01*
X135115200Y-153537296D01*
X135514565Y-153270448D01*
X135781413Y-152871083D01*
X135875117Y-152400000D01*
X135781413Y-151928917D01*
X135514565Y-151529552D01*
X135148500Y-151284954D01*
X135148500Y-150679930D01*
X135191190Y-150671897D01*
X135320865Y-150588454D01*
X135341332Y-150558500D01*
X136780000Y-150558500D01*
X137047305Y-150505330D01*
X137273914Y-150353914D01*
X137944364Y-149683464D01*
X138395000Y-149683464D01*
X138536190Y-149656897D01*
X138665865Y-149573454D01*
X138752859Y-149446134D01*
X138783464Y-149295000D01*
X138783464Y-148395000D01*
X138756897Y-148253810D01*
X138673454Y-148124135D01*
X138546134Y-148037141D01*
X138395000Y-148006536D01*
X137195000Y-148006536D01*
X137053810Y-148033103D01*
X136924135Y-148116546D01*
X136837141Y-148243866D01*
X136806536Y-148395000D01*
X136806536Y-148845636D01*
X136490672Y-149161500D01*
X135342845Y-149161500D01*
X135328454Y-149139135D01*
X135201134Y-149052141D01*
X135050000Y-149021536D01*
X133850000Y-149021536D01*
X133708810Y-149048103D01*
X133579135Y-149131546D01*
X133492141Y-149258866D01*
X133461536Y-149410000D01*
X133461536Y-150310000D01*
X133488103Y-150451190D01*
X133571546Y-150580865D01*
X133698866Y-150667859D01*
X133751500Y-150678518D01*
X133751500Y-151512136D01*
X133725435Y-151529552D01*
X133458587Y-151928917D01*
X133364883Y-152400000D01*
X133335117Y-152400000D01*
X133241413Y-151928917D01*
X132974565Y-151529552D01*
X132948500Y-151512136D01*
X132948500Y-150679930D01*
X132991190Y-150671897D01*
X133120865Y-150588454D01*
X133207859Y-150461134D01*
X133238464Y-150310000D01*
X133238464Y-149410000D01*
X133211897Y-149268810D01*
X133128454Y-149139135D01*
X133001134Y-149052141D01*
X132850000Y-149021536D01*
X131650000Y-149021536D01*
X131508810Y-149048103D01*
X131379135Y-149131546D01*
X131358668Y-149161500D01*
X120389457Y-149161500D01*
X120274565Y-148989552D01*
X119875200Y-148722704D01*
X119404117Y-148629000D01*
X119355883Y-148629000D01*
X118884800Y-148722704D01*
X118485435Y-148989552D01*
X118218587Y-149388917D01*
X118124883Y-149860000D01*
X118198642Y-150230814D01*
X117333914Y-149366086D01*
X117107305Y-149214670D01*
X116840000Y-149161500D01*
X115538464Y-149161500D01*
X115538464Y-149010000D01*
X115511897Y-148868810D01*
X115428454Y-148739135D01*
X115301134Y-148652141D01*
X115150000Y-148621536D01*
X113450000Y-148621536D01*
X113308810Y-148648103D01*
X113179135Y-148731546D01*
X113092141Y-148858866D01*
X113061536Y-149010000D01*
X113061536Y-150710000D01*
X113088103Y-150851190D01*
X113171546Y-150980865D01*
X113298866Y-151067859D01*
X113450000Y-151098464D01*
X113645105Y-151098464D01*
X113418642Y-151204817D01*
X113028355Y-151633076D01*
X112858524Y-152043110D01*
X112191000Y-152043110D01*
X112191000Y-142596890D01*
X112858524Y-142596890D01*
X113028355Y-143006924D01*
X113418642Y-143435183D01*
X113943108Y-143681486D01*
X114173000Y-143560819D01*
X114173000Y-142367000D01*
X114427000Y-142367000D01*
X114427000Y-143560819D01*
X114656892Y-143681486D01*
X115181358Y-143435183D01*
X115571645Y-143006924D01*
X115741476Y-142596890D01*
X115620155Y-142367000D01*
X114427000Y-142367000D01*
X114173000Y-142367000D01*
X112979845Y-142367000D01*
X112858524Y-142596890D01*
X112191000Y-142596890D01*
X112191000Y-130168121D01*
X112931484Y-130168121D01*
X113156154Y-130542168D01*
X114139388Y-130940880D01*
X115200357Y-130932975D01*
X116143846Y-130542168D01*
X116368516Y-130168121D01*
X114650000Y-128449605D01*
X112931484Y-130168121D01*
X112191000Y-130168121D01*
X112191000Y-129312795D01*
X112377832Y-129763846D01*
X112751879Y-129988516D01*
X114470395Y-128270000D01*
X114829605Y-128270000D01*
X116548121Y-129988516D01*
X116922168Y-129763846D01*
X117320880Y-128780612D01*
X117312975Y-127719643D01*
X116922168Y-126776154D01*
X116548121Y-126551484D01*
X114829605Y-128270000D01*
X114470395Y-128270000D01*
X112751879Y-126551484D01*
X112377832Y-126776154D01*
X112191000Y-127236886D01*
X112191000Y-126371879D01*
X112931484Y-126371879D01*
X114650000Y-128090395D01*
X116368516Y-126371879D01*
X116143846Y-125997832D01*
X115160612Y-125599120D01*
X114099643Y-125607025D01*
X113156154Y-125997832D01*
X112931484Y-126371879D01*
X112191000Y-126371879D01*
X112191000Y-123621000D01*
X138303000Y-123621000D01*
X138303000Y-129540000D01*
G36*
X169417998Y-123774180D02*
X169188108Y-123653514D01*
X168663642Y-123899817D01*
X168273355Y-124328076D01*
X168103524Y-124738110D01*
X168224845Y-124968000D01*
X169418000Y-124968000D01*
X169418000Y-124948000D01*
X169672000Y-124948000D01*
X169672000Y-124968000D01*
X170865155Y-124968000D01*
X170986476Y-124738110D01*
X170816645Y-124328076D01*
X170426358Y-123899817D01*
X169901892Y-123653514D01*
X169672002Y-123774180D01*
X169672002Y-123621000D01*
X174829000Y-123621000D01*
X174829000Y-131140975D01*
X174779698Y-131091673D01*
X174546309Y-130995000D01*
X174105750Y-130995000D01*
X173947000Y-131153750D01*
X173947000Y-131953000D01*
X173967000Y-131953000D01*
X173967000Y-132207000D01*
X173947000Y-132207000D01*
X173947000Y-133006250D01*
X174105750Y-133165000D01*
X174546309Y-133165000D01*
X174779698Y-133068327D01*
X174829000Y-133019025D01*
X174829000Y-146380975D01*
X174779698Y-146331673D01*
X174546309Y-146235000D01*
X174105750Y-146235000D01*
X173947000Y-146393750D01*
X173947000Y-147193000D01*
X173967000Y-147193000D01*
X173967000Y-147447000D01*
X173947000Y-147447000D01*
X173947000Y-148246250D01*
X174105750Y-148405000D01*
X174546309Y-148405000D01*
X174779698Y-148308327D01*
X174829000Y-148259025D01*
X174829000Y-155779000D01*
X140970000Y-155779000D01*
X140970000Y-153280000D01*
X141856536Y-153280000D01*
X141856536Y-155280000D01*
X141883103Y-155421190D01*
X141966546Y-155550865D01*
X142093866Y-155637859D01*
X142245000Y-155668464D01*
X146045000Y-155668464D01*
X146186190Y-155641897D01*
X146315865Y-155558454D01*
X146402859Y-155431134D01*
X146433464Y-155280000D01*
X146433464Y-153280000D01*
X146406897Y-153138810D01*
X146323454Y-153009135D01*
X146196134Y-152922141D01*
X146045000Y-152891536D01*
X142245000Y-152891536D01*
X142103810Y-152918103D01*
X141974135Y-153001546D01*
X141887141Y-153128866D01*
X141856536Y-153280000D01*
X140970000Y-153280000D01*
X140970000Y-152716500D01*
X146828276Y-152716500D01*
X147550886Y-153439109D01*
X147550888Y-153439112D01*
X147736296Y-153562997D01*
X147772582Y-153570215D01*
X147955000Y-153606501D01*
X147955005Y-153606500D01*
X149253694Y-153606500D01*
X149301546Y-153680865D01*
X149428866Y-153767859D01*
X149580000Y-153798464D01*
X150780000Y-153798464D01*
X150921190Y-153771897D01*
X150938081Y-153761028D01*
X150941673Y-153769699D01*
X151120302Y-153948327D01*
X151353691Y-154045000D01*
X151794250Y-154045000D01*
X151953000Y-153886250D01*
X151953000Y-153162000D01*
X152207000Y-153162000D01*
X152207000Y-153886250D01*
X152365750Y-154045000D01*
X152806309Y-154045000D01*
X153039698Y-153948327D01*
X153218327Y-153769699D01*
X153315000Y-153536310D01*
X153315000Y-153320750D01*
X153156250Y-153162000D01*
X152207000Y-153162000D01*
X151953000Y-153162000D01*
X151933000Y-153162000D01*
X151933000Y-152908000D01*
X151953000Y-152908000D01*
X151953000Y-152183750D01*
X152207000Y-152183750D01*
X152207000Y-152908000D01*
X153156250Y-152908000D01*
X153315000Y-152749250D01*
X153315000Y-152533690D01*
X153218327Y-152300301D01*
X153039698Y-152121673D01*
X152806309Y-152025000D01*
X152365750Y-152025000D01*
X152207000Y-152183750D01*
X151953000Y-152183750D01*
X151794250Y-152025000D01*
X151353691Y-152025000D01*
X151120302Y-152121673D01*
X150941673Y-152300301D01*
X150938754Y-152307348D01*
X150931134Y-152302141D01*
X150780000Y-152271536D01*
X149580000Y-152271536D01*
X149438810Y-152298103D01*
X149309135Y-152381546D01*
X149253138Y-152463500D01*
X148191723Y-152463500D01*
X147556724Y-151828500D01*
X153565000Y-151828500D01*
X153832305Y-151775330D01*
X154058914Y-151623914D01*
X155124328Y-150558500D01*
X156757155Y-150558500D01*
X156771546Y-150580865D01*
X156898866Y-150667859D01*
X156951500Y-150678518D01*
X156951500Y-151284954D01*
X156585435Y-151529552D01*
X156318587Y-151928917D01*
X156224883Y-152400000D01*
X156318587Y-152871083D01*
X156585435Y-153270448D01*
X156984800Y-153537296D01*
X157455883Y-153631000D01*
X157504117Y-153631000D01*
X157975200Y-153537296D01*
X158374565Y-153270448D01*
X158641413Y-152871083D01*
X158735117Y-152400000D01*
X158641413Y-151928917D01*
X158374565Y-151529552D01*
X158348500Y-151512136D01*
X158348500Y-150679930D01*
X158391190Y-150671897D01*
X158520865Y-150588454D01*
X158607859Y-150461134D01*
X158638464Y-150310000D01*
X158638464Y-149410000D01*
X158611897Y-149268810D01*
X158528454Y-149139135D01*
X158401134Y-149052141D01*
X158250000Y-149021536D01*
X157050000Y-149021536D01*
X156908810Y-149048103D01*
X156779135Y-149131546D01*
X156758668Y-149161500D01*
X155888464Y-149161500D01*
X155888464Y-148425000D01*
X155861897Y-148283810D01*
X155778454Y-148154135D01*
X155651134Y-148067141D01*
X155500000Y-148036536D01*
X152900000Y-148036536D01*
X152758810Y-148063103D01*
X152629135Y-148146546D01*
X152542141Y-148273866D01*
X152535000Y-148309130D01*
X152535000Y-148298690D01*
X152438327Y-148065301D01*
X152259698Y-147886673D01*
X152026309Y-147790000D01*
X150885750Y-147790000D01*
X150727000Y-147948750D01*
X150727000Y-149098000D01*
X150747000Y-149098000D01*
X150747000Y-149352000D01*
X150727000Y-149352000D01*
X150727000Y-149372000D01*
X150473000Y-149372000D01*
X150473000Y-149352000D01*
X148823750Y-149352000D01*
X148665000Y-149510750D01*
X148665000Y-150151310D01*
X148761673Y-150384699D01*
X148808474Y-150431500D01*
X146339328Y-150431500D01*
X145490399Y-149582571D01*
X145568690Y-149615000D01*
X146159250Y-149615000D01*
X146318000Y-149456250D01*
X146318000Y-148107000D01*
X146572000Y-148107000D01*
X146572000Y-149456250D01*
X146730750Y-149615000D01*
X147321310Y-149615000D01*
X147554699Y-149518327D01*
X147733327Y-149339698D01*
X147830000Y-149106309D01*
X147830000Y-148298690D01*
X148665000Y-148298690D01*
X148665000Y-148939250D01*
X148823750Y-149098000D01*
X150473000Y-149098000D01*
X150473000Y-147948750D01*
X150314250Y-147790000D01*
X149173691Y-147790000D01*
X148940302Y-147886673D01*
X148761673Y-148065301D01*
X148665000Y-148298690D01*
X147830000Y-148298690D01*
X147830000Y-148265750D01*
X147671250Y-148107000D01*
X146572000Y-148107000D01*
X146318000Y-148107000D01*
X146298000Y-148107000D01*
X146298000Y-147853000D01*
X146318000Y-147853000D01*
X146318000Y-147833000D01*
X146572000Y-147833000D01*
X146572000Y-147853000D01*
X147671250Y-147853000D01*
X147830000Y-147694250D01*
X147830000Y-146853691D01*
X147812731Y-146812000D01*
X160655000Y-146812000D01*
X160704410Y-146801994D01*
X160746035Y-146773553D01*
X160762156Y-146748500D01*
X167640000Y-146748500D01*
X167907305Y-146695330D01*
X168133914Y-146543914D01*
X169403914Y-145273914D01*
X169481500Y-145157799D01*
X169481500Y-147955000D01*
X169534670Y-148222305D01*
X169686086Y-148448914D01*
X170398672Y-149161500D01*
X160742845Y-149161500D01*
X160728454Y-149139135D01*
X160601134Y-149052141D01*
X160450000Y-149021536D01*
X159250000Y-149021536D01*
X159108810Y-149048103D01*
X158979135Y-149131546D01*
X158892141Y-149258866D01*
X158861536Y-149410000D01*
X158861536Y-150310000D01*
X158888103Y-150451190D01*
X158971546Y-150580865D01*
X159098866Y-150667859D01*
X159151500Y-150678518D01*
X159151500Y-151512136D01*
X159125435Y-151529552D01*
X158858587Y-151928917D01*
X158764883Y-152400000D01*
X158858587Y-152871083D01*
X159125435Y-153270448D01*
X159524800Y-153537296D01*
X159995883Y-153631000D01*
X160044117Y-153631000D01*
X160515200Y-153537296D01*
X160914565Y-153270448D01*
X161181413Y-152871083D01*
X161275117Y-152400000D01*
X161181413Y-151928917D01*
X160914565Y-151529552D01*
X160548500Y-151284954D01*
X160548500Y-150679930D01*
X160591190Y-150671897D01*
X160720865Y-150588454D01*
X160741332Y-150558500D01*
X164401970Y-150558500D01*
X163986391Y-150730214D01*
X163432160Y-151283479D01*
X163131843Y-152006723D01*
X163131159Y-152789841D01*
X163430214Y-153513609D01*
X163983479Y-154067840D01*
X164706723Y-154368157D01*
X165489841Y-154368841D01*
X166213609Y-154069786D01*
X166767840Y-153516521D01*
X167068157Y-152793277D01*
X167068188Y-152756890D01*
X171278524Y-152756890D01*
X171448355Y-153166924D01*
X171838642Y-153595183D01*
X172363108Y-153841486D01*
X172593000Y-153720819D01*
X172593000Y-152527000D01*
X172847000Y-152527000D01*
X172847000Y-153720819D01*
X173076892Y-153841486D01*
X173601358Y-153595183D01*
X173991645Y-153166924D01*
X174161476Y-152756890D01*
X174040155Y-152527000D01*
X172847000Y-152527000D01*
X172593000Y-152527000D01*
X171399845Y-152527000D01*
X171278524Y-152756890D01*
X167068188Y-152756890D01*
X167068841Y-152010159D01*
X166769786Y-151286391D01*
X166216521Y-150732160D01*
X165798301Y-150558500D01*
X171481536Y-150558500D01*
X171481536Y-150710000D01*
X171508103Y-150851190D01*
X171591546Y-150980865D01*
X171718866Y-151067859D01*
X171870000Y-151098464D01*
X172065105Y-151098464D01*
X171838642Y-151204817D01*
X171448355Y-151633076D01*
X171278524Y-152043110D01*
X171399845Y-152273000D01*
X172593000Y-152273000D01*
X172593000Y-152253000D01*
X172847000Y-152253000D01*
X172847000Y-152273000D01*
X174040155Y-152273000D01*
X174161476Y-152043110D01*
X173991645Y-151633076D01*
X173601358Y-151204817D01*
X173374895Y-151098464D01*
X173570000Y-151098464D01*
X173711190Y-151071897D01*
X173840865Y-150988454D01*
X173927859Y-150861134D01*
X173958464Y-150710000D01*
X173958464Y-149010000D01*
X173931897Y-148868810D01*
X173848454Y-148739135D01*
X173721134Y-148652141D01*
X173570000Y-148621536D01*
X171870000Y-148621536D01*
X171840008Y-148627180D01*
X171371292Y-148158464D01*
X172220000Y-148158464D01*
X172361190Y-148131897D01*
X172490865Y-148048454D01*
X172577859Y-147921134D01*
X172585000Y-147885870D01*
X172585000Y-147896310D01*
X172681673Y-148129699D01*
X172860302Y-148308327D01*
X173093691Y-148405000D01*
X173534250Y-148405000D01*
X173693000Y-148246250D01*
X173693000Y-147447000D01*
X173673000Y-147447000D01*
X173673000Y-147193000D01*
X173693000Y-147193000D01*
X173693000Y-146393750D01*
X173534250Y-146235000D01*
X173093691Y-146235000D01*
X172860302Y-146331673D01*
X172681673Y-146510301D01*
X172585000Y-146743690D01*
X172585000Y-146745301D01*
X172581897Y-146728810D01*
X172498454Y-146599135D01*
X172491500Y-146594384D01*
X172491500Y-146520000D01*
X172447997Y-146301296D01*
X172324112Y-146115888D01*
X172324109Y-146115886D01*
X172148596Y-145940373D01*
X172148621Y-145911669D01*
X172042504Y-145654849D01*
X171846185Y-145458186D01*
X171589550Y-145351622D01*
X171311669Y-145351379D01*
X171054849Y-145457496D01*
X170878500Y-145633537D01*
X170878500Y-141985609D01*
X171276538Y-141985609D01*
X171291714Y-142077376D01*
X171538067Y-142497125D01*
X171926299Y-142790647D01*
X172397304Y-142913256D01*
X172593000Y-142750547D01*
X172593000Y-141795000D01*
X172847000Y-141795000D01*
X172847000Y-142750547D01*
X173042696Y-142913256D01*
X173513701Y-142790647D01*
X173901933Y-142497125D01*
X174148286Y-142077376D01*
X174163462Y-141985609D01*
X174038731Y-141795000D01*
X172847000Y-141795000D01*
X172593000Y-141795000D01*
X171401269Y-141795000D01*
X171276538Y-141985609D01*
X170878500Y-141985609D01*
X170878500Y-141259328D01*
X171766565Y-140371263D01*
X171998846Y-140526468D01*
X171926299Y-140545353D01*
X171538067Y-140838875D01*
X171291714Y-141258624D01*
X171276538Y-141350391D01*
X171401269Y-141541000D01*
X172593000Y-141541000D01*
X172593000Y-141521000D01*
X172847000Y-141521000D01*
X172847000Y-141541000D01*
X174038731Y-141541000D01*
X174163462Y-141350391D01*
X174148286Y-141258624D01*
X173901933Y-140838875D01*
X173513701Y-140545353D01*
X173441154Y-140526468D01*
X173687789Y-140361672D01*
X173900443Y-140043412D01*
X173975117Y-139668000D01*
X173900443Y-139292588D01*
X173687789Y-138974328D01*
X173369529Y-138761674D01*
X172994117Y-138687000D01*
X172445883Y-138687000D01*
X172070471Y-138761674D01*
X171771410Y-138961500D01*
X171490000Y-138961500D01*
X171222695Y-139014670D01*
X170996086Y-139166086D01*
X169686086Y-140476086D01*
X169608500Y-140592201D01*
X169608500Y-138719328D01*
X169961328Y-138366500D01*
X171500070Y-138366500D01*
X171508103Y-138409190D01*
X171591546Y-138538865D01*
X171718866Y-138625859D01*
X171870000Y-138656464D01*
X173570000Y-138656464D01*
X173711190Y-138629897D01*
X173840865Y-138546454D01*
X173927859Y-138419134D01*
X173958464Y-138268000D01*
X173958464Y-137068000D01*
X173931897Y-136926810D01*
X173848454Y-136797135D01*
X173721134Y-136710141D01*
X173570000Y-136679536D01*
X171870000Y-136679536D01*
X171728810Y-136706103D01*
X171599135Y-136789546D01*
X171512141Y-136916866D01*
X171501482Y-136969500D01*
X169672000Y-136969500D01*
X169608500Y-136982131D01*
X169608500Y-132496192D01*
X169783815Y-132671814D01*
X170040450Y-132778378D01*
X170318331Y-132778621D01*
X170575151Y-132672504D01*
X170596192Y-132651500D01*
X170654398Y-132651500D01*
X170658103Y-132671190D01*
X170741546Y-132800865D01*
X170868866Y-132887859D01*
X171020000Y-132918464D01*
X172220000Y-132918464D01*
X172361190Y-132891897D01*
X172490865Y-132808454D01*
X172577859Y-132681134D01*
X172585000Y-132645870D01*
X172585000Y-132656310D01*
X172681673Y-132889699D01*
X172860302Y-133068327D01*
X173093691Y-133165000D01*
X173534250Y-133165000D01*
X173693000Y-133006250D01*
X173693000Y-132207000D01*
X173673000Y-132207000D01*
X173673000Y-131953000D01*
X173693000Y-131953000D01*
X173693000Y-131153750D01*
X173534250Y-130995000D01*
X173093691Y-130995000D01*
X172860302Y-131091673D01*
X172681673Y-131270301D01*
X172585000Y-131503690D01*
X172585000Y-131505301D01*
X172581897Y-131488810D01*
X172498454Y-131359135D01*
X172371134Y-131272141D01*
X172220000Y-131241536D01*
X171020000Y-131241536D01*
X170878810Y-131268103D01*
X170749135Y-131351546D01*
X170662141Y-131478866D01*
X170656140Y-131508500D01*
X170596463Y-131508500D01*
X170576185Y-131488186D01*
X170319550Y-131381622D01*
X170041669Y-131381379D01*
X169784849Y-131487496D01*
X169608500Y-131663537D01*
X169608500Y-129896890D01*
X171278524Y-129896890D01*
X171448355Y-130306924D01*
X171838642Y-130735183D01*
X172363108Y-130981486D01*
X172593000Y-130860819D01*
X172593000Y-129667000D01*
X172847000Y-129667000D01*
X172847000Y-130860819D01*
X173076892Y-130981486D01*
X173601358Y-130735183D01*
X173991645Y-130306924D01*
X174161476Y-129896890D01*
X174040155Y-129667000D01*
X172847000Y-129667000D01*
X172593000Y-129667000D01*
X171399845Y-129667000D01*
X171278524Y-129896890D01*
X169608500Y-129896890D01*
X169608500Y-129829328D01*
X171498369Y-127939459D01*
X171508103Y-127991190D01*
X171591546Y-128120865D01*
X171718866Y-128207859D01*
X171870000Y-128238464D01*
X172065105Y-128238464D01*
X171838642Y-128344817D01*
X171448355Y-128773076D01*
X171278524Y-129183110D01*
X171399845Y-129413000D01*
X172593000Y-129413000D01*
X172593000Y-129393000D01*
X172847000Y-129393000D01*
X172847000Y-129413000D01*
X174040155Y-129413000D01*
X174161476Y-129183110D01*
X173991645Y-128773076D01*
X173601358Y-128344817D01*
X173374895Y-128238464D01*
X173570000Y-128238464D01*
X173711190Y-128211897D01*
X173840865Y-128128454D01*
X173927859Y-128001134D01*
X173958464Y-127850000D01*
X173958464Y-126150000D01*
X173931897Y-126008810D01*
X173848454Y-125879135D01*
X173721134Y-125792141D01*
X173570000Y-125761536D01*
X171870000Y-125761536D01*
X171728810Y-125788103D01*
X171599135Y-125871546D01*
X171512141Y-125998866D01*
X171481536Y-126150000D01*
X171481536Y-126301500D01*
X171450000Y-126301500D01*
X171182696Y-126354670D01*
X171182694Y-126354671D01*
X171182695Y-126354671D01*
X170956086Y-126506086D01*
X166715672Y-130746500D01*
X158202845Y-130746500D01*
X158188454Y-130724135D01*
X158061134Y-130637141D01*
X158008500Y-130626482D01*
X158008500Y-129999328D01*
X159813171Y-128194657D01*
X159995883Y-128231000D01*
X160044117Y-128231000D01*
X160515200Y-128137296D01*
X160914565Y-127870448D01*
X161181413Y-127471083D01*
X161197572Y-127389841D01*
X163131159Y-127389841D01*
X163430214Y-128113609D01*
X163983479Y-128667840D01*
X164706723Y-128968157D01*
X165489841Y-128968841D01*
X166213609Y-128669786D01*
X166767840Y-128116521D01*
X167068157Y-127393277D01*
X167068841Y-126610159D01*
X166769786Y-125886391D01*
X166336043Y-125451890D01*
X168103524Y-125451890D01*
X168273355Y-125861924D01*
X168663642Y-126290183D01*
X169188108Y-126536486D01*
X169418000Y-126415819D01*
X169418000Y-125222000D01*
X169672000Y-125222000D01*
X169672000Y-126415819D01*
X169901892Y-126536486D01*
X170426358Y-126290183D01*
X170816645Y-125861924D01*
X170986476Y-125451890D01*
X170865155Y-125222000D01*
X169672000Y-125222000D01*
X169418000Y-125222000D01*
X168224845Y-125222000D01*
X168103524Y-125451890D01*
X166336043Y-125451890D01*
X166216521Y-125332160D01*
X165493277Y-125031843D01*
X164710159Y-125031159D01*
X163986391Y-125330214D01*
X163432160Y-125883479D01*
X163131843Y-126606723D01*
X163131159Y-127389841D01*
X161197572Y-127389841D01*
X161275117Y-127000000D01*
X161181413Y-126528917D01*
X160914565Y-126129552D01*
X160515200Y-125862704D01*
X160044117Y-125769000D01*
X159995883Y-125769000D01*
X159524800Y-125862704D01*
X159125435Y-126129552D01*
X158858587Y-126528917D01*
X158764883Y-127000000D01*
X158809229Y-127222943D01*
X158661358Y-127370814D01*
X158735117Y-127000000D01*
X158641413Y-126528917D01*
X158374565Y-126129552D01*
X157975200Y-125862704D01*
X157504117Y-125769000D01*
X157455883Y-125769000D01*
X156984800Y-125862704D01*
X156585435Y-126129552D01*
X156318587Y-126528917D01*
X156224883Y-127000000D01*
X156269229Y-127222943D01*
X154616086Y-128876086D01*
X154464670Y-129102695D01*
X154464670Y-129102696D01*
X154411500Y-129370000D01*
X154411500Y-129540000D01*
X153463000Y-129540000D01*
X153463198Y-129313641D01*
X153289554Y-128893388D01*
X152968303Y-128571577D01*
X152548354Y-128397199D01*
X152093641Y-128396802D01*
X151673388Y-128570446D01*
X151351577Y-128891697D01*
X151204079Y-129246912D01*
X151201362Y-129192632D01*
X151042397Y-128808857D01*
X150800213Y-128739392D01*
X149999605Y-129540000D01*
X149640395Y-129540000D01*
X148839787Y-128739392D01*
X148597603Y-128808857D01*
X148438682Y-129254307D01*
X148289554Y-128893388D01*
X147968303Y-128571577D01*
X147939910Y-128559787D01*
X149019392Y-128559787D01*
X149820000Y-129360395D01*
X150620608Y-128559787D01*
X150551143Y-128317603D01*
X150027698Y-128130856D01*
X149472632Y-128158638D01*
X149088857Y-128317603D01*
X149019392Y-128559787D01*
X147939910Y-128559787D01*
X147548354Y-128397199D01*
X147093641Y-128396802D01*
X146673388Y-128570446D01*
X146351577Y-128891697D01*
X146319686Y-128968500D01*
X142476723Y-128968500D01*
X141926697Y-128418474D01*
X142113000Y-128320155D01*
X142113000Y-127127000D01*
X142367000Y-127127000D01*
X142367000Y-128320155D01*
X142596890Y-128441476D01*
X143006924Y-128271645D01*
X143435183Y-127881358D01*
X143681486Y-127356892D01*
X143560819Y-127127000D01*
X142367000Y-127127000D01*
X142113000Y-127127000D01*
X142093000Y-127127000D01*
X142093000Y-126873000D01*
X142113000Y-126873000D01*
X142113000Y-125679845D01*
X142367000Y-125679845D01*
X142367000Y-126873000D01*
X143560819Y-126873000D01*
X143681486Y-126643108D01*
X143645443Y-126566359D01*
X146176802Y-126566359D01*
X146350446Y-126986612D01*
X146671697Y-127308423D01*
X147091646Y-127482801D01*
X147546359Y-127483198D01*
X147966612Y-127309554D01*
X148288423Y-126988303D01*
X148462801Y-126568354D01*
X148462802Y-126566359D01*
X148676802Y-126566359D01*
X148850446Y-126986612D01*
X149171697Y-127308423D01*
X149591646Y-127482801D01*
X150046359Y-127483198D01*
X150466612Y-127309554D01*
X150788423Y-126988303D01*
X150962801Y-126568354D01*
X150962802Y-126566359D01*
X151176802Y-126566359D01*
X151350446Y-126986612D01*
X151671697Y-127308423D01*
X152091646Y-127482801D01*
X152546359Y-127483198D01*
X152966612Y-127309554D01*
X153288423Y-126988303D01*
X153462801Y-126568354D01*
X153463198Y-126113641D01*
X153289554Y-125693388D01*
X152968303Y-125371577D01*
X152548354Y-125197199D01*
X152093641Y-125196802D01*
X151673388Y-125370446D01*
X151351577Y-125691697D01*
X151177199Y-126111646D01*
X151176802Y-126566359D01*
X150962802Y-126566359D01*
X150963198Y-126113641D01*
X150789554Y-125693388D01*
X150468303Y-125371577D01*
X150048354Y-125197199D01*
X149593641Y-125196802D01*
X149173388Y-125370446D01*
X148851577Y-125691697D01*
X148677199Y-126111646D01*
X148676802Y-126566359D01*
X148462802Y-126566359D01*
X148463198Y-126113641D01*
X148289554Y-125693388D01*
X147968303Y-125371577D01*
X147548354Y-125197199D01*
X147093641Y-125196802D01*
X146673388Y-125370446D01*
X146351577Y-125691697D01*
X146177199Y-126111646D01*
X146176802Y-126566359D01*
X143645443Y-126566359D01*
X143435183Y-126118642D01*
X143006924Y-125728355D01*
X142596890Y-125558524D01*
X142367000Y-125679845D01*
X142113000Y-125679845D01*
X141883110Y-125558524D01*
X141473076Y-125728355D01*
X141044817Y-126118642D01*
X140938464Y-126345105D01*
X140938464Y-126150000D01*
X140911897Y-126008810D01*
X140828454Y-125879135D01*
X140701134Y-125792141D01*
X140550000Y-125761536D01*
X138850000Y-125761536D01*
X138811000Y-125768874D01*
X138811000Y-123621000D01*
X169417998Y-123621000D01*
X169417998Y-123774180D01*
X169417998Y-123774180D01*
G37*
X169417998Y-123774180D02*
X169188108Y-123653514D01*
X168663642Y-123899817D01*
X168273355Y-124328076D01*
X168103524Y-124738110D01*
X168224845Y-124968000D01*
X169418000Y-124968000D01*
X169418000Y-124948000D01*
X169672000Y-124948000D01*
X169672000Y-124968000D01*
X170865155Y-124968000D01*
X170986476Y-124738110D01*
X170816645Y-124328076D01*
X170426358Y-123899817D01*
X169901892Y-123653514D01*
X169672002Y-123774180D01*
X169672002Y-123621000D01*
X174829000Y-123621000D01*
X174829000Y-131140975D01*
X174779698Y-131091673D01*
X174546309Y-130995000D01*
X174105750Y-130995000D01*
X173947000Y-131153750D01*
X173947000Y-131953000D01*
X173967000Y-131953000D01*
X173967000Y-132207000D01*
X173947000Y-132207000D01*
X173947000Y-133006250D01*
X174105750Y-133165000D01*
X174546309Y-133165000D01*
X174779698Y-133068327D01*
X174829000Y-133019025D01*
X174829000Y-146380975D01*
X174779698Y-146331673D01*
X174546309Y-146235000D01*
X174105750Y-146235000D01*
X173947000Y-146393750D01*
X173947000Y-147193000D01*
X173967000Y-147193000D01*
X173967000Y-147447000D01*
X173947000Y-147447000D01*
X173947000Y-148246250D01*
X174105750Y-148405000D01*
X174546309Y-148405000D01*
X174779698Y-148308327D01*
X174829000Y-148259025D01*
X174829000Y-155779000D01*
X140970000Y-155779000D01*
X140970000Y-153280000D01*
X141856536Y-153280000D01*
X141856536Y-155280000D01*
X141883103Y-155421190D01*
X141966546Y-155550865D01*
X142093866Y-155637859D01*
X142245000Y-155668464D01*
X146045000Y-155668464D01*
X146186190Y-155641897D01*
X146315865Y-155558454D01*
X146402859Y-155431134D01*
X146433464Y-155280000D01*
X146433464Y-153280000D01*
X146406897Y-153138810D01*
X146323454Y-153009135D01*
X146196134Y-152922141D01*
X146045000Y-152891536D01*
X142245000Y-152891536D01*
X142103810Y-152918103D01*
X141974135Y-153001546D01*
X141887141Y-153128866D01*
X141856536Y-153280000D01*
X140970000Y-153280000D01*
X140970000Y-152716500D01*
X146828276Y-152716500D01*
X147550886Y-153439109D01*
X147550888Y-153439112D01*
X147736296Y-153562997D01*
X147772582Y-153570215D01*
X147955000Y-153606501D01*
X147955005Y-153606500D01*
X149253694Y-153606500D01*
X149301546Y-153680865D01*
X149428866Y-153767859D01*
X149580000Y-153798464D01*
X150780000Y-153798464D01*
X150921190Y-153771897D01*
X150938081Y-153761028D01*
X150941673Y-153769699D01*
X151120302Y-153948327D01*
X151353691Y-154045000D01*
X151794250Y-154045000D01*
X151953000Y-153886250D01*
X151953000Y-153162000D01*
X152207000Y-153162000D01*
X152207000Y-153886250D01*
X152365750Y-154045000D01*
X152806309Y-154045000D01*
X153039698Y-153948327D01*
X153218327Y-153769699D01*
X153315000Y-153536310D01*
X153315000Y-153320750D01*
X153156250Y-153162000D01*
X152207000Y-153162000D01*
X151953000Y-153162000D01*
X151933000Y-153162000D01*
X151933000Y-152908000D01*
X151953000Y-152908000D01*
X151953000Y-152183750D01*
X152207000Y-152183750D01*
X152207000Y-152908000D01*
X153156250Y-152908000D01*
X153315000Y-152749250D01*
X153315000Y-152533690D01*
X153218327Y-152300301D01*
X153039698Y-152121673D01*
X152806309Y-152025000D01*
X152365750Y-152025000D01*
X152207000Y-152183750D01*
X151953000Y-152183750D01*
X151794250Y-152025000D01*
X151353691Y-152025000D01*
X151120302Y-152121673D01*
X150941673Y-152300301D01*
X150938754Y-152307348D01*
X150931134Y-152302141D01*
X150780000Y-152271536D01*
X149580000Y-152271536D01*
X149438810Y-152298103D01*
X149309135Y-152381546D01*
X149253138Y-152463500D01*
X148191723Y-152463500D01*
X147556724Y-151828500D01*
X153565000Y-151828500D01*
X153832305Y-151775330D01*
X154058914Y-151623914D01*
X155124328Y-150558500D01*
X156757155Y-150558500D01*
X156771546Y-150580865D01*
X156898866Y-150667859D01*
X156951500Y-150678518D01*
X156951500Y-151284954D01*
X156585435Y-151529552D01*
X156318587Y-151928917D01*
X156224883Y-152400000D01*
X156318587Y-152871083D01*
X156585435Y-153270448D01*
X156984800Y-153537296D01*
X157455883Y-153631000D01*
X157504117Y-153631000D01*
X157975200Y-153537296D01*
X158374565Y-153270448D01*
X158641413Y-152871083D01*
X158735117Y-152400000D01*
X158641413Y-151928917D01*
X158374565Y-151529552D01*
X158348500Y-151512136D01*
X158348500Y-150679930D01*
X158391190Y-150671897D01*
X158520865Y-150588454D01*
X158607859Y-150461134D01*
X158638464Y-150310000D01*
X158638464Y-149410000D01*
X158611897Y-149268810D01*
X158528454Y-149139135D01*
X158401134Y-149052141D01*
X158250000Y-149021536D01*
X157050000Y-149021536D01*
X156908810Y-149048103D01*
X156779135Y-149131546D01*
X156758668Y-149161500D01*
X155888464Y-149161500D01*
X155888464Y-148425000D01*
X155861897Y-148283810D01*
X155778454Y-148154135D01*
X155651134Y-148067141D01*
X155500000Y-148036536D01*
X152900000Y-148036536D01*
X152758810Y-148063103D01*
X152629135Y-148146546D01*
X152542141Y-148273866D01*
X152535000Y-148309130D01*
X152535000Y-148298690D01*
X152438327Y-148065301D01*
X152259698Y-147886673D01*
X152026309Y-147790000D01*
X150885750Y-147790000D01*
X150727000Y-147948750D01*
X150727000Y-149098000D01*
X150747000Y-149098000D01*
X150747000Y-149352000D01*
X150727000Y-149352000D01*
X150727000Y-149372000D01*
X150473000Y-149372000D01*
X150473000Y-149352000D01*
X148823750Y-149352000D01*
X148665000Y-149510750D01*
X148665000Y-150151310D01*
X148761673Y-150384699D01*
X148808474Y-150431500D01*
X146339328Y-150431500D01*
X145490399Y-149582571D01*
X145568690Y-149615000D01*
X146159250Y-149615000D01*
X146318000Y-149456250D01*
X146318000Y-148107000D01*
X146572000Y-148107000D01*
X146572000Y-149456250D01*
X146730750Y-149615000D01*
X147321310Y-149615000D01*
X147554699Y-149518327D01*
X147733327Y-149339698D01*
X147830000Y-149106309D01*
X147830000Y-148298690D01*
X148665000Y-148298690D01*
X148665000Y-148939250D01*
X148823750Y-149098000D01*
X150473000Y-149098000D01*
X150473000Y-147948750D01*
X150314250Y-147790000D01*
X149173691Y-147790000D01*
X148940302Y-147886673D01*
X148761673Y-148065301D01*
X148665000Y-148298690D01*
X147830000Y-148298690D01*
X147830000Y-148265750D01*
X147671250Y-148107000D01*
X146572000Y-148107000D01*
X146318000Y-148107000D01*
X146298000Y-148107000D01*
X146298000Y-147853000D01*
X146318000Y-147853000D01*
X146318000Y-147833000D01*
X146572000Y-147833000D01*
X146572000Y-147853000D01*
X147671250Y-147853000D01*
X147830000Y-147694250D01*
X147830000Y-146853691D01*
X147812731Y-146812000D01*
X160655000Y-146812000D01*
X160704410Y-146801994D01*
X160746035Y-146773553D01*
X160762156Y-146748500D01*
X167640000Y-146748500D01*
X167907305Y-146695330D01*
X168133914Y-146543914D01*
X169403914Y-145273914D01*
X169481500Y-145157799D01*
X169481500Y-147955000D01*
X169534670Y-148222305D01*
X169686086Y-148448914D01*
X170398672Y-149161500D01*
X160742845Y-149161500D01*
X160728454Y-149139135D01*
X160601134Y-149052141D01*
X160450000Y-149021536D01*
X159250000Y-149021536D01*
X159108810Y-149048103D01*
X158979135Y-149131546D01*
X158892141Y-149258866D01*
X158861536Y-149410000D01*
X158861536Y-150310000D01*
X158888103Y-150451190D01*
X158971546Y-150580865D01*
X159098866Y-150667859D01*
X159151500Y-150678518D01*
X159151500Y-151512136D01*
X159125435Y-151529552D01*
X158858587Y-151928917D01*
X158764883Y-152400000D01*
X158858587Y-152871083D01*
X159125435Y-153270448D01*
X159524800Y-153537296D01*
X159995883Y-153631000D01*
X160044117Y-153631000D01*
X160515200Y-153537296D01*
X160914565Y-153270448D01*
X161181413Y-152871083D01*
X161275117Y-152400000D01*
X161181413Y-151928917D01*
X160914565Y-151529552D01*
X160548500Y-151284954D01*
X160548500Y-150679930D01*
X160591190Y-150671897D01*
X160720865Y-150588454D01*
X160741332Y-150558500D01*
X164401970Y-150558500D01*
X163986391Y-150730214D01*
X163432160Y-151283479D01*
X163131843Y-152006723D01*
X163131159Y-152789841D01*
X163430214Y-153513609D01*
X163983479Y-154067840D01*
X164706723Y-154368157D01*
X165489841Y-154368841D01*
X166213609Y-154069786D01*
X166767840Y-153516521D01*
X167068157Y-152793277D01*
X167068188Y-152756890D01*
X171278524Y-152756890D01*
X171448355Y-153166924D01*
X171838642Y-153595183D01*
X172363108Y-153841486D01*
X172593000Y-153720819D01*
X172593000Y-152527000D01*
X172847000Y-152527000D01*
X172847000Y-153720819D01*
X173076892Y-153841486D01*
X173601358Y-153595183D01*
X173991645Y-153166924D01*
X174161476Y-152756890D01*
X174040155Y-152527000D01*
X172847000Y-152527000D01*
X172593000Y-152527000D01*
X171399845Y-152527000D01*
X171278524Y-152756890D01*
X167068188Y-152756890D01*
X167068841Y-152010159D01*
X166769786Y-151286391D01*
X166216521Y-150732160D01*
X165798301Y-150558500D01*
X171481536Y-150558500D01*
X171481536Y-150710000D01*
X171508103Y-150851190D01*
X171591546Y-150980865D01*
X171718866Y-151067859D01*
X171870000Y-151098464D01*
X172065105Y-151098464D01*
X171838642Y-151204817D01*
X171448355Y-151633076D01*
X171278524Y-152043110D01*
X171399845Y-152273000D01*
X172593000Y-152273000D01*
X172593000Y-152253000D01*
X172847000Y-152253000D01*
X172847000Y-152273000D01*
X174040155Y-152273000D01*
X174161476Y-152043110D01*
X173991645Y-151633076D01*
X173601358Y-151204817D01*
X173374895Y-151098464D01*
X173570000Y-151098464D01*
X173711190Y-151071897D01*
X173840865Y-150988454D01*
X173927859Y-150861134D01*
X173958464Y-150710000D01*
X173958464Y-149010000D01*
X173931897Y-148868810D01*
X173848454Y-148739135D01*
X173721134Y-148652141D01*
X173570000Y-148621536D01*
X171870000Y-148621536D01*
X171840008Y-148627180D01*
X171371292Y-148158464D01*
X172220000Y-148158464D01*
X172361190Y-148131897D01*
X172490865Y-148048454D01*
X172577859Y-147921134D01*
X172585000Y-147885870D01*
X172585000Y-147896310D01*
X172681673Y-148129699D01*
X172860302Y-148308327D01*
X173093691Y-148405000D01*
X173534250Y-148405000D01*
X173693000Y-148246250D01*
X173693000Y-147447000D01*
X173673000Y-147447000D01*
X173673000Y-147193000D01*
X173693000Y-147193000D01*
X173693000Y-146393750D01*
X173534250Y-146235000D01*
X173093691Y-146235000D01*
X172860302Y-146331673D01*
X172681673Y-146510301D01*
X172585000Y-146743690D01*
X172585000Y-146745301D01*
X172581897Y-146728810D01*
X172498454Y-146599135D01*
X172491500Y-146594384D01*
X172491500Y-146520000D01*
X172447997Y-146301296D01*
X172324112Y-146115888D01*
X172324109Y-146115886D01*
X172148596Y-145940373D01*
X172148621Y-145911669D01*
X172042504Y-145654849D01*
X171846185Y-145458186D01*
X171589550Y-145351622D01*
X171311669Y-145351379D01*
X171054849Y-145457496D01*
X170878500Y-145633537D01*
X170878500Y-141985609D01*
X171276538Y-141985609D01*
X171291714Y-142077376D01*
X171538067Y-142497125D01*
X171926299Y-142790647D01*
X172397304Y-142913256D01*
X172593000Y-142750547D01*
X172593000Y-141795000D01*
X172847000Y-141795000D01*
X172847000Y-142750547D01*
X173042696Y-142913256D01*
X173513701Y-142790647D01*
X173901933Y-142497125D01*
X174148286Y-142077376D01*
X174163462Y-141985609D01*
X174038731Y-141795000D01*
X172847000Y-141795000D01*
X172593000Y-141795000D01*
X171401269Y-141795000D01*
X171276538Y-141985609D01*
X170878500Y-141985609D01*
X170878500Y-141259328D01*
X171766565Y-140371263D01*
X171998846Y-140526468D01*
X171926299Y-140545353D01*
X171538067Y-140838875D01*
X171291714Y-141258624D01*
X171276538Y-141350391D01*
X171401269Y-141541000D01*
X172593000Y-141541000D01*
X172593000Y-141521000D01*
X172847000Y-141521000D01*
X172847000Y-141541000D01*
X174038731Y-141541000D01*
X174163462Y-141350391D01*
X174148286Y-141258624D01*
X173901933Y-140838875D01*
X173513701Y-140545353D01*
X173441154Y-140526468D01*
X173687789Y-140361672D01*
X173900443Y-140043412D01*
X173975117Y-139668000D01*
X173900443Y-139292588D01*
X173687789Y-138974328D01*
X173369529Y-138761674D01*
X172994117Y-138687000D01*
X172445883Y-138687000D01*
X172070471Y-138761674D01*
X171771410Y-138961500D01*
X171490000Y-138961500D01*
X171222695Y-139014670D01*
X170996086Y-139166086D01*
X169686086Y-140476086D01*
X169608500Y-140592201D01*
X169608500Y-138719328D01*
X169961328Y-138366500D01*
X171500070Y-138366500D01*
X171508103Y-138409190D01*
X171591546Y-138538865D01*
X171718866Y-138625859D01*
X171870000Y-138656464D01*
X173570000Y-138656464D01*
X173711190Y-138629897D01*
X173840865Y-138546454D01*
X173927859Y-138419134D01*
X173958464Y-138268000D01*
X173958464Y-137068000D01*
X173931897Y-136926810D01*
X173848454Y-136797135D01*
X173721134Y-136710141D01*
X173570000Y-136679536D01*
X171870000Y-136679536D01*
X171728810Y-136706103D01*
X171599135Y-136789546D01*
X171512141Y-136916866D01*
X171501482Y-136969500D01*
X169672000Y-136969500D01*
X169608500Y-136982131D01*
X169608500Y-132496192D01*
X169783815Y-132671814D01*
X170040450Y-132778378D01*
X170318331Y-132778621D01*
X170575151Y-132672504D01*
X170596192Y-132651500D01*
X170654398Y-132651500D01*
X170658103Y-132671190D01*
X170741546Y-132800865D01*
X170868866Y-132887859D01*
X171020000Y-132918464D01*
X172220000Y-132918464D01*
X172361190Y-132891897D01*
X172490865Y-132808454D01*
X172577859Y-132681134D01*
X172585000Y-132645870D01*
X172585000Y-132656310D01*
X172681673Y-132889699D01*
X172860302Y-133068327D01*
X173093691Y-133165000D01*
X173534250Y-133165000D01*
X173693000Y-133006250D01*
X173693000Y-132207000D01*
X173673000Y-132207000D01*
X173673000Y-131953000D01*
X173693000Y-131953000D01*
X173693000Y-131153750D01*
X173534250Y-130995000D01*
X173093691Y-130995000D01*
X172860302Y-131091673D01*
X172681673Y-131270301D01*
X172585000Y-131503690D01*
X172585000Y-131505301D01*
X172581897Y-131488810D01*
X172498454Y-131359135D01*
X172371134Y-131272141D01*
X172220000Y-131241536D01*
X171020000Y-131241536D01*
X170878810Y-131268103D01*
X170749135Y-131351546D01*
X170662141Y-131478866D01*
X170656140Y-131508500D01*
X170596463Y-131508500D01*
X170576185Y-131488186D01*
X170319550Y-131381622D01*
X170041669Y-131381379D01*
X169784849Y-131487496D01*
X169608500Y-131663537D01*
X169608500Y-129896890D01*
X171278524Y-129896890D01*
X171448355Y-130306924D01*
X171838642Y-130735183D01*
X172363108Y-130981486D01*
X172593000Y-130860819D01*
X172593000Y-129667000D01*
X172847000Y-129667000D01*
X172847000Y-130860819D01*
X173076892Y-130981486D01*
X173601358Y-130735183D01*
X173991645Y-130306924D01*
X174161476Y-129896890D01*
X174040155Y-129667000D01*
X172847000Y-129667000D01*
X172593000Y-129667000D01*
X171399845Y-129667000D01*
X171278524Y-129896890D01*
X169608500Y-129896890D01*
X169608500Y-129829328D01*
X171498369Y-127939459D01*
X171508103Y-127991190D01*
X171591546Y-128120865D01*
X171718866Y-128207859D01*
X171870000Y-128238464D01*
X172065105Y-128238464D01*
X171838642Y-128344817D01*
X171448355Y-128773076D01*
X171278524Y-129183110D01*
X171399845Y-129413000D01*
X172593000Y-129413000D01*
X172593000Y-129393000D01*
X172847000Y-129393000D01*
X172847000Y-129413000D01*
X174040155Y-129413000D01*
X174161476Y-129183110D01*
X173991645Y-128773076D01*
X173601358Y-128344817D01*
X173374895Y-128238464D01*
X173570000Y-128238464D01*
X173711190Y-128211897D01*
X173840865Y-128128454D01*
X173927859Y-128001134D01*
X173958464Y-127850000D01*
X173958464Y-126150000D01*
X173931897Y-126008810D01*
X173848454Y-125879135D01*
X173721134Y-125792141D01*
X173570000Y-125761536D01*
X171870000Y-125761536D01*
X171728810Y-125788103D01*
X171599135Y-125871546D01*
X171512141Y-125998866D01*
X171481536Y-126150000D01*
X171481536Y-126301500D01*
X171450000Y-126301500D01*
X171182696Y-126354670D01*
X171182694Y-126354671D01*
X171182695Y-126354671D01*
X170956086Y-126506086D01*
X166715672Y-130746500D01*
X158202845Y-130746500D01*
X158188454Y-130724135D01*
X158061134Y-130637141D01*
X158008500Y-130626482D01*
X158008500Y-129999328D01*
X159813171Y-128194657D01*
X159995883Y-128231000D01*
X160044117Y-128231000D01*
X160515200Y-128137296D01*
X160914565Y-127870448D01*
X161181413Y-127471083D01*
X161197572Y-127389841D01*
X163131159Y-127389841D01*
X163430214Y-128113609D01*
X163983479Y-128667840D01*
X164706723Y-128968157D01*
X165489841Y-128968841D01*
X166213609Y-128669786D01*
X166767840Y-128116521D01*
X167068157Y-127393277D01*
X167068841Y-126610159D01*
X166769786Y-125886391D01*
X166336043Y-125451890D01*
X168103524Y-125451890D01*
X168273355Y-125861924D01*
X168663642Y-126290183D01*
X169188108Y-126536486D01*
X169418000Y-126415819D01*
X169418000Y-125222000D01*
X169672000Y-125222000D01*
X169672000Y-126415819D01*
X169901892Y-126536486D01*
X170426358Y-126290183D01*
X170816645Y-125861924D01*
X170986476Y-125451890D01*
X170865155Y-125222000D01*
X169672000Y-125222000D01*
X169418000Y-125222000D01*
X168224845Y-125222000D01*
X168103524Y-125451890D01*
X166336043Y-125451890D01*
X166216521Y-125332160D01*
X165493277Y-125031843D01*
X164710159Y-125031159D01*
X163986391Y-125330214D01*
X163432160Y-125883479D01*
X163131843Y-126606723D01*
X163131159Y-127389841D01*
X161197572Y-127389841D01*
X161275117Y-127000000D01*
X161181413Y-126528917D01*
X160914565Y-126129552D01*
X160515200Y-125862704D01*
X160044117Y-125769000D01*
X159995883Y-125769000D01*
X159524800Y-125862704D01*
X159125435Y-126129552D01*
X158858587Y-126528917D01*
X158764883Y-127000000D01*
X158809229Y-127222943D01*
X158661358Y-127370814D01*
X158735117Y-127000000D01*
X158641413Y-126528917D01*
X158374565Y-126129552D01*
X157975200Y-125862704D01*
X157504117Y-125769000D01*
X157455883Y-125769000D01*
X156984800Y-125862704D01*
X156585435Y-126129552D01*
X156318587Y-126528917D01*
X156224883Y-127000000D01*
X156269229Y-127222943D01*
X154616086Y-128876086D01*
X154464670Y-129102695D01*
X154464670Y-129102696D01*
X154411500Y-129370000D01*
X154411500Y-129540000D01*
X153463000Y-129540000D01*
X153463198Y-129313641D01*
X153289554Y-128893388D01*
X152968303Y-128571577D01*
X152548354Y-128397199D01*
X152093641Y-128396802D01*
X151673388Y-128570446D01*
X151351577Y-128891697D01*
X151204079Y-129246912D01*
X151201362Y-129192632D01*
X151042397Y-128808857D01*
X150800213Y-128739392D01*
X149999605Y-129540000D01*
X149640395Y-129540000D01*
X148839787Y-128739392D01*
X148597603Y-128808857D01*
X148438682Y-129254307D01*
X148289554Y-128893388D01*
X147968303Y-128571577D01*
X147939910Y-128559787D01*
X149019392Y-128559787D01*
X149820000Y-129360395D01*
X150620608Y-128559787D01*
X150551143Y-128317603D01*
X150027698Y-128130856D01*
X149472632Y-128158638D01*
X149088857Y-128317603D01*
X149019392Y-128559787D01*
X147939910Y-128559787D01*
X147548354Y-128397199D01*
X147093641Y-128396802D01*
X146673388Y-128570446D01*
X146351577Y-128891697D01*
X146319686Y-128968500D01*
X142476723Y-128968500D01*
X141926697Y-128418474D01*
X142113000Y-128320155D01*
X142113000Y-127127000D01*
X142367000Y-127127000D01*
X142367000Y-128320155D01*
X142596890Y-128441476D01*
X143006924Y-128271645D01*
X143435183Y-127881358D01*
X143681486Y-127356892D01*
X143560819Y-127127000D01*
X142367000Y-127127000D01*
X142113000Y-127127000D01*
X142093000Y-127127000D01*
X142093000Y-126873000D01*
X142113000Y-126873000D01*
X142113000Y-125679845D01*
X142367000Y-125679845D01*
X142367000Y-126873000D01*
X143560819Y-126873000D01*
X143681486Y-126643108D01*
X143645443Y-126566359D01*
X146176802Y-126566359D01*
X146350446Y-126986612D01*
X146671697Y-127308423D01*
X147091646Y-127482801D01*
X147546359Y-127483198D01*
X147966612Y-127309554D01*
X148288423Y-126988303D01*
X148462801Y-126568354D01*
X148462802Y-126566359D01*
X148676802Y-126566359D01*
X148850446Y-126986612D01*
X149171697Y-127308423D01*
X149591646Y-127482801D01*
X150046359Y-127483198D01*
X150466612Y-127309554D01*
X150788423Y-126988303D01*
X150962801Y-126568354D01*
X150962802Y-126566359D01*
X151176802Y-126566359D01*
X151350446Y-126986612D01*
X151671697Y-127308423D01*
X152091646Y-127482801D01*
X152546359Y-127483198D01*
X152966612Y-127309554D01*
X153288423Y-126988303D01*
X153462801Y-126568354D01*
X153463198Y-126113641D01*
X153289554Y-125693388D01*
X152968303Y-125371577D01*
X152548354Y-125197199D01*
X152093641Y-125196802D01*
X151673388Y-125370446D01*
X151351577Y-125691697D01*
X151177199Y-126111646D01*
X151176802Y-126566359D01*
X150962802Y-126566359D01*
X150963198Y-126113641D01*
X150789554Y-125693388D01*
X150468303Y-125371577D01*
X150048354Y-125197199D01*
X149593641Y-125196802D01*
X149173388Y-125370446D01*
X148851577Y-125691697D01*
X148677199Y-126111646D01*
X148676802Y-126566359D01*
X148462802Y-126566359D01*
X148463198Y-126113641D01*
X148289554Y-125693388D01*
X147968303Y-125371577D01*
X147548354Y-125197199D01*
X147093641Y-125196802D01*
X146673388Y-125370446D01*
X146351577Y-125691697D01*
X146177199Y-126111646D01*
X146176802Y-126566359D01*
X143645443Y-126566359D01*
X143435183Y-126118642D01*
X143006924Y-125728355D01*
X142596890Y-125558524D01*
X142367000Y-125679845D01*
X142113000Y-125679845D01*
X141883110Y-125558524D01*
X141473076Y-125728355D01*
X141044817Y-126118642D01*
X140938464Y-126345105D01*
X140938464Y-126150000D01*
X140911897Y-126008810D01*
X140828454Y-125879135D01*
X140701134Y-125792141D01*
X140550000Y-125761536D01*
X138850000Y-125761536D01*
X138811000Y-125768874D01*
X138811000Y-123621000D01*
X169417998Y-123621000D01*
X169417998Y-123774180D01*
G36*
X168211500Y-140733277D02*
X166941500Y-139463276D01*
X166941500Y-137955602D01*
X166961190Y-137951897D01*
X167090865Y-137868454D01*
X167177859Y-137741134D01*
X167208464Y-137590000D01*
X167208464Y-136390000D01*
X167181897Y-136248810D01*
X167098454Y-136119135D01*
X166971134Y-136032141D01*
X166820000Y-136001536D01*
X165920000Y-136001536D01*
X165778810Y-136028103D01*
X165649135Y-136111546D01*
X165562141Y-136238866D01*
X165531536Y-136390000D01*
X165531536Y-137590000D01*
X165558103Y-137731190D01*
X165641546Y-137860865D01*
X165768866Y-137947859D01*
X165798500Y-137953860D01*
X165798500Y-139699995D01*
X165798499Y-139700000D01*
X165834785Y-139882418D01*
X165842003Y-139918704D01*
X165865587Y-139954000D01*
X165965888Y-140104112D01*
X167431959Y-141570183D01*
X167244849Y-141647496D01*
X167188475Y-141703771D01*
X167181897Y-141668810D01*
X167098454Y-141539135D01*
X166971134Y-141452141D01*
X166820000Y-141421536D01*
X165920000Y-141421536D01*
X165778810Y-141448103D01*
X165649135Y-141531546D01*
X165562141Y-141658866D01*
X165531536Y-141810000D01*
X165531536Y-143010000D01*
X165558103Y-143151190D01*
X165641546Y-143280865D01*
X165768866Y-143367859D01*
X165920000Y-143398464D01*
X166820000Y-143398464D01*
X166961190Y-143371897D01*
X167090865Y-143288454D01*
X167177859Y-143161134D01*
X167208464Y-143010000D01*
X167208464Y-142981500D01*
X167469995Y-142981500D01*
X167470000Y-142981501D01*
X167652418Y-142945215D01*
X167685973Y-142938540D01*
X167778331Y-142938621D01*
X168035151Y-142832504D01*
X168211500Y-142656463D01*
X168211500Y-143728808D01*
X168036185Y-143553186D01*
X167779550Y-143446622D01*
X167501669Y-143446379D01*
X167244849Y-143552496D01*
X167074369Y-143722678D01*
X166971134Y-143652141D01*
X166820000Y-143621536D01*
X165920000Y-143621536D01*
X165778810Y-143648103D01*
X165649135Y-143731546D01*
X165562141Y-143858866D01*
X165531536Y-144010000D01*
X165531536Y-145210000D01*
X165558103Y-145351190D01*
X165558302Y-145351500D01*
X160782000Y-145351500D01*
X160782000Y-144951719D01*
X160840000Y-144963464D01*
X161740000Y-144963464D01*
X161881190Y-144936897D01*
X162010865Y-144853454D01*
X162097859Y-144726134D01*
X162128464Y-144575000D01*
X162128464Y-143944760D01*
X162964109Y-143109114D01*
X162964112Y-143109112D01*
X163087997Y-142923704D01*
X163106275Y-142831814D01*
X163131501Y-142705000D01*
X163131500Y-142704995D01*
X163131500Y-140970000D01*
X163087997Y-140751296D01*
X162964112Y-140565888D01*
X162964109Y-140565886D01*
X160623294Y-138225070D01*
X160914565Y-138030448D01*
X161181413Y-137631083D01*
X161275117Y-137160000D01*
X161181413Y-136688917D01*
X160914565Y-136289552D01*
X160515200Y-136022704D01*
X160044117Y-135929000D01*
X159995883Y-135929000D01*
X159524800Y-136022704D01*
X159125435Y-136289552D01*
X158858587Y-136688917D01*
X158764883Y-137160000D01*
X158858587Y-137631083D01*
X159125435Y-138030448D01*
X159448500Y-138246314D01*
X159448500Y-138429995D01*
X159448499Y-138430000D01*
X159471664Y-138546454D01*
X159492003Y-138648704D01*
X159610591Y-138826185D01*
X159615888Y-138834112D01*
X161568313Y-140786536D01*
X160840000Y-140786536D01*
X160782000Y-140797450D01*
X160782000Y-140335000D01*
X160771994Y-140285590D01*
X160743553Y-140243965D01*
X160701159Y-140216685D01*
X160655000Y-140208000D01*
X156718000Y-140208000D01*
X156718000Y-138119025D01*
X156984800Y-138297296D01*
X157455883Y-138391000D01*
X157504117Y-138391000D01*
X157975200Y-138297296D01*
X158374565Y-138030448D01*
X158641413Y-137631083D01*
X158735117Y-137160000D01*
X158641413Y-136688917D01*
X158374565Y-136289552D01*
X157975200Y-136022704D01*
X157504117Y-135929000D01*
X157455883Y-135929000D01*
X156984800Y-136022704D01*
X156718000Y-136200975D01*
X156718000Y-134190000D01*
X165531536Y-134190000D01*
X165531536Y-135390000D01*
X165558103Y-135531190D01*
X165641546Y-135660865D01*
X165768866Y-135747859D01*
X165920000Y-135778464D01*
X166820000Y-135778464D01*
X166961190Y-135751897D01*
X167090865Y-135668454D01*
X167177859Y-135541134D01*
X167208464Y-135390000D01*
X167208464Y-134190000D01*
X167181897Y-134048810D01*
X167098454Y-133919135D01*
X166971134Y-133832141D01*
X166941500Y-133826140D01*
X166941500Y-133766463D01*
X166961814Y-133746185D01*
X167068378Y-133489550D01*
X167068621Y-133211669D01*
X166962504Y-132954849D01*
X166766185Y-132758186D01*
X166509550Y-132651622D01*
X166231669Y-132651379D01*
X165974849Y-132757496D01*
X165778186Y-132953815D01*
X165671622Y-133210450D01*
X165671379Y-133488331D01*
X165777496Y-133745151D01*
X165798500Y-133766192D01*
X165798500Y-133824398D01*
X165778810Y-133828103D01*
X165649135Y-133911546D01*
X165562141Y-134038866D01*
X165531536Y-134190000D01*
X156718000Y-134190000D01*
X156718000Y-132283464D01*
X157910000Y-132283464D01*
X158051190Y-132256897D01*
X158180865Y-132173454D01*
X158201332Y-132143500D01*
X167005000Y-132143500D01*
X167272305Y-132090330D01*
X167498914Y-131938914D01*
X168211500Y-131226328D01*
X168211500Y-140733277D01*
X168211500Y-140733277D01*
G37*
X168211500Y-140733277D02*
X166941500Y-139463276D01*
X166941500Y-137955602D01*
X166961190Y-137951897D01*
X167090865Y-137868454D01*
X167177859Y-137741134D01*
X167208464Y-137590000D01*
X167208464Y-136390000D01*
X167181897Y-136248810D01*
X167098454Y-136119135D01*
X166971134Y-136032141D01*
X166820000Y-136001536D01*
X165920000Y-136001536D01*
X165778810Y-136028103D01*
X165649135Y-136111546D01*
X165562141Y-136238866D01*
X165531536Y-136390000D01*
X165531536Y-137590000D01*
X165558103Y-137731190D01*
X165641546Y-137860865D01*
X165768866Y-137947859D01*
X165798500Y-137953860D01*
X165798500Y-139699995D01*
X165798499Y-139700000D01*
X165834785Y-139882418D01*
X165842003Y-139918704D01*
X165865587Y-139954000D01*
X165965888Y-140104112D01*
X167431959Y-141570183D01*
X167244849Y-141647496D01*
X167188475Y-141703771D01*
X167181897Y-141668810D01*
X167098454Y-141539135D01*
X166971134Y-141452141D01*
X166820000Y-141421536D01*
X165920000Y-141421536D01*
X165778810Y-141448103D01*
X165649135Y-141531546D01*
X165562141Y-141658866D01*
X165531536Y-141810000D01*
X165531536Y-143010000D01*
X165558103Y-143151190D01*
X165641546Y-143280865D01*
X165768866Y-143367859D01*
X165920000Y-143398464D01*
X166820000Y-143398464D01*
X166961190Y-143371897D01*
X167090865Y-143288454D01*
X167177859Y-143161134D01*
X167208464Y-143010000D01*
X167208464Y-142981500D01*
X167469995Y-142981500D01*
X167470000Y-142981501D01*
X167652418Y-142945215D01*
X167685973Y-142938540D01*
X167778331Y-142938621D01*
X168035151Y-142832504D01*
X168211500Y-142656463D01*
X168211500Y-143728808D01*
X168036185Y-143553186D01*
X167779550Y-143446622D01*
X167501669Y-143446379D01*
X167244849Y-143552496D01*
X167074369Y-143722678D01*
X166971134Y-143652141D01*
X166820000Y-143621536D01*
X165920000Y-143621536D01*
X165778810Y-143648103D01*
X165649135Y-143731546D01*
X165562141Y-143858866D01*
X165531536Y-144010000D01*
X165531536Y-145210000D01*
X165558103Y-145351190D01*
X165558302Y-145351500D01*
X160782000Y-145351500D01*
X160782000Y-144951719D01*
X160840000Y-144963464D01*
X161740000Y-144963464D01*
X161881190Y-144936897D01*
X162010865Y-144853454D01*
X162097859Y-144726134D01*
X162128464Y-144575000D01*
X162128464Y-143944760D01*
X162964109Y-143109114D01*
X162964112Y-143109112D01*
X163087997Y-142923704D01*
X163106275Y-142831814D01*
X163131501Y-142705000D01*
X163131500Y-142704995D01*
X163131500Y-140970000D01*
X163087997Y-140751296D01*
X162964112Y-140565888D01*
X162964109Y-140565886D01*
X160623294Y-138225070D01*
X160914565Y-138030448D01*
X161181413Y-137631083D01*
X161275117Y-137160000D01*
X161181413Y-136688917D01*
X160914565Y-136289552D01*
X160515200Y-136022704D01*
X160044117Y-135929000D01*
X159995883Y-135929000D01*
X159524800Y-136022704D01*
X159125435Y-136289552D01*
X158858587Y-136688917D01*
X158764883Y-137160000D01*
X158858587Y-137631083D01*
X159125435Y-138030448D01*
X159448500Y-138246314D01*
X159448500Y-138429995D01*
X159448499Y-138430000D01*
X159471664Y-138546454D01*
X159492003Y-138648704D01*
X159610591Y-138826185D01*
X159615888Y-138834112D01*
X161568313Y-140786536D01*
X160840000Y-140786536D01*
X160782000Y-140797450D01*
X160782000Y-140335000D01*
X160771994Y-140285590D01*
X160743553Y-140243965D01*
X160701159Y-140216685D01*
X160655000Y-140208000D01*
X156718000Y-140208000D01*
X156718000Y-138119025D01*
X156984800Y-138297296D01*
X157455883Y-138391000D01*
X157504117Y-138391000D01*
X157975200Y-138297296D01*
X158374565Y-138030448D01*
X158641413Y-137631083D01*
X158735117Y-137160000D01*
X158641413Y-136688917D01*
X158374565Y-136289552D01*
X157975200Y-136022704D01*
X157504117Y-135929000D01*
X157455883Y-135929000D01*
X156984800Y-136022704D01*
X156718000Y-136200975D01*
X156718000Y-134190000D01*
X165531536Y-134190000D01*
X165531536Y-135390000D01*
X165558103Y-135531190D01*
X165641546Y-135660865D01*
X165768866Y-135747859D01*
X165920000Y-135778464D01*
X166820000Y-135778464D01*
X166961190Y-135751897D01*
X167090865Y-135668454D01*
X167177859Y-135541134D01*
X167208464Y-135390000D01*
X167208464Y-134190000D01*
X167181897Y-134048810D01*
X167098454Y-133919135D01*
X166971134Y-133832141D01*
X166941500Y-133826140D01*
X166941500Y-133766463D01*
X166961814Y-133746185D01*
X167068378Y-133489550D01*
X167068621Y-133211669D01*
X166962504Y-132954849D01*
X166766185Y-132758186D01*
X166509550Y-132651622D01*
X166231669Y-132651379D01*
X165974849Y-132757496D01*
X165778186Y-132953815D01*
X165671622Y-133210450D01*
X165671379Y-133488331D01*
X165777496Y-133745151D01*
X165798500Y-133766192D01*
X165798500Y-133824398D01*
X165778810Y-133828103D01*
X165649135Y-133911546D01*
X165562141Y-134038866D01*
X165531536Y-134190000D01*
X156718000Y-134190000D01*
X156718000Y-132283464D01*
X157910000Y-132283464D01*
X158051190Y-132256897D01*
X158180865Y-132173454D01*
X158201332Y-132143500D01*
X167005000Y-132143500D01*
X167272305Y-132090330D01*
X167498914Y-131938914D01*
X168211500Y-131226328D01*
X168211500Y-140733277D01*
M02*
