G04 #@! TF.FileFunction,Legend,Top*
%FSLAX46Y46*%
G04 Gerber Fmt 4.6, Leading zero omitted, Abs format (unit mm)*
G04 Created by KiCad (PCBNEW 4.0.6) date 08/14/17 09:10:16*
%MOMM*%
%LPD*%
G01*
G04 APERTURE LIST*
%ADD10C,0.100000*%
%ADD11C,0.127000*%
%ADD12C,0.120000*%
%ADD13C,0.150000*%
G04 APERTURE END LIST*
D10*
D11*
X146594285Y-124296714D02*
X146739428Y-124296714D01*
X146812000Y-124333000D01*
X146884571Y-124405571D01*
X146920857Y-124550714D01*
X146920857Y-124804714D01*
X146884571Y-124949857D01*
X146812000Y-125022429D01*
X146739428Y-125058714D01*
X146594285Y-125058714D01*
X146521714Y-125022429D01*
X146449143Y-124949857D01*
X146412857Y-124804714D01*
X146412857Y-124550714D01*
X146449143Y-124405571D01*
X146521714Y-124333000D01*
X146594285Y-124296714D01*
X147501429Y-124659571D02*
X147247429Y-124659571D01*
X147247429Y-125058714D02*
X147247429Y-124296714D01*
X147610286Y-124296714D01*
X148154572Y-124659571D02*
X147900572Y-124659571D01*
X147900572Y-125058714D02*
X147900572Y-124296714D01*
X148263429Y-124296714D01*
X151928285Y-124296714D02*
X152073428Y-124296714D01*
X152146000Y-124333000D01*
X152218571Y-124405571D01*
X152254857Y-124550714D01*
X152254857Y-124804714D01*
X152218571Y-124949857D01*
X152146000Y-125022429D01*
X152073428Y-125058714D01*
X151928285Y-125058714D01*
X151855714Y-125022429D01*
X151783143Y-124949857D01*
X151746857Y-124804714D01*
X151746857Y-124550714D01*
X151783143Y-124405571D01*
X151855714Y-124333000D01*
X151928285Y-124296714D01*
X152581429Y-125058714D02*
X152581429Y-124296714D01*
X153016857Y-125058714D01*
X153016857Y-124296714D01*
X121466429Y-152744714D02*
X121466429Y-151982714D01*
X121829286Y-152744714D02*
X121829286Y-151982714D01*
X122264714Y-152744714D01*
X122264714Y-151982714D01*
X122591286Y-152055286D02*
X122627572Y-152019000D01*
X122700143Y-151982714D01*
X122881572Y-151982714D01*
X122954143Y-152019000D01*
X122990429Y-152055286D01*
X123026714Y-152127857D01*
X123026714Y-152200429D01*
X122990429Y-152309286D01*
X122555000Y-152744714D01*
X123026714Y-152744714D01*
X121829286Y-146902714D02*
X121466429Y-146902714D01*
X121430143Y-147265571D01*
X121466429Y-147229286D01*
X121539000Y-147193000D01*
X121720429Y-147193000D01*
X121793000Y-147229286D01*
X121829286Y-147265571D01*
X121865571Y-147338143D01*
X121865571Y-147519571D01*
X121829286Y-147592143D01*
X121793000Y-147628429D01*
X121720429Y-147664714D01*
X121539000Y-147664714D01*
X121466429Y-147628429D01*
X121430143Y-147592143D01*
X122083285Y-146902714D02*
X122337285Y-147664714D01*
X122591285Y-146902714D01*
X167803285Y-141859000D02*
X167730714Y-141822714D01*
X167621857Y-141822714D01*
X167513000Y-141859000D01*
X167440428Y-141931571D01*
X167404143Y-142004143D01*
X167367857Y-142149286D01*
X167367857Y-142258143D01*
X167404143Y-142403286D01*
X167440428Y-142475857D01*
X167513000Y-142548429D01*
X167621857Y-142584714D01*
X167694428Y-142584714D01*
X167803285Y-142548429D01*
X167839571Y-142512143D01*
X167839571Y-142258143D01*
X167694428Y-142258143D01*
X168166143Y-142584714D02*
X168166143Y-141822714D01*
X168601571Y-142584714D01*
X168601571Y-141822714D01*
X168964429Y-142584714D02*
X168964429Y-141822714D01*
X169145857Y-141822714D01*
X169254714Y-141859000D01*
X169327286Y-141931571D01*
X169363571Y-142004143D01*
X169399857Y-142149286D01*
X169399857Y-142258143D01*
X169363571Y-142403286D01*
X169327286Y-142475857D01*
X169254714Y-142548429D01*
X169145857Y-142584714D01*
X168964429Y-142584714D01*
X169980429Y-126582714D02*
X169617572Y-126582714D01*
X169581286Y-126945571D01*
X169617572Y-126909286D01*
X169690143Y-126873000D01*
X169871572Y-126873000D01*
X169944143Y-126909286D01*
X169980429Y-126945571D01*
X170016714Y-127018143D01*
X170016714Y-127199571D01*
X169980429Y-127272143D01*
X169944143Y-127308429D01*
X169871572Y-127344714D01*
X169690143Y-127344714D01*
X169617572Y-127308429D01*
X169581286Y-127272143D01*
X170234428Y-126582714D02*
X170488428Y-127344714D01*
X170742428Y-126582714D01*
X168710429Y-136742714D02*
X168347572Y-136742714D01*
X168311286Y-137105571D01*
X168347572Y-137069286D01*
X168420143Y-137033000D01*
X168601572Y-137033000D01*
X168674143Y-137069286D01*
X168710429Y-137105571D01*
X168746714Y-137178143D01*
X168746714Y-137359571D01*
X168710429Y-137432143D01*
X168674143Y-137468429D01*
X168601572Y-137504714D01*
X168420143Y-137504714D01*
X168347572Y-137468429D01*
X168311286Y-137432143D01*
X168964428Y-136742714D02*
X169218428Y-137504714D01*
X169472428Y-136742714D01*
X169073285Y-129159000D02*
X169000714Y-129122714D01*
X168891857Y-129122714D01*
X168783000Y-129159000D01*
X168710428Y-129231571D01*
X168674143Y-129304143D01*
X168637857Y-129449286D01*
X168637857Y-129558143D01*
X168674143Y-129703286D01*
X168710428Y-129775857D01*
X168783000Y-129848429D01*
X168891857Y-129884714D01*
X168964428Y-129884714D01*
X169073285Y-129848429D01*
X169109571Y-129812143D01*
X169109571Y-129558143D01*
X168964428Y-129558143D01*
X169436143Y-129884714D02*
X169436143Y-129122714D01*
X169871571Y-129884714D01*
X169871571Y-129122714D01*
X170234429Y-129884714D02*
X170234429Y-129122714D01*
X170415857Y-129122714D01*
X170524714Y-129159000D01*
X170597286Y-129231571D01*
X170633571Y-129304143D01*
X170669857Y-129449286D01*
X170669857Y-129558143D01*
X170633571Y-129703286D01*
X170597286Y-129775857D01*
X170524714Y-129848429D01*
X170415857Y-129884714D01*
X170234429Y-129884714D01*
X167549286Y-139282714D02*
X168021000Y-139282714D01*
X167767000Y-139573000D01*
X167875858Y-139573000D01*
X167948429Y-139609286D01*
X167984715Y-139645571D01*
X168021000Y-139718143D01*
X168021000Y-139899571D01*
X167984715Y-139972143D01*
X167948429Y-140008429D01*
X167875858Y-140044714D01*
X167658143Y-140044714D01*
X167585572Y-140008429D01*
X167549286Y-139972143D01*
X168238714Y-139282714D02*
X168492714Y-140044714D01*
X168746714Y-139282714D01*
X168928143Y-139282714D02*
X169399857Y-139282714D01*
X169145857Y-139573000D01*
X169254715Y-139573000D01*
X169327286Y-139609286D01*
X169363572Y-139645571D01*
X169399857Y-139718143D01*
X169399857Y-139899571D01*
X169363572Y-139972143D01*
X169327286Y-140008429D01*
X169254715Y-140044714D01*
X169037000Y-140044714D01*
X168964429Y-140008429D01*
X168928143Y-139972143D01*
X168819286Y-149442714D02*
X169291000Y-149442714D01*
X169037000Y-149733000D01*
X169145858Y-149733000D01*
X169218429Y-149769286D01*
X169254715Y-149805571D01*
X169291000Y-149878143D01*
X169291000Y-150059571D01*
X169254715Y-150132143D01*
X169218429Y-150168429D01*
X169145858Y-150204714D01*
X168928143Y-150204714D01*
X168855572Y-150168429D01*
X168819286Y-150132143D01*
X169508714Y-149442714D02*
X169762714Y-150204714D01*
X170016714Y-149442714D01*
X170198143Y-149442714D02*
X170669857Y-149442714D01*
X170415857Y-149733000D01*
X170524715Y-149733000D01*
X170597286Y-149769286D01*
X170633572Y-149805571D01*
X170669857Y-149878143D01*
X170669857Y-150059571D01*
X170633572Y-150132143D01*
X170597286Y-150168429D01*
X170524715Y-150204714D01*
X170307000Y-150204714D01*
X170234429Y-150168429D01*
X170198143Y-150132143D01*
X169073285Y-152019000D02*
X169000714Y-151982714D01*
X168891857Y-151982714D01*
X168783000Y-152019000D01*
X168710428Y-152091571D01*
X168674143Y-152164143D01*
X168637857Y-152309286D01*
X168637857Y-152418143D01*
X168674143Y-152563286D01*
X168710428Y-152635857D01*
X168783000Y-152708429D01*
X168891857Y-152744714D01*
X168964428Y-152744714D01*
X169073285Y-152708429D01*
X169109571Y-152672143D01*
X169109571Y-152418143D01*
X168964428Y-152418143D01*
X169436143Y-152744714D02*
X169436143Y-151982714D01*
X169871571Y-152744714D01*
X169871571Y-151982714D01*
X170234429Y-152744714D02*
X170234429Y-151982714D01*
X170415857Y-151982714D01*
X170524714Y-152019000D01*
X170597286Y-152091571D01*
X170633571Y-152164143D01*
X170669857Y-152309286D01*
X170669857Y-152418143D01*
X170633571Y-152563286D01*
X170597286Y-152635857D01*
X170524714Y-152708429D01*
X170415857Y-152744714D01*
X170234429Y-152744714D01*
X141659428Y-124333000D02*
X141586857Y-124296714D01*
X141478000Y-124296714D01*
X141369143Y-124333000D01*
X141296571Y-124405571D01*
X141260286Y-124478143D01*
X141224000Y-124623286D01*
X141224000Y-124732143D01*
X141260286Y-124877286D01*
X141296571Y-124949857D01*
X141369143Y-125022429D01*
X141478000Y-125058714D01*
X141550571Y-125058714D01*
X141659428Y-125022429D01*
X141695714Y-124986143D01*
X141695714Y-124732143D01*
X141550571Y-124732143D01*
X142022286Y-125058714D02*
X142022286Y-124296714D01*
X142457714Y-125058714D01*
X142457714Y-124296714D01*
X142820572Y-125058714D02*
X142820572Y-124296714D01*
X143002000Y-124296714D01*
X143110857Y-124333000D01*
X143183429Y-124405571D01*
X143219714Y-124478143D01*
X143256000Y-124623286D01*
X143256000Y-124732143D01*
X143219714Y-124877286D01*
X143183429Y-124949857D01*
X143110857Y-125022429D01*
X143002000Y-125058714D01*
X142820572Y-125058714D01*
X139137572Y-124659571D02*
X139391572Y-124659571D01*
X139500429Y-125058714D02*
X139137572Y-125058714D01*
X139137572Y-124296714D01*
X139500429Y-124296714D01*
X139827001Y-125058714D02*
X139827001Y-124296714D01*
X140262429Y-125058714D01*
X140262429Y-124296714D01*
X138956143Y-124165360D02*
X140443858Y-124165360D01*
X117184714Y-140461999D02*
X116422714Y-140461999D01*
X117184714Y-140099142D02*
X116422714Y-140099142D01*
X117184714Y-139663714D01*
X116422714Y-139663714D01*
X117184714Y-138901714D02*
X117184714Y-139337142D01*
X117184714Y-139119428D02*
X116422714Y-139119428D01*
X116531571Y-139191999D01*
X116604143Y-139264571D01*
X116640429Y-139337142D01*
X117184714Y-150621999D02*
X116422714Y-150621999D01*
X117184714Y-150259142D02*
X116422714Y-150259142D01*
X117184714Y-149823714D01*
X116422714Y-149823714D01*
X116495286Y-149497142D02*
X116459000Y-149460856D01*
X116422714Y-149388285D01*
X116422714Y-149206856D01*
X116459000Y-149134285D01*
X116495286Y-149097999D01*
X116567857Y-149061714D01*
X116640429Y-149061714D01*
X116749286Y-149097999D01*
X117184714Y-149533428D01*
X117184714Y-149061714D01*
X116459000Y-152980572D02*
X116422714Y-153053143D01*
X116422714Y-153162000D01*
X116459000Y-153270857D01*
X116531571Y-153343429D01*
X116604143Y-153379714D01*
X116749286Y-153416000D01*
X116858143Y-153416000D01*
X117003286Y-153379714D01*
X117075857Y-153343429D01*
X117148429Y-153270857D01*
X117184714Y-153162000D01*
X117184714Y-153089429D01*
X117148429Y-152980572D01*
X117112143Y-152944286D01*
X116858143Y-152944286D01*
X116858143Y-153089429D01*
X117184714Y-152617714D02*
X116422714Y-152617714D01*
X117184714Y-152182286D01*
X116422714Y-152182286D01*
X117184714Y-151819428D02*
X116422714Y-151819428D01*
X116422714Y-151638000D01*
X116459000Y-151529143D01*
X116531571Y-151456571D01*
X116604143Y-151420286D01*
X116749286Y-151384000D01*
X116858143Y-151384000D01*
X117003286Y-151420286D01*
X117075857Y-151456571D01*
X117148429Y-151529143D01*
X117184714Y-151638000D01*
X117184714Y-151819428D01*
X116459000Y-142820572D02*
X116422714Y-142893143D01*
X116422714Y-143002000D01*
X116459000Y-143110857D01*
X116531571Y-143183429D01*
X116604143Y-143219714D01*
X116749286Y-143256000D01*
X116858143Y-143256000D01*
X117003286Y-143219714D01*
X117075857Y-143183429D01*
X117148429Y-143110857D01*
X117184714Y-143002000D01*
X117184714Y-142929429D01*
X117148429Y-142820572D01*
X117112143Y-142784286D01*
X116858143Y-142784286D01*
X116858143Y-142929429D01*
X117184714Y-142457714D02*
X116422714Y-142457714D01*
X117184714Y-142022286D01*
X116422714Y-142022286D01*
X117184714Y-141659428D02*
X116422714Y-141659428D01*
X116422714Y-141478000D01*
X116459000Y-141369143D01*
X116531571Y-141296571D01*
X116604143Y-141260286D01*
X116749286Y-141224000D01*
X116858143Y-141224000D01*
X117003286Y-141260286D01*
X117075857Y-141296571D01*
X117148429Y-141369143D01*
X117184714Y-141478000D01*
X117184714Y-141659428D01*
D12*
X173101000Y-147828000D02*
X173101000Y-146812000D01*
X174520000Y-147870000D02*
X174520000Y-146770000D01*
X174520000Y-146770000D02*
X171920000Y-146770000D01*
X174520000Y-147870000D02*
X171920000Y-147870000D01*
D13*
X146675000Y-135025000D02*
X146675000Y-137625000D01*
X146675000Y-135025000D02*
X147725000Y-133975000D01*
X147725000Y-133975000D02*
X150325000Y-133975000D01*
X151775000Y-139075000D02*
X151775000Y-135375000D01*
X151775000Y-139075000D02*
X148075000Y-139075000D01*
X141986000Y-139065000D02*
X141986000Y-144145000D01*
X141986000Y-144145000D02*
X137414000Y-144145000D01*
X137414000Y-144145000D02*
X137414000Y-139065000D01*
X137414000Y-139065000D02*
X141986000Y-139065000D01*
X140462000Y-139065000D02*
X140462000Y-139573000D01*
X140462000Y-139573000D02*
X139192000Y-139573000D01*
X139192000Y-139573000D02*
X139192000Y-139065000D01*
D12*
X132680000Y-142525000D02*
X132680000Y-143225000D01*
X131480000Y-143225000D02*
X131480000Y-142525000D01*
X135093000Y-138461000D02*
X135093000Y-139161000D01*
X133893000Y-139161000D02*
X133893000Y-138461000D01*
X150145000Y-143545000D02*
X150845000Y-143545000D01*
X150845000Y-144745000D02*
X150145000Y-144745000D01*
X146720000Y-143225000D02*
X146720000Y-142525000D01*
X147920000Y-142525000D02*
X147920000Y-143225000D01*
X150780000Y-152435000D02*
X151480000Y-152435000D01*
X151480000Y-153635000D02*
X150780000Y-153635000D01*
X150110000Y-151525000D02*
X150110000Y-150355000D01*
X150110000Y-146955000D02*
X150110000Y-148125000D01*
X154690000Y-147715000D02*
X154690000Y-148125000D01*
X154690000Y-150765000D02*
X154690000Y-150355000D01*
X153920000Y-151525000D02*
X150110000Y-151525000D01*
X153920000Y-151525000D02*
X154690000Y-150765000D01*
X153920000Y-146955000D02*
X150110000Y-146955000D01*
X153920000Y-146955000D02*
X154690000Y-147715000D01*
X112970000Y-140970000D02*
X112970000Y-143570000D01*
X112970000Y-143570000D02*
X115630000Y-143570000D01*
X115630000Y-143570000D02*
X115630000Y-140970000D01*
X115630000Y-140970000D02*
X112970000Y-140970000D01*
X112970000Y-139700000D02*
X112970000Y-138370000D01*
X112970000Y-138370000D02*
X114300000Y-138370000D01*
X140970000Y-128330000D02*
X143570000Y-128330000D01*
X143570000Y-128330000D02*
X143570000Y-125670000D01*
X143570000Y-125670000D02*
X140970000Y-125670000D01*
X140970000Y-125670000D02*
X140970000Y-128330000D01*
X139700000Y-128330000D02*
X138370000Y-128330000D01*
X138370000Y-128330000D02*
X138370000Y-127000000D01*
X118050000Y-148590000D02*
X118050000Y-153730000D01*
X118050000Y-153730000D02*
X120710000Y-153730000D01*
X120710000Y-153730000D02*
X120710000Y-148590000D01*
X120710000Y-148590000D02*
X118050000Y-148590000D01*
X118050000Y-147320000D02*
X118050000Y-145990000D01*
X118050000Y-145990000D02*
X119380000Y-145990000D01*
X112970000Y-151130000D02*
X112970000Y-153730000D01*
X112970000Y-153730000D02*
X115630000Y-153730000D01*
X115630000Y-153730000D02*
X115630000Y-151130000D01*
X115630000Y-151130000D02*
X112970000Y-151130000D01*
X112970000Y-149860000D02*
X112970000Y-148530000D01*
X112970000Y-148530000D02*
X114300000Y-148530000D01*
X171390000Y-128270000D02*
X171390000Y-130870000D01*
X171390000Y-130870000D02*
X174050000Y-130870000D01*
X174050000Y-130870000D02*
X174050000Y-128270000D01*
X174050000Y-128270000D02*
X171390000Y-128270000D01*
X171390000Y-127000000D02*
X171390000Y-125670000D01*
X171390000Y-125670000D02*
X172720000Y-125670000D01*
X171390000Y-151130000D02*
X171390000Y-153730000D01*
X171390000Y-153730000D02*
X174050000Y-153730000D01*
X174050000Y-153730000D02*
X174050000Y-151130000D01*
X174050000Y-151130000D02*
X171390000Y-151130000D01*
X171390000Y-149860000D02*
X171390000Y-148530000D01*
X171390000Y-148530000D02*
X172720000Y-148530000D01*
D13*
X146343607Y-128940000D02*
G75*
G03X146343607Y-128940000I-223607J0D01*
G01*
X153120000Y-129540000D02*
X154070000Y-129540000D01*
X154070000Y-129540000D02*
X154070000Y-126340000D01*
X154070000Y-126340000D02*
X153120000Y-126340000D01*
X146520000Y-126340000D02*
X145570000Y-126340000D01*
X145570000Y-126340000D02*
X145570000Y-129540000D01*
X145570000Y-129540000D02*
X146520000Y-129540000D01*
X150620000Y-126340000D02*
X151520000Y-126340000D01*
X150620000Y-129540000D02*
X151520000Y-129540000D01*
X148120000Y-126340000D02*
X149020000Y-126340000D01*
X148120000Y-129540000D02*
X148920000Y-129540000D01*
X148920000Y-129540000D02*
X149020000Y-129540000D01*
X133080000Y-127000000D02*
G75*
G03X133080000Y-127000000I-1000000J0D01*
G01*
X135620000Y-127000000D02*
G75*
G03X135620000Y-127000000I-1000000J0D01*
G01*
X158480000Y-127000000D02*
G75*
G03X158480000Y-127000000I-1000000J0D01*
G01*
X161020000Y-127000000D02*
G75*
G03X161020000Y-127000000I-1000000J0D01*
G01*
X133080000Y-152400000D02*
G75*
G03X133080000Y-152400000I-1000000J0D01*
G01*
X135620000Y-152400000D02*
G75*
G03X135620000Y-152400000I-1000000J0D01*
G01*
X158480000Y-152400000D02*
G75*
G03X158480000Y-152400000I-1000000J0D01*
G01*
X161020000Y-152400000D02*
G75*
G03X161020000Y-152400000I-1000000J0D01*
G01*
X158480000Y-137160000D02*
G75*
G03X158480000Y-137160000I-1000000J0D01*
G01*
D12*
X140735000Y-153040000D02*
X141995000Y-153040000D01*
X147555000Y-153040000D02*
X146295000Y-153040000D01*
X140735000Y-149280000D02*
X140735000Y-153040000D01*
X147555000Y-147030000D02*
X147555000Y-153040000D01*
D13*
X161020000Y-137160000D02*
G75*
G03X161020000Y-137160000I-1000000J0D01*
G01*
X170545000Y-125095000D02*
G75*
G03X170545000Y-125095000I-1000000J0D01*
G01*
D12*
X142846000Y-138175000D02*
X142846000Y-134875000D01*
X145640000Y-138175000D02*
X145640000Y-134875000D01*
X145640000Y-134875000D02*
X140240000Y-134875000D01*
X145640000Y-138175000D02*
X140240000Y-138175000D01*
X127606000Y-139445000D02*
X127606000Y-136145000D01*
X130400000Y-139445000D02*
X130400000Y-136145000D01*
X130400000Y-136145000D02*
X125000000Y-136145000D01*
X130400000Y-139445000D02*
X125000000Y-139445000D01*
X136795000Y-151475000D02*
X138795000Y-151475000D01*
X136795000Y-152745000D02*
X138795000Y-152745000D01*
X138795000Y-152745000D02*
X138795000Y-148845000D01*
X136795000Y-152745000D02*
X136795000Y-148845000D01*
X159250000Y-150540000D02*
X158250000Y-150540000D01*
X158250000Y-149180000D02*
X159250000Y-149180000D01*
X133850000Y-150540000D02*
X132850000Y-150540000D01*
X132850000Y-149180000D02*
X133850000Y-149180000D01*
X156710000Y-132125000D02*
X155710000Y-132125000D01*
X155710000Y-130765000D02*
X156710000Y-130765000D01*
X126230000Y-135300000D02*
X125230000Y-135300000D01*
X125230000Y-133940000D02*
X126230000Y-133940000D01*
X167050000Y-143010000D02*
X167050000Y-144010000D01*
X165690000Y-144010000D02*
X165690000Y-143010000D01*
X165690000Y-136390000D02*
X165690000Y-135390000D01*
X167050000Y-135390000D02*
X167050000Y-136390000D01*
X157435000Y-143375000D02*
X157435000Y-142375000D01*
X158795000Y-142375000D02*
X158795000Y-143375000D01*
X161970000Y-142375000D02*
X161970000Y-143375000D01*
X160610000Y-143375000D02*
X160610000Y-142375000D01*
X152990000Y-143375000D02*
X152990000Y-142375000D01*
X154350000Y-142375000D02*
X154350000Y-143375000D01*
X130855000Y-142375000D02*
X130855000Y-143375000D01*
X129495000Y-143375000D02*
X129495000Y-142375000D01*
X128315000Y-142375000D02*
X128315000Y-143375000D01*
X126955000Y-143375000D02*
X126955000Y-142375000D01*
X125050000Y-143375000D02*
X125050000Y-142375000D01*
X126410000Y-142375000D02*
X126410000Y-143375000D01*
X135467600Y-131009200D02*
X133467600Y-131009200D01*
X133467600Y-133049200D02*
X135467600Y-133049200D01*
X141240000Y-133049200D02*
X143240000Y-133049200D01*
X143240000Y-131009200D02*
X141240000Y-131009200D01*
X173101000Y-132588000D02*
X173101000Y-131572000D01*
X174520000Y-132630000D02*
X174520000Y-131530000D01*
X174520000Y-131530000D02*
X171920000Y-131530000D01*
X174520000Y-132630000D02*
X171920000Y-132630000D01*
X174520000Y-135618000D02*
X169820000Y-135618000D01*
X169820000Y-135618000D02*
X169820000Y-143718000D01*
X169820000Y-143718000D02*
X174520000Y-143718000D01*
X174520000Y-143718000D02*
X174520000Y-135618000D01*
X174520000Y-138168000D02*
X173920000Y-138168000D01*
X173920000Y-138168000D02*
X173920000Y-136218000D01*
X173920000Y-136218000D02*
X170420000Y-136218000D01*
X170420000Y-136218000D02*
X170420000Y-143118000D01*
X170420000Y-143118000D02*
X173920000Y-143118000D01*
X173920000Y-143118000D02*
X173920000Y-141168000D01*
X173920000Y-141168000D02*
X174520000Y-141168000D01*
X173220000Y-135618000D02*
X173220000Y-136218000D01*
X171920000Y-135618000D02*
X171920000Y-136218000D01*
X173220000Y-143718000D02*
X173220000Y-143118000D01*
X171920000Y-143718000D02*
X171920000Y-143118000D01*
X174520000Y-137368000D02*
X174720000Y-137368000D01*
X174720000Y-137368000D02*
X174720000Y-137068000D01*
X174720000Y-137068000D02*
X174520000Y-137068000D01*
X174620000Y-137368000D02*
X174620000Y-137068000D01*
X170420000Y-138568000D02*
X170920000Y-138568000D01*
X170920000Y-138568000D02*
X170920000Y-138768000D01*
X170920000Y-138768000D02*
X170420000Y-138768000D01*
X170420000Y-138668000D02*
X170920000Y-138668000D01*
X170420000Y-140568000D02*
X170920000Y-140568000D01*
X170920000Y-140568000D02*
X170920000Y-140768000D01*
X170920000Y-140768000D02*
X170420000Y-140768000D01*
X170420000Y-140668000D02*
X170920000Y-140668000D01*
X174820000Y-136568000D02*
X174820000Y-135318000D01*
X174820000Y-135318000D02*
X173570000Y-135318000D01*
X115650000Y-132870000D02*
X106850000Y-132870000D01*
X106850000Y-132870000D02*
X106850000Y-123670000D01*
X121550000Y-130170000D02*
X121550000Y-132870000D01*
X121550000Y-132870000D02*
X119650000Y-132870000D01*
X106850000Y-123670000D02*
X121550000Y-123670000D01*
X121550000Y-123670000D02*
X121550000Y-126270000D01*
D13*
X172157572Y-146394714D02*
X172157572Y-145632714D01*
X172339000Y-145632714D01*
X172447857Y-145669000D01*
X172520429Y-145741571D01*
X172556714Y-145814143D01*
X172593000Y-145959286D01*
X172593000Y-146068143D01*
X172556714Y-146213286D01*
X172520429Y-146285857D01*
X172447857Y-146358429D01*
X172339000Y-146394714D01*
X172157572Y-146394714D01*
X173282429Y-145632714D02*
X172919572Y-145632714D01*
X172883286Y-145995571D01*
X172919572Y-145959286D01*
X172992143Y-145923000D01*
X173173572Y-145923000D01*
X173246143Y-145959286D01*
X173282429Y-145995571D01*
X173318714Y-146068143D01*
X173318714Y-146249571D01*
X173282429Y-146322143D01*
X173246143Y-146358429D01*
X173173572Y-146394714D01*
X172992143Y-146394714D01*
X172919572Y-146358429D01*
X172883286Y-146322143D01*
X149098001Y-140044714D02*
X148735144Y-140044714D01*
X148735144Y-139282714D01*
X149751143Y-140044714D02*
X149315715Y-140044714D01*
X149533429Y-140044714D02*
X149533429Y-139282714D01*
X149460858Y-139391571D01*
X149388286Y-139464143D01*
X149315715Y-139500429D01*
X137214429Y-138012714D02*
X137214429Y-138629571D01*
X137250714Y-138702143D01*
X137287000Y-138738429D01*
X137359571Y-138774714D01*
X137504714Y-138774714D01*
X137577286Y-138738429D01*
X137613571Y-138702143D01*
X137649857Y-138629571D01*
X137649857Y-138012714D01*
X137976429Y-138085286D02*
X138012715Y-138049000D01*
X138085286Y-138012714D01*
X138266715Y-138012714D01*
X138339286Y-138049000D01*
X138375572Y-138085286D01*
X138411857Y-138157857D01*
X138411857Y-138230429D01*
X138375572Y-138339286D01*
X137940143Y-138774714D01*
X138411857Y-138774714D01*
X131953000Y-145687143D02*
X131916714Y-145723429D01*
X131807857Y-145759714D01*
X131735286Y-145759714D01*
X131626429Y-145723429D01*
X131553857Y-145650857D01*
X131517572Y-145578286D01*
X131481286Y-145433143D01*
X131481286Y-145324286D01*
X131517572Y-145179143D01*
X131553857Y-145106571D01*
X131626429Y-145034000D01*
X131735286Y-144997714D01*
X131807857Y-144997714D01*
X131916714Y-145034000D01*
X131953000Y-145070286D01*
X132207000Y-144997714D02*
X132678714Y-144997714D01*
X132424714Y-145288000D01*
X132533572Y-145288000D01*
X132606143Y-145324286D01*
X132642429Y-145360571D01*
X132678714Y-145433143D01*
X132678714Y-145614571D01*
X132642429Y-145687143D01*
X132606143Y-145723429D01*
X132533572Y-145759714D01*
X132315857Y-145759714D01*
X132243286Y-145723429D01*
X132207000Y-145687143D01*
X132588000Y-139337143D02*
X132551714Y-139373429D01*
X132442857Y-139409714D01*
X132370286Y-139409714D01*
X132261429Y-139373429D01*
X132188857Y-139300857D01*
X132152572Y-139228286D01*
X132116286Y-139083143D01*
X132116286Y-138974286D01*
X132152572Y-138829143D01*
X132188857Y-138756571D01*
X132261429Y-138684000D01*
X132370286Y-138647714D01*
X132442857Y-138647714D01*
X132551714Y-138684000D01*
X132588000Y-138720286D01*
X133241143Y-138901714D02*
X133241143Y-139409714D01*
X133059714Y-138611429D02*
X132878286Y-139155714D01*
X133350000Y-139155714D01*
X150368000Y-145687143D02*
X150331714Y-145723429D01*
X150222857Y-145759714D01*
X150150286Y-145759714D01*
X150041429Y-145723429D01*
X149968857Y-145650857D01*
X149932572Y-145578286D01*
X149896286Y-145433143D01*
X149896286Y-145324286D01*
X149932572Y-145179143D01*
X149968857Y-145106571D01*
X150041429Y-145034000D01*
X150150286Y-144997714D01*
X150222857Y-144997714D01*
X150331714Y-145034000D01*
X150368000Y-145070286D01*
X151057429Y-144997714D02*
X150694572Y-144997714D01*
X150658286Y-145360571D01*
X150694572Y-145324286D01*
X150767143Y-145288000D01*
X150948572Y-145288000D01*
X151021143Y-145324286D01*
X151057429Y-145360571D01*
X151093714Y-145433143D01*
X151093714Y-145614571D01*
X151057429Y-145687143D01*
X151021143Y-145723429D01*
X150948572Y-145759714D01*
X150767143Y-145759714D01*
X150694572Y-145723429D01*
X150658286Y-145687143D01*
X147193000Y-145687143D02*
X147156714Y-145723429D01*
X147047857Y-145759714D01*
X146975286Y-145759714D01*
X146866429Y-145723429D01*
X146793857Y-145650857D01*
X146757572Y-145578286D01*
X146721286Y-145433143D01*
X146721286Y-145324286D01*
X146757572Y-145179143D01*
X146793857Y-145106571D01*
X146866429Y-145034000D01*
X146975286Y-144997714D01*
X147047857Y-144997714D01*
X147156714Y-145034000D01*
X147193000Y-145070286D01*
X147846143Y-144997714D02*
X147701000Y-144997714D01*
X147628429Y-145034000D01*
X147592143Y-145070286D01*
X147519572Y-145179143D01*
X147483286Y-145324286D01*
X147483286Y-145614571D01*
X147519572Y-145687143D01*
X147555857Y-145723429D01*
X147628429Y-145759714D01*
X147773572Y-145759714D01*
X147846143Y-145723429D01*
X147882429Y-145687143D01*
X147918714Y-145614571D01*
X147918714Y-145433143D01*
X147882429Y-145360571D01*
X147846143Y-145324286D01*
X147773572Y-145288000D01*
X147628429Y-145288000D01*
X147555857Y-145324286D01*
X147519572Y-145360571D01*
X147483286Y-145433143D01*
X151003000Y-154577143D02*
X150966714Y-154613429D01*
X150857857Y-154649714D01*
X150785286Y-154649714D01*
X150676429Y-154613429D01*
X150603857Y-154540857D01*
X150567572Y-154468286D01*
X150531286Y-154323143D01*
X150531286Y-154214286D01*
X150567572Y-154069143D01*
X150603857Y-153996571D01*
X150676429Y-153924000D01*
X150785286Y-153887714D01*
X150857857Y-153887714D01*
X150966714Y-153924000D01*
X151003000Y-153960286D01*
X151257000Y-153887714D02*
X151765000Y-153887714D01*
X151438429Y-154649714D01*
X154813000Y-152672143D02*
X154776714Y-152708429D01*
X154667857Y-152744714D01*
X154595286Y-152744714D01*
X154486429Y-152708429D01*
X154413857Y-152635857D01*
X154377572Y-152563286D01*
X154341286Y-152418143D01*
X154341286Y-152309286D01*
X154377572Y-152164143D01*
X154413857Y-152091571D01*
X154486429Y-152019000D01*
X154595286Y-151982714D01*
X154667857Y-151982714D01*
X154776714Y-152019000D01*
X154813000Y-152055286D01*
X155248429Y-152309286D02*
X155175857Y-152273000D01*
X155139572Y-152236714D01*
X155103286Y-152164143D01*
X155103286Y-152127857D01*
X155139572Y-152055286D01*
X155175857Y-152019000D01*
X155248429Y-151982714D01*
X155393572Y-151982714D01*
X155466143Y-152019000D01*
X155502429Y-152055286D01*
X155538714Y-152127857D01*
X155538714Y-152164143D01*
X155502429Y-152236714D01*
X155466143Y-152273000D01*
X155393572Y-152309286D01*
X155248429Y-152309286D01*
X155175857Y-152345571D01*
X155139572Y-152381857D01*
X155103286Y-152454429D01*
X155103286Y-152599571D01*
X155139572Y-152672143D01*
X155175857Y-152708429D01*
X155248429Y-152744714D01*
X155393572Y-152744714D01*
X155466143Y-152708429D01*
X155502429Y-152672143D01*
X155538714Y-152599571D01*
X155538714Y-152454429D01*
X155502429Y-152381857D01*
X155466143Y-152345571D01*
X155393572Y-152309286D01*
X154799048Y-147306429D02*
X155560953Y-147306429D01*
X155180001Y-147687381D02*
X155180001Y-146925476D01*
X114046001Y-136742714D02*
X114046001Y-137287000D01*
X114009715Y-137395857D01*
X113937144Y-137468429D01*
X113828287Y-137504714D01*
X113755715Y-137504714D01*
X114372572Y-136815286D02*
X114408858Y-136779000D01*
X114481429Y-136742714D01*
X114662858Y-136742714D01*
X114735429Y-136779000D01*
X114771715Y-136815286D01*
X114808000Y-136887857D01*
X114808000Y-136960429D01*
X114771715Y-137069286D01*
X114336286Y-137504714D01*
X114808000Y-137504714D01*
X136906001Y-126582714D02*
X136906001Y-127127000D01*
X136869715Y-127235857D01*
X136797144Y-127308429D01*
X136688287Y-127344714D01*
X136615715Y-127344714D01*
X137196286Y-126582714D02*
X137668000Y-126582714D01*
X137414000Y-126873000D01*
X137522858Y-126873000D01*
X137595429Y-126909286D01*
X137631715Y-126945571D01*
X137668000Y-127018143D01*
X137668000Y-127199571D01*
X137631715Y-127272143D01*
X137595429Y-127308429D01*
X137522858Y-127344714D01*
X137305143Y-127344714D01*
X137232572Y-127308429D01*
X137196286Y-127272143D01*
X119126001Y-144362714D02*
X119126001Y-144907000D01*
X119089715Y-145015857D01*
X119017144Y-145088429D01*
X118908287Y-145124714D01*
X118835715Y-145124714D01*
X119815429Y-144616714D02*
X119815429Y-145124714D01*
X119634000Y-144326429D02*
X119452572Y-144870714D01*
X119924286Y-144870714D01*
X114046001Y-146902714D02*
X114046001Y-147447000D01*
X114009715Y-147555857D01*
X113937144Y-147628429D01*
X113828287Y-147664714D01*
X113755715Y-147664714D01*
X114771715Y-146902714D02*
X114408858Y-146902714D01*
X114372572Y-147265571D01*
X114408858Y-147229286D01*
X114481429Y-147193000D01*
X114662858Y-147193000D01*
X114735429Y-147229286D01*
X114771715Y-147265571D01*
X114808000Y-147338143D01*
X114808000Y-147519571D01*
X114771715Y-147592143D01*
X114735429Y-147628429D01*
X114662858Y-147664714D01*
X114481429Y-147664714D01*
X114408858Y-147628429D01*
X114372572Y-147592143D01*
X172466001Y-124042714D02*
X172466001Y-124587000D01*
X172429715Y-124695857D01*
X172357144Y-124768429D01*
X172248287Y-124804714D01*
X172175715Y-124804714D01*
X173155429Y-124042714D02*
X173010286Y-124042714D01*
X172937715Y-124079000D01*
X172901429Y-124115286D01*
X172828858Y-124224143D01*
X172792572Y-124369286D01*
X172792572Y-124659571D01*
X172828858Y-124732143D01*
X172865143Y-124768429D01*
X172937715Y-124804714D01*
X173082858Y-124804714D01*
X173155429Y-124768429D01*
X173191715Y-124732143D01*
X173228000Y-124659571D01*
X173228000Y-124478143D01*
X173191715Y-124405571D01*
X173155429Y-124369286D01*
X173082858Y-124333000D01*
X172937715Y-124333000D01*
X172865143Y-124369286D01*
X172828858Y-124405571D01*
X172792572Y-124478143D01*
X172466001Y-154522714D02*
X172466001Y-155067000D01*
X172429715Y-155175857D01*
X172357144Y-155248429D01*
X172248287Y-155284714D01*
X172175715Y-155284714D01*
X172937715Y-154849286D02*
X172865143Y-154813000D01*
X172828858Y-154776714D01*
X172792572Y-154704143D01*
X172792572Y-154667857D01*
X172828858Y-154595286D01*
X172865143Y-154559000D01*
X172937715Y-154522714D01*
X173082858Y-154522714D01*
X173155429Y-154559000D01*
X173191715Y-154595286D01*
X173228000Y-154667857D01*
X173228000Y-154704143D01*
X173191715Y-154776714D01*
X173155429Y-154813000D01*
X173082858Y-154849286D01*
X172937715Y-154849286D01*
X172865143Y-154885571D01*
X172828858Y-154921857D01*
X172792572Y-154994429D01*
X172792572Y-155139571D01*
X172828858Y-155212143D01*
X172865143Y-155248429D01*
X172937715Y-155284714D01*
X173082858Y-155284714D01*
X173155429Y-155248429D01*
X173191715Y-155212143D01*
X173228000Y-155139571D01*
X173228000Y-154994429D01*
X173191715Y-154921857D01*
X173155429Y-154885571D01*
X173082858Y-154849286D01*
X154359429Y-127943429D02*
X154468286Y-127979714D01*
X154649715Y-127979714D01*
X154722286Y-127943429D01*
X154758572Y-127907143D01*
X154794857Y-127834571D01*
X154794857Y-127762000D01*
X154758572Y-127689429D01*
X154722286Y-127653143D01*
X154649715Y-127616857D01*
X154504572Y-127580571D01*
X154432000Y-127544286D01*
X154395715Y-127508000D01*
X154359429Y-127435429D01*
X154359429Y-127362857D01*
X154395715Y-127290286D01*
X154432000Y-127254000D01*
X154504572Y-127217714D01*
X154686000Y-127217714D01*
X154794857Y-127254000D01*
X155520571Y-127979714D02*
X155085143Y-127979714D01*
X155302857Y-127979714D02*
X155302857Y-127217714D01*
X155230286Y-127326571D01*
X155157714Y-127399143D01*
X155085143Y-127435429D01*
X131318095Y-124547381D02*
X131889524Y-124547381D01*
X131603809Y-125547381D02*
X131603809Y-124547381D01*
X132746667Y-125547381D02*
X132175238Y-125547381D01*
X132460952Y-125547381D02*
X132460952Y-124547381D01*
X132365714Y-124690238D01*
X132270476Y-124785476D01*
X132175238Y-124833095D01*
X133858095Y-124547381D02*
X134429524Y-124547381D01*
X134143809Y-125547381D02*
X134143809Y-124547381D01*
X134715238Y-124642619D02*
X134762857Y-124595000D01*
X134858095Y-124547381D01*
X135096191Y-124547381D01*
X135191429Y-124595000D01*
X135239048Y-124642619D01*
X135286667Y-124737857D01*
X135286667Y-124833095D01*
X135239048Y-124975952D01*
X134667619Y-125547381D01*
X135286667Y-125547381D01*
X156718095Y-124547381D02*
X157289524Y-124547381D01*
X157003809Y-125547381D02*
X157003809Y-124547381D01*
X157527619Y-124547381D02*
X158146667Y-124547381D01*
X157813333Y-124928333D01*
X157956191Y-124928333D01*
X158051429Y-124975952D01*
X158099048Y-125023571D01*
X158146667Y-125118810D01*
X158146667Y-125356905D01*
X158099048Y-125452143D01*
X158051429Y-125499762D01*
X157956191Y-125547381D01*
X157670476Y-125547381D01*
X157575238Y-125499762D01*
X157527619Y-125452143D01*
X159258095Y-124547381D02*
X159829524Y-124547381D01*
X159543809Y-125547381D02*
X159543809Y-124547381D01*
X160591429Y-124880714D02*
X160591429Y-125547381D01*
X160353333Y-124499762D02*
X160115238Y-125214048D01*
X160734286Y-125214048D01*
X131318095Y-153757381D02*
X131889524Y-153757381D01*
X131603809Y-154757381D02*
X131603809Y-153757381D01*
X132699048Y-153757381D02*
X132222857Y-153757381D01*
X132175238Y-154233571D01*
X132222857Y-154185952D01*
X132318095Y-154138333D01*
X132556191Y-154138333D01*
X132651429Y-154185952D01*
X132699048Y-154233571D01*
X132746667Y-154328810D01*
X132746667Y-154566905D01*
X132699048Y-154662143D01*
X132651429Y-154709762D01*
X132556191Y-154757381D01*
X132318095Y-154757381D01*
X132222857Y-154709762D01*
X132175238Y-154662143D01*
X133858095Y-153757381D02*
X134429524Y-153757381D01*
X134143809Y-154757381D02*
X134143809Y-153757381D01*
X135191429Y-153757381D02*
X135000952Y-153757381D01*
X134905714Y-153805000D01*
X134858095Y-153852619D01*
X134762857Y-153995476D01*
X134715238Y-154185952D01*
X134715238Y-154566905D01*
X134762857Y-154662143D01*
X134810476Y-154709762D01*
X134905714Y-154757381D01*
X135096191Y-154757381D01*
X135191429Y-154709762D01*
X135239048Y-154662143D01*
X135286667Y-154566905D01*
X135286667Y-154328810D01*
X135239048Y-154233571D01*
X135191429Y-154185952D01*
X135096191Y-154138333D01*
X134905714Y-154138333D01*
X134810476Y-154185952D01*
X134762857Y-154233571D01*
X134715238Y-154328810D01*
X156718095Y-153757381D02*
X157289524Y-153757381D01*
X157003809Y-154757381D02*
X157003809Y-153757381D01*
X157527619Y-153757381D02*
X158194286Y-153757381D01*
X157765714Y-154757381D01*
X159258095Y-153757381D02*
X159829524Y-153757381D01*
X159543809Y-154757381D02*
X159543809Y-153757381D01*
X160305714Y-154185952D02*
X160210476Y-154138333D01*
X160162857Y-154090714D01*
X160115238Y-153995476D01*
X160115238Y-153947857D01*
X160162857Y-153852619D01*
X160210476Y-153805000D01*
X160305714Y-153757381D01*
X160496191Y-153757381D01*
X160591429Y-153805000D01*
X160639048Y-153852619D01*
X160686667Y-153947857D01*
X160686667Y-153995476D01*
X160639048Y-154090714D01*
X160591429Y-154138333D01*
X160496191Y-154185952D01*
X160305714Y-154185952D01*
X160210476Y-154233571D01*
X160162857Y-154281190D01*
X160115238Y-154376429D01*
X160115238Y-154566905D01*
X160162857Y-154662143D01*
X160210476Y-154709762D01*
X160305714Y-154757381D01*
X160496191Y-154757381D01*
X160591429Y-154709762D01*
X160639048Y-154662143D01*
X160686667Y-154566905D01*
X160686667Y-154376429D01*
X160639048Y-154281190D01*
X160591429Y-154233571D01*
X160496191Y-154185952D01*
X156718095Y-134707381D02*
X157289524Y-134707381D01*
X157003809Y-135707381D02*
X157003809Y-134707381D01*
X157670476Y-135707381D02*
X157860952Y-135707381D01*
X157956191Y-135659762D01*
X158003810Y-135612143D01*
X158099048Y-135469286D01*
X158146667Y-135278810D01*
X158146667Y-134897857D01*
X158099048Y-134802619D01*
X158051429Y-134755000D01*
X157956191Y-134707381D01*
X157765714Y-134707381D01*
X157670476Y-134755000D01*
X157622857Y-134802619D01*
X157575238Y-134897857D01*
X157575238Y-135135952D01*
X157622857Y-135231190D01*
X157670476Y-135278810D01*
X157765714Y-135326429D01*
X157956191Y-135326429D01*
X158051429Y-135278810D01*
X158099048Y-135231190D01*
X158146667Y-135135952D01*
X146739429Y-154522714D02*
X146739429Y-155139571D01*
X146775714Y-155212143D01*
X146812000Y-155248429D01*
X146884571Y-155284714D01*
X147029714Y-155284714D01*
X147102286Y-155248429D01*
X147138571Y-155212143D01*
X147174857Y-155139571D01*
X147174857Y-154522714D01*
X147936857Y-155284714D02*
X147501429Y-155284714D01*
X147719143Y-155284714D02*
X147719143Y-154522714D01*
X147646572Y-154631571D01*
X147574000Y-154704143D01*
X147501429Y-154740429D01*
X158781905Y-134707381D02*
X159353334Y-134707381D01*
X159067619Y-135707381D02*
X159067619Y-134707381D01*
X160210477Y-135707381D02*
X159639048Y-135707381D01*
X159924762Y-135707381D02*
X159924762Y-134707381D01*
X159829524Y-134850238D01*
X159734286Y-134945476D01*
X159639048Y-134993095D01*
X160829524Y-134707381D02*
X160924763Y-134707381D01*
X161020001Y-134755000D01*
X161067620Y-134802619D01*
X161115239Y-134897857D01*
X161162858Y-135088333D01*
X161162858Y-135326429D01*
X161115239Y-135516905D01*
X161067620Y-135612143D01*
X161020001Y-135659762D01*
X160924763Y-135707381D01*
X160829524Y-135707381D01*
X160734286Y-135659762D01*
X160686667Y-135612143D01*
X160639048Y-135516905D01*
X160591429Y-135326429D01*
X160591429Y-135088333D01*
X160639048Y-134897857D01*
X160686667Y-134802619D01*
X160734286Y-134755000D01*
X160829524Y-134707381D01*
X165766905Y-124547381D02*
X166338334Y-124547381D01*
X166052619Y-125547381D02*
X166052619Y-124547381D01*
X167195477Y-125547381D02*
X166624048Y-125547381D01*
X166909762Y-125547381D02*
X166909762Y-124547381D01*
X166814524Y-124690238D01*
X166719286Y-124785476D01*
X166624048Y-124833095D01*
X168147858Y-125547381D02*
X167576429Y-125547381D01*
X167862143Y-125547381D02*
X167862143Y-124547381D01*
X167766905Y-124690238D01*
X167671667Y-124785476D01*
X167576429Y-124833095D01*
X143582572Y-134329714D02*
X143582572Y-133567714D01*
X143764000Y-133567714D01*
X143872857Y-133604000D01*
X143945429Y-133676571D01*
X143981714Y-133749143D01*
X144018000Y-133894286D01*
X144018000Y-134003143D01*
X143981714Y-134148286D01*
X143945429Y-134220857D01*
X143872857Y-134293429D01*
X143764000Y-134329714D01*
X143582572Y-134329714D01*
X144308286Y-133640286D02*
X144344572Y-133604000D01*
X144417143Y-133567714D01*
X144598572Y-133567714D01*
X144671143Y-133604000D01*
X144707429Y-133640286D01*
X144743714Y-133712857D01*
X144743714Y-133785429D01*
X144707429Y-133894286D01*
X144272000Y-134329714D01*
X144743714Y-134329714D01*
X128342572Y-135599714D02*
X128342572Y-134837714D01*
X128524000Y-134837714D01*
X128632857Y-134874000D01*
X128705429Y-134946571D01*
X128741714Y-135019143D01*
X128778000Y-135164286D01*
X128778000Y-135273143D01*
X128741714Y-135418286D01*
X128705429Y-135490857D01*
X128632857Y-135563429D01*
X128524000Y-135599714D01*
X128342572Y-135599714D01*
X129503714Y-135599714D02*
X129068286Y-135599714D01*
X129286000Y-135599714D02*
X129286000Y-134837714D01*
X129213429Y-134946571D01*
X129140857Y-135019143D01*
X129068286Y-135055429D01*
X137232572Y-154014714D02*
X137232572Y-153252714D01*
X137414000Y-153252714D01*
X137522857Y-153289000D01*
X137595429Y-153361571D01*
X137631714Y-153434143D01*
X137668000Y-153579286D01*
X137668000Y-153688143D01*
X137631714Y-153833286D01*
X137595429Y-153905857D01*
X137522857Y-153978429D01*
X137414000Y-154014714D01*
X137232572Y-154014714D01*
X137922000Y-153252714D02*
X138393714Y-153252714D01*
X138139714Y-153543000D01*
X138248572Y-153543000D01*
X138321143Y-153579286D01*
X138357429Y-153615571D01*
X138393714Y-153688143D01*
X138393714Y-153869571D01*
X138357429Y-153942143D01*
X138321143Y-153978429D01*
X138248572Y-154014714D01*
X138030857Y-154014714D01*
X137958286Y-153978429D01*
X137922000Y-153942143D01*
X158260143Y-148754714D02*
X158006143Y-148391857D01*
X157824715Y-148754714D02*
X157824715Y-147992714D01*
X158115000Y-147992714D01*
X158187572Y-148029000D01*
X158223857Y-148065286D01*
X158260143Y-148137857D01*
X158260143Y-148246714D01*
X158223857Y-148319286D01*
X158187572Y-148355571D01*
X158115000Y-148391857D01*
X157824715Y-148391857D01*
X158985857Y-148754714D02*
X158550429Y-148754714D01*
X158768143Y-148754714D02*
X158768143Y-147992714D01*
X158695572Y-148101571D01*
X158623000Y-148174143D01*
X158550429Y-148210429D01*
X159276143Y-148065286D02*
X159312429Y-148029000D01*
X159385000Y-147992714D01*
X159566429Y-147992714D01*
X159639000Y-148029000D01*
X159675286Y-148065286D01*
X159711571Y-148137857D01*
X159711571Y-148210429D01*
X159675286Y-148319286D01*
X159239857Y-148754714D01*
X159711571Y-148754714D01*
X132860143Y-148754714D02*
X132606143Y-148391857D01*
X132424715Y-148754714D02*
X132424715Y-147992714D01*
X132715000Y-147992714D01*
X132787572Y-148029000D01*
X132823857Y-148065286D01*
X132860143Y-148137857D01*
X132860143Y-148246714D01*
X132823857Y-148319286D01*
X132787572Y-148355571D01*
X132715000Y-148391857D01*
X132424715Y-148391857D01*
X133585857Y-148754714D02*
X133150429Y-148754714D01*
X133368143Y-148754714D02*
X133368143Y-147992714D01*
X133295572Y-148101571D01*
X133223000Y-148174143D01*
X133150429Y-148210429D01*
X134311571Y-148754714D02*
X133876143Y-148754714D01*
X134093857Y-148754714D02*
X134093857Y-147992714D01*
X134021286Y-148101571D01*
X133948714Y-148174143D01*
X133876143Y-148210429D01*
X155720143Y-130519714D02*
X155466143Y-130156857D01*
X155284715Y-130519714D02*
X155284715Y-129757714D01*
X155575000Y-129757714D01*
X155647572Y-129794000D01*
X155683857Y-129830286D01*
X155720143Y-129902857D01*
X155720143Y-130011714D01*
X155683857Y-130084286D01*
X155647572Y-130120571D01*
X155575000Y-130156857D01*
X155284715Y-130156857D01*
X156445857Y-130519714D02*
X156010429Y-130519714D01*
X156228143Y-130519714D02*
X156228143Y-129757714D01*
X156155572Y-129866571D01*
X156083000Y-129939143D01*
X156010429Y-129975429D01*
X156917571Y-129757714D02*
X156990143Y-129757714D01*
X157062714Y-129794000D01*
X157099000Y-129830286D01*
X157135286Y-129902857D01*
X157171571Y-130048000D01*
X157171571Y-130229429D01*
X157135286Y-130374571D01*
X157099000Y-130447143D01*
X157062714Y-130483429D01*
X156990143Y-130519714D01*
X156917571Y-130519714D01*
X156845000Y-130483429D01*
X156808714Y-130447143D01*
X156772429Y-130374571D01*
X156736143Y-130229429D01*
X156736143Y-130048000D01*
X156772429Y-129902857D01*
X156808714Y-129830286D01*
X156845000Y-129794000D01*
X156917571Y-129757714D01*
X125603000Y-133694714D02*
X125349000Y-133331857D01*
X125167572Y-133694714D02*
X125167572Y-132932714D01*
X125457857Y-132932714D01*
X125530429Y-132969000D01*
X125566714Y-133005286D01*
X125603000Y-133077857D01*
X125603000Y-133186714D01*
X125566714Y-133259286D01*
X125530429Y-133295571D01*
X125457857Y-133331857D01*
X125167572Y-133331857D01*
X125965857Y-133694714D02*
X126111000Y-133694714D01*
X126183572Y-133658429D01*
X126219857Y-133622143D01*
X126292429Y-133513286D01*
X126328714Y-133368143D01*
X126328714Y-133077857D01*
X126292429Y-133005286D01*
X126256143Y-132969000D01*
X126183572Y-132932714D01*
X126038429Y-132932714D01*
X125965857Y-132969000D01*
X125929572Y-133005286D01*
X125893286Y-133077857D01*
X125893286Y-133259286D01*
X125929572Y-133331857D01*
X125965857Y-133368143D01*
X126038429Y-133404429D01*
X126183572Y-133404429D01*
X126256143Y-133368143D01*
X126292429Y-133331857D01*
X126328714Y-133259286D01*
X166243000Y-146394714D02*
X165989000Y-146031857D01*
X165807572Y-146394714D02*
X165807572Y-145632714D01*
X166097857Y-145632714D01*
X166170429Y-145669000D01*
X166206714Y-145705286D01*
X166243000Y-145777857D01*
X166243000Y-145886714D01*
X166206714Y-145959286D01*
X166170429Y-145995571D01*
X166097857Y-146031857D01*
X165807572Y-146031857D01*
X166678429Y-145959286D02*
X166605857Y-145923000D01*
X166569572Y-145886714D01*
X166533286Y-145814143D01*
X166533286Y-145777857D01*
X166569572Y-145705286D01*
X166605857Y-145669000D01*
X166678429Y-145632714D01*
X166823572Y-145632714D01*
X166896143Y-145669000D01*
X166932429Y-145705286D01*
X166968714Y-145777857D01*
X166968714Y-145814143D01*
X166932429Y-145886714D01*
X166896143Y-145923000D01*
X166823572Y-145959286D01*
X166678429Y-145959286D01*
X166605857Y-145995571D01*
X166569572Y-146031857D01*
X166533286Y-146104429D01*
X166533286Y-146249571D01*
X166569572Y-146322143D01*
X166605857Y-146358429D01*
X166678429Y-146394714D01*
X166823572Y-146394714D01*
X166896143Y-146358429D01*
X166932429Y-146322143D01*
X166968714Y-146249571D01*
X166968714Y-146104429D01*
X166932429Y-146031857D01*
X166896143Y-145995571D01*
X166823572Y-145959286D01*
X166243000Y-138774714D02*
X165989000Y-138411857D01*
X165807572Y-138774714D02*
X165807572Y-138012714D01*
X166097857Y-138012714D01*
X166170429Y-138049000D01*
X166206714Y-138085286D01*
X166243000Y-138157857D01*
X166243000Y-138266714D01*
X166206714Y-138339286D01*
X166170429Y-138375571D01*
X166097857Y-138411857D01*
X165807572Y-138411857D01*
X166497000Y-138012714D02*
X167005000Y-138012714D01*
X166678429Y-138774714D01*
X157988000Y-145759714D02*
X157734000Y-145396857D01*
X157552572Y-145759714D02*
X157552572Y-144997714D01*
X157842857Y-144997714D01*
X157915429Y-145034000D01*
X157951714Y-145070286D01*
X157988000Y-145142857D01*
X157988000Y-145251714D01*
X157951714Y-145324286D01*
X157915429Y-145360571D01*
X157842857Y-145396857D01*
X157552572Y-145396857D01*
X158641143Y-144997714D02*
X158496000Y-144997714D01*
X158423429Y-145034000D01*
X158387143Y-145070286D01*
X158314572Y-145179143D01*
X158278286Y-145324286D01*
X158278286Y-145614571D01*
X158314572Y-145687143D01*
X158350857Y-145723429D01*
X158423429Y-145759714D01*
X158568572Y-145759714D01*
X158641143Y-145723429D01*
X158677429Y-145687143D01*
X158713714Y-145614571D01*
X158713714Y-145433143D01*
X158677429Y-145360571D01*
X158641143Y-145324286D01*
X158568572Y-145288000D01*
X158423429Y-145288000D01*
X158350857Y-145324286D01*
X158314572Y-145360571D01*
X158278286Y-145433143D01*
X161163000Y-145759714D02*
X160909000Y-145396857D01*
X160727572Y-145759714D02*
X160727572Y-144997714D01*
X161017857Y-144997714D01*
X161090429Y-145034000D01*
X161126714Y-145070286D01*
X161163000Y-145142857D01*
X161163000Y-145251714D01*
X161126714Y-145324286D01*
X161090429Y-145360571D01*
X161017857Y-145396857D01*
X160727572Y-145396857D01*
X161852429Y-144997714D02*
X161489572Y-144997714D01*
X161453286Y-145360571D01*
X161489572Y-145324286D01*
X161562143Y-145288000D01*
X161743572Y-145288000D01*
X161816143Y-145324286D01*
X161852429Y-145360571D01*
X161888714Y-145433143D01*
X161888714Y-145614571D01*
X161852429Y-145687143D01*
X161816143Y-145723429D01*
X161743572Y-145759714D01*
X161562143Y-145759714D01*
X161489572Y-145723429D01*
X161453286Y-145687143D01*
X153543000Y-145759714D02*
X153289000Y-145396857D01*
X153107572Y-145759714D02*
X153107572Y-144997714D01*
X153397857Y-144997714D01*
X153470429Y-145034000D01*
X153506714Y-145070286D01*
X153543000Y-145142857D01*
X153543000Y-145251714D01*
X153506714Y-145324286D01*
X153470429Y-145360571D01*
X153397857Y-145396857D01*
X153107572Y-145396857D01*
X154196143Y-145251714D02*
X154196143Y-145759714D01*
X154014714Y-144961429D02*
X153833286Y-145505714D01*
X154305000Y-145505714D01*
X130048000Y-145759714D02*
X129794000Y-145396857D01*
X129612572Y-145759714D02*
X129612572Y-144997714D01*
X129902857Y-144997714D01*
X129975429Y-145034000D01*
X130011714Y-145070286D01*
X130048000Y-145142857D01*
X130048000Y-145251714D01*
X130011714Y-145324286D01*
X129975429Y-145360571D01*
X129902857Y-145396857D01*
X129612572Y-145396857D01*
X130302000Y-144997714D02*
X130773714Y-144997714D01*
X130519714Y-145288000D01*
X130628572Y-145288000D01*
X130701143Y-145324286D01*
X130737429Y-145360571D01*
X130773714Y-145433143D01*
X130773714Y-145614571D01*
X130737429Y-145687143D01*
X130701143Y-145723429D01*
X130628572Y-145759714D01*
X130410857Y-145759714D01*
X130338286Y-145723429D01*
X130302000Y-145687143D01*
X127508000Y-145759714D02*
X127254000Y-145396857D01*
X127072572Y-145759714D02*
X127072572Y-144997714D01*
X127362857Y-144997714D01*
X127435429Y-145034000D01*
X127471714Y-145070286D01*
X127508000Y-145142857D01*
X127508000Y-145251714D01*
X127471714Y-145324286D01*
X127435429Y-145360571D01*
X127362857Y-145396857D01*
X127072572Y-145396857D01*
X127798286Y-145070286D02*
X127834572Y-145034000D01*
X127907143Y-144997714D01*
X128088572Y-144997714D01*
X128161143Y-145034000D01*
X128197429Y-145070286D01*
X128233714Y-145142857D01*
X128233714Y-145215429D01*
X128197429Y-145324286D01*
X127762000Y-145759714D01*
X128233714Y-145759714D01*
X125603000Y-145759714D02*
X125349000Y-145396857D01*
X125167572Y-145759714D02*
X125167572Y-144997714D01*
X125457857Y-144997714D01*
X125530429Y-145034000D01*
X125566714Y-145070286D01*
X125603000Y-145142857D01*
X125603000Y-145251714D01*
X125566714Y-145324286D01*
X125530429Y-145360571D01*
X125457857Y-145396857D01*
X125167572Y-145396857D01*
X126328714Y-145759714D02*
X125893286Y-145759714D01*
X126111000Y-145759714D02*
X126111000Y-144997714D01*
X126038429Y-145106571D01*
X125965857Y-145179143D01*
X125893286Y-145215429D01*
X134493000Y-130447143D02*
X134456714Y-130483429D01*
X134347857Y-130519714D01*
X134275286Y-130519714D01*
X134166429Y-130483429D01*
X134093857Y-130410857D01*
X134057572Y-130338286D01*
X134021286Y-130193143D01*
X134021286Y-130084286D01*
X134057572Y-129939143D01*
X134093857Y-129866571D01*
X134166429Y-129794000D01*
X134275286Y-129757714D01*
X134347857Y-129757714D01*
X134456714Y-129794000D01*
X134493000Y-129830286D01*
X135218714Y-130519714D02*
X134783286Y-130519714D01*
X135001000Y-130519714D02*
X135001000Y-129757714D01*
X134928429Y-129866571D01*
X134855857Y-129939143D01*
X134783286Y-129975429D01*
X142113000Y-130447143D02*
X142076714Y-130483429D01*
X141967857Y-130519714D01*
X141895286Y-130519714D01*
X141786429Y-130483429D01*
X141713857Y-130410857D01*
X141677572Y-130338286D01*
X141641286Y-130193143D01*
X141641286Y-130084286D01*
X141677572Y-129939143D01*
X141713857Y-129866571D01*
X141786429Y-129794000D01*
X141895286Y-129757714D01*
X141967857Y-129757714D01*
X142076714Y-129794000D01*
X142113000Y-129830286D01*
X142403286Y-129830286D02*
X142439572Y-129794000D01*
X142512143Y-129757714D01*
X142693572Y-129757714D01*
X142766143Y-129794000D01*
X142802429Y-129830286D01*
X142838714Y-129902857D01*
X142838714Y-129975429D01*
X142802429Y-130084286D01*
X142367000Y-130519714D01*
X142838714Y-130519714D01*
X172157572Y-133874714D02*
X172157572Y-133112714D01*
X172339000Y-133112714D01*
X172447857Y-133149000D01*
X172520429Y-133221571D01*
X172556714Y-133294143D01*
X172593000Y-133439286D01*
X172593000Y-133548143D01*
X172556714Y-133693286D01*
X172520429Y-133765857D01*
X172447857Y-133838429D01*
X172339000Y-133874714D01*
X172157572Y-133874714D01*
X173246143Y-133366714D02*
X173246143Y-133874714D01*
X173064714Y-133076429D02*
X172883286Y-133620714D01*
X173355000Y-133620714D01*
X169926001Y-134202714D02*
X169926001Y-134747000D01*
X169889715Y-134855857D01*
X169817144Y-134928429D01*
X169708287Y-134964714D01*
X169635715Y-134964714D01*
X170216286Y-134202714D02*
X170724286Y-134202714D01*
X170397715Y-134964714D01*
X122301001Y-124677714D02*
X122301001Y-125222000D01*
X122264715Y-125330857D01*
X122192144Y-125403429D01*
X122083287Y-125439714D01*
X122010715Y-125439714D01*
X123063000Y-125439714D02*
X122627572Y-125439714D01*
X122845286Y-125439714D02*
X122845286Y-124677714D01*
X122772715Y-124786571D01*
X122700143Y-124859143D01*
X122627572Y-124895429D01*
M02*
