M48
;DRILL file {KiCad 4.0.6} date 08/14/17 09:10:29
;FORMAT={-:-/ absolute / inch / decimal}
FMAT,2
INCH,TZ
T1C0.013
T2C0.030
T3C0.031
T4C0.039
T5C0.110
T6C0.130
T7C0.125
%
G90
G05
M72
T1
X4.6Y-5.6
X4.8Y-5.2
X4.8Y-5.4
X4.8Y-5.6
X5.Y-4.9
X5.Y-5.8
X5.Y-6.1
X5.075Y-5.55
X5.28Y-5.59
X5.35Y-5.3
X5.375Y-5.45
X5.375Y-5.7
X5.4Y-4.9
X5.4Y-5.8
X5.4Y-6.1
X5.425Y-5.7
X5.45Y-5.2
X5.475Y-5.525
X5.475Y-5.575
X5.475Y-5.625
X5.475Y-5.7
X5.525Y-5.525
X5.525Y-5.575
X5.525Y-5.625
X5.525Y-5.7
X5.575Y-5.7
X5.625Y-5.45
X5.625Y-5.7
X5.8Y-4.9
X5.9Y-5.6
X6.Y-5.8
X6.1Y-5.6
X6.125Y-5.325
X6.2Y-4.9
X6.3Y-5.3
X6.3Y-5.575
X6.4Y-5.8
X6.4Y-6.1
X6.5Y-5.3
X6.5Y-5.6
X6.55Y-5.25
X6.6Y-5.6
X6.6Y-5.675
X6.7Y-5.2
X6.75Y-5.75
X6.8Y-5.3
X6.8Y-5.7
T2
X6.8Y-5.42
X6.8Y-5.4987
X6.8Y-5.5775
T3
X5.8Y-4.974
X5.8Y-5.1
X5.8984Y-4.974
X5.8984Y-5.1
X5.9969Y-4.974
X5.9969Y-5.1
T4
X4.5Y-5.5
X4.5Y-5.6
X4.5Y-5.9
X4.5Y-6.
X4.7Y-5.8
X4.7Y-5.9
X4.7Y-6.
X5.2Y-5.
X5.2Y-6.
X5.3Y-5.
X5.3Y-6.
X5.5Y-5.
X5.6Y-5.
X6.2Y-5.
X6.2Y-5.4
X6.2Y-6.
X6.3Y-5.
X6.3Y-5.4
X6.3Y-6.
X6.675Y-4.925
X6.8Y-5.
X6.8Y-5.1
X6.8Y-5.9
X6.8Y-6.
T5
X4.5138Y-5.05
X4.6319Y-5.235
T6
X4.75Y-5.05
T7
X5.Y-5.
X5.Y-6.
X6.5Y-5.
X6.5Y-6.
T0
M30
